<svg id="Group_61179" data-name="Group 61179" xmlns="http://www.w3.org/2000/svg" width="148" height="48" viewBox="0 0 148 48">
  <rect id="Rectangle_731" data-name="Rectangle 731" width="148" height="48" rx="24" fill="#fff"/>
  <g id="Group_61178" data-name="Group 61178" transform="translate(21 11)">
    <path id="Path_204793" data-name="Path 204793" d="M69.736,38.169A5.291,5.291,0,0,1,72.2,33.88,5.686,5.686,0,0,0,68.093,31.6c-1.734-.183-3.468,1-4.289,1-.913,0-2.282-1-3.742-1a5.422,5.422,0,0,0-4.654,2.829C53.4,37.9,54.86,43.006,56.777,45.835c1,1.369,2.1,2.92,3.559,2.829s2.008-.913,3.742-.913,2.19.913,3.742.913,2.555-1.369,3.468-2.738a10.461,10.461,0,0,0,1.551-3.194A5.046,5.046,0,0,1,69.736,38.169Z" transform="translate(-54.444 -25.343)" fill="#141414"/>
    <path id="Path_204794" data-name="Path 204794" d="M67.782,29.25a5.66,5.66,0,0,0,1.186-3.65,4.887,4.887,0,0,0-3.285,1.734A4.615,4.615,0,0,0,64.5,30.8,4.335,4.335,0,0,0,67.782,29.25Z" transform="translate(-55.32 -24.821)" fill="#141414"/>
    <path id="Path_204795" data-name="Path 204795" d="M94,50.1H91.8l-1.2-3.8H86.4l-1.1,3.8H83.2l4.2-12.9H90Zm-3.8-5.4-1.1-3.4c-.1-.3-.3-1.2-.7-2.4h0c-.1.5-.3,1.4-.6,2.4l-1.1,3.4Z" transform="translate(-55.325 -25.9)" fill="#141414"/>
    <path id="Path_204796" data-name="Path 204796" d="M104.7,45.4a5.325,5.325,0,0,1-1.3,3.8,3.847,3.847,0,0,1-2.9,1.2,2.722,2.722,0,0,1-2.6-1.3h0V54H95.8V44c0-1,0-2-.1-3.1h1.8l.1,1.5h0a3.446,3.446,0,0,1,3.1-1.7,3.225,3.225,0,0,1,2.7,1.3A4.237,4.237,0,0,1,104.7,45.4Zm-2.1,0a3.593,3.593,0,0,0-.6-2.2,2.019,2.019,0,0,0-1.8-.9,2.389,2.389,0,0,0-1.4.5,2.223,2.223,0,0,0-.8,1.3,1.759,1.759,0,0,0-.1.6v1.6a2.523,2.523,0,0,0,.6,1.7,1.99,1.99,0,0,0,1.6.7,2.019,2.019,0,0,0,1.8-.9A3.612,3.612,0,0,0,102.6,45.4Z" transform="translate(-55.325 -25.9)" fill="#141414"/>
    <path id="Path_204797" data-name="Path 204797" d="M115.4,45.4a5.325,5.325,0,0,1-1.3,3.8,3.847,3.847,0,0,1-2.9,1.2,2.722,2.722,0,0,1-2.6-1.3h0V54h-2.1V44c0-1,0-2-.1-3.1h1.8l.1,1.5h0a3.446,3.446,0,0,1,3.1-1.7,3.225,3.225,0,0,1,2.7,1.3A4.237,4.237,0,0,1,115.4,45.4Zm-2.1,0a3.593,3.593,0,0,0-.6-2.2,2.019,2.019,0,0,0-1.8-.9,2.389,2.389,0,0,0-1.4.5,2.223,2.223,0,0,0-.8,1.3,1.759,1.759,0,0,0-.1.6v1.6a2.523,2.523,0,0,0,.6,1.7,1.99,1.99,0,0,0,1.6.7,2.019,2.019,0,0,0,1.8-.9A3.612,3.612,0,0,0,113.3,45.4Z" transform="translate(-55.325 -25.9)" fill="#141414"/>
    <path id="Path_204798" data-name="Path 204798" d="M127.4,46.5a3.693,3.693,0,0,1-1.1,2.7,4.761,4.761,0,0,1-3.5,1.1,6.182,6.182,0,0,1-3.3-.8l.5-1.7a6.109,6.109,0,0,0,3,.8,2.969,2.969,0,0,0,1.8-.5,1.816,1.816,0,0,0,.6-1.4,1.9,1.9,0,0,0-.5-1.3,5.011,5.011,0,0,0-1.8-1c-2.3-.8-3.4-2.1-3.4-3.7a3.225,3.225,0,0,1,1.2-2.6,4.554,4.554,0,0,1,3.2-1,6.235,6.235,0,0,1,2.9.6l-.5,1.7a4.871,4.871,0,0,0-2.5-.6,2.86,2.86,0,0,0-1.7.5,1.656,1.656,0,0,0-.5,1.2,1.76,1.76,0,0,0,.6,1.3,7.759,7.759,0,0,0,1.9,1,6.746,6.746,0,0,1,2.5,1.6A4.025,4.025,0,0,1,127.4,46.5Z" transform="translate(-55.325 -25.9)" fill="#141414"/>
    <path id="Path_204799" data-name="Path 204799" d="M134.2,42.4h-2.3v4.5c0,1.1.4,1.7,1.2,1.7a2.22,2.22,0,0,0,.9-.1l.1,1.6a3.664,3.664,0,0,1-1.6.2,2.352,2.352,0,0,1-1.9-.7,3.4,3.4,0,0,1-.7-2.5V42.4h-1.4V40.8h1.4V39.1l2-.6v2.3h2.3Z" transform="translate(-55.325 -25.9)" fill="#141414"/>
    <path id="Path_204800" data-name="Path 204800" d="M144.5,45.4a5.13,5.13,0,0,1-1.2,3.5,4.6,4.6,0,0,1-3.4,1.4,4.223,4.223,0,0,1-3.3-1.4,4.871,4.871,0,0,1-1.2-3.4,4.752,4.752,0,0,1,1.3-3.5,4.441,4.441,0,0,1,3.4-1.4,4.223,4.223,0,0,1,3.3,1.4A5.331,5.331,0,0,1,144.5,45.4Zm-2.2.1a3.8,3.8,0,0,0-.6-2.2,2.191,2.191,0,0,0-3.8,0,4.032,4.032,0,0,0-.6,2.2,3.8,3.8,0,0,0,.6,2.2,2.144,2.144,0,0,0,1.9,1.1,2.265,2.265,0,0,0,1.9-1.1A4.032,4.032,0,0,0,142.3,45.5Z" transform="translate(-55.325 -25.9)" fill="#141414"/>
    <path id="Path_204801" data-name="Path 204801" d="M151.2,42.6c-.2,0-.4-.1-.7-.1a2.136,2.136,0,0,0-1.7.8,3.453,3.453,0,0,0-.5,1.8V50h-2.1V43.6a26.222,26.222,0,0,0-.1-2.9h1.8l.1,1.8h.1a3.956,3.956,0,0,1,1-1.5,2.976,2.976,0,0,1,1.5-.5h.5v2.1Z" transform="translate(-55.325 -25.9)" fill="#141414"/>
    <path id="Path_204802" data-name="Path 204802" d="M160.4,45a2.219,2.219,0,0,1-.1.9h-6.2A2.583,2.583,0,0,0,155,48a3.221,3.221,0,0,0,2,.7,6.566,6.566,0,0,0,2.5-.4l.3,1.4a7.455,7.455,0,0,1-3.1.6,4.375,4.375,0,0,1-3.4-1.3,4.7,4.7,0,0,1-1.2-3.4,5.625,5.625,0,0,1,1.1-3.5,4,4,0,0,1,3.3-1.5,3.328,3.328,0,0,1,3,1.5A4.2,4.2,0,0,1,160.4,45Zm-1.9-.5a2.934,2.934,0,0,0-.4-1.6,1.8,1.8,0,0,0-1.6-.9,1.943,1.943,0,0,0-1.6.8,3.819,3.819,0,0,0-.6,1.6h4.2Z" transform="translate(-55.325 -25.9)" fill="#141414"/>
    <path id="Path_204803" data-name="Path 204803" d="M89.6,29.3a3.253,3.253,0,0,1-1,2.6,4.138,4.138,0,0,1-2.7.8,6.622,6.622,0,0,1-1.5-.1V26.4a9.722,9.722,0,0,1,1.8-.1,3.727,3.727,0,0,1,2.5.7A3.239,3.239,0,0,1,89.6,29.3Zm-1.1,0A2.089,2.089,0,0,0,86.2,27a1.949,1.949,0,0,0-.8.1v4.7h.7a2.445,2.445,0,0,0,1.8-.6A2.707,2.707,0,0,0,88.5,29.3Z" transform="translate(-55.325 -25.9)" fill="#141414"/>
    <path id="Path_204804" data-name="Path 204804" d="M95.2,30.3a2.352,2.352,0,0,1-.6,1.7,2.06,2.06,0,0,1-1.7.7,1.865,1.865,0,0,1-1.6-.7,2.708,2.708,0,0,1,0-3.4,2.06,2.06,0,0,1,1.7-.7,1.865,1.865,0,0,1,1.6.7A2.352,2.352,0,0,1,95.2,30.3Zm-1,0a2.016,2.016,0,0,0-.3-1.1.874.874,0,0,0-.9-.5,1.05,1.05,0,0,0-.9.5,2.167,2.167,0,0,0,0,2.2.874.874,0,0,0,.9.5.961.961,0,0,0,.9-.6A1.493,1.493,0,0,0,94.2,30.3Z" transform="translate(-55.325 -25.9)" fill="#141414"/>
    <path id="Path_204805" data-name="Path 204805" d="M102.9,28l-1.4,4.6h-.9l-.6-2a8.331,8.331,0,0,1-.4-1.5h0a8.33,8.33,0,0,1-.4,1.5l-.6,2h-.9L96.2,28h1l.5,2.2.3,1.5h0c.1-.4.2-.9.4-1.5L99,28h.8l.6,2.1a8.331,8.331,0,0,1,.4,1.5h0l.3-1.5.6-2.1Z" transform="translate(-55.325 -25.9)" fill="#141414"/>
    <path id="Path_204806" data-name="Path 204806" d="M108.1,32.6h-1V30q0-1.2-.9-1.2a.908.908,0,0,0-.7.3,1.136,1.136,0,0,0-.3.8v2.7h-1V28h.9v.7h0a2.651,2.651,0,0,1,.5-.6,1.613,1.613,0,0,1,.9-.3,1.5,1.5,0,0,1,1.1.4,1.721,1.721,0,0,1,.5,1.5Z" transform="translate(-55.325 -25.9)" fill="#141414"/>
    <path id="Path_204807" data-name="Path 204807" d="M110.9,32.6h-1V25.9h1Z" transform="translate(-55.325 -25.9)" fill="#141414"/>
    <path id="Path_204808" data-name="Path 204808" d="M116.9,30.3a2.352,2.352,0,0,1-.6,1.7,2.06,2.06,0,0,1-1.7.7A1.865,1.865,0,0,1,113,32a2.708,2.708,0,0,1,0-3.4,2.413,2.413,0,0,1,1.7-.7,1.865,1.865,0,0,1,1.6.7A2.352,2.352,0,0,1,116.9,30.3Zm-1,0a2.016,2.016,0,0,0-.3-1.1.874.874,0,0,0-.9-.5,1.05,1.05,0,0,0-.9.5,2.167,2.167,0,0,0,0,2.2.874.874,0,0,0,.9.5.961.961,0,0,0,.9-.6A1.493,1.493,0,0,0,115.9,30.3Z" transform="translate(-55.325 -25.9)" fill="#141414"/>
    <path id="Path_204809" data-name="Path 204809" d="M121.8,32.6h-.9l-.1-.5h0a1.612,1.612,0,0,1-1.3.6,1.159,1.159,0,0,1-1-.4,1.8,1.8,0,0,1-.4-.9,1.357,1.357,0,0,1,.7-1.3,3.737,3.737,0,0,1,2-.4v-.1a.8.8,0,0,0-.9-.9,2.375,2.375,0,0,0-1.2.3l-.2-.7a2.537,2.537,0,0,1,1.6-.4c1.2,0,1.8.6,1.8,1.9v1.7A4.907,4.907,0,0,0,121.8,32.6Zm-1-1.6v-.7c-1.1,0-1.7.3-1.7.9a.684.684,0,0,0,.7.7,1.421,1.421,0,0,0,.6-.2,1,1,0,0,0,.4-.5Z" transform="translate(-55.325 -25.9)" fill="#141414"/>
    <path id="Path_204810" data-name="Path 204810" d="M127.6,32.6h-.9v-.7h0a1.476,1.476,0,0,1-1.5.8,1.816,1.816,0,0,1-1.4-.6,2.311,2.311,0,0,1-.5-1.7,2.792,2.792,0,0,1,.6-1.8,1.974,1.974,0,0,1,1.4-.6,1.486,1.486,0,0,1,1.3.6h0V26h1v6.6Zm-1-1.9V29.6a2.092,2.092,0,0,0-.4-.6.844.844,0,0,0-.7-.2,1.05,1.05,0,0,0-.9.5,2.133,2.133,0,0,0-.3,1.2,1.8,1.8,0,0,0,.3,1.1,1.05,1.05,0,0,0,.9.5.909.909,0,0,0,.8-.4A2.236,2.236,0,0,0,126.6,30.7Z" transform="translate(-55.325 -25.9)" fill="#141414"/>
    <path id="Path_204811" data-name="Path 204811" d="M136.3,30.3a2.352,2.352,0,0,1-.6,1.7,2.06,2.06,0,0,1-1.7.7,1.865,1.865,0,0,1-1.6-.7,2.708,2.708,0,0,1,0-3.4,2.06,2.06,0,0,1,1.7-.7,1.865,1.865,0,0,1,1.6.7A2.352,2.352,0,0,1,136.3,30.3Zm-1.1,0a2.016,2.016,0,0,0-.3-1.1.874.874,0,0,0-.9-.5,1.05,1.05,0,0,0-.9.5,2.167,2.167,0,0,0,0,2.2.874.874,0,0,0,.9.5.961.961,0,0,0,.9-.6A1.493,1.493,0,0,0,135.2,30.3Z" transform="translate(-55.325 -25.9)" fill="#141414"/>
    <path id="Path_204812" data-name="Path 204812" d="M141.8,32.6h-1V30q0-1.2-.9-1.2a.908.908,0,0,0-.7.3,1.136,1.136,0,0,0-.3.8v2.7h-1V28h.9v.7h0a2.652,2.652,0,0,1,.5-.6,1.613,1.613,0,0,1,.9-.3,1.5,1.5,0,0,1,1.1.4,1.721,1.721,0,0,1,.5,1.5Z" transform="translate(-55.325 -25.9)" fill="#141414"/>
    <path id="Path_204813" data-name="Path 204813" d="M148.6,28.8h-1.1V31c0,.6.2.8.6.8h.5v.8a1.949,1.949,0,0,1-.8.1.975.975,0,0,1-.9-.4,1.922,1.922,0,0,1-.3-1.2V28.8h-.7V28h.7v-.8l1-.3V28h1.1v.8Z" transform="translate(-55.325 -25.9)" fill="#141414"/>
    <path id="Path_204814" data-name="Path 204814" d="M154,32.6h-1V30q0-1.2-.9-1.2a.963.963,0,0,0-1,.7v3.1h-1V25.9h1v2.8h0a1.6,1.6,0,0,1,1.4-.8,1.159,1.159,0,0,1,1,.4,2.25,2.25,0,0,1,.5,1.5Z" transform="translate(-55.325 -25.9)" fill="#141414"/>
    <path id="Path_204815" data-name="Path 204815" d="M159.5,30.1v.5h-3a1.333,1.333,0,0,0,.4,1,1.689,1.689,0,0,0,1,.3,3.73,3.73,0,0,0,1.2-.2l.2.7a3.339,3.339,0,0,1-1.5.3,2.409,2.409,0,0,1-1.7-4,1.865,1.865,0,0,1,1.6-.7,1.579,1.579,0,0,1,1.5.7A2.649,2.649,0,0,1,159.5,30.1Zm-.9-.3a1.884,1.884,0,0,0-.2-.8.812.812,0,0,0-.8-.4.909.909,0,0,0-.8.4,1.136,1.136,0,0,0-.3.8Z" transform="translate(-55.325 -25.9)" fill="#141414"/>
  </g>
</svg>
