<svg xmlns="http://www.w3.org/2000/svg" xmlns:xlink="http://www.w3.org/1999/xlink" width="20" height="24" viewBox="0 0 20 24">
  <defs>
    <linearGradient id="linear-gradient" x1="-0.405" y1="2.028" x2="2.828" y2="-4.648" gradientUnits="objectBoundingBox">
      <stop offset="0" stop-color="#fff"/>
      <stop offset="0.515" stop-color="#db3128"/>
      <stop offset="1" stop-color="#383838"/>
    </linearGradient>
  </defs>
  <path id="Delete_icon" data-name="Delete icon" d="M16327.457-17250c-3.729,0-3.863-2.027-3.988-3.814l-.719-11.369,1.383-.09.717,11.369a3.709,3.709,0,0,0,.4,1.854c.322.428,1.047.635,2.211.635h7.086c1.172,0,1.895-.207,2.211-.635a3.731,3.731,0,0,0,.4-1.859l.717-11.363,1.377.09-.721,11.369c-.123,1.787-.258,3.814-3.988,3.814Zm1.7-6.213v-1.414h3.674v1.414Zm-.916-4.516v-1.414h5.518v1.414Zm1.627-7.932a63.948,63.948,0,0,0-6.484.336l-2.254.229-.129-1.408,2.246-.221c1.191-.121,2.393-.211,3.59-.271l-.379-.064.242-1.477c.178-1.1.408-2.463,2.854-2.463h2.893c2.459,0,2.688,1.43,2.855,2.479l.24,1.461-.633.109c2.025.094,4.064.242,6.092.447l-.137,1.408A108.64,108.64,0,0,0,16329.871-17268.66Zm4.287-1.32-.215-1.311c-.154-.973-.205-1.3-1.494-1.3h-2.893c-.631,0-1.035.1-1.2.295a2.219,2.219,0,0,0-.289.99l-.213,1.271c.674-.021,1.348-.033,2.018-.033C16331.291-17270.066,16332.723-17270.039,16334.158-17269.98Z" transform="translate(-16321.004 17274)" fill="url(#linear-gradient)"/>
</svg>
