<svg xmlns="http://www.w3.org/2000/svg" width="110" height="176" viewBox="0 0 110 176">
  <g id="Delete_confirmaton" data-name="Delete confirmaton" transform="translate(-332.855 -98.072)">
    <g id="Group_60589" data-name="Group 60589" transform="translate(332.855 98.072)">
      <g id="Group_60588" data-name="Group 60588" transform="translate(0 0)">
        <path id="Path_204321" data-name="Path 204321" d="M22.9,21.931a1.4,1.4,0,0,0,1.186-.65,1.353,1.353,0,0,0,.062-1.334L21.58,14.867a7.154,7.154,0,0,0-2.272-2.924,9.721,9.721,0,0,0-3.181-1.237,14.95,14.95,0,0,1-1.542-.454,4.355,4.355,0,0,1-2.543-2.363,2.868,2.868,0,0,1,.044-2.356c.927-1.9,4-3.111,6.58-2.6A1.394,1.394,0,0,0,20.31,1.861,1.373,1.373,0,0,0,19.218.244c-3.842-.763-8.17,1.076-9.648,4.1A5.541,5.541,0,0,0,9.448,8.9a7.126,7.126,0,0,0,4.133,3.913,17.308,17.308,0,0,0,1.839.549,7.632,7.632,0,0,1,2.291.833,4.732,4.732,0,0,1,1.371,1.9l2.571,5.079a1.4,1.4,0,0,0,1.25.76Z" transform="translate(-9.017 -0.072)" fill="#b51613"/>
        <path id="Path_204322" data-name="Path 204322" d="M1.408,108.681a1.516,1.516,0,0,0,.273-.026,1.481,1.481,0,0,0,.26-.078,1.416,1.416,0,0,0,.24-.126,1.379,1.379,0,0,0,.212-.17,1.453,1.453,0,0,0,.175-.209,1.468,1.468,0,0,0,.128-.238,1.356,1.356,0,0,0,.078-.256,1.311,1.311,0,0,0,.028-.269,1.293,1.293,0,0,0-.028-.268,1.416,1.416,0,0,0-.078-.257,1.471,1.471,0,0,0-.128-.236,1.455,1.455,0,0,0-.175-.209,1.283,1.283,0,0,0-.212-.17,1.393,1.393,0,0,0-.24-.126,1.455,1.455,0,0,0-.26-.079,1.417,1.417,0,0,0-1.047.2,1.283,1.283,0,0,0-.212.17,1.455,1.455,0,0,0-.175.209,1.471,1.471,0,0,0-.128.236,1.417,1.417,0,0,0-.078.258,1.292,1.292,0,0,0-.028.267,1.312,1.312,0,0,0,.028.269,1.362,1.362,0,0,0,.078.256,1.468,1.468,0,0,0,.128.238,1.453,1.453,0,0,0,.175.209,1.379,1.379,0,0,0,.212.17,1.411,1.411,0,0,0,.5.2A1.5,1.5,0,0,0,1.408,108.681Z" transform="translate(14.531 -81.842)" fill="#b51613"/>
      </g>
    </g>
    <g id="Group_60603" data-name="Group 60603" transform="translate(349.999 112.695)">
      <g id="Group_60602" data-name="Group 60602" transform="translate(0 0)">
        <g id="Group_60601" data-name="Group 60601">
          <g id="Group_60590" data-name="Group 60590" transform="translate(17.383 84.795)">
            <path id="Path_204323" data-name="Path 204323" d="M77.565,387.018a1.341,1.341,0,0,1-.518-.1,1.391,1.391,0,0,1-.752-1.807l4.723-11.7a1.365,1.365,0,0,1,2.257-.441A54.313,54.313,0,0,0,98.77,384.275a1.393,1.393,0,0,1,.64,1.851,1.365,1.365,0,0,1-1.832.647,56.981,56.981,0,0,1-14.8-10.39l-3.945,9.772A1.371,1.371,0,0,1,77.565,387.018Z" transform="translate(-76.193 -372.544)" fill="#9b9b9b"/>
          </g>
          <g id="Group_60591" data-name="Group 60591" transform="translate(0 142.179)">
            <path id="Path_204324" data-name="Path 204324" d="M1.372,642.263a1.366,1.366,0,0,1-.96-.394,1.4,1.4,0,0,1-.02-1.962l14.373-14.833a1.363,1.363,0,0,1,1.94-.021,1.4,1.4,0,0,1,.02,1.962L2.352,641.847A1.362,1.362,0,0,1,1.372,642.263Z" transform="translate(0 -624.659)" fill="#da5b4f"/>
          </g>
          <g id="Group_60592" data-name="Group 60592" transform="translate(12.749)">
            <path id="Path_204325" data-name="Path 204325" d="M76.63,42.678a32.424,32.424,0,0,1-4.493-.318A38.27,38.27,0,0,1,56.5,36.294h0a1.4,1.4,0,0,1-.4-1.92,1.363,1.363,0,0,1,1.9-.4h0c1.559,1.027,7.158-2.331,8.718-4.185a55.482,55.482,0,0,0,6.857-10.146l1.22.635-1.22-.635c2.5-4.908,4.247-10.615,5.668-18.5a1.387,1.387,0,0,1,.666-.954,1.36,1.36,0,0,1,1.15-.1l23.161,8.447a4.085,4.085,0,0,1,2.266,1.6,4.077,4.077,0,0,1,.458,2.254,31.877,31.877,0,0,1-18.14,27.656A28.946,28.946,0,0,1,76.63,42.678ZM61.9,36.232c8.608,4.335,17.984,4.854,25.778,1.279a29.05,29.05,0,0,0,16.531-25.2,2.284,2.284,0,0,0-.059-.741,2.538,2.538,0,0,0-.853-.43L81.648,3.244a66.739,66.739,0,0,1-5.629,17.668h0a58.268,58.268,0,0,1-7.207,10.673A20.92,20.92,0,0,1,61.9,36.232Z" transform="translate(-55.88 0)" fill="#9b9b9b"/>
          </g>
          <g id="Group_60593" data-name="Group 60593" transform="translate(16.363 46.061)">
            <path id="Path_204326" data-name="Path 204326" d="M94.588,238.954c-6.67,0-13.561-3.789-17.7-10.032A32.718,32.718,0,0,1,72.2,216.572,26.369,26.369,0,0,1,73,203.28l0,0a1.368,1.368,0,0,1,1.761-.824,1.388,1.388,0,0,1,.891,1.457c.232.395,1.471,1.942,7.873,5.748,3.969,2.36,8,4.446,8.943,4.9a72.149,72.149,0,0,0,21.319,6.473,1.373,1.373,0,0,1,1.02.715,1.4,1.4,0,0,1,.032,1.254c-2.317,4.922-7.542,13.483-16.51,15.537A16.769,16.769,0,0,1,94.588,238.954ZM74.823,207.038c-1.312,7,1.046,15.357,4.348,20.341,4.3,6.493,11.932,9.97,18.557,8.453,6.925-1.585,11.4-7.829,13.8-12.343a74.96,74.96,0,0,1-20.231-6.426c-1.107-.533-5.714-2.924-9.984-5.511A45.332,45.332,0,0,1,74.823,207.038Z" transform="translate(-71.724 -202.367)" fill="#9b9b9b"/>
          </g>
          <g id="Group_60594" data-name="Group 60594" transform="translate(26.836 28.328)">
            <path id="Path_204327" data-name="Path 204327" d="M119,138.195a1.374,1.374,0,0,1-1.294-.925,1.39,1.39,0,0,1,.837-1.769,16.954,16.954,0,0,0,9.582-8.743c.271-.579.991-2.119,2.571-2.133a3.014,3.014,0,0,1,1.151.259,23.575,23.575,0,0,0,7.42,1.9,9.478,9.478,0,0,0,6.66-1.991,1.362,1.362,0,0,1,1.934.162,1.4,1.4,0,0,1-.16,1.955,12.167,12.167,0,0,1-8.56,2.646,26.006,26.006,0,0,1-8.285-2.081,4.434,4.434,0,0,0-.249.474,19.726,19.726,0,0,1-11.149,10.172A1.375,1.375,0,0,1,119,138.195Zm11.645-10.8Z" transform="translate(-117.625 -124.459)" fill="#9b9b9b"/>
          </g>
          <g id="Group_60595" data-name="Group 60595" transform="translate(22.434 70.678)">
            <path id="Path_204328" data-name="Path 204328" d="M124.343,317.721a14.184,14.184,0,0,1-9.742-3.91,13.134,13.134,0,0,1-15.754-.168,1.4,1.4,0,0,1-.216-1.95,1.363,1.363,0,0,1,1.928-.218,10.414,10.414,0,0,0,13.206-.572,1.363,1.363,0,0,1,1.992.11,11.234,11.234,0,0,0,10.99,3.656,1.372,1.372,0,0,1,1.651,1.03,1.388,1.388,0,0,1-1.019,1.669A13.072,13.072,0,0,1,124.343,317.721Z" transform="translate(-98.332 -310.522)" fill="#9b9b9b"/>
          </g>
          <g id="Group_60596" data-name="Group 60596" transform="translate(7.405 96.32)">
            <path id="Path_204329" data-name="Path 204329" d="M94.76,429.272c1.377,5.376,1.3,11.037.821,16.565a71.23,71.23,0,0,1-3.321,16.139c-3.169,9.629-7.041,19.42-6.379,29.577H48.5c.662-10.158-3.21-19.949-6.379-29.577A71.222,71.222,0,0,1,38.8,445.837c-.477-5.528-.556-11.189.821-16.565Z" transform="translate(-37.108 -427.885)" fill="#b51613"/>
            <path id="Path_204330" data-name="Path 204330" d="M81.233,488.236H43.847a1.363,1.363,0,0,1-1-.44,1.393,1.393,0,0,1-.368-1.039c.564-8.639-2.328-17.212-5.125-25.5-.392-1.162-.8-2.365-1.187-3.545a72.749,72.749,0,0,1-3.386-16.459c-.411-4.761-.685-11,.859-17.031a1.377,1.377,0,0,1,1.328-1.04H90.111a1.377,1.377,0,0,1,1.328,1.04c1.544,6.031,1.271,12.27.86,17.031a72.749,72.749,0,0,1-3.386,16.459c-.389,1.181-.794,2.381-1.186,3.544-2.8,8.289-5.689,16.862-5.126,25.5a1.393,1.393,0,0,1-.367,1.039A1.362,1.362,0,0,1,81.233,488.236Zm-35.951-2.773H79.8c-.213-8.665,2.6-17.014,5.332-25.1.391-1.157.794-2.353,1.18-3.523a69.963,69.963,0,0,0,3.256-15.825,50.9,50.9,0,0,0-.536-15.056H36.05a50.9,50.9,0,0,0-.536,15.056,69.943,69.943,0,0,0,3.256,15.825c.386,1.17.789,2.368,1.18,3.526C42.679,468.449,45.5,476.8,45.282,485.462Z" transform="translate(-32.459 -423.18)" fill="#b51613"/>
          </g>
          <g id="Group_60599" data-name="Group 60599" transform="translate(23.537 113.225)">
            <g id="Group_60597" data-name="Group 60597">
              <path id="Path_204331" data-name="Path 204331" d="M104.538,526.482a1.364,1.364,0,0,1-.955-.39,1.4,1.4,0,0,1-.031-1.962l25.154-26.258a1.361,1.361,0,0,1,1.94-.032,1.4,1.4,0,0,1,.032,1.961L105.524,526.06A1.36,1.36,0,0,1,104.538,526.482Z" transform="translate(-103.166 -497.449)" fill="#fff"/>
            </g>
            <g id="Group_60598" data-name="Group 60598" transform="translate(0 0)">
              <path id="Path_204332" data-name="Path 204332" d="M129.693,526.483a1.363,1.363,0,0,1-.986-.423L103.552,499.8a1.4,1.4,0,0,1,.032-1.962,1.362,1.362,0,0,1,1.94.032l25.154,26.259a1.4,1.4,0,0,1-.032,1.961A1.357,1.357,0,0,1,129.693,526.483Z" transform="translate(-103.166 -497.449)" fill="#fff"/>
            </g>
          </g>
          <g id="Group_60600" data-name="Group 60600" transform="translate(63.002 68.845)">
            <path id="Path_204333" data-name="Path 204333" d="M277.522,332.639a1.364,1.364,0,0,1-.971-.405,1.4,1.4,0,0,1,0-1.962l27.11-27.4a1.361,1.361,0,0,1,1.94,0,1.4,1.4,0,0,1,0,1.961l-27.109,27.4A1.36,1.36,0,0,1,277.522,332.639Z" transform="translate(-276.15 -302.467)" fill="#b51613"/>
          </g>
        </g>
      </g>
    </g>
    <g id="Group_60605" data-name="Group 60605" transform="matrix(0.751, 0.66, -0.66, 0.751, 422.895, 98.521)">
      <g id="Group_60604" data-name="Group 60604" transform="translate(0 0)">
        <path id="Path_204334" data-name="Path 204334" d="M3.325,9.487a1.569,1.569,0,0,1-1.514-1.15L.052,1.992a1.575,1.575,0,0,1,3.034-.848L4.845,7.489a1.578,1.578,0,0,1-1.519,2Z" transform="translate(-0.019 5.352)" fill="#b51613"/>
        <path id="Path_204335" data-name="Path 204335" d="M1.527,14.56A1.572,1.572,0,0,1,0,12.6L2.879,1.178a1.573,1.573,0,1,1,3.053.762L3.055,13.367A1.579,1.579,0,0,1,1.527,14.56Z" transform="translate(9.575 -0.034)" fill="#b51613"/>
        <path id="Path_204336" data-name="Path 204336" d="M1.552,7.136A1.572,1.572,0,0,1,.612,4.3L5.981.29A1.572,1.572,0,1,1,7.863,2.809L2.494,6.823a1.57,1.57,0,0,1-.942.313Z" transform="translate(16.544 9.233)" fill="#b51613"/>
      </g>
    </g>
  </g>
</svg>
