<svg id="Group_61176" data-name="Group 61176" xmlns="http://www.w3.org/2000/svg" xmlns:xlink="http://www.w3.org/1999/xlink" width="148" height="48" viewBox="0 0 148 48">
  <defs>
    <linearGradient id="linear-gradient" x1="0.295" y1="-0.061" x2="0.551" y2="0.922" gradientUnits="objectBoundingBox">
      <stop offset="0" stop-color="#006884"/>
      <stop offset="1" stop-color="#8ad1d0"/>
    </linearGradient>
    <linearGradient id="linear-gradient-2" x1="-0.075" y1="0.158" x2="0.915" y2="0.863" gradientUnits="objectBoundingBox">
      <stop offset="0" stop-color="#24bbb6"/>
      <stop offset="1" stop-color="#dbe692"/>
    </linearGradient>
    <linearGradient id="linear-gradient-3" x1="0.499" y1="1.058" x2="0.499" y2="-0.031" gradientUnits="objectBoundingBox">
      <stop offset="0" stop-color="#fcc072"/>
      <stop offset="1" stop-color="#f58a5b"/>
    </linearGradient>
    <linearGradient id="linear-gradient-4" x1="0.112" y1="1.178" x2="0.904" y2="0.121" gradientUnits="objectBoundingBox">
      <stop offset="0" stop-color="#712b8f"/>
      <stop offset="1" stop-color="#ea1d27"/>
    </linearGradient>
  </defs>
  <rect id="Rectangle_730" data-name="Rectangle 730" width="148" height="48" rx="24" fill="#fff"/>
  <path id="Path_204761" data-name="Path 204761" d="M195.3,37.117v-9.61a1,1,0,0,1,.915-1.007,1.366,1.366,0,0,1,.915.275l17.664,9.7a.763.763,0,0,1,0,1.464l-17.664,9.7a1.8,1.8,0,0,1-.915.275,1,1,0,0,1-.915-1.007Z" transform="translate(-175.572 -13.508)" fill-rule="evenodd" fill="url(#linear-gradient)"/>
  <path id="Path_204762" data-name="Path 204762" d="M206.808,37.208,196.1,26.5h.183a1.366,1.366,0,0,1,.915.275l13,7.139Z" transform="translate(-175.64 -13.508)" fill-rule="evenodd" fill="url(#linear-gradient-2)"/>
  <path id="Path_204763" data-name="Path 204763" d="M211.095,41.081,207.8,37.786l3.386-3.386,4.668,2.563a.763.763,0,0,1,0,1.464Z" transform="translate(-176.631 -14.178)" fill-rule="evenodd" fill="url(#linear-gradient-3)"/>
  <path id="Path_204764" data-name="Path 204764" d="M196.2,48.717h0L206.817,38.1l3.295,3.295-12.9,7.047a1.472,1.472,0,0,1-1.007.275Z" transform="translate(-175.648 -14.492)" fill-rule="evenodd" fill="url(#linear-gradient-4)"/>
  <path id="Path_204765" data-name="Path 204765" d="M256.6,52.4a4.789,4.789,0,0,1-1.1-1.5l1.6-.7a9.222,9.222,0,0,0,.5.8,2.469,2.469,0,0,0,1.6.8,2.289,2.289,0,0,0,1.7-.8,3.1,3.1,0,0,0,.5-1.7v-.6c-1.2,1.5-3.7,1.3-5.1-.3a4.43,4.43,0,0,1,0-5.9c1.5-1.5,3.7-1.7,5-.3h0v-.7H263V49a4.333,4.333,0,0,1-1.6,3.7,3.691,3.691,0,0,1-2.3.7,4.589,4.589,0,0,1-2.5-1Zm41.9.4h0l1.7-4-3-6.9h1.7l2.1,4.9,2.1-4.9h1.7l-4.6,10.9h-1.7ZM290.4,49h0a2.64,2.64,0,0,1-.7-1.9,2.271,2.271,0,0,1,.6-1.6,3.857,3.857,0,0,1,2.8-1,3.424,3.424,0,0,1,1.8.4,1.7,1.7,0,0,0-1.8-1.7,1.848,1.848,0,0,0-1.7,1.1l-1.5-.6a3.176,3.176,0,0,1,3.1-2,3.392,3.392,0,0,1,2.6,1,3.688,3.688,0,0,1,.8,2.6v4.2h-1.7v-.7a3.114,3.114,0,0,1-.9.7,3.194,3.194,0,0,1-1.4.3,3.861,3.861,0,0,1-2-.8Zm-53.3-3.6h0a4.152,4.152,0,0,1,4.2-4.2,4.218,4.218,0,0,1,4.2,4.2,4.2,4.2,0,1,1-8.4,0Zm9,0h0a4.152,4.152,0,0,1,4.2-4.2,4.218,4.218,0,0,1,4.2,4.2,4.152,4.152,0,0,1-4.2,4.2,4.218,4.218,0,0,1-4.2-4.2Zm-20.3,2.2h0a6.581,6.581,0,0,1,.1-9.2,6.349,6.349,0,0,1,4.6-1.9,6.2,6.2,0,0,1,4.4,1.8l-1.2,1.3a4.467,4.467,0,0,0-6.4.1,4.831,4.831,0,0,0,0,6.7,4.535,4.535,0,0,0,6.6.1,3.6,3.6,0,0,0,.9-2.2h-4.2V42.5h5.9a6.149,6.149,0,0,1,.1,1.4,5.76,5.76,0,0,1-1.6,4,6.131,6.131,0,0,1-4.3,1.7,7.426,7.426,0,0,1-4.9-2Zm42.3.7h0a4.562,4.562,0,0,1,0-6,3.637,3.637,0,0,1,5.4,0,5.927,5.927,0,0,1,1.1,1.9l-5.5,2.3a2.133,2.133,0,0,0,2,1.3,2.265,2.265,0,0,0,2.1-1.2l1.5,1h0a2.651,2.651,0,0,0-.5.6,4.379,4.379,0,0,1-6.1.1Zm10.4,1.2h0V38.4h3.6a3.591,3.591,0,0,1,3.8,3.3,3.351,3.351,0,0,1-3.4,3.3h-2.2v4.4h-1.8Zm8.4,0h0V38.4h1.7V49.5Zm-22.6-.2h0V36.9h1.8V49.3h-1.8Zm30.5-3.1h0a2.726,2.726,0,0,0-1.6-.4c-1.2,0-1.9.6-1.9,1.3a1.257,1.257,0,0,0,1.4,1.1,2.09,2.09,0,0,0,2.1-2Zm-51.2-.8h0a2.308,2.308,0,1,0-2.3,2.5,2.433,2.433,0,0,0,2.3-2.5Zm9,0h0a2.308,2.308,0,1,0-2.3,2.5,2.365,2.365,0,0,0,2.3-2.5Zm8.9.7h0a.367.367,0,0,1,.1-.3h0v-.9c0-.1-.1-.3-.1-.4a2.32,2.32,0,0,0-2.1-1.7,2.428,2.428,0,0,0-2.2,2.5,2.375,2.375,0,0,0,2.3,2.5c.8.1,1.6-.6,2-1.7Zm7.3-.9h0l3.7-1.6a1.669,1.669,0,0,0-1.5-.9,2.424,2.424,0,0,0-2.2,2.5Zm15.3-3.4h0a1.74,1.74,0,0,0-1.9-1.7h-2v3.5h2.1A1.793,1.793,0,0,0,284.1,41.8Z" transform="translate(-176.5 -14.5)" fill="#141414" fill-rule="evenodd"/>
  <path id="Path_204766" data-name="Path 204766" d="M299.8,50.8h-.1v-.1h0v.1h0Z" transform="translate(-176.5 -14.5)" fill="#141414" fill-rule="evenodd"/>
  <path id="Path_204767" data-name="Path 204767" d="M299.8,50.8Zm0-.1Z" transform="translate(-176.5 -14.5)" fill="#141414" fill-rule="evenodd"/>
  <path id="Path_204768" data-name="Path 204768" d="M299.8,50.8h0v-.1h0v.1Z" transform="translate(-176.5 -14.5)" fill="#141414" fill-rule="evenodd"/>
  <path id="Path_204769" data-name="Path 204769" d="M299.8,50.8Zm0-.1Z" transform="translate(-176.5 -14.5)" fill="#141414" fill-rule="evenodd"/>
  <path id="Path_204770" data-name="Path 204770" d="M299.8,50.7h0v.1h0v-.1Z" transform="translate(-176.5 -14.5)" fill="#141414" fill-rule="evenodd"/>
  <path id="Path_204771" data-name="Path 204771" d="M299.8,50.8h0v-.1h0v.1Z" transform="translate(-176.5 -14.5)" fill="#141414" fill-rule="evenodd"/>
  <path id="Path_204772" data-name="Path 204772" d="M299.8,50.8Zm0,0Z" transform="translate(-176.5 -14.5)" fill="#141414" fill-rule="evenodd"/>
  <path id="Path_204773" data-name="Path 204773" d="M299.9,50.8Zm0-.1Zm0,.1Z" transform="translate(-176.5 -14.5)" fill="#141414" fill-rule="evenodd"/>
  <path id="Path_204774" data-name="Path 204774" d="M299.9,50.7h0v.1h0Z" transform="translate(-176.5 -14.5)" fill="#141414" fill-rule="evenodd"/>
  <path id="Path_204775" data-name="Path 204775" d="M299.9,50.8h0v-.1h0v.1Z" transform="translate(-176.5 -14.5)" fill="#141414" fill-rule="evenodd"/>
  <path id="Path_204776" data-name="Path 204776" d="M299.9,50.8Zm0-.1Z" transform="translate(-176.5 -14.5)" fill="#141414" fill-rule="evenodd"/>
  <path id="Path_204777" data-name="Path 204777" d="M299.9,50.8Z" transform="translate(-176.5 -14.5)" fill="#141414" fill-rule="evenodd"/>
  <path id="Path_204778" data-name="Path 204778" d="M300,50.8Zm0-.1h0c0,.1-.1.1,0,0Z" transform="translate(-176.5 -14.5)" fill="#141414" fill-rule="evenodd"/>
  <path id="Path_204779" data-name="Path 204779" d="M300,50.8v-.1h0v.1h0v-.1h0v.1h0v-.1h0Z" transform="translate(-176.5 -14.5)" fill="#141414" fill-rule="evenodd"/>
  <path id="Path_204780" data-name="Path 204780" d="M300,50.8Zm0-.1Z" transform="translate(-176.5 -14.5)" fill="#141414" fill-rule="evenodd"/>
  <path id="Path_204781" data-name="Path 204781" d="M300,50.8Z" transform="translate(-176.5 -14.5)" fill="#141414" fill-rule="evenodd"/>
  <path id="Path_204782" data-name="Path 204782" d="M300.1,50.7h0v.1h0v-.1Z" transform="translate(-176.5 -14.5)" fill="#141414" fill-rule="evenodd"/>
  <path id="Path_204783" data-name="Path 204783" d="M300.1,50.8h0v-.1h0v.1Z" transform="translate(-176.5 -14.5)" fill="#141414" fill-rule="evenodd"/>
  <path id="Path_204784" data-name="Path 204784" d="M300.1,50.8Zm0-.1Z" transform="translate(-176.5 -14.5)" fill="#141414" fill-rule="evenodd"/>
  <path id="Path_204785" data-name="Path 204785" d="M224.4,28.6a2.782,2.782,0,0,1,2.9-2.9,2.658,2.658,0,0,1,2.3,1.2l-.8.5a1.806,1.806,0,0,0-1.5-.7,2,2,0,0,0,0,4,1.972,1.972,0,0,0,1.3-.5v-.9H227v-.9h2.7v2.1a2.927,2.927,0,0,1-2.3,1A2.865,2.865,0,0,1,224.4,28.6Z" transform="translate(-176.5 -14.5)" fill="#141414"/>
  <path id="Path_204786" data-name="Path 204786" d="M230.9,31.4V25.8h3.8v.9h-2.9v1.4h2.8V29h-2.8v1.6h2.9v.9l-3.8-.1Z" transform="translate(-176.5 -14.5)" fill="#141414"/>
  <path id="Path_204787" data-name="Path 204787" d="M237.5,31.4V26.7h-1.7v-.9h4.4v.9h-1.7v4.7h-1Z" transform="translate(-176.5 -14.5)" fill="#141414"/>
  <path id="Path_204788" data-name="Path 204788" d="M243.6,31.4V25.8h1v5.6Z" transform="translate(-176.5 -14.5)" fill="#141414"/>
  <path id="Path_204789" data-name="Path 204789" d="M247.3,31.4V26.7h-1.7v-.9H250v.9h-1.7v4.7h-1Z" transform="translate(-176.5 -14.5)" fill="#141414"/>
  <path id="Path_204790" data-name="Path 204790" d="M253.2,28.6a2.9,2.9,0,1,1,2.9,2.9A2.84,2.84,0,0,1,253.2,28.6Zm4.7,0a1.813,1.813,0,0,0-1.9-2,1.923,1.923,0,0,0-1.9,2,1.813,1.813,0,0,0,1.9,2A1.864,1.864,0,0,0,257.9,28.6Z" transform="translate(-176.5 -14.5)" fill="#141414"/>
  <path id="Path_204791" data-name="Path 204791" d="M264,31.4l-2.9-4v4h-1V25.8h1l2.9,3.9V25.8h1v5.6Z" transform="translate(-176.5 -14.5)" fill="#141414"/>
</svg>
