<svg xmlns="http://www.w3.org/2000/svg" xmlns:xlink="http://www.w3.org/1999/xlink" width="1432.411" height="1284" viewBox="0 0 1432.411 1284">
  <defs>
    <linearGradient id="linear-gradient" x1="0.595" y1="0.683" x2="0.137" y2="0.136" gradientUnits="objectBoundingBox">
      <stop offset="0" stop-color="#fff"/>
      <stop offset="1" stop-color="gray" stop-opacity="0"/>
    </linearGradient>
    <linearGradient id="linear-gradient-6" x1="0.65" y1="0.373" x2="0.066" y2="0.879" xlink:href="#linear-gradient"/>
    <linearGradient id="linear-gradient-11" x1="0.5" y1="0.387" x2="0.693" y2="0.704" xlink:href="#linear-gradient"/>
    <linearGradient id="linear-gradient-16" x1="0.301" y1="0.908" x2="0.835" y2="0.314" xlink:href="#linear-gradient"/>
  </defs>
  <g id="Group_61260" data-name="Group 61260" opacity="0.06" style="isolation: isolate">
    <path id="Path_204826" data-name="Path 204826" d="M913.446,1188.11a322.634,322.634,0,0,1-63.66-6.193,279.368,279.368,0,0,1-57.155-17.954,247.886,247.886,0,0,1-48.85-28.414,227.1,227.1,0,0,1-39.361-37.57,216.838,216.838,0,0,1-43.4-87.491,232.109,232.109,0,0,1-6.252-50.995,260.648,260.648,0,0,1,5.218-54.5,294.955,294.955,0,0,1,17.806-57.148,329.819,329.819,0,0,1,28.813-53.236,367.065,367.065,0,0,1,38.337-48.186,396.555,396.555,0,0,1,46.381-42,410.463,410.463,0,0,1,52.949-34.677,406.237,406.237,0,0,1,58.042-26.216,387.359,387.359,0,0,1,61.661-16.614,361.9,361.9,0,0,1,63.8-5.87h.612l.109.6c9.743,54.048,22.345,109.014,37.456,163.371l.257.925-.96,0c-113.309.2-222.385,84.387-243.149,187.66a162.784,162.784,0,0,0-.643,63.474,142.928,142.928,0,0,0,22.641,54.069c22.454,32.6,58.442,55.552,101.336,64.626l-.3,1.43a187.007,187.007,0,0,1-31.516-9.587,169,169,0,0,1-27.84-14.39,155.818,155.818,0,0,1-23.721-18.709,147.454,147.454,0,0,1-19.16-22.541,144.21,144.21,0,0,1-14.158-25.884,146.847,146.847,0,0,1-8.714-28.734,164.239,164.239,0,0,1,.645-64.042A196.191,196.191,0,0,1,832.517,935.3a219.359,219.359,0,0,1,19.163-35.406,244.108,244.108,0,0,1,25.494-32.044,263.678,263.678,0,0,1,30.841-27.928,272.945,272.945,0,0,1,35.208-23.058,270.13,270.13,0,0,1,38.595-17.432,257.6,257.6,0,0,1,41-11.048,240.883,240.883,0,0,1,41.472-3.9c-14.953-53.9-27.442-108.386-37.122-161.977-170.5.614-334.5,127.346-365.75,282.771-14.369,71.469,1.3,139.576,44.129,191.775a225.628,225.628,0,0,0,39.108,37.327,246.424,246.424,0,0,0,48.561,28.246c36.241,15.942,76.683,24.023,120.21,24.023h.632a358.437,358.437,0,0,0,52.59-4.026l.218,1.445a359.9,359.9,0,0,1-52.8,4.042Z" transform="translate(-175.612 -166.796)" fill="#fff"/>
    <path id="Path_204827" data-name="Path 204827" d="M1120.68,1359.252c-7.659,0-21.083-.73-35.131-1.912-15.3-1.288-27.76-2.805-34.179-4.163l.3-1.43c13.682,2.894,52.934,6.072,69.217,6.044l0,1.462Z" transform="translate(-281.847 -362.828)" fill="#fff"/>
    <g id="Group_61220" data-name="Group 61220" transform="translate(484.255 454.159)">
      <g id="Group_61217" data-name="Group 61217" transform="translate(0 0)">
        <path id="Path_204828" data-name="Path 204828" d="M1030.29,620.944l.126.694c9.743,54.05,22.345,109.016,37.457,163.371l.257.925-.96,0c-113.308.2-222.384,84.387-243.149,187.66l-.185.922-.847-.407c-52.741-25.309-106.783-48.288-160.624-68.3l-.585-.217.123-.612a294.959,294.959,0,0,1,17.805-57.148A329.84,329.84,0,0,1,708.521,794.6a367.068,367.068,0,0,1,38.337-48.186,396.554,396.554,0,0,1,46.381-42,410.488,410.488,0,0,1,52.949-34.677,406.247,406.247,0,0,1,58.042-26.216,387.383,387.383,0,0,1,61.661-16.614,361.883,361.883,0,0,1,63.753-5.869Zm35.918,163.533c-14.953-53.894-27.441-108.385-37.122-161.977-170.282.614-334.077,127.008-365.627,282.159,53.4,19.869,106.992,42.649,159.316,67.728a196.464,196.464,0,0,1,11.656-37.093,219.353,219.353,0,0,1,19.163-35.406,244.112,244.112,0,0,1,25.494-32.044,263.688,263.688,0,0,1,30.842-27.928,272.928,272.928,0,0,1,35.208-23.058,270.125,270.125,0,0,1,38.595-17.432,257.6,257.6,0,0,1,41-11.048A240.877,240.877,0,0,1,1066.208,784.477Z" transform="translate(-661.78 -620.944)" fill="#fff"/>
        <path id="Path_204829" data-name="Path 204829" d="M1031.688,825.7c-31.975-50.4-63.145-101-92.643-150.4l1.255-.749c29.491,49.389,60.654,99.979,92.623,150.366Z" transform="translate(-736.093 -635.211)" fill="#fff"/>
        <path id="Path_204830" data-name="Path 204830" d="M896.073,930.645c-45.471-39.961-91.5-79.071-136.817-116.245l.927-1.13c45.327,37.184,91.371,76.305,136.855,116.277Z" transform="translate(-687.831 -672.465)" fill="#fff"/>
      </g>
      <g id="Group_61218" data-name="Group 61218" transform="translate(208.243 189.706)">
        <path id="Path_204831" data-name="Path 204831" d="M954.623,1079.566l-1.433-.288a166.957,166.957,0,0,1,10.078-32.347,186.649,186.649,0,0,1,16.305-30.127,207.7,207.7,0,0,1,21.691-27.264,224.339,224.339,0,0,1,26.24-23.761,232.226,232.226,0,0,1,29.954-19.618,229.8,229.8,0,0,1,32.836-14.831,219.155,219.155,0,0,1,34.885-9.4,204.766,204.766,0,0,1,36.1-3.321l0,1.462C1064.978,920.244,972.27,991.793,954.623,1079.566Z" transform="translate(-948.152 -890.465)" fill="#fff"/>
        <path id="Path_204832" data-name="Path 204832" d="M1025.129,1127l-1.433-.288a139.716,139.716,0,0,1,8.435-27.073,156.192,156.192,0,0,1,13.646-25.213,173.787,173.787,0,0,1,18.152-22.815,187.73,187.73,0,0,1,21.957-19.883,194.307,194.307,0,0,1,25.064-16.415,192.32,192.32,0,0,1,27.476-12.41,183.4,183.4,0,0,1,29.192-7.866,171.354,171.354,0,0,1,30.211-2.779l0,1.462C1117.35,993.866,1039.876,1053.656,1025.129,1127Z" transform="translate(-967.063 -910.219)" fill="#fff"/>
        <path id="Path_204833" data-name="Path 204833" d="M1163.958,1031.419c-33.245-49.5-66.325-100.169-98.321-150.6l1.234-.783c31.989,50.421,65.062,101.08,98.3,150.569Z" transform="translate(-978.287 -880.034)" fill="#fff"/>
        <path id="Path_204834" data-name="Path 204834" d="M1080.992,1095.672c-43.921-41.241-89.263-82.427-134.766-122.414l.965-1.1c45.516,40,90.87,81.195,134.8,122.447Z" transform="translate(-946.226 -904.783)" fill="#fff"/>
      </g>
      <g id="Group_61219" data-name="Group 61219" transform="translate(161.207 351.846)">
        <path id="Path_204835" data-name="Path 204835" d="M1036.3,1185.857c-49.666-29.645-101.615-57.519-154.4-82.846l.632-1.318c52.829,25.346,104.817,53.24,154.521,82.908Z" transform="translate(-881.894 -1101.694)" fill="#fff"/>
        <path id="Path_204836" data-name="Path 204836" d="M1106.115,1302.777c-46.617,0-91.932-18.415-121.581-50.216a132.163,132.163,0,0,1-17.4-23.3,125.253,125.253,0,0,1-11.817-27.072c-6.054-20.075-7.069-41.679-3.018-64.211l1.439.259c-9.86,54.841,11.888,91.9,31.868,113.328,33.337,35.757,86.692,54.434,139.245,48.743l.157,1.453A175.57,175.57,0,0,1,1106.115,1302.777Z" transform="translate(-900.229 -1111.294)" fill="#fff"/>
        <path id="Path_204837" data-name="Path 204837" d="M1143.195,1312.219a148.28,148.28,0,0,1-29.907-2.982,130.619,130.619,0,0,1-26.913-8.623,118.314,118.314,0,0,1-23.081-13.61,110.362,110.362,0,0,1-18.692-17.939,106.183,106.183,0,0,1-21.161-42.466,112,112,0,0,1-3.1-24.628,123.413,123.413,0,0,1,2.458-26.178l1.433.288c-6.857,34.1.78,66.8,21.5,92.057,22.23,27.094,57.745,42.62,97.469,42.62h.274l0,1.462Z" transform="translate(-919.125 -1121.44)" fill="#fff"/>
        <path id="Path_204838" data-name="Path 204838" d="M1045.037,1275.911a1039.956,1039.956,0,0,0-150.574-43.334l.3-1.431a1041.41,1041.41,0,0,1,150.786,43.4Z" transform="translate(-885.223 -1136.429)" fill="#fff"/>
        <path id="Path_204839" data-name="Path 204839" d="M1139.436,1348.591c-41.344-9.9-120.75-23.776-162.31-24.069l.01-1.462c10,.071,22.584.914,37.414,2.505,13.323,1.43,28.213,3.435,44.256,5.958,28.54,4.489,58.809,10.338,80.97,15.646Z" transform="translate(-907.359 -1161.085)" fill="#fff"/>
      </g>
      <path id="Path_204840" data-name="Path 204840" d="M1297.641,1227.844c-33.767-47.411-63.882-90.97-97.643-141.237l1.213-.815c33.754,50.256,63.861,93.8,97.621,141.2Z" transform="translate(-806.08 -745.52)" fill="#fff"/>
    </g>
    <path id="Path_204841" data-name="Path 204841" d="M1425.413,1154.566l-1.326-.614c5.292-11.425,10.043-36.663,13.188-53.363.727-3.861,1.355-7.2,1.91-9.957a174.559,174.559,0,0,0,3.373-28.766l1.461.046a176.011,176.011,0,0,1-3.4,29.008c-.553,2.752-1.18,6.083-1.906,9.939-1.6,8.475-3.582,19.022-5.829,28.855C1430.233,1141.305,1427.79,1149.434,1425.413,1154.566Z" transform="translate(-381.942 -284.862)" fill="#fff"/>
    <g id="Group_61223" data-name="Group 61223" transform="translate(851.299 454.275)">
      <g id="Group_61221" data-name="Group 61221" transform="translate(0 0)">
        <path id="Path_204842" data-name="Path 204842" d="M1367.91,979.523l1.4-6.956c9.521-47.355-.843-92.493-29.183-127.1-30.984-37.834-81.283-59.533-138-59.533h-.971l-.149-.536c-15.123-54.4-27.736-109.409-37.487-163.5l-.155-.859.873,0h.626a322.493,322.493,0,0,1,64.137,6.29,279.114,279.114,0,0,1,57.021,18.007,247.718,247.718,0,0,1,48.73,28.429,226.993,226.993,0,0,1,39.261,37.552,216.823,216.823,0,0,1,43.295,87.437,232.15,232.15,0,0,1,6.228,50.952,260.727,260.727,0,0,1-5.22,54.454l-.354,1.761-.491-.759A210.951,210.951,0,0,0,1370.7,973ZM1202.265,784.474a214.39,214.39,0,0,1,42.515,4.184,185.653,185.653,0,0,1,37.93,11.98,164.822,164.822,0,0,1,32.421,18.916,151.057,151.057,0,0,1,26.125,24.989,144.3,144.3,0,0,1,28.813,58.186,154.485,154.485,0,0,1,4.145,33.9,171.478,171.478,0,0,1-2.361,30.178,213.451,213.451,0,0,1,45.072-63.163c14.278-71.317-1.361-139.284-44.045-191.405-46.661-56.977-122.379-89.678-207.767-89.742C1174.8,676.093,1187.3,730.583,1202.265,784.474Z" transform="translate(-1163.364 -621.036)" fill="#fff"/>
        <path id="Path_204843" data-name="Path 204843" d="M1433.77,929.278l-1.422-.336a519.284,519.284,0,0,1,43.047-116.748l1.3.665A517.839,517.839,0,0,0,1433.77,929.278Z" transform="translate(-1235.469 -672.208)" fill="#fff"/>
        <path id="Path_204844" data-name="Path 204844" d="M1351.271,824.737l-1.462,0A947.793,947.793,0,0,1,1362.3,674.045l1.443.237A946.319,946.319,0,0,0,1351.271,824.737Z" transform="translate(-1213.335 -635.102)" fill="#fff"/>
      </g>
      <g id="Group_61222" data-name="Group 61222" transform="translate(37.383 163.441)">
        <path id="Path_204845" data-name="Path 204845" d="M1384.471,1032.763l-1.433-.288c9.531-47.406-.862-92.579-29.265-127.2-30.9-37.657-80.927-59.288-137.372-59.432,15.064,54.093,32.731,108.043,52.517,160.367l-1.367.517c-19.914-52.665-37.684-106.974-52.816-161.42l-.257-.925.96,0a214.611,214.611,0,0,1,42.752,4.119,185.831,185.831,0,0,1,38.021,11.943,164.922,164.922,0,0,1,32.5,18.9,151.119,151.119,0,0,1,26.192,25,144.3,144.3,0,0,1,28.88,58.222,154.451,154.451,0,0,1,4.16,33.932A173.408,173.408,0,0,1,1384.471,1032.763Z" transform="translate(-1214.478 -844.381)" fill="#fff"/>
        <path id="Path_204846" data-name="Path 204846" d="M1375.208,1116.152l-1.433-.288c9.971-49.591-4.506-107.131-36.881-146.591-26.037-31.735-61.316-49.2-99.358-49.2h-.223l0-1.462h.233a122.3,122.3,0,0,1,56.588,13.661,132.606,132.606,0,0,1,23.7,15.718,149.664,149.664,0,0,1,20.19,20.359c16.071,19.588,28.054,43.732,34.656,69.824C1379.317,1064.4,1380.191,1091.366,1375.208,1116.152Z" transform="translate(-1220.363 -864.29)" fill="#fff"/>
        <path id="Path_204847" data-name="Path 204847" d="M1381.494,1136.777l-1.433-.288c7.2-35.809-1.609-72.117-24.168-99.612-22.837-27.834-56.3-43.155-94.234-43.155h-.253l0-1.462h.25a133.084,133.084,0,0,1,28.653,3.07,122.745,122.745,0,0,1,25.886,8.813,118.168,118.168,0,0,1,64.177,78.291,121.486,121.486,0,0,1,3.584,26.592A125.976,125.976,0,0,1,1381.494,1136.777Z" transform="translate(-1226.825 -884.045)" fill="#fff"/>
        <path id="Path_204848" data-name="Path 204848" d="M1413.732,1094.55a509.75,509.75,0,0,1,13.614-122.873l1.422.336a508.3,508.3,0,0,0-13.574,122.52Z" transform="translate(-1267.855 -878.384)" fill="#fff"/>
        <path id="Path_204849" data-name="Path 204849" d="M1361.4,1030.781a950.568,950.568,0,0,1-11.589-150.858l1.462,0a949.108,949.108,0,0,0,11.571,150.625Z" transform="translate(-1250.717 -853.733)" fill="#fff"/>
      </g>
      <path id="Path_204850" data-name="Path 204850" d="M1387.184,1186.014a925.48,925.48,0,0,1-21.545-99.983l1.444-.228a923.979,923.979,0,0,0,21.51,99.824Z" transform="translate(-1217.579 -745.54)" fill="#fff"/>
    </g>
    <g id="Group_61225" data-name="Group 61225" transform="translate(645.462 805.962)">
      <path id="Path_204851" data-name="Path 204851" d="M1036.3,1185.857c-49.666-29.645-101.615-57.519-154.4-82.846l.632-1.318c52.829,25.346,104.817,53.24,154.521,82.908Z" transform="translate(-881.894 -1101.694)" fill="#fff"/>
      <g id="Group_61224" data-name="Group 61224" transform="translate(201.928 114)">
        <path id="Path_204852" data-name="Path 204852" d="M1187.872,1330.692a70.983,70.983,0,0,1-14.885-13.836,67.531,67.531,0,0,1-10.1-17.322,69.778,69.778,0,0,1-4.67-20.092,79.371,79.371,0,0,1,1.38-22.141l1.433.288c-5.818,28.939,4.526,55.818,27.671,71.9Z" transform="translate(-1157.973 -1257.302)" fill="#fff"/>
        <path id="Path_204853" data-name="Path 204853" d="M1227.513,1332.762a54.377,54.377,0,0,1-3.354-15.257,61.772,61.772,0,0,1,1.106-16.743l1.433.288a56.5,56.5,0,0,0,2.182,31.193Z" transform="translate(-1175.682 -1268.959)" fill="#fff"/>
      </g>
    </g>
    <g id="Group_61226" data-name="Group 61226" transform="translate(645.462 805.984)">
      <path id="Path_204854" data-name="Path 204854" d="M1036.3,1185.857c-49.666-29.645-101.615-57.519-154.4-82.846l.632-1.318c52.829,25.346,104.817,53.24,154.521,82.908Z" transform="translate(-881.894 -1101.694)" fill="#fff"/>
    </g>
    <g id="Group_61229" data-name="Group 61229" transform="translate(498.697 643.839)">
      <g id="Group_61227" data-name="Group 61227" transform="translate(193.801 0)">
        <path id="Path_204855" data-name="Path 204855" d="M1163.958,1031.419c-33.245-49.5-66.325-100.169-98.321-150.6l1.234-.783c31.989,50.421,65.062,101.08,98.3,150.569Z" transform="translate(-978.287 -880.034)" fill="#fff"/>
        <path id="Path_204856" data-name="Path 204856" d="M1080.992,1095.672c-43.921-41.241-89.263-82.427-134.766-122.414l.965-1.1c45.516,40,90.87,81.195,134.8,122.447Z" transform="translate(-946.226 -904.783)" fill="#fff"/>
      </g>
      <path id="Path_204857" data-name="Path 204857" d="M987.819,1268.463a1039.955,1039.955,0,0,0-150.568-43.333l-8.722-1.638c-62.506-11.745-79.305-14.9-147.286-18.674l.081-1.46c68.076,3.777,84.9,6.938,147.475,18.7l8.729,1.639.014,0a1041.379,1041.379,0,0,1,150.787,43.4Z" transform="translate(-681.242 -966.839)" fill="#fff"/>
      <g id="Group_61228" data-name="Group 61228" transform="translate(300.723 135.177)">
        <path id="Path_204858" data-name="Path 204858" d="M1217.188,1257.216c-45.294-33.368-73.963-51.174-124.293-81.218l-.444-.265.1-.507a114.7,114.7,0,0,1,6.924-22.225,128.219,128.219,0,0,1,11.2-20.695,142.644,142.644,0,0,1,14.9-18.725,154.067,154.067,0,0,1,18.019-16.317,159.464,159.464,0,0,1,20.569-13.471,157.825,157.825,0,0,1,22.548-10.184,150.517,150.517,0,0,1,23.957-6.455,140.634,140.634,0,0,1,24.8-2.281h.506l.179.473c20.61,54.5,33.856,87.067,57.866,135.984l-1.312.644c-11.874-24.192-21.281-44.738-30.5-66.621-9.691-23-18.816-46.748-27.239-69.016-65.566.367-128.571,48.973-140.873,108.672,25.293,15.1,44.8,26.938,63.664,39.155,19.752,12.788,38.349,25.7,60.3,41.875Z" transform="translate(-1092.451 -1064.872)" fill="#fff"/>
        <path id="Path_204859" data-name="Path 204859" d="M1161.634,1225.442l-1.433-.288a91.742,91.742,0,0,1,5.539-17.779,102.547,102.547,0,0,1,8.958-16.552,114.072,114.072,0,0,1,11.914-14.975,123.224,123.224,0,0,1,14.409-13.048,127.513,127.513,0,0,1,16.447-10.771,126.192,126.192,0,0,1,18.03-8.143,120.336,120.336,0,0,1,19.158-5.162,112.487,112.487,0,0,1,19.829-1.824l0,1.462C1221.9,1138.456,1171.269,1177.52,1161.634,1225.442Z" transform="translate(-1110.597 -1084.191)" fill="#fff"/>
        <path id="Path_204860" data-name="Path 204860" d="M1227.153,1276.149l-1.433-.288a74.7,74.7,0,0,1,11.249-26.639,88.485,88.485,0,0,1,9.241-11.615,95.544,95.544,0,0,1,11.175-10.119,98.857,98.857,0,0,1,12.755-8.353,97.846,97.846,0,0,1,13.983-6.316,89.712,89.712,0,0,1,30.24-5.418l0,1.462C1273.721,1208.935,1234.6,1239.12,1227.153,1276.149Z" transform="translate(-1128.171 -1103.1)" fill="#fff"/>
        <path id="Path_204861" data-name="Path 204861" d="M1253.861,1260.524c-41.057-41.348-79.135-78.349-123.465-119.975l1-1.066c44.342,41.638,82.431,78.651,123.5,120.011Z" transform="translate(-1102.549 -1084.834)" fill="#fff"/>
      </g>
      <path id="Path_204862" data-name="Path 204862" d="M1192.137,1331.371a995.271,995.271,0,0,0-91.879-39.564l.51-1.37a996.745,996.745,0,0,1,92.015,39.623Z" transform="translate(-793.682 -990.183)" fill="#fff"/>
    </g>
    <g id="Group_61231" data-name="Group 61231" transform="translate(888.681 617.689)">
      <path id="Path_204863" data-name="Path 204863" d="M1384.471,1032.763l-1.433-.288c9.531-47.406-.862-92.579-29.265-127.2-30.9-37.657-80.927-59.288-137.372-59.432,15.064,54.093,32.731,108.043,52.517,160.367l-1.367.517c-19.914-52.665-37.684-106.974-52.816-161.42l-.257-.925.96,0a214.611,214.611,0,0,1,42.752,4.119,185.831,185.831,0,0,1,38.021,11.943,164.922,164.922,0,0,1,32.5,18.9,151.119,151.119,0,0,1,26.192,25,144.3,144.3,0,0,1,28.88,58.222,154.451,154.451,0,0,1,4.16,33.932A173.408,173.408,0,0,1,1384.471,1032.763Z" transform="translate(-1214.478 -844.381)" fill="#fff"/>
      <g id="Group_61230" data-name="Group 61230" transform="translate(74.623 214.065)">
        <path id="Path_204864" data-name="Path 204864" d="M1389.858,1181.668c-11.521-26.719-39.694-43.3-73.545-43.3h-.187l0-1.462h.194a98.1,98.1,0,0,1,25.046,3.147,82.305,82.305,0,0,1,21.45,8.979,69.6,69.6,0,0,1,28.386,32.057Z" transform="translate(-1316.125 -1136.906)" fill="#fff"/>
        <path id="Path_204865" data-name="Path 204865" d="M1382.952,1218.593c-10.17-6.366-22.682-9.729-36.189-9.729h-.147l0-1.462h.151a75.9,75.9,0,0,1,19.971,2.587,63.453,63.453,0,0,1,16.993,7.366Z" transform="translate(-1324.302 -1155.814)" fill="#fff"/>
      </g>
    </g>
    <g id="Group_61232" data-name="Group 61232" transform="translate(888.681 617.707)">
      <path id="Path_204866" data-name="Path 204866" d="M1384.471,1032.763l-1.433-.288c9.531-47.406-.862-92.579-29.265-127.2-30.9-37.657-80.927-59.288-137.372-59.432,15.064,54.093,32.731,108.043,52.517,160.367l-1.367.517c-19.914-52.665-37.684-106.974-52.816-161.42l-.257-.925.96,0a214.611,214.611,0,0,1,42.752,4.119,185.831,185.831,0,0,1,38.021,11.943,164.922,164.922,0,0,1,32.5,18.9,151.119,151.119,0,0,1,26.192,25,144.3,144.3,0,0,1,28.88,58.222,154.451,154.451,0,0,1,4.16,33.932A173.408,173.408,0,0,1,1384.471,1032.763Z" transform="translate(-1214.478 -844.381)" fill="#fff"/>
    </g>
    <g id="Group_61233" data-name="Group 61233" transform="translate(11.689)">
      <path id="Path_204868" data-name="Path 204868" d="M850.406,0l-.176.877c-8.747,43.5-14.321,90.8-16.569,140.564l-.031.7h-.7c-309.458.556-607.362,230.5-664.077,512.59l-.136.677-.684-.1c-51.95-7.391-102.253-11.138-149.512-11.138h-1.6l-.894,0,.176-.877A652.382,652.382,0,0,1,33.04,577.632c6.67-21.353,14.574-42.81,23.492-63.777,8.8-20.695,18.8-41.408,29.728-61.566,10.8-19.931,22.759-39.792,35.543-59.032,12.665-19.061,26.44-37.961,40.94-56.175,14.4-18.084,29.845-35.915,45.917-53,15.994-17,32.976-33.651,50.476-49.494,17.456-15.8,35.832-31.17,54.616-45.67s38.411-28.47,58.337-41.523c19.975-13.085,40.714-25.551,61.64-37.052,21.028-11.558,42.738-22.411,64.525-32.259,21.944-9.919,44.483-19.051,66.992-27.143,22.719-8.168,45.948-15.47,69.04-21.7,23.354-6.3,47.131-11.668,70.67-15.941,23.848-4.329,48.032-7.645,71.882-9.854C801.038,1.2,825.489.045,849.512,0ZM832.232,140.679C834.489,91.425,840,44.6,848.621,1.466,461.628,2.616,89.256,290.032,17.813,642.709h.711c47.12,0,97.26,3.72,149.035,11.055A521.241,521.241,0,0,1,180.87,602c5.327-17.054,11.64-34.191,18.763-50.937,7.03-16.528,15.018-33.071,23.743-49.17,8.626-15.918,18.177-31.78,28.387-47.146,10.115-15.223,21.116-30.317,32.7-44.864,11.5-14.443,23.836-28.683,36.671-42.324,12.773-13.576,26.336-26.875,40.311-39.527,13.941-12.622,28.616-24.893,43.617-36.473s30.676-22.737,46.589-33.161c15.952-10.45,32.515-20.405,49.227-29.591,16.794-9.23,34.131-17.9,51.531-25.763,17.525-7.921,35.525-15.215,53.5-21.677,18.144-6.523,36.695-12.355,55.137-17.333,18.651-5.035,37.64-9.318,56.439-12.731,19.046-3.457,38.36-6.105,57.407-7.87C793.983,141.659,813.27,140.734,832.232,140.679Z" transform="translate(-16.026 0)" fill="url(#linear-gradient)"/>
      <path id="Path_204869" data-name="Path 204869" d="M84.238,661.172l-1.433-.288a608.223,608.223,0,0,1,15.7-61.22c6.219-19.907,13.588-39.912,21.9-59.459,8.206-19.294,17.531-38.605,27.715-57.4,10.069-18.582,21.218-37.1,33.137-55.035C193.063,410,205.9,392.381,219.423,375.4c13.422-16.86,27.825-33.483,42.808-49.408,14.911-15.848,30.743-31.372,47.058-46.143,16.274-14.734,33.405-29.059,50.917-42.577s35.81-26.542,54.387-38.711c18.622-12.2,37.957-23.821,57.466-34.544,19.6-10.775,39.844-20.894,60.156-30.075,20.458-9.247,41.471-17.761,62.456-25.305,21.181-7.615,42.836-14.422,64.365-20.234,21.773-5.878,43.94-10.878,65.885-14.861,22.233-4.036,44.78-7.127,67.014-9.187,22.561-2.09,45.357-3.171,67.753-3.211l0,1.462C498.329,63.254,150.462,331.77,84.238,661.172Z" transform="translate(-33.893 -16.399)" fill="url(#linear-gradient)"/>
      <path id="Path_204870" data-name="Path 204870" d="M153.256,682.116l-1.433-.288a564.366,564.366,0,0,1,14.566-56.8c5.77-18.471,12.608-37.033,20.323-55.171,7.615-17.9,16.267-35.82,25.716-53.257,9.343-17.241,19.688-34.422,30.747-51.065,10.956-16.489,22.871-32.838,35.415-48.594,12.454-15.643,25.817-31.067,39.72-45.843,13.835-14.7,28.525-29.109,43.663-42.814,15.1-13.671,31-26.963,47.244-39.505s33.227-24.627,50.463-35.918c17.279-11.318,35.218-22.1,53.32-32.051,18.19-10,36.969-19.386,55.815-27.905,18.982-8.58,38.479-16.48,57.949-23.48,19.653-7.065,39.746-13.382,59.721-18.774,20.2-5.454,40.769-10.093,61.131-13.789,20.629-3.745,41.549-6.613,62.18-8.524,20.934-1.94,42.085-2.942,62.865-2.979l0,1.462C537.422,127.418,214.7,376.525,153.256,682.116Z" transform="translate(-52.405 -33.621)" fill="url(#linear-gradient)"/>
      <path id="Path_204871" data-name="Path 204871" d="M703.207,244.517c-22.3-44.01-42.006-85.371-58.557-122.932l1.338-.589c16.541,37.538,36.231,78.874,58.523,122.861Z" transform="translate(-184.576 -32.344)" fill="url(#linear-gradient)"/>
      <path id="Path_204872" data-name="Path 204872" d="M355.48,513.393c-41.956-28.8-81.892-54.509-118.7-76.4l.747-1.256c36.834,21.909,76.8,47.631,118.78,76.453Z" transform="translate(-75.107 -116.845)" fill="url(#linear-gradient)"/>
    </g>
    <g id="Group_61234" data-name="Group 61234" transform="translate(0 642.355)">
      <path id="Path_204873" data-name="Path 204873" d="M14.182,878.274c47.326,0,97.7,3.752,149.718,11.152l.766.109-.153.759c-26.031,129.471,2.316,252.893,79.818,347.528a409.11,409.11,0,0,0,70.75,67.672,446.591,446.591,0,0,0,87.847,51.253c65.861,29.084,139.4,43.831,218.581,43.831h1.131l1.107,0-.433,1.019c-14.717,34.633-26.613,74.245-35.358,117.737l-.118.586h-2.015c-25.107,0-50.171-1.219-74.5-3.623a703.724,703.724,0,0,1-70.792-10.625,654.686,654.686,0,0,1-66.756-17.258,612.688,612.688,0,0,1-62.388-23.524,577.149,577.149,0,0,1-57.688-29.423,547.694,547.694,0,0,1-52.657-34.953,524.17,524.17,0,0,1-47.293-40.114,506.672,506.672,0,0,1-41.6-44.907,491.832,491.832,0,0,1-98.015-197.95,515.331,515.331,0,0,1-10.167-56.548,538.521,538.521,0,0,1-3.934-58.815,570.721,570.721,0,0,1,2.546-60.8,612.976,612.976,0,0,1,9.275-62.513l.118-.586h2.2Zm148.746,12.491c-51.682-7.319-101.72-11.029-148.746-11.029H13.177c-32.41,162,3.132,316.413,100.109,434.83a512.5,512.5,0,0,0,88.638,84.779,559.482,559.482,0,0,0,110.057,64.207c82.51,36.433,174.644,54.906,273.842,54.906h.817c8.667-42.935,20.4-82.091,34.9-116.417h-.028c-20.05,0-40.066-.974-59.492-2.894a561.939,561.939,0,0,1-56.536-8.486,522.882,522.882,0,0,1-53.315-13.785,489.338,489.338,0,0,1-49.828-18.79,461.03,461.03,0,0,1-46.076-23.5,437.487,437.487,0,0,1-42.059-27.919,418.731,418.731,0,0,1-37.776-32.043,404.678,404.678,0,0,1-33.227-35.871,392.879,392.879,0,0,1-78.294-158.113,411.591,411.591,0,0,1-8.122-45.166,430.065,430.065,0,0,1-3.144-46.975,455.742,455.742,0,0,1,2.033-48.562A489.235,489.235,0,0,1,162.928,890.765Z" transform="translate(0.002 -878.274)" fill="url(#linear-gradient-6)"/>
      <path id="Path_204874" data-name="Path 204874" d="M613.887,1478.175c-23.023,0-45.994-1.1-68.3-3.264a656.806,656.806,0,0,1-66.148-9.815,610.993,610.993,0,0,1-62.381-16.023,571.741,571.741,0,0,1-58.3-21.887,538.5,538.5,0,0,1-53.915-27.406A510.94,510.94,0,0,1,255.62,1367.2a488.948,488.948,0,0,1-44.2-37.41,472.531,472.531,0,0,1-38.882-41.894,458.564,458.564,0,0,1-91.6-184.669,480.351,480.351,0,0,1-9.51-52.765,501.944,501.944,0,0,1-3.688-54.883,531.933,531.933,0,0,1,2.366-56.74A571.313,571.313,0,0,1,78.752,880.5l1.433.288c-30.432,151.363,2.766,295.613,93.479,406.178a477.914,477.914,0,0,0,82.833,79.062,521.865,521.865,0,0,0,102.842,59.818c76.735,33.754,162.358,50.866,254.508,50.866h1.338l0,1.462Z" transform="translate(-18.155 -878.725)" fill="url(#linear-gradient-6)"/>
      <path id="Path_204875" data-name="Path 204875" d="M644.612,1440.164c-21.362,0-42.677-1.018-63.378-3.029a609.383,609.383,0,0,1-61.377-9.107,566.912,566.912,0,0,1-57.882-14.868,530.447,530.447,0,0,1-54.1-20.309,499.654,499.654,0,0,1-50.027-25.43,474.094,474.094,0,0,1-45.666-30.231,453.677,453.677,0,0,1-41.017-34.713,438.457,438.457,0,0,1-36.079-38.874,425.5,425.5,0,0,1-85-171.355,445.721,445.721,0,0,1-8.824-48.961,465.762,465.762,0,0,1-3.422-50.925,493.6,493.6,0,0,1,2.2-52.648,530.114,530.114,0,0,1,8.028-54.129l1.433.288c-28.232,140.417,2.565,274.235,86.717,376.8,45.207,55.1,103.159,98.446,172.247,128.837,71.187,31.314,150.62,47.188,236.108,47.188h1.242l0,1.462Z" transform="translate(-36.96 -880.089)" fill="url(#linear-gradient-6)"/>
      <path id="Path_204876" data-name="Path 204876" d="M59.575,1302.022l-.636-1.317a850.656,850.656,0,0,1,145.1-54.117l.386,1.41A849.175,849.175,0,0,0,59.575,1302.022Z" transform="translate(-15.704 -977.055)" fill="url(#linear-gradient-6)"/>
      <path id="Path_204877" data-name="Path 204877" d="M341.533,1598.713l-1.119-.941A700.077,700.077,0,0,1,443.95,1497.31l.9,1.151A698.618,698.618,0,0,0,341.533,1598.713Z" transform="translate(-91.26 -1044.27)" fill="url(#linear-gradient-6)"/>
    </g>
    <g id="Group_61235" data-name="Group 61235" transform="translate(587.531 639.827)">
      <path id="Path_204878" data-name="Path 204878" d="M801.308,1519l.176-.877c8.766-43.591,20.692-83.3,35.447-118.021l.189-.444h.483c309.458-.556,607.362-230.5,664.078-512.589l.1-.482.483-.092c40.138-7.655,84.729-11.58,132.536-11.666l.894,0-.176.877a652.4,652.4,0,0,1-16.838,65.664c-6.671,21.353-14.575,42.81-23.493,63.777-8.8,20.695-18.8,41.408-29.728,61.566-10.8,19.931-22.759,39.792-35.543,59.032-12.666,19.061-26.44,37.961-40.94,56.175-14.4,18.084-29.845,35.914-45.917,53-15.994,17-32.976,33.651-50.476,49.494-17.457,15.8-35.832,31.17-54.616,45.67s-38.411,28.47-58.337,41.523c-19.975,13.084-40.714,25.551-61.641,37.052-21.028,11.557-42.738,22.411-64.525,32.259-21.944,9.919-44.483,19.051-66.992,27.143-22.719,8.168-45.948,15.47-69.04,21.7-23.354,6.3-47.131,11.668-70.67,15.941-23.848,4.329-48.032,7.645-71.881,9.854-24.2,2.242-48.651,3.4-72.674,3.444Zm36.78-117.881c-14.531,34.293-26.3,73.452-34.994,116.416,386.991-1.15,759.364-288.565,830.809-641.242-47.187.132-91.214,4.016-130.887,11.546a521.188,521.188,0,0,1-13.351,51.963c-5.328,17.054-11.64,34.192-18.763,50.937-7.03,16.528-15.018,33.071-23.742,49.17-8.626,15.918-18.177,31.78-28.387,47.146-10.115,15.223-21.116,30.317-32.7,44.864-11.5,14.443-23.836,28.683-36.671,42.324-12.773,13.576-26.336,26.875-40.311,39.527-13.941,12.622-28.616,24.893-43.617,36.473s-30.676,22.737-46.589,33.161c-15.952,10.449-32.515,20.405-49.227,29.591-16.794,9.23-34.131,17.9-51.531,25.763-17.525,7.921-35.525,15.214-53.5,21.677-18.144,6.523-36.695,12.355-55.137,17.333-18.651,5.035-37.64,9.318-56.439,12.731-19.046,3.458-38.36,6.105-57.407,7.87C876.48,1400.142,857.119,1401.067,838.088,1401.116Z" transform="translate(-801.308 -874.824)" fill="url(#linear-gradient-11)"/>
      <path id="Path_204879" data-name="Path 204879" d="M815.606,1477.315l0-1.462c361.362-.649,709.229-269.165,775.453-598.567l1.433.288a608.188,608.188,0,0,1-15.7,61.219c-6.219,19.907-13.588,39.912-21.9,59.459-8.206,19.294-17.531,38.605-27.715,57.4-10.069,18.582-21.218,37.1-33.137,55.035-11.808,17.771-24.649,35.391-38.168,52.372-13.422,16.86-27.824,33.483-42.808,49.408-14.911,15.848-30.743,31.372-47.058,46.143-16.274,14.734-33.405,29.059-50.917,42.577s-35.81,26.542-54.387,38.711c-18.622,12.2-37.957,23.821-57.466,34.544-19.6,10.775-39.844,20.894-60.156,30.075-20.458,9.247-41.471,17.761-62.455,25.305-21.181,7.615-42.836,14.422-64.365,20.234-21.773,5.878-43.94,10.878-65.885,14.862-22.233,4.036-44.78,7.127-67.014,9.187C860.8,1476.194,838,1477.275,815.606,1477.315Z" transform="translate(-804.92 -875.338)" fill="url(#linear-gradient-11)"/>
      <path id="Path_204880" data-name="Path 204880" d="M831.764,1439.363l0-1.462c335.241-.6,657.966-249.709,719.407-555.3l1.433.288a564.426,564.426,0,0,1-14.566,56.8c-5.77,18.471-12.608,37.033-20.323,55.171-7.615,17.9-16.267,35.82-25.716,53.258-9.343,17.241-19.688,34.422-30.747,51.065-10.956,16.489-22.871,32.838-35.414,48.594-12.454,15.643-25.817,31.067-39.72,45.843-13.835,14.7-28.525,29.109-43.663,42.814-15.1,13.671-31,26.963-47.244,39.505s-33.227,24.627-50.463,35.918c-17.279,11.318-35.218,22.1-53.32,32.051-18.19,10-36.969,19.386-55.816,27.905-18.982,8.58-38.479,16.479-57.949,23.479-19.653,7.065-39.746,13.382-59.721,18.774-20.2,5.453-40.769,10.093-61.131,13.789-20.629,3.745-41.549,6.613-62.179,8.524C873.7,1438.323,852.545,1439.326,831.764,1439.363Z" transform="translate(-809.254 -876.764)" fill="url(#linear-gradient-11)"/>
      <path id="Path_204881" data-name="Path 204881" d="M1296.345,1596.9c-16.557-37.573-29.928-71.272-39.745-100.16l1.384-.47c9.8,28.848,23.159,62.506,39.7,100.041Z" transform="translate(-923.374 -1041.381)" fill="url(#linear-gradient-11)"/>
      <path id="Path_204882" data-name="Path 204882" d="M1682.756,1299.174c-36.8-21.888-70.4-39.921-99.854-53.6l.615-1.326c29.5,13.7,63.143,31.751,99.986,53.665Z" transform="translate(-1010.797 -973.893)" fill="url(#linear-gradient-11)"/>
    </g>
    <g id="Group_61236" data-name="Group 61236" transform="translate(827.823 0.001)">
      <path id="Path_204883" data-name="Path 204883" d="M1589.925,653.488l.214-1.066c26.031-129.471-2.316-252.893-79.818-347.528a409.116,409.116,0,0,0-70.75-67.672,446.6,446.6,0,0,0-87.848-51.253c-65.861-29.084-139.4-43.831-218.581-43.831h-1.9l.035-.765c2.251-49.842,7.835-97.209,16.6-140.787L1148,0h2.015c25.107,0,50.171,1.219,74.5,3.623A703.733,703.733,0,0,1,1295.3,14.248a654.736,654.736,0,0,1,66.756,17.258,612.728,612.728,0,0,1,62.388,23.524,577.16,577.16,0,0,1,57.688,29.423,547.71,547.71,0,0,1,52.657,34.953,524.2,524.2,0,0,1,47.293,40.114,506.675,506.675,0,0,1,41.6,44.907,491.838,491.838,0,0,1,98.015,197.95,515.3,515.3,0,0,1,10.167,56.548,538.526,538.526,0,0,1,3.934,58.815,570.729,570.729,0,0,1-2.547,60.8,612.969,612.969,0,0,1-9.275,62.513l-.118.586h-.6c-47.715.086-92.215,4-132.264,11.64ZM1133.143,140.676c20.05,0,40.066.974,59.492,2.894a561.946,561.946,0,0,1,56.536,8.486,522.841,522.841,0,0,1,53.315,13.785,489.31,489.31,0,0,1,49.828,18.79,461.005,461.005,0,0,1,46.076,23.5,437.53,437.53,0,0,1,42.059,27.92,418.738,418.738,0,0,1,37.776,32.043,404.739,404.739,0,0,1,33.227,35.871,392.888,392.888,0,0,1,78.294,158.113,411.637,411.637,0,0,1,8.122,45.166,430.106,430.106,0,0,1,3.144,46.975,455.759,455.759,0,0,1-2.033,48.562,489.087,489.087,0,0,1-7.194,48.861c39.694-7.49,83.714-11.346,130.872-11.462,32.41-162-3.131-316.413-100.109-434.83a512.493,512.493,0,0,0-88.638-84.779,559.485,559.485,0,0,0-110.057-64.207c-82.51-36.433-174.644-54.906-273.842-54.906h-.817c-8.634,43.119-14.157,89.951-16.416,139.214Z" transform="translate(-1131.247 0)" fill="url(#linear-gradient-16)"/>
      <path id="Path_204884" data-name="Path 204884" d="M1680.625,658.816l-1.433-.288c30.434-151.363-2.763-295.612-93.476-406.176a477.9,477.9,0,0,0-82.833-79.063A521.867,521.867,0,0,0,1400.04,113.47C1323.3,79.715,1237.681,62.6,1145.529,62.6h-1.338l0-1.462h1.3c23.023,0,45.994,1.1,68.3,3.264a656.792,656.792,0,0,1,66.149,9.815,610.965,610.965,0,0,1,62.382,16.023,571.73,571.73,0,0,1,58.3,21.887,538.469,538.469,0,0,1,53.915,27.406,510.931,510.931,0,0,1,49.215,32.581,488.908,488.908,0,0,1,44.2,37.41,472.5,472.5,0,0,1,38.882,41.895,458.557,458.557,0,0,1,91.6,184.669,480.381,480.381,0,0,1,9.51,52.765,501.931,501.931,0,0,1,3.688,54.883,531.948,531.948,0,0,1-2.366,56.739A571.363,571.363,0,0,1,1680.625,658.816Z" transform="translate(-1134.528 -16.399)" fill="url(#linear-gradient-16)"/>
      <path id="Path_204885" data-name="Path 204885" d="M1634.374,679.93l-1.433-.288c28.232-140.417-2.565-274.235-86.717-376.8-45.207-55.1-103.159-98.446-172.247-128.837-71.187-31.314-150.62-47.188-236.109-47.188h-1.241l0-1.462h1.206c21.362,0,42.677,1.018,63.378,3.029a609.412,609.412,0,0,1,61.377,9.107,566.9,566.9,0,0,1,57.882,14.868,530.489,530.489,0,0,1,54.1,20.308,499.66,499.66,0,0,1,50.027,25.43,474.088,474.088,0,0,1,45.666,30.231,453.672,453.672,0,0,1,41.017,34.713,438.491,438.491,0,0,1,36.079,38.874,425.51,425.51,0,0,1,85,171.355,445.762,445.762,0,0,1,8.824,48.961,465.778,465.778,0,0,1,3.422,50.925,493.569,493.569,0,0,1-2.2,52.648A530.1,530.1,0,0,1,1634.374,679.93Z" transform="translate(-1132.499 -33.622)" fill="url(#linear-gradient-16)"/>
      <path id="Path_204886" data-name="Path 204886" d="M1725.694,510.829l-.885-1.163a740.643,740.643,0,0,1,126.282-76.943l.636,1.316A739.2,739.2,0,0,0,1725.694,510.829Z" transform="translate(-1290.369 -116.045)" fill="url(#linear-gradient-16)"/>
      <path id="Path_204887" data-name="Path 204887" d="M1500.934,243.051l-1.278-.71a779.96,779.96,0,0,1,84.688-123.269l1.119.941A778.49,778.49,0,0,0,1500.934,243.051Z" transform="translate(-1230.028 -31.872)" fill="url(#linear-gradient-16)"/>
    </g>
    <g id="Group_61238" data-name="Group 61238" transform="translate(153.607 653.41)">
      <path id="Path_204891" data-name="Path 204891" d="M219.517,893.412l.683.1a1415.991,1415.991,0,0,1,159.151,32.474l.667.175-.136.676c-19.9,98.983,1.769,193.338,61.018,265.685a312.764,312.764,0,0,0,54.088,51.734,341.432,341.432,0,0,0,67.161,39.184c50.356,22.237,106.585,33.512,167.125,33.512h.865l1.529,0-.958,1.192c-19.551,24.313-36.742,53.765-51.1,87.539l-.189.444h-1.614c-20.052,0-40.069-.974-59.5-2.894a561.987,561.987,0,0,1-56.539-8.486,522.9,522.9,0,0,1-53.317-13.784,489.362,489.362,0,0,1-49.829-18.789,460.945,460.945,0,0,1-46.077-23.5,437.41,437.41,0,0,1-42.058-27.918,418.676,418.676,0,0,1-37.775-32.041,404.675,404.675,0,0,1-33.226-35.87,392.85,392.85,0,0,1-78.29-158.115,411.575,411.575,0,0,1-8.121-45.168,430.121,430.121,0,0,1-3.142-46.978,455.817,455.817,0,0,1,2.034-48.565,489.576,489.576,0,0,1,7.408-49.929Zm158.8,33.811a1414.609,1414.609,0,0,0-157.636-32.169c-25.795,129.232,2.583,252.4,79.945,346.862a409.063,409.063,0,0,0,70.748,67.668,446.573,446.573,0,0,0,87.847,51.249c65.862,29.082,139.407,43.828,218.592,43.828h.647c14.134-33.163,31-62.172,50.161-86.25-15.123-.021-30.214-.766-44.868-2.214a429.966,429.966,0,0,1-43.262-6.494,400.079,400.079,0,0,1-40.8-10.549,374.5,374.5,0,0,1-38.132-14.38,342.9,342.9,0,0,1-67.449-39.352,314.235,314.235,0,0,1-54.34-51.976,299.507,299.507,0,0,1-50.048-88,305.8,305.8,0,0,1-9.874-33.012,315,315,0,0,1-6.216-34.567,329.141,329.141,0,0,1-2.406-35.951,348.768,348.768,0,0,1,1.556-37.164A374.375,374.375,0,0,1,378.314,927.222Z" transform="translate(-209.906 -893.412)" fill="#fff"/>
      <path id="Path_204892" data-name="Path 204892" d="M257.567,1237.63l-.386-1.41a939.492,939.492,0,0,1,153.375-28.3l.146,1.454A938.067,938.067,0,0,0,257.567,1237.63Z" transform="translate(-222.452 -977.743)" fill="#fff"/>
      <path id="Path_204893" data-name="Path 204893" d="M482.762,1472.292l-.9-1.151a622.39,622.39,0,0,1,114.691-71.476l.631,1.319A620.909,620.909,0,0,0,482.762,1472.292Z" transform="translate(-282.778 -1029.156)" fill="#fff"/>
    </g>
    <g id="Group_61245" data-name="Group 61245" transform="translate(162.932 140.676)">
      <path id="Path_204911" data-name="Path 204911" d="M889.122,192.237l-.035.765a1270.057,1270.057,0,0,0,2.78,153.013l.06.785h-.787c-236.63.425-464.423,176.251-507.79,391.946l-.153.76-.749-.2a1414.4,1414.4,0,0,0-158.986-32.441l-.766-.109.153-.759A521.033,521.033,0,0,1,236.3,653.556c5.327-17.054,11.64-34.191,18.762-50.937,7.03-16.528,15.018-33.071,23.742-49.17,8.626-15.918,18.177-31.78,28.386-47.146,10.115-15.223,21.116-30.318,32.7-44.864,11.5-14.443,23.836-28.682,36.671-42.324,12.773-13.576,26.336-26.875,40.311-39.527,13.941-12.622,28.616-24.893,43.617-36.473s30.676-22.737,46.589-33.161c15.952-10.45,32.515-20.405,49.227-29.591,16.794-9.23,34.131-17.9,51.531-25.763,17.525-7.921,35.525-15.215,53.5-21.677,18.144-6.523,36.695-12.355,55.137-17.333,18.651-5.035,37.64-9.318,56.439-12.731,19.046-3.457,38.361-6.105,57.407-7.87,19.327-1.791,38.855-2.716,58.041-2.75Zm1.229,153.1a1271.732,1271.732,0,0,1-2.758-151.64c-308.894.946-606.106,230.337-663.158,511.829A1416.1,1416.1,0,0,1,382.071,737.7a398.967,398.967,0,0,1,10.137-39.374c4.077-13.05,8.907-26.164,14.358-38.978,5.38-12.647,11.492-25.306,18.168-37.625,6.6-12.18,13.909-24.318,21.721-36.076a508.217,508.217,0,0,1,53.078-66.714,549.063,549.063,0,0,1,64.218-58.151,568.348,568.348,0,0,1,73.313-48.014,562.485,562.485,0,0,1,80.364-36.3,536.341,536.341,0,0,1,85.373-23c14.573-2.646,29.352-4.672,43.926-6.022C861.25,346.1,875.923,345.391,890.351,345.341Z" transform="translate(-222.696 -192.237)" fill="#fff"/>
      <path id="Path_204912" data-name="Path 204912" d="M295.278,732.916l-1.433-.288a479.46,479.46,0,0,1,12.375-48.262c4.9-15.693,10.712-31.464,17.266-46.873,6.469-15.209,13.82-30.433,21.848-45.247,7.938-14.648,16.726-29.244,26.122-43.384,9.308-14.008,19.431-27.9,30.087-41.284,10.58-13.29,21.934-26.394,33.745-38.947A660.311,660.311,0,0,1,512.519,398.7a683.519,683.519,0,0,1,88.169-57.743c15.453-8.493,31.407-16.47,47.418-23.707,16.126-7.289,32.69-14,49.231-19.947,16.7-6,33.766-11.369,50.737-15.95,17.163-4.633,34.636-8.575,51.935-11.715,17.526-3.181,35.3-5.618,52.826-7.242,17.785-1.648,35.754-2.5,53.409-2.531l0,1.462C621.537,261.833,347.457,473.389,295.278,732.916Z" transform="translate(-241.741 -210.374)" fill="#fff"/>
      <path id="Path_204913" data-name="Path 204913" d="M367.888,762.5l-1.433-.288a438.641,438.641,0,0,1,11.321-44.149c4.485-14.356,9.8-28.782,15.795-42.878,5.918-13.913,12.642-27.839,19.986-41.391,7.261-13.4,15.3-26.752,23.9-39.686a559.079,559.079,0,0,1,58.391-73.392,604.014,604.014,0,0,1,70.647-63.973,625.242,625.242,0,0,1,80.652-52.82,618.78,618.78,0,0,1,88.41-39.932c15.273-5.491,30.888-10.4,46.411-14.59,15.7-4.238,31.684-7.844,47.508-10.716,16.032-2.91,32.29-5.139,48.323-6.625,16.269-1.507,32.706-2.286,48.857-2.315l0,1.462C666.269,331.673,415.608,525.151,367.888,762.5Z" transform="translate(-261.216 -229.118)" fill="#fff"/>
      <path id="Path_204914" data-name="Path 204914" d="M797.426,426.128c-26.523-47.686-51-93.634-72.763-136.567l1.3-.661c21.75,42.917,46.222,88.848,72.736,136.518Z" transform="translate(-357.276 -218.063)" fill="#fff"/>
      <path id="Path_204915" data-name="Path 204915" d="M527.789,634.647c-44.521-33.766-87.852-65.136-128.79-93.242l.827-1.205c40.956,28.118,84.306,59.5,128.846,93.282Z" transform="translate(-269.869 -285.533)" fill="#fff"/>
    </g>
    <g id="Group_61246" data-name="Group 61246" transform="translate(153.607 653.41)">
      <path id="Path_204916" data-name="Path 204916" d="M219.517,893.412l.683.1a1415.991,1415.991,0,0,1,159.151,32.474l.667.175-.136.676c-19.9,98.983,1.769,193.338,61.018,265.685a312.764,312.764,0,0,0,54.088,51.734,341.432,341.432,0,0,0,67.161,39.184c50.356,22.237,106.585,33.512,167.125,33.512h.865l1.529,0-.958,1.192c-19.551,24.313-36.742,53.765-51.1,87.539l-.189.444h-1.614c-20.052,0-40.069-.974-59.5-2.894a561.987,561.987,0,0,1-56.539-8.486,522.9,522.9,0,0,1-53.317-13.784,489.362,489.362,0,0,1-49.829-18.789,460.945,460.945,0,0,1-46.077-23.5,437.41,437.41,0,0,1-42.058-27.918,418.676,418.676,0,0,1-37.775-32.041,404.675,404.675,0,0,1-33.226-35.87,392.85,392.85,0,0,1-78.29-158.115,411.575,411.575,0,0,1-8.121-45.168,430.121,430.121,0,0,1-3.142-46.978,455.817,455.817,0,0,1,2.034-48.565,489.576,489.576,0,0,1,7.408-49.929Zm158.8,33.811a1414.609,1414.609,0,0,0-157.636-32.169c-25.795,129.232,2.583,252.4,79.945,346.862a409.063,409.063,0,0,0,70.748,67.668,446.573,446.573,0,0,0,87.847,51.249c65.862,29.082,139.407,43.828,218.592,43.828h.647c14.134-33.163,31-62.172,50.161-86.25-15.123-.021-30.214-.766-44.868-2.214a429.966,429.966,0,0,1-43.262-6.494,400.079,400.079,0,0,1-40.8-10.549,374.5,374.5,0,0,1-38.132-14.38,342.9,342.9,0,0,1-67.449-39.352,314.235,314.235,0,0,1-54.34-51.976,299.507,299.507,0,0,1-50.048-88,305.8,305.8,0,0,1-9.874-33.012,315,315,0,0,1-6.216-34.567,329.141,329.141,0,0,1-2.406-35.951,348.768,348.768,0,0,1,1.556-37.164A374.375,374.375,0,0,1,378.314,927.222Z" transform="translate(-209.906 -893.412)" fill="#fff"/>
      <path id="Path_204917" data-name="Path 204917" d="M712.538,1376.907c-18.149,0-36.257-.865-53.845-2.573a517.673,517.673,0,0,1-52.146-7.737,481.624,481.624,0,0,1-49.177-12.632,450.743,450.743,0,0,1-45.964-17.255,424.524,424.524,0,0,1-42.5-21.606,402.879,402.879,0,0,1-38.8-25.686,385.47,385.47,0,0,1-34.851-29.494,372.576,372.576,0,0,1-30.655-33.03,361.543,361.543,0,0,1-72.22-145.6,378.735,378.735,0,0,1-7.5-41.6,395.74,395.74,0,0,1-2.908-43.269,419.39,419.39,0,0,1,1.865-44.732,450.413,450.413,0,0,1,6.821-45.989l1.433.288c-23.974,119.24,2.177,232.875,73.636,319.971,77.964,95.025,204.343,149.475,346.829,149.478h1.005l0,1.462Z" transform="translate(-229.226 -896.541)" fill="#fff"/>
      <path id="Path_204918" data-name="Path 204918" d="M749.471,1351.58c-16.6,0-33.166-.792-49.253-2.354a473.682,473.682,0,0,1-47.7-7.078,440.6,440.6,0,0,1-44.986-11.555,412.292,412.292,0,0,1-42.047-15.784,388.3,388.3,0,0,1-38.883-19.765,368.469,368.469,0,0,1-35.495-23.5,352.647,352.647,0,0,1-31.882-26.982,340.807,340.807,0,0,1-28.044-30.216,330.751,330.751,0,0,1-66.069-133.2,346.472,346.472,0,0,1-6.859-38.057,362.025,362.025,0,0,1-2.66-39.583,383.644,383.644,0,0,1,1.706-40.921,412.044,412.044,0,0,1,6.239-42.071l1.433.288c-21.924,109.045,1.991,212.963,67.339,292.611,71.3,86.9,186.872,136.694,317.179,136.7h.92l0,1.462Z" transform="translate(-248.973 -900.514)" fill="#fff"/>
      <path id="Path_204919" data-name="Path 204919" d="M257.567,1237.63l-.386-1.41a939.492,939.492,0,0,1,153.375-28.3l.146,1.454A938.067,938.067,0,0,0,257.567,1237.63Z" transform="translate(-222.452 -977.743)" fill="#fff"/>
      <path id="Path_204920" data-name="Path 204920" d="M482.762,1472.292l-.9-1.151a622.39,622.39,0,0,1,114.691-71.476l.631,1.319A620.909,620.909,0,0,0,482.762,1472.292Z" transform="translate(-282.778 -1029.156)" fill="#fff"/>
    </g>
    <g id="Group_61247" data-name="Group 61247" transform="translate(621.458 651.29)">
      <path id="Path_204921" data-name="Path 204921" d="M849.387,1405.38l.52-1.04c14.4-33.89,31.661-63.45,51.293-87.863l.219-.272h.349c236.63-.425,464.423-176.251,507.79-391.946l.073-.361.333-.156c30.667-14.417,66.083-25.516,105.263-32.989l1.068-.2-.214,1.066a521.056,521.056,0,0,1-13.448,52.445c-5.328,17.054-11.64,34.191-18.763,50.937-7.03,16.528-15.018,33.071-23.743,49.17-8.626,15.918-18.177,31.78-28.387,47.146-10.115,15.223-21.116,30.318-32.7,44.864-11.5,14.442-23.836,28.682-36.671,42.324-12.773,13.576-26.336,26.875-40.311,39.528-13.941,12.622-28.616,24.893-43.617,36.473s-30.676,22.737-46.589,33.161c-15.952,10.449-32.515,20.405-49.227,29.591-16.794,9.23-34.131,17.9-51.531,25.763-17.525,7.921-35.525,15.214-53.5,21.677-18.144,6.523-36.695,12.355-55.137,17.333-18.651,5.035-37.64,9.318-56.439,12.731-19.046,3.457-38.36,6.105-57.407,7.87-19.327,1.791-38.855,2.716-58.04,2.75Zm52.733-87.714c-19.264,24.015-36.231,53.026-50.442,86.248,308.655-1.112,605.563-230.271,662.753-511.519-38.493,7.42-73.312,18.357-103.513,32.514A398.846,398.846,0,0,1,1400.7,964.68c-4.077,13.05-8.907,26.164-14.358,38.978-5.38,12.647-11.492,25.306-18.168,37.625-6.6,12.18-13.909,24.318-21.721,36.076a508.235,508.235,0,0,1-53.078,66.714,549.043,549.043,0,0,1-64.218,58.151,568.344,568.344,0,0,1-73.313,48.014,562.483,562.483,0,0,1-80.364,36.3,536.352,536.352,0,0,1-85.373,23c-14.573,2.646-29.352,4.672-43.926,6.022C931.511,1316.921,916.689,1317.628,902.12,1317.665Z" transform="translate(-849.387 -890.549)" fill="#fff"/>
      <path id="Path_204922" data-name="Path 204922" d="M871.512,1376.223l0-1.462c284.711-.511,558.79-212.067,610.97-471.594l1.433.288a479.451,479.451,0,0,1-12.375,48.262c-4.9,15.693-10.712,31.464-17.266,46.873-6.469,15.209-13.82,30.433-21.848,45.247-7.938,14.648-16.726,29.244-26.122,43.384-9.308,14.008-19.431,27.9-30.087,41.284-10.58,13.29-21.933,26.393-33.745,38.947a660.285,660.285,0,0,1-77.231,69.935,683.522,683.522,0,0,1-88.169,57.743c-15.453,8.494-31.407,16.47-47.418,23.707-16.126,7.289-32.69,14-49.231,19.947-16.7,6-33.766,11.369-50.737,15.95-17.163,4.633-34.636,8.575-51.935,11.715-17.526,3.182-35.3,5.618-52.826,7.242C907.137,1375.34,889.167,1376.192,871.512,1376.223Z" transform="translate(-855.026 -893.74)" fill="#fff"/>
      <path id="Path_204923" data-name="Path 204923" d="M894.881,1350.954l0-1.462c260.383-.468,511.044-193.946,558.764-431.295l1.433.288a438.586,438.586,0,0,1-11.321,44.149c-4.485,14.356-9.8,28.782-15.795,42.879-5.918,13.913-12.642,27.839-19.986,41.391-7.261,13.4-15.3,26.752-23.9,39.686a559.075,559.075,0,0,1-58.391,73.392,603.994,603.994,0,0,1-70.646,63.973,625.233,625.233,0,0,1-80.652,52.821,618.818,618.818,0,0,1-88.41,39.932c-15.273,5.49-30.887,10.4-46.411,14.59-15.7,4.238-31.684,7.844-47.508,10.716-16.032,2.91-32.29,5.139-48.323,6.625C927.469,1350.146,911.031,1350.925,894.881,1350.954Z" transform="translate(-861.294 -897.771)" fill="#fff"/>
      <path id="Path_204924" data-name="Path 204924" d="M1249.72,1470.664c-9.585-28.209-15.91-52.19-18.8-71.278l1.445-.219c2.876,19,9.181,42.9,18.739,71.027Z" transform="translate(-951.605 -1026.765)" fill="#fff"/>
      <path id="Path_204925" data-name="Path 204925" d="M1555.468,1235.359c-28.722-13.333-53.856-22.694-74.7-27.825l.349-1.42c20.94,5.153,46.164,14.546,74.97,27.918Z" transform="translate(-1018.48 -975.135)" fill="#fff"/>
    </g>
    <g id="Group_61248" data-name="Group 61248" transform="translate(826.708 140.676)">
      <path id="Path_204926" data-name="Path 204926" d="M1484.35,738.338l.286-1.423c19.9-98.982-1.769-193.338-61.018-265.685-31.816-38.85-72.61-69.439-121.249-90.918-50.356-22.237-106.585-33.512-167.125-33.512H1133.7l-.052-.677a1271.452,1271.452,0,0,1-2.783-153.19l.031-.7h1.829c20.052,0,40.069.974,59.5,2.894a562.025,562.025,0,0,1,56.539,8.486,522.884,522.884,0,0,1,53.317,13.784,489.4,489.4,0,0,1,49.83,18.789,460.992,460.992,0,0,1,46.076,23.5,437.435,437.435,0,0,1,42.059,27.918,418.7,418.7,0,0,1,37.775,32.041,404.691,404.691,0,0,1,33.226,35.87,392.859,392.859,0,0,1,78.29,158.114,411.625,411.625,0,0,1,8.121,45.168,430.113,430.113,0,0,1,3.142,46.978,455.913,455.913,0,0,1-2.034,48.565,489.624,489.624,0,0,1-7.358,49.683l.32.639-.949.181c-39.059,7.45-74.358,18.511-104.915,32.876Zm-349.106-393c15.342,0,30.658.745,45.523,2.214a430.024,430.024,0,0,1,43.262,6.494,400.114,400.114,0,0,1,40.8,10.549,374.511,374.511,0,0,1,38.132,14.38,342.906,342.906,0,0,1,67.449,39.353A314.227,314.227,0,0,1,1424.75,470.3a299.5,299.5,0,0,1,50.048,88,305.764,305.764,0,0,1,9.874,33.012,315,315,0,0,1,6.216,34.567,329.12,329.12,0,0,1,2.406,35.951A348.766,348.766,0,0,1,1491.738,699c-1.155,12.142-2.966,24.51-5.386,36.788,30.238-14.06,65.038-24.918,103.47-32.284,25.869-129.31-2.5-252.542-79.906-347.058-41.616-50.815-94.975-90.825-158.6-118.917-65.862-29.082-139.407-43.828-218.592-43.828h-.432a1270.122,1270.122,0,0,0,2.76,151.64Z" transform="translate(-1129.712 -192.236)" fill="#fff"/>
      <path id="Path_204927" data-name="Path 204927" d="M1553.365,731.058l-1.433-.288c23.974-119.24-2.177-232.874-73.636-319.971-77.964-95.025-204.342-149.478-346.829-149.478h-1.006l0-1.462h1.025c18.149,0,36.257.865,53.845,2.573a517.754,517.754,0,0,1,52.146,7.737,481.644,481.644,0,0,1,49.177,12.632,450.721,450.721,0,0,1,45.964,17.255,424.548,424.548,0,0,1,42.5,21.606,402.83,402.83,0,0,1,38.8,25.686,385.484,385.484,0,0,1,34.851,29.494,372.566,372.566,0,0,1,30.655,33.03,361.544,361.544,0,0,1,72.22,145.6,378.741,378.741,0,0,1,7.5,41.6,395.729,395.729,0,0,1,2.908,43.269,419.333,419.333,0,0,1-1.865,44.732A450.421,450.421,0,0,1,1553.365,731.058Z" transform="translate(-1129.73 -210.373)" fill="#fff"/>
      <path id="Path_204928" data-name="Path 204928" d="M1518.6,760.8l-1.433-.288c21.924-109.044-1.991-212.962-67.339-292.611-71.3-86.9-186.873-136.7-317.18-136.7h-.919l0-1.462c16.919-.031,33.8.761,50.193,2.353a473.671,473.671,0,0,1,47.7,7.078,440.627,440.627,0,0,1,44.987,11.555,412.347,412.347,0,0,1,42.047,15.784,388.4,388.4,0,0,1,38.883,19.765,368.518,368.518,0,0,1,35.495,23.5,352.642,352.642,0,0,1,31.882,26.982,340.811,340.811,0,0,1,28.044,30.216,330.748,330.748,0,0,1,66.069,133.195,346.464,346.464,0,0,1,6.859,38.057,362,362,0,0,1,2.66,39.583,383.6,383.6,0,0,1-1.706,40.921A412.1,412.1,0,0,1,1518.6,760.8Z" transform="translate(-1130.071 -229.117)" fill="#fff"/>
      <path id="Path_204929" data-name="Path 204929" d="M1590.143,632.566l-1.115-.945a632.135,632.135,0,0,1,99.389-93.78L1689.3,539A630.643,630.643,0,0,0,1590.143,632.566Z" transform="translate(-1252.864 -284.895)" fill="#fff"/>
      <path id="Path_204930" data-name="Path 204930" d="M1418.206,424.856l-1.383-.473a846.175,846.175,0,0,1,60.628-136.9l1.278.71A844.723,844.723,0,0,0,1418.206,424.856Z" transform="translate(-1206.709 -217.689)" fill="#fff"/>
    </g>
    <g id="Group_61249" data-name="Group 61249" transform="translate(322.017 293.533)">
      <path id="Path_204931" data-name="Path 204931" d="M950.108,401.329l.061.8a1591.644,1591.644,0,0,0,20.788,160.615l.155.859-.873,0c-170.725.306-335.074,127.158-366.362,282.772l-.169.839-.8-.3c-54.322-20.187-108.879-37.512-162.157-51.494l-.667-.175.136-.676a398.748,398.748,0,0,1,10.291-40.133c4.077-13.05,8.907-26.164,14.358-38.978,5.38-12.648,11.492-25.306,18.168-37.625,6.6-12.18,13.909-24.318,21.721-36.076a508.209,508.209,0,0,1,53.078-66.714,549.067,549.067,0,0,1,64.218-58.152,568.352,568.352,0,0,1,73.313-48.014,562.474,562.474,0,0,1,80.364-36.3,536.331,536.331,0,0,1,85.373-23c14.573-2.646,29.352-4.672,43.926-6.022,14.769-1.368,29.69-2.076,44.351-2.1Zm19.256,160.813a1593.171,1593.171,0,0,1-20.6-159.228C712.627,403.68,485.449,579,441.787,794.183c52.853,13.895,106.948,31.071,160.826,51.064a295.194,295.194,0,0,1,17.636-56.309A329.824,329.824,0,0,1,649.062,735.7,367.076,367.076,0,0,1,687.4,687.517a396.54,396.54,0,0,1,46.381-42,410.478,410.478,0,0,1,52.949-34.677,406.235,406.235,0,0,1,58.042-26.216,387.362,387.362,0,0,1,61.661-16.615A362.108,362.108,0,0,1,969.363,562.143Z" transform="translate(-440.082 -401.329)" fill="#fff"/>
      <path id="Path_204932" data-name="Path 204932" d="M908.215,621.9c-29.765-49.847-58.068-98.876-84.124-145.725l1.278-.71c26.049,46.835,54.345,95.851,84.1,145.686Z" transform="translate(-543.025 -421.089)" fill="#fff"/>
      <path id="Path_204933" data-name="Path 204933" d="M709.831,775.351C664.112,737.846,618.749,702.007,575,668.83l.883-1.165c43.761,33.188,89.138,69.038,134.872,106.556Z" transform="translate(-476.167 -472.697)" fill="#fff"/>
    </g>
    <g id="Group_61250" data-name="Group 61250" transform="translate(314.899 685.823)">
      <path id="Path_204934" data-name="Path 204934" d="M437.551,937.636l.916.24c53.323,13.993,107.926,31.333,162.295,51.538l.585.217-.123.612c-14.354,71.392,1.274,139.444,44.005,191.622,46.711,57.037,122.528,89.749,208.013,89.749h.622l2.671-.005-2.3,1.364c-23.547,13.985-45.219,33.182-64.414,57.058l-.219.273h-1.215c-15.343,0-30.661-.745-45.527-2.214A430.1,430.1,0,0,1,699.6,1321.6a400.156,400.156,0,0,1-40.8-10.548,374.434,374.434,0,0,1-38.132-14.379,342.877,342.877,0,0,1-67.449-39.35,314.188,314.188,0,0,1-54.339-51.974,299.48,299.48,0,0,1-50.046-88,305.78,305.78,0,0,1-9.873-33.013,315.029,315.029,0,0,1-6.215-34.568,329.187,329.187,0,0,1-2.4-35.953,348.84,348.84,0,0,1,1.556-37.166,374.644,374.644,0,0,1,5.655-38.138Zm162.118,52.931c-53.874-20-107.977-37.183-160.822-51.08-19.639,98.713,2.069,192.775,61.163,264.934,64.756,79.072,169.867,124.422,288.381,124.422h.514c18.639-23.127,39.6-41.878,62.34-55.773a321.692,321.692,0,0,1-62.135-6.285,279.1,279.1,0,0,1-57.019-18.009,247.729,247.729,0,0,1-48.73-28.431,227.04,227.04,0,0,1-39.262-37.555,216.844,216.844,0,0,1-43.3-87.436,232.14,232.14,0,0,1-6.229-50.95A260.477,260.477,0,0,1,599.669,990.567Z" transform="translate(-430.315 -937.636)" fill="#fff"/>
      <path id="Path_204935" data-name="Path 204935" d="M466.875,1207.545l-.147-1.454a1004.5,1004.5,0,0,1,100.55-5.005q28.224,0,56.528,1.554l-.08,1.46A1014.359,1014.359,0,0,0,466.875,1207.545Z" transform="translate(-439.918 -1008.243)" fill="#fff"/>
      <path id="Path_204936" data-name="Path 204936" d="M639.174,1380.451l-.631-1.318a576.473,576.473,0,0,1,122.082-42.511c32.305-8.971,76.785-11.158,116.028-13.088,3.2-.158,6.514-.321,9.705-.482l.074,1.46c-3.192.161-6.5.324-9.707.482-39.175,1.926-83.576,4.11-115.726,13.041l-.035.009A575.039,575.039,0,0,0,639.174,1380.451Z" transform="translate(-486.061 -1040.956)" fill="#fff"/>
    </g>
    <g id="Group_61251" data-name="Group 61251" transform="translate(672.313 683.946)">
      <path id="Path_204937" data-name="Path 204937" d="M919,1329.729l.958-1.192c19.305-24.013,41.109-43.325,64.807-57.4l.172-.1h.2c170.725-.306,335.075-127.157,366.362-282.772l.045-.222.162-.158c20.948-20.388,46.86-37.911,77.017-52.083l1.313-.617-.286,1.423a398.763,398.763,0,0,1-10.291,40.133c-4.077,13.05-8.907,26.164-14.358,38.978-5.38,12.648-11.492,25.307-18.168,37.625-6.6,12.18-13.909,24.318-21.721,36.076a508.208,508.208,0,0,1-53.078,66.714,549.06,549.06,0,0,1-64.218,58.152A568.332,568.332,0,0,1,1174.6,1262.3a562.445,562.445,0,0,1-80.364,36.3,536.334,536.334,0,0,1-85.373,23c-14.573,2.646-29.352,4.671-43.926,6.022-14.788,1.37-29.73,2.078-44.411,2.1Zm66.34-57.232c-23.087,13.742-44.369,32.5-63.277,55.762,235.566-1.168,461.979-175.927,505.964-390.512-29.371,13.956-54.642,31.116-75.139,51.027a295.032,295.032,0,0,1-17.761,56.926,329.824,329.824,0,0,1-28.813,53.236,367.055,367.055,0,0,1-38.337,48.186,396.553,396.553,0,0,1-46.381,42,410.473,410.473,0,0,1-52.949,34.677,406.248,406.248,0,0,1-58.042,26.216,387.385,387.385,0,0,1-61.661,16.614A361.939,361.939,0,0,1,985.338,1272.5Z" transform="translate(-918.998 -935.184)" fill="#fff"/>
      <path id="Path_204938" data-name="Path 204938" d="M1230.242,1383.9c-2.855-18.847-2.4-33.188,1.338-42.623l1.359.539c-3.646,9.192-4.068,23.277-1.251,41.865Z" transform="translate(-1001.783 -1043.852)" fill="#fff"/>
      <path id="Path_204939" data-name="Path 204939" d="M1462.649,1205.785c-20.418-5.027-36.936-6.063-49.094-3.078l-.349-1.42c12.39-3.042,29.142-2.006,49.792,3.078Z" transform="translate(-1051.215 -1005.963)" fill="#fff"/>
    </g>
    <g id="Group_61252" data-name="Group 61252" transform="translate(830.584 293.654)">
      <path id="Path_204940" data-name="Path 204940" d="M1408.791,847.289l.465-2.314c14.354-71.392-1.274-139.444-44.005-191.622-46.711-57.037-122.529-89.749-208.013-89.749H1156l-.109-.6a1593.175,1593.175,0,0,1-20.806-160.763l-.06-.785h1.653c15.343,0,30.661.745,45.527,2.214a430.086,430.086,0,0,1,43.265,6.493,400.166,400.166,0,0,1,40.8,10.548,374.5,374.5,0,0,1,38.132,14.378,342.883,342.883,0,0,1,67.449,39.35,314.193,314.193,0,0,1,54.339,51.974,299.485,299.485,0,0,1,50.046,88,305.8,305.8,0,0,1,9.873,33.013,314.954,314.954,0,0,1,6.215,34.568,329.142,329.142,0,0,1,2.405,35.952,348.877,348.877,0,0,1-1.557,37.166,374.637,374.637,0,0,1-5.669,38.209l-.051.253-.27.225-.085.04c-30.009,14.1-55.788,31.533-76.619,51.807ZM1157.237,562.142a322.414,322.414,0,0,1,64.133,6.291,279.1,279.1,0,0,1,57.019,18.009,247.75,247.75,0,0,1,48.73,28.431,227.032,227.032,0,0,1,39.262,37.555,216.841,216.841,0,0,1,43.3,87.436,232.128,232.128,0,0,1,6.229,50.949,259.947,259.947,0,0,1-4.77,52.168c20.571-19.625,45.791-36.543,75.008-50.311,19.777-98.859-1.909-193.077-61.084-265.333-64.756-79.072-169.867-124.422-288.381-124.422h-.076a1591.9,1591.9,0,0,0,20.619,159.228Z" transform="translate(-1135.028 -401.452)" fill="#fff"/>
      <path id="Path_204941" data-name="Path 204941" d="M1492.45,773.671l-1.3-.665a560.145,560.145,0,0,1,71.65-107.05l1.115.945A558.677,558.677,0,0,0,1492.45,773.671Z" transform="translate(-1230.51 -472.332)" fill="#fff"/>
      <path id="Path_204942" data-name="Path 204942" d="M1368.314,620.8l-1.442-.237a909.684,909.684,0,0,1,36.566-146.039l1.383.473A908.227,908.227,0,0,0,1368.314,620.8Z" transform="translate(-1197.195 -420.927)" fill="#fff"/>
    </g>
    <path id="Path_204943" data-name="Path 204943" d="M1369.347,1096.725l-1.461-.047a73.9,73.9,0,0,0-2.675-22.382c-10.259-40.79-48.181-67.118-96.636-67.118h-.746l-.179-.473c-19.932-52.713-37.7-107.016-52.811-161.4l1.408-.391c15.053,54.18,32.746,108.28,52.591,160.8,24.244.047,46.289,6.616,63.782,19.01a87.706,87.706,0,0,1,21.489,21.6,84.44,84.44,0,0,1,12.52,27.615A75.214,75.214,0,0,1,1369.347,1096.725Z" transform="translate(-325.829 -226.696)" fill="#fff"/>
    <path id="Path_204944" data-name="Path 204944" d="M1009.361,1386.3l-.886-1.162a46.567,46.567,0,0,1,6.67-3.9,137.56,137.56,0,0,1,22.016-8.5,271.828,271.828,0,0,1,40.7-8.587,478.758,478.758,0,0,1,62.716-4.151l.008,1.462c-51.306.293-84.254,7.032-102.86,12.634a136.744,136.744,0,0,0-21.826,8.4A46.747,46.747,0,0,0,1009.361,1386.3Z" transform="translate(-270.414 -365.052)" fill="#fff"/>
    <g id="Group_61254" data-name="Group 61254" transform="translate(373.325 349.28)">
      <path id="Path_204945" data-name="Path 204945" d="M943.822,1315.209c-6.343,0-12.666-.141-18.93-.422l.066-1.46c6.253.281,12.535.421,18.783.421,202.665,0,400.591-146,446.846-333.049l1.419.351a366.883,366.883,0,0,1-10.838,35.8c-4.17,11.609-9.009,23.245-14.382,34.584a416.146,416.146,0,0,1-38.454,64.866,458.639,458.639,0,0,1-49.806,58.015,490.54,490.54,0,0,1-59.279,49.827,502.861,502.861,0,0,1-66.877,40.3,493.385,493.385,0,0,1-72.6,29.437,467.193,467.193,0,0,1-76.451,17.231c-12.995,1.785-26.144,3-39.083,3.618C957.442,1315.048,950.621,1315.209,943.822,1315.209Z" transform="translate(-621.219 -612.392)" fill="#fff"/>
      <path id="Path_204946" data-name="Path 204946" d="M525.038,812.1l-1.419-.351a366.892,366.892,0,0,1,10.838-35.8c4.17-11.609,9.009-23.245,14.382-34.584A416.138,416.138,0,0,1,587.294,676.5,458.645,458.645,0,0,1,637.1,618.487a490.519,490.519,0,0,1,59.279-49.827,502.849,502.849,0,0,1,66.877-40.3,493.387,493.387,0,0,1,72.6-29.437,467.172,467.172,0,0,1,76.451-17.231c12.995-1.785,26.144-3,39.083-3.618,13.13-.625,26.366-.646,39.342-.063l-.066,1.46c-6.253-.281-12.536-.421-18.784-.421C769.22,479.05,571.293,625.054,525.038,812.1Z" transform="translate(-513.761 -477.588)" fill="#fff"/>
      <path id="Path_204947" data-name="Path 204947" d="M813.827,1302.271c-13.418-.6-26.785-1.863-39.731-3.744a373.857,373.857,0,0,1-37.6-7.434,337.456,337.456,0,0,1-68.16-25.123,302.541,302.541,0,0,1-57.674-37.436,280.884,280.884,0,0,1-45.872-48.114,272.281,272.281,0,0,1-31.021-53.127,276.516,276.516,0,0,1-18.512-59.668,289.312,289.312,0,0,1-4.232-31.868,302.972,302.972,0,0,1-.706-33,321.414,321.414,0,0,1,2.952-33.963,345.2,345.2,0,0,1,6.742-34.76l1.419.351c-22.234,89.908-6.42,176.974,44.529,245.16,54.905,73.479,142.956,116.546,247.932,121.265Z" transform="translate(-510.154 -599.876)" fill="#fff"/>
      <path id="Path_204948" data-name="Path 204948" d="M1455.5,846.4l-1.419-.351c22.234-89.908,6.42-176.974-44.529-245.16-54.9-73.48-142.956-116.546-247.932-121.265l.066-1.46c13.418.6,26.785,1.863,39.73,3.744a373.846,373.846,0,0,1,37.6,7.434,337.467,337.467,0,0,1,68.16,25.123,302.544,302.544,0,0,1,57.674,37.436,280.88,280.88,0,0,1,45.872,48.114,272.269,272.269,0,0,1,31.02,53.127,276.514,276.514,0,0,1,18.512,59.668,289.318,289.318,0,0,1,4.232,31.868,303.046,303.046,0,0,1,.706,33,321.47,321.47,0,0,1-2.952,33.964A345.251,345.251,0,0,1,1455.5,846.4Z" transform="translate(-684.712 -477.743)" fill="#fff"/>
    </g>
    <g id="Group_61255" data-name="Group 61255" transform="translate(560.449 533.04)">
      <path id="Path_204949" data-name="Path 204949" d="M773.509,966.411l-1.433-.289a246.211,246.211,0,0,1,14.955-47.8A275.629,275.629,0,0,1,811.217,873.8a307.171,307.171,0,0,1,32.173-40.292,332.31,332.31,0,0,1,38.918-35.115,342.966,342.966,0,0,1,93.119-50.9,325.694,325.694,0,0,1,51.728-13.878,304.422,304.422,0,0,1,53.524-4.89l0,1.462C937.577,730.4,799.779,836.364,773.509,966.411Z" transform="translate(-767.526 -728.728)" fill="#fff"/>
      <path id="Path_204950" data-name="Path 204950" d="M979.147,1289.64a269.519,269.519,0,0,1-52.754-5.075,229.65,229.65,0,0,1-47.047-14.689,202.059,202.059,0,0,1-40.064-23.259,185.4,185.4,0,0,1-32.221-30.779,179.288,179.288,0,0,1-22.185-34.472,183.041,183.041,0,0,1-13.959-39.214,197.429,197.429,0,0,1-5.047-43.1,224.358,224.358,0,0,1,4.544-46.122l1.433.29c-12.262,60.7.645,118.122,36.344,161.689,38.72,47.255,99.422,73.267,170.946,73.267h.425l0,1.462Z" transform="translate(-765.863 -815.538)" fill="#fff"/>
      <path id="Path_204951" data-name="Path 204951" d="M1403.706,985.443l-1.433-.289c13.039-64.548-2.647-129.838-43.037-179.131-40.074-48.907-98.785-75.832-165.331-75.832h-.355l0-1.462h.351a232.557,232.557,0,0,1,50.185,5.383,213.452,213.452,0,0,1,45.149,15.412,205.432,205.432,0,0,1,71.133,55.573,209.294,209.294,0,0,1,25.3,39.084,213.422,213.422,0,0,1,16.212,44.088,218.281,218.281,0,0,1,6.291,47.589A226.225,226.225,0,0,1,1403.706,985.443Z" transform="translate(-880.393 -728.728)" fill="#fff"/>
    </g>
    <g id="Group_61256" data-name="Group 61256" transform="translate(428.976 399.533)">
      <path id="Path_204952" data-name="Path 204952" d="M978.3,1303.744q-8.561,0-17.047-.381l.066-1.46c5.652.254,11.332.38,16.98.38,183.208,0,362.133-131.986,403.948-301.073l1.419.351a339.22,339.22,0,0,1-22.808,63.647,376.312,376.312,0,0,1-34.775,58.66,414.739,414.739,0,0,1-45.04,52.463,443.574,443.574,0,0,1-53.606,45.058,454.706,454.706,0,0,1-60.476,36.444,446.17,446.17,0,0,1-65.652,26.62,422.462,422.462,0,0,1-69.135,15.582A396.515,396.515,0,0,1,978.3,1303.744Z" transform="translate(-686.623 -668.152)" fill="#fff"/>
      <path id="Path_204953" data-name="Path 204953" d="M599.8,848.8l-1.419-.351A339.215,339.215,0,0,1,621.186,784.8a376.318,376.318,0,0,1,34.775-58.66A414.757,414.757,0,0,1,701,673.681a443.58,443.58,0,0,1,53.606-45.058,454.727,454.727,0,0,1,60.476-36.444,446.173,446.173,0,0,1,65.652-26.62,422.474,422.474,0,0,1,69.135-15.582,392.918,392.918,0,0,1,70.921-3.329l-.066,1.46c-5.652-.254-11.333-.38-16.981-.38C820.536,547.728,641.612,679.714,599.8,848.8Z" transform="translate(-589.462 -546.267)" fill="#fff"/>
      <path id="Path_204954" data-name="Path 204954" d="M860.834,1292.046a350.649,350.649,0,0,1-69.934-10.109,305.194,305.194,0,0,1-61.641-22.72,273.612,273.612,0,0,1-52.159-33.856,254.013,254.013,0,0,1-41.486-43.514,246.241,246.241,0,0,1-28.055-48.048,250.082,250.082,0,0,1-16.742-53.964,267.194,267.194,0,0,1-4.466-58.665,290.71,290.71,0,0,1,2.669-30.715,312.178,312.178,0,0,1,6.1-31.435l1.419.351c-20.1,81.27-5.8,159.97,40.249,221.6,49.63,66.419,129.222,105.347,224.115,109.614Z" transform="translate(-586.202 -656.836)" fill="#fff"/>
      <path id="Path_204955" data-name="Path 204955" d="M1441.079,879.815l-1.419-.351c20.1-81.27,5.8-159.97-40.249-221.6-49.629-66.419-129.222-105.348-224.115-109.614l.066-1.46A350.646,350.646,0,0,1,1245.3,556.9a305.184,305.184,0,0,1,61.641,22.72,273.611,273.611,0,0,1,52.159,33.856,254.015,254.015,0,0,1,41.486,43.514,246.253,246.253,0,0,1,28.055,48.048A250.091,250.091,0,0,1,1445.379,759a267.193,267.193,0,0,1,4.466,58.665,290.691,290.691,0,0,1-2.67,30.715A312.093,312.093,0,0,1,1441.079,879.815Z" transform="translate(-744.032 -546.407)" fill="#fff"/>
    </g>
    <g id="Group_61258" data-name="Group 61258" transform="translate(519.524 494.356)">
      <path id="Path_204956" data-name="Path 204956" d="M1452.754,1116.81l-1.281-.7a280.425,280.425,0,0,0,26.721-67.755l1.419.351A281.874,281.874,0,0,1,1452.754,1116.81Z" transform="translate(-908.806 -775.629)" fill="#fff"/>
      <path id="Path_204957" data-name="Path 204957" d="M721.328,923.656l-1.419-.351a277.793,277.793,0,0,1,18.678-52.121,308.16,308.16,0,0,1,28.476-48.035,339.62,339.62,0,0,1,36.88-42.959,363.209,363.209,0,0,1,43.894-36.894,372.334,372.334,0,0,1,49.519-29.841,365.324,365.324,0,0,1,53.757-21.8,345.927,345.927,0,0,1,56.61-12.759,321.753,321.753,0,0,1,58.075-2.726l-.066,1.46c-4.625-.208-9.272-.311-13.893-.311C901.937,677.321,755.54,785.311,721.328,923.656Z" transform="translate(-712.608 -675.86)" fill="#fff"/>
      <path id="Path_204958" data-name="Path 204958" d="M934.879,1286.565h-.021a287.153,287.153,0,0,1-57.269-8.278,249.943,249.943,0,0,1-50.481-18.607,224.09,224.09,0,0,1-42.718-27.729,208.054,208.054,0,0,1-33.979-35.64,201.692,201.692,0,0,1-22.979-39.354,204.83,204.83,0,0,1-13.713-44.2,218.837,218.837,0,0,1-3.658-48.048,246.283,246.283,0,0,1,7.179-50.9l1.419.351c-16.441,66.482-4.749,130.86,32.922,181.275,40.6,54.33,105.7,86.173,183.322,89.667.707-.01,17.662-.273,39.083-1.848,20.079-1.476,48.3-4.439,68.713-10.174l.4,1.407a257.833,257.833,0,0,1-33.7,6.6c-10.617,1.463-22.5,2.683-35.315,3.625-21.816,1.6-39.012,1.849-39.183,1.851Z" transform="translate(-709.938 -766.365)" fill="#fff"/>
      <path id="Path_204959" data-name="Path 204959" d="M1409.94,949.044l-1.419-.351c16.441-66.482,4.749-130.86-32.922-181.275-40.6-54.333-105.711-86.178-183.343-89.668l.066-1.46a287.143,287.143,0,0,1,57.269,8.279,249.929,249.929,0,0,1,50.481,18.607,224.081,224.081,0,0,1,42.718,27.729,208.048,208.048,0,0,1,33.979,35.64,201.7,201.7,0,0,1,22.979,39.354,204.83,204.83,0,0,1,13.713,44.2,218.821,218.821,0,0,1,3.658,48.048A246.277,246.277,0,0,1,1409.94,949.044Z" transform="translate(-839.129 -675.976)" fill="#fff"/>
    </g>
    <g id="Group_61259" data-name="Group 61259" transform="translate(603.36 578.007)">
      <path id="Path_204960" data-name="Path 204960" d="M834.15,994.6l-1.419-.351a229.118,229.118,0,0,1,15.4-42.987,254.143,254.143,0,0,1,23.484-39.615,280.068,280.068,0,0,1,30.414-35.427,299.508,299.508,0,0,1,36.2-30.425,307.031,307.031,0,0,1,40.834-24.608,301.252,301.252,0,0,1,44.33-17.974,285.263,285.263,0,0,1,46.684-10.522,265.318,265.318,0,0,1,47.893-2.248l-.066,1.46c-3.81-.171-7.64-.256-11.448-.256C982.952,791.646,862.337,880.616,834.15,994.6Z" transform="translate(-826.704 -790.185)" fill="#fff"/>
      <path id="Path_204961" data-name="Path 204961" d="M1012.291,1293.227a199.764,199.764,0,0,1-43.666-4.83,211.349,211.349,0,0,1-37.356-12.037,190.828,190.828,0,0,1-32.635-17.968,176.648,176.648,0,0,1-27.378-23.235,168.446,168.446,0,0,1-21.584-27.837,166.4,166.4,0,0,1-14.844-30.629A170.919,170.919,0,0,1,826.372,1143c-3.488-23.939-2.089-48.886,4.158-74.148l1.419.351c-12.156,49.155-5.42,97.934,18.966,137.349,25.006,40.417,66.923,68.978,118.03,80.42a198.341,198.341,0,0,0,43.346,4.8q7.737,0,15.477-.6c9.152-.714,22.646-1.9,34.958-3.522,13.728-1.8,23.25-3.758,28.3-5.812l.551,1.354c-5.167,2.1-14.81,4.088-28.661,5.907-12.345,1.621-25.866,2.814-35.035,3.53Q1020.088,1293.227,1012.291,1293.227Z" transform="translate(-824.504 -864.789)" fill="#fff"/>
      <path id="Path_204962" data-name="Path 204962" d="M1371.032,1082.086l-1.184-.857a192.593,192.593,0,0,0,25.112-46.666,108.442,108.442,0,0,0,5.366-19.317l.005-.037.009-.036c13.542-54.762,3.913-107.789-27.115-149.314-33.441-44.755-87.078-70.985-151.029-73.86l.066-1.46a236.818,236.818,0,0,1,47.231,6.828,206.151,206.151,0,0,1,41.637,15.347,184.841,184.841,0,0,1,35.236,22.872,171.626,171.626,0,0,1,28.03,29.4,166.38,166.38,0,0,1,18.956,32.464,168.96,168.96,0,0,1,11.312,36.461,180.53,180.53,0,0,1,3.018,39.633,203.113,203.113,0,0,1-5.913,41.948,111.254,111.254,0,0,1-5.433,19.571,178.168,178.168,0,0,1-9.322,21.17A206.092,206.092,0,0,1,1371.032,1082.086Z" transform="translate(-930.995 -790.28)" fill="#fff"/>
    </g>
    <path id="Path_204963" data-name="Path 204963" d="M1165.66,1319.715a81.588,81.588,0,0,1-13.051-1.034,74.652,74.652,0,0,1-16.031-4.457,70.259,70.259,0,0,1-26.315-18.582,75.1,75.1,0,0,1-10.6-15.557,85.19,85.19,0,0,1-6.923-18.778,101.724,101.724,0,0,1-2.764-21.647,126.058,126.058,0,0,1,1.877-24.167l1.441.248c-5.446,31.636.968,59.668,18.06,78.932,13.575,15.3,32.719,23.581,54.271,23.582q2.175,0,4.38-.113l.075,1.46Q1167.864,1319.715,1165.66,1319.715Z" transform="translate(-292.339 -326.128)" fill="#fff"/>
  </g>
</svg>
