<svg id="instagram_8_" data-name="instagram (8)" xmlns="http://www.w3.org/2000/svg" width="23.991" height="23.996" viewBox="0 0 23.991 23.996">
  <path id="Path_204829" data-name="Path 204829" d="M24.379,7.055a8.768,8.768,0,0,0-.558-2.911A6.147,6.147,0,0,0,20.31.633,8.791,8.791,0,0,0,17.4.075C16.115.014,15.707,0,12.449,0S8.783.014,7.5.07A8.771,8.771,0,0,0,4.592.628,5.855,5.855,0,0,0,2.464,2.016,5.908,5.908,0,0,0,1.081,4.139,8.792,8.792,0,0,0,.524,7.05C.463,8.335.449,8.742.449,12s.014,3.666.07,4.945a8.768,8.768,0,0,0,.558,2.911,6.146,6.146,0,0,0,3.511,3.511,8.792,8.792,0,0,0,2.911.558c1.28.056,1.688.07,4.945.07s3.666-.014,4.945-.07a8.766,8.766,0,0,0,2.911-.558,6.138,6.138,0,0,0,3.511-3.511,8.8,8.8,0,0,0,.558-2.911c.056-1.28.07-1.688.07-4.945s0-3.666-.061-4.945Zm-2.161,9.8a6.577,6.577,0,0,1-.413,2.227,3.98,3.98,0,0,1-2.278,2.278,6.6,6.6,0,0,1-2.227.412c-1.266.056-1.645.07-4.847.07s-3.586-.014-4.847-.07a6.574,6.574,0,0,1-2.227-.412A3.692,3.692,0,0,1,4,20.461a3.731,3.731,0,0,1-.9-1.378,6.6,6.6,0,0,1-.412-2.227c-.056-1.266-.07-1.645-.07-4.847s.014-3.586.07-4.847a6.574,6.574,0,0,1,.412-2.227,3.647,3.647,0,0,1,.9-1.378,3.725,3.725,0,0,1,1.378-.9A6.6,6.6,0,0,1,7.611,2.25c1.266-.056,1.645-.07,4.847-.07s3.586.014,4.847.07a6.577,6.577,0,0,1,2.227.413,3.69,3.69,0,0,1,1.378.9,3.73,3.73,0,0,1,.9,1.378,6.6,6.6,0,0,1,.413,2.227c.056,1.266.07,1.645.07,4.847s-.014,3.577-.07,4.842Zm0,0" transform="translate(-0.449 0)" fill="#fff"/>
  <path id="Path_204830" data-name="Path 204830" d="M131.113,124.5a6.164,6.164,0,1,0,6.164,6.164A6.166,6.166,0,0,0,131.113,124.5Zm0,10.163a4,4,0,1,1,4-4A4,4,0,0,1,131.113,134.663Zm0,0" transform="translate(-119.113 -118.664)" fill="#fff"/>
  <path id="Path_204831" data-name="Path 204831" d="M365.328,90.041a1.439,1.439,0,1,1-1.439-1.439A1.439,1.439,0,0,1,365.328,90.041Zm0,0" transform="translate(-345.481 -84.449)" fill="#fff"/>
</svg>
