<svg xmlns="http://www.w3.org/2000/svg" width="140.535" height="115.633" viewBox="0 0 140.535 115.633">
  <g id="Log_out_Dark_theme" data-name="Log out Dark theme" transform="translate(8925.536 -22207.783)">
    <g id="Group_64639" data-name="Group 64639" transform="translate(-8925 22207.783)">
      <path id="Path_207512" data-name="Path 207512" d="M10.626,0A1.921,1.921,0,0,0,9.308.517L.616,8.646a1.935,1.935,0,1,0,2.639,2.831l8.689-8.131A1.928,1.928,0,0,0,10.626,0Z" transform="translate(56.657 78.344) rotate(-90)" fill="#9b9b9b"/>
      <path id="Path_207513" data-name="Path 207513" d="M21.557,0A1.926,1.926,0,0,0,20.2.551C17.064,3.639,13.8,6.607,10.641,9.49,7.327,12.514,3.9,15.639.577,18.913a1.931,1.931,0,1,0,2.709,2.752c3.275-3.223,6.673-6.324,9.958-9.323,3.185-2.906,6.475-5.907,9.67-9.032A1.93,1.93,0,0,0,21.562,0Z" transform="translate(70.174 103.616) rotate(-90)" fill="#9b9b9b"/>
      <path id="Path_207516" data-name="Path 207516" d="M1.929,0A1.93,1.93,0,0,0,.573,3.3L10.6,13.2a1.931,1.931,0,0,0,2.714-2.741L3.286.561A1.929,1.929,0,0,0,1.929,0Z" transform="translate(58.474 35.221) rotate(-90)" fill="#9b9b9b"/>
      <path id="Path_207517" data-name="Path 207517" d="M1.932,0A1.93,1.93,0,0,0,.583,3.313L1.96,4.666C4.561,7.2,7.251,9.829,9.88,12.421a1.931,1.931,0,1,0,2.714-2.746c-2.637-2.612-5.332-5.24-7.94-7.783L3.281.548A1.929,1.929,0,0,0,1.932,0Z" transform="translate(73.291 20.273) rotate(-90)" fill="#9b9b9b"/>
      <path id="Path_207518" data-name="Path 207518" d="M1.932,0A1.93,1.93,0,0,0,.562,3.292q1,1.012,2,2.028A1.931,1.931,0,0,0,5.32,2.612Q4.313,1.583,3.3.571A1.923,1.923,0,0,0,1.932,0Z" transform="translate(87.515 5.874) rotate(-90)" fill="#9b9b9b"/>
      <path id="Path_207473" data-name="Path 207473" d="M5.679,0a.964.964,0,0,0-.746.347A22.724,22.724,0,0,0,.143,17.27,22.494,22.494,0,0,0,8.436,32.614a.967.967,0,0,0,1.186-1.528A20.568,20.568,0,0,1,2.065,17.058,20.763,20.763,0,0,1,6.422,1.583.968.968,0,0,0,5.679,0Z" transform="matrix(0.568, 0.823, -0.823, 0.568, 55.303, 45.04)" fill="#141414"/>
      <path id="Path_207474" data-name="Path 207474" d="M.966,0A.967.967,0,0,0,.193,1.547a19.253,19.253,0,0,0,5.89,5.032.967.967,0,0,0,.978-1.669A17.327,17.327,0,0,1,1.744.392.963.963,0,0,0,.966,0Z" transform="matrix(0.568, 0.823, -0.823, 0.568, 30.745, 59.317)" fill="#141414"/>
      <path id="Path_207475" data-name="Path 207475" d="M2.135,0a.967.967,0,0,0-.9.626A19.287,19.287,0,0,0,.892,13.217a.967.967,0,1,0,1.843-.586,17.34,17.34,0,0,1,.3-11.323A.965.965,0,0,0,2.137,0Z" transform="matrix(0.568, 0.823, -0.823, 0.568, 43.051, 46.247)" fill="#141414"/>
      <g id="Group_61613" data-name="Group 61613" transform="translate(0 68.693)">
        <path id="Path_204787" data-name="Path 204787" d="M17.477,38.684a13.789,13.789,0,0,1-1.752-.122c-.587-.075-1.359-.142-2.252-.221-5.7-.5-10.947-1.166-12.487-3.831-1.824-3.156-.724-7.933.078-11.421.164-.712.319-1.385.43-1.965C2.5,15.9,3.785,10.655,5.305,5.546A7.614,7.614,0,0,1,6.937,2.3C9.923-.806,15.471-.052,19.521.5c.692.094,1.346.183,1.921.243.269.028.578.05.9.074,1.49.106,3.344.239,4.593,1.142C28.633,3.182,30.383,4.79,29.7,8.39c-.207,1.087-.434,2.195-.653,3.266-.236,1.155-.481,2.349-.7,3.534l-.212,1.126-1.077-.2,1.077.2-.191,1.015c-.99,5.253-2.013,10.685-3.378,15.97a6.875,6.875,0,0,1-1.226,2.774A7.212,7.212,0,0,1,17.477,38.684Zm-3.588-36.5c-2.157,0-4.163.372-5.37,1.626a5.59,5.59,0,0,0-1.113,2.36c-1.5,5.04-2.765,10.211-3.759,15.37-.119.618-.278,1.31-.446,2.041-.722,3.136-1.71,7.43-.315,9.845.248.429,1.11,1.244,4.1,1.886a56.619,56.619,0,0,0,6.68.859c.917.08,1.709.149,2.34.23,2.674.342,4.36-.169,5.637-1.711a5.037,5.037,0,0,0,.794-1.929c1.346-5.214,2.363-10.61,3.347-15.829l.4-2.141c.227-1.2.473-2.4.71-3.567.218-1.064.443-2.165.647-3.237.451-2.365-.456-3.222-1.891-4.26a7.82,7.82,0,0,0-3.463-.732c-.345-.025-.672-.048-.977-.08-.608-.064-1.278-.155-1.988-.251A40.68,40.68,0,0,0,13.889,2.181Z" transform="translate(12.64 0) rotate(19.06)" fill="#b51613" stroke="rgba(0,0,0,0)" stroke-width="1"/>
        <path id="Path_204788" data-name="Path 204788" d="M22.028,5.217c-1.75,8.242-3.371,16.524-5.252,24.737-.6,2.6-1.3,5.495-4.384,5.7-2.8.186-6.29-1.082-8.791-2.171A6.586,6.586,0,0,1,.979,31.71C-.226,30.193-.083,28.044.162,26.125A85.4,85.4,0,0,1,6.2,2.693,4.66,4.66,0,0,1,7.465.787,4.908,4.908,0,0,1,10.7.148C13.347.242,21.488-1.03,22.222,2.46A6.72,6.72,0,0,1,22.028,5.217Z" transform="translate(13.605 1.989) rotate(19.06)" fill="#b51613" stroke="rgba(0,0,0,0)" stroke-width="1"/>
        <path id="Path_204790" data-name="Path 204790" d="M2.27,4.967A2.5,2.5,0,0,1,1.8,4.921,2.156,2.156,0,0,1,.112,2.11,3.476,3.476,0,0,1,1.945.1,1.1,1.1,0,0,1,3.019.181a2.028,2.028,0,0,1,1.47,1.206A2.7,2.7,0,0,1,3.7,4.493,2.344,2.344,0,0,1,2.27,4.967ZM2.2,2.8Zm0-.029a.244.244,0,0,0,.163-.014.383.383,0,0,0,.118-.226,1.088,1.088,0,0,1-.157,0,.67.67,0,0,0-.124.239Z" transform="translate(19.863 6.365) rotate(19.06)" fill="#fff"/>
        <path id="Path_204791" data-name="Path 204791" d="M1.095,10.373A1.091,1.091,0,0,1,.422,8.42L11,.228a1.093,1.093,0,1,1,1.344,1.724L1.766,10.144a1.094,1.094,0,0,1-.672.229Z" transform="translate(14.813 11.86) rotate(19.06)" fill="#fff"/>
        <path id="Path_204792" data-name="Path 204792" d="M1.095,8.116a1.091,1.091,0,0,1-.732-1.9C2.7,4.122,5.161,2.105,7.671.219A1.093,1.093,0,1,1,8.99,1.961C6.53,3.811,4.119,5.787,1.826,7.837A1.094,1.094,0,0,1,1.095,8.116Z" transform="translate(12.46 21.33) rotate(19.06)" fill="#fff"/>
      </g>
    </g>
    <g id="Group_64642" data-name="Group 64642" transform="translate(-8835.752 22230.973)">
      <path id="Path_207508" data-name="Path 207508" d="M26.1,58.085H24.65a2.19,2.19,0,0,1-1.105-.3L1.082,44.614A2.19,2.19,0,0,1,0,42.725V16.674l.014-1.3a2.19,2.19,0,0,1,1.079-1.864L23.542.3A2.185,2.185,0,0,1,24.65,0H26.1a2.185,2.185,0,0,1,1.108.3L49.659,13.507a2.19,2.19,0,0,1,1.079,1.864l.013,1.28V42.725a2.19,2.19,0,0,1-1.082,1.889L27.208,57.785A2.19,2.19,0,0,1,26.1,58.085Zm-.859-4.378h.266L46.378,41.47V16.655L25.507,4.378h-.262L4.374,16.655V41.47Z" transform="translate(0)" fill="#9b9b9b"/>
      <g id="export" transform="translate(38.478 21.373) rotate(90)">
        <path id="Path_204460" data-name="Path 204460" d="M1.4,24.107A1.4,1.4,0,0,1,0,22.7V1.4a1.4,1.4,0,1,1,2.807,0V22.7A1.4,1.4,0,0,1,1.4,24.107Z" transform="translate(6.268 2.096)" fill="#b51613"/>
        <path id="Path_204461" data-name="Path 204461" d="M13.939,9.077a1.4,1.4,0,0,1-.992-.411L7.671,3.389,2.4,8.666A1.4,1.4,0,0,1,.411,6.681L6.679.411a1.4,1.4,0,0,1,1.985,0l6.268,6.27a1.4,1.4,0,0,1-.992,2.4Z" transform="translate(0)" fill="#b51613"/>
      </g>
    </g>
  </g>
</svg>
