<svg xmlns="http://www.w3.org/2000/svg" width="65" height="40" viewBox="0 0 65 40">
  <g id="layer1" transform="translate(0 0)">
    <g id="g13" transform="translate(0 0)">
      <g id="XMLID_328_">
        <rect id="rect19" width="17.575" height="31.445" transform="translate(23.712 4.278)" fill="#ff5f00"/>
        <path id="XMLID_330_" d="M2923.562,2259.5a20.022,20.022,0,0,1,7.644-15.722,20,20,0,1,0,0,31.445A19.941,19.941,0,0,1,2923.562,2259.5Z" transform="translate(-2898.735 -2239.502)" fill="#eb001b"/>
        <path id="path22" d="M3431.639,2259.5a20.083,20.083,0,0,1-32.472,15.723,19.992,19.992,0,0,0,0-31.445,20.082,20.082,0,0,1,32.472,15.722Z" transform="translate(-3366.639 -2239.502)" fill="#f79e1b"/>
      </g>
    </g>
  </g>
</svg>
