<svg xmlns="http://www.w3.org/2000/svg" width="43.621" height="43.621" viewBox="0 0 43.621 43.621">
  <g id="money-send" transform="translate(1.5 2.121)">
    <path id="Path_203362" data-name="Path 203362" d="M9.5,19.256a3.5,3.5,0,0,0,3.418,3.582h3.848a3.048,3.048,0,0,0,2.968-3.132,2.7,2.7,0,0,0-2.026-2.968l-6.161-2.149A2.689,2.689,0,0,1,9.52,11.622,3.061,3.061,0,0,1,12.488,8.49h3.848a3.5,3.5,0,0,1,3.418,3.582" transform="translate(5.383 4.326)" fill="none" stroke="#b51613" stroke-linecap="round" stroke-linejoin="round" stroke-width="3"/>
    <path id="Path_203363" data-name="Path 203363" d="M12,7.5V25.921" transform="translate(8 3.289)" fill="none" stroke="#b51613" stroke-linecap="round" stroke-linejoin="round" stroke-width="3"/>
    <path id="Path_203364" data-name="Path 203364" d="M42,22A20,20,0,1,1,22,2" transform="translate(-2 -2)" fill="none" stroke="#b51613" stroke-linecap="round" stroke-linejoin="round" stroke-width="3"/>
    <path id="Path_203365" data-name="Path 203365" d="M26.187,10.187V2H18" transform="translate(13.813 -2)" fill="none" stroke="#b51613" stroke-linecap="round" stroke-linejoin="round" stroke-width="3"/>
    <path id="Path_203366" data-name="Path 203366" d="M17,12.234,27.234,2" transform="translate(12.766 -2)" fill="none" stroke="#b51613" stroke-linecap="round" stroke-linejoin="round" stroke-width="3"/>
  </g>
</svg>
