<svg xmlns="http://www.w3.org/2000/svg" width="40" height="40" viewBox="0 0 40 40">
  <g id="Group_61213" data-name="Group 61213" transform="translate(-1389 -3027)">
    <rect id="Rectangle_536" data-name="Rectangle 536" width="40" height="40" rx="20" transform="translate(1389 3027)" fill="#b51613"/>
    <g id="music" transform="translate(1398.59 3037.822)">
      <path id="Path_203327" data-name="Path 203327" d="M5.235,20.75a2.871,2.871,0,0,1,0-5.741,2.871,2.871,0,0,1,0,5.741Zm0-4.628a1.758,1.758,0,1,0,1.73,1.758A1.743,1.743,0,0,0,5.235,16.122Z" transform="translate(0 -3.573)" fill="#fff"/>
      <path id="Path_203328" data-name="Path 203328" d="M9.2,14.863a.556.556,0,0,1-.547-.556V4.977a2.392,2.392,0,0,1,1.8-2.4L15.008,1.32a2.473,2.473,0,0,1,2.255.267A2.548,2.548,0,0,1,18.1,3.723v9.049a.548.548,0,1,1-1.095,0V3.716a1.622,1.622,0,0,0-.4-1.246A1.586,1.586,0,0,0,15.293,2.4L10.738,3.657a1.293,1.293,0,0,0-.993,1.328v9.33A.554.554,0,0,1,9.2,14.863Z" transform="translate(-1.685)" fill="#fff"/>
      <path id="Path_203329" data-name="Path 203329" d="M16.674,18.671A2.871,2.871,0,1,1,19.5,15.8,2.855,2.855,0,0,1,16.674,18.671Zm0-4.628A1.758,1.758,0,1,0,18.4,15.8,1.743,1.743,0,0,0,16.674,14.043Z" transform="translate(-3.09 -3.036)" fill="#fff"/>
      <path id="Path_203330" data-name="Path 203330" d="M9.2,9.075a.547.547,0,0,1-.526-.408.561.561,0,0,1,.38-.69L17.4,5.663a.547.547,0,0,1,.672.393.558.558,0,0,1-.387.682L9.344,9.052A.537.537,0,0,1,9.2,9.075Z" transform="translate(-1.686 -1.154)" fill="#fff"/>
    </g>
  </g>
</svg>
