<svg xmlns="http://www.w3.org/2000/svg" width="96.804" height="180" viewBox="0 0 96.804 180">
  <g id="Group_61560" data-name="Group 61560" transform="translate(-5944.644 -9019.252)">
    <path id="Path_204928" data-name="Path 204928" d="M1.215,0A1.214,1.214,0,0,0,.879,2.381a10.172,10.172,0,0,1,4.752,3.57c5.208,6.172,6.958,14.076,4.458,20.138-.5,1.2-1.943,4.081-4.643,4.776a1.214,1.214,0,1,0,.6,2.351c2.65-.682,4.941-2.944,6.286-6.2,2.841-6.89.939-15.772-4.846-22.627A12.816,12.816,0,0,0,1.55.046,1.208,1.208,0,0,0,1.215,0Z" transform="matrix(-0.662, -0.75, 0.75, -0.662, 5983.362, 9186.683)" fill="#b51613"/>
    <path id="Path_204929" data-name="Path 204929" d="M1.214,0A1.216,1.216,0,0,0,.209,1.9c2.141,3.149,6,5.8,11.17,7.666a47.289,47.289,0,0,0,13.2,2.63,22.987,22.987,0,0,0,10.7-2.07,16.916,16.916,0,0,0,7.941-7.3,1.214,1.214,0,1,0-2.147-1.131c-3.159,5.978-10.5,8.367-16.371,8.08C16.63,9.374,6.152,6.316,2.219.53a1.211,1.211,0,0,0-1-.531Z" transform="matrix(-0.662, -0.75, 0.75, -0.662, 5975.403, 9191.18)" fill="#b51613"/>
    <path id="Path_204930" data-name="Path 204930" d="M44.546-.034a1.211,1.211,0,0,0-.583.15A27.429,27.429,0,0,0,41.449,1.74c-.262.183-.523.366-.787.546A38.525,38.525,0,0,1,1.783,4.424,1.215,1.215,0,0,0,.638,6.567a39.949,39.949,0,0,0,21,4.494,40.052,40.052,0,0,0,20.394-6.77c.272-.185.542-.374.812-.563A25.166,25.166,0,0,1,45.13,2.243a1.213,1.213,0,0,0-.584-2.278Z" transform="matrix(-0.662, -0.75, 0.75, -0.662, 5974.944, 9175)" fill="#b51613"/>
    <path id="Path_204931" data-name="Path 204931" d="M20.124,53.145c16.6,3.107,35.375-9.677,34.516-27.228C53.761,7.982,37.045-4.548,19.394,1.584,7.683,5.653-.418,16.68.026,29.124.426,40.366,9.007,51.064,20.124,53.145Z" transform="matrix(0.981, -0.192, 0.192, 0.981, 5966.685, 9034.448)" fill="#b51613"/>
    <path id="Path_204992" data-name="Path 204992" d="M11.819,31.222c9.754,1.825,20.785-5.686,20.281-16C31.584,4.685,21.762-2.677,11.391.926A16.669,16.669,0,0,0,.01,17.108C.246,23.713,5.288,30,11.819,31.222Z" transform="matrix(0.981, -0.192, 0.192, 0.981, 6003.879, 9097.941)" fill="#b51613"/>
    <g id="Group_61495" data-name="Group 61495" transform="matrix(0.908, 0.42, -0.42, 0.908, 5994.708, 9034.666)">
      <path id="Path_204934" data-name="Path 204934" d="M3.651,6.224c.017-.219.033-.437.039-.657.044-1.49,0-2.985-.018-4.477C3.668.721,3.661.358,3.654,0,3.58.015,3.506.032,3.43.053A4.9,4.9,0,0,0,1,1.574a4.184,4.184,0,0,0-.6.945,7.274,7.274,0,0,0-.326.873.739.739,0,0,0-.047.172,2.452,2.452,0,0,0-.017.69,1.751,1.751,0,0,0,.371.824,2.556,2.556,0,0,0,.746.595c.087.045.17.1.264.139l.289.126.287.089.142.047.151.028a5.9,5.9,0,0,0,1.248.121Z" transform="translate(5.711 7.781)" fill="none"/>
      <path id="Path_204935" data-name="Path 204935" d="M2.439.329,2.3.276C2.251.259,2.191.248,2.137.232,2.026.205,1.924.166,1.809.145L1.463.082C1.347.061,1.216.056,1.094.041.777.012.443,0,.084,0,.047.379.014.758,0,1.137c-.029.985.1,2.651.2,4.1.174-.046.343-.115.513-.169a4.242,4.242,0,0,0,.55-.21c.18-.08.361-.157.544-.229.136-.07.238-.123.351-.193A3.336,3.336,0,0,0,2.869,3.7c.186-.261.417-.5.594-.795a1.779,1.779,0,0,0,.313-.938A1.763,1.763,0,0,0,2.439.329Z" transform="translate(13.502 19.558)" fill="none"/>
      <path id="Path_204936" data-name="Path 204936" d="M22.673,21.374a7.33,7.33,0,0,0-1.044-3.149A7.577,7.577,0,0,0,19.372,15.9a9.641,9.641,0,0,0-1.964-1c-.295-.1-.581-.211-.858-.292s-.547-.155-.809-.218a14.974,14.974,0,0,0-1.988-.33c-.089-1.4-.234-2.792-.257-4.187-.01-.644,0-1.2.031-1.718l.1.033.4.136c.271.1.62.328.895.459A3.554,3.554,0,0,0,15.954,9a2.668,2.668,0,0,0,1.29-.18c.913-.429,1.647-.516,2.317-1.347A2.141,2.141,0,0,0,19.8,6.323a5.212,5.212,0,0,0-.059-.731,4.774,4.774,0,0,0-.12-.539,1.461,1.461,0,0,0-.315-.548,2.825,2.825,0,0,0-.243-.25,3.548,3.548,0,0,0-.284-.214A3.409,3.409,0,0,0,18.16,3.7a4.19,4.19,0,0,0-.591-.221c-.627-.2-1.205-.349-1.785-.54-.246-.077-.492-.14-.738-.207s-.491-.109-.736-.159c-.151-.028-.3-.049-.452-.071A2.809,2.809,0,0,0,12.863.537a2.756,2.756,0,0,0-2.1-.485A4.658,4.658,0,0,0,9.37,1.2a1.845,1.845,0,0,0-.228,1.361,13.622,13.622,0,0,0-2.937.854A11.574,11.574,0,0,0,3.31,5.14,10.65,10.65,0,0,0,1.245,7.3,7.672,7.672,0,0,0,.486,8.664c-.1.253-.2.5-.27.768s-.128.543-.169.822c-.025.24-.043.505-.054.783,0,.282.023.58.049.881.049.3.1.608.171.9a8.3,8.3,0,0,0,.274.855,7.015,7.015,0,0,0,1.158,2.055,8.812,8.812,0,0,0,1.556,1.5A12.4,12.4,0,0,0,4.943,18.3c.3.158.638.295.961.445.332.125.672.257,1.015.371a10.594,10.594,0,0,0,2.354.46,39.238,39.238,0,0,1,.139,4.6c-.01.158-.016.308-.024.463a20,20,0,0,1-2.479-.758c-.312-.123-.626-.232-.937-.374-.4-.163-.828-.527-1.223-.714a6.6,6.6,0,0,0-.864-.411,2.031,2.031,0,0,0-1.07-.054A3.314,3.314,0,0,0,.283,24.5,2.717,2.717,0,0,0,.4,26.147a3.794,3.794,0,0,0,.263.536,2.984,2.984,0,0,0,1.6,1.022,4.169,4.169,0,0,1,.685.322A20.863,20.863,0,0,0,4.9,29.1a13.651,13.651,0,0,0,2.6.911,13.383,13.383,0,0,0,1.8.272,8.9,8.9,0,0,0-.064.942,2.619,2.619,0,0,0,.443,1.829,2.376,2.376,0,0,0,2.537.885,2.281,2.281,0,0,0,1.059-.819,3.319,3.319,0,0,0,.258-.41,2.679,2.679,0,0,0,.086-1.527,3.269,3.269,0,0,1-.017-.6c.014-.163.029-.325.044-.486.767-.127,1.458-.283,1.988-.423.35-.065.689-.167,1.034-.253l.52-.13a3,3,0,0,0,.291-.09l.305-.107a7.123,7.123,0,0,0,2.274-1.335c.182-.156.369-.315.534-.486A7.378,7.378,0,0,0,22.673,21.374ZM7.825,13.856l-.142-.047L7.4,13.72l-.289-.126c-.1-.042-.177-.095-.264-.139A2.556,2.556,0,0,1,6.1,12.86a1.751,1.751,0,0,1-.371-.824,2.452,2.452,0,0,1,.017-.69.739.739,0,0,1,.047-.172,7.274,7.274,0,0,1,.326-.873,4.184,4.184,0,0,1,.6-.944A4.9,4.9,0,0,1,9.14,7.836c.076-.021.15-.038.225-.055.007.36.013.723.018,1.091.021,1.492.062,2.987.018,4.477-.006.219-.022.438-.039.657h-.14a5.9,5.9,0,0,1-1.247-.121Zm9.141,8.606c-.176.294-.407.533-.594.795a3.336,3.336,0,0,1-.7.736c-.114.07-.215.124-.351.193-.183.073-.363.15-.544.229a4.242,4.242,0,0,1-.55.21c-.17.054-.339.123-.513.169-.1-1.448-.233-3.114-.2-4.1.011-.379.044-.758.081-1.137.359,0,.693.012,1.009.041.122.016.252.02.369.042l.347.063c.114.022.217.06.328.087.053.015.114.027.162.044l.141.053a1.638,1.638,0,0,1,1.022,2.575Z" transform="translate(0 0)" fill="#fff"/>
    </g>
    <g id="Group_61561" data-name="Group 61561" transform="matrix(0.908, 0.42, -0.42, 0.908, 6020.337, 9098.061)">
      <path id="Path_204934-2" data-name="Path 204934" d="M2.147,3.658c.01-.128.019-.257.023-.386.026-.876,0-1.754-.01-2.631,0-.216-.007-.429-.011-.641C2.1.01,2.061.02,2.017.033A2.877,2.877,0,0,0,.59.926a2.458,2.458,0,0,0-.351.555,4.274,4.274,0,0,0-.192.513.434.434,0,0,0-.028.1A1.441,1.441,0,0,0,.01,2.5a1.029,1.029,0,0,0,.218.484,1.5,1.5,0,0,0,.439.35c.051.026.1.057.155.082l.17.074.168.052.083.027.089.017a3.468,3.468,0,0,0,.733.071Z" transform="translate(3.358 4.575)" fill="none"/>
      <path id="Path_204935-2" data-name="Path 204935" d="M1.434.194,1.351.162C1.323.152,1.288.146,1.256.136,1.191.121,1.131.1,1.064.085L.86.048C.792.036.715.033.643.024.457.007.261,0,.05,0,.028.223.009.445,0,.668c-.017.579.061,1.558.12,2.408.1-.027.2-.067.3-.1a2.493,2.493,0,0,0,.323-.123c.106-.047.212-.092.319-.135.08-.041.14-.072.206-.113a1.96,1.96,0,0,0,.414-.432c.109-.154.245-.294.349-.467a1.045,1.045,0,0,0,.184-.551A1.036,1.036,0,0,0,1.434.194Z" transform="translate(7.937 11.496)" fill="none"/>
      <path id="Path_204936-2" data-name="Path 204936" d="M13.326,12.563a4.307,4.307,0,0,0-.613-1.85,4.452,4.452,0,0,0-1.326-1.368,5.665,5.665,0,0,0-1.154-.589c-.173-.059-.342-.124-.5-.172s-.321-.091-.475-.128a8.8,8.8,0,0,0-1.168-.194c-.053-.82-.137-1.64-.151-2.46-.006-.378,0-.707.018-1.009l.061.019.236.08c.159.059.365.193.526.269a2.088,2.088,0,0,0,.6.13,1.567,1.567,0,0,0,.758-.106c.536-.252.968-.3,1.361-.792a1.258,1.258,0,0,0,.14-.675A3.062,3.062,0,0,0,11.6,3.29a2.8,2.8,0,0,0-.07-.317.859.859,0,0,0-.185-.322A1.66,1.66,0,0,0,11.2,2.5a2.085,2.085,0,0,0-.167-.126,2,2,0,0,0-.363-.2,2.462,2.462,0,0,0-.347-.13c-.368-.116-.708-.205-1.049-.317-.145-.045-.289-.082-.434-.122s-.289-.064-.433-.093c-.089-.017-.177-.029-.266-.042A1.65,1.65,0,0,0,7.562.32,1.62,1.62,0,0,0,6.327.035,2.737,2.737,0,0,0,5.51.711a1.084,1.084,0,0,0-.134.8,8,8,0,0,0-1.726.5,6.8,6.8,0,0,0-1.7,1.012A6.257,6.257,0,0,0,.735,4.292a4.508,4.508,0,0,0-.446.8c-.057.149-.115.3-.159.451s-.075.319-.1.483c-.015.141-.025.3-.032.46s.014.341.029.518.056.357.1.531a4.878,4.878,0,0,0,.161.5A4.122,4.122,0,0,0,.97,9.248a5.178,5.178,0,0,0,.914.879,7.285,7.285,0,0,0,1.023.631c.178.093.375.173.565.262s.395.151.6.218a6.225,6.225,0,0,0,1.383.27,23.055,23.055,0,0,1,.082,2.7c-.006.093-.009.181-.014.272a11.751,11.751,0,0,1-1.457-.445c-.183-.072-.368-.136-.55-.22-.236-.1-.486-.31-.719-.419a3.879,3.879,0,0,0-.508-.241,1.193,1.193,0,0,0-.629-.032A1.947,1.947,0,0,0,.17,14.4a1.6,1.6,0,0,0,.066.97,2.229,2.229,0,0,0,.155.315,1.753,1.753,0,0,0,.938.6,2.45,2.45,0,0,1,.4.189,12.258,12.258,0,0,0,1.153.629,8.021,8.021,0,0,0,1.525.535,7.864,7.864,0,0,0,1.06.16,5.228,5.228,0,0,0-.038.553,1.539,1.539,0,0,0,.26,1.075,1.4,1.4,0,0,0,1.491.52,1.34,1.34,0,0,0,.622-.481,1.95,1.95,0,0,0,.152-.241,1.574,1.574,0,0,0,.051-.9A1.921,1.921,0,0,1,8,17.97c.008-.1.017-.191.026-.286.45-.075.856-.166,1.168-.248.206-.038.4-.1.608-.149l.305-.076a1.762,1.762,0,0,0,.171-.053l.179-.063a4.186,4.186,0,0,0,1.336-.784c.107-.092.217-.185.313-.286A4.335,4.335,0,0,0,13.326,12.563ZM4.6,8.145l-.083-.027L4.35,8.065l-.17-.074c-.056-.024-.1-.056-.155-.082a1.5,1.5,0,0,1-.439-.35,1.029,1.029,0,0,1-.218-.484,1.441,1.441,0,0,1,.01-.405.434.434,0,0,1,.028-.1A4.274,4.274,0,0,1,3.6,6.057,2.458,2.458,0,0,1,3.947,5.5a2.877,2.877,0,0,1,1.427-.894c.045-.012.088-.022.132-.032,0,.212.008.425.011.641.012.877.036,1.755.01,2.631,0,.129-.013.257-.023.386H5.422a3.468,3.468,0,0,1-.733-.071ZM9.972,13.2c-.1.173-.239.313-.349.467a1.96,1.96,0,0,1-.413.432c-.067.041-.126.073-.206.113-.107.043-.213.088-.319.135a2.493,2.493,0,0,1-.323.123c-.1.032-.2.072-.3.1-.059-.851-.137-1.83-.12-2.408.007-.223.026-.445.048-.668.211,0,.407.007.593.024.071.009.148.012.217.024l.2.037c.067.013.127.036.193.051.031.009.067.016.095.026l.083.031a.963.963,0,0,1,.6,1.513Z" transform="translate(0 0)" fill="#fff"/>
    </g>
    <g id="Group_61500" data-name="Group 61500" transform="translate(5962.083 9167.948)">
      <g id="Group_61499" data-name="Group 61499" transform="translate(0)">
        <path id="Path_204937" data-name="Path 204937" d="M37.05,29.637H5.158V1.259A1.253,1.253,0,0,1,6.405,0H35.8A1.253,1.253,0,0,1,37.05,1.259V29.637Z" transform="translate(-5.158)" fill="#9b9b9b"/>
      </g>
    </g>
    <g id="Group_61501" data-name="Group 61501" transform="translate(5960.434 9195.919)">
      <path id="Path_204938" data-name="Path 204938" d="M33.542,90.9H1.65a1.666,1.666,0,0,1,0-3.332H33.542a1.666,1.666,0,0,1,0,3.332Z" transform="translate(0 -87.568)" fill="#141414"/>
    </g>
    <path id="Path_204957" data-name="Path 204957" d="M6.292,0a1.2,1.2,0,0,0-.56.139C3.99,1.051,2.256,2.038.58,3.069a1.225,1.225,0,0,0-.4,1.678,1.208,1.208,0,0,0,1.667.4c1.63-1,3.316-1.962,5.009-2.851A1.221,1.221,0,0,0,6.292,0Z" transform="matrix(-0.973, -0.23, 0.23, -0.973, 5961.743, 9069.3)" fill="#b51613"/>
    <path id="Path_204958" data-name="Path 204958" d="M9.33,0a1.207,1.207,0,0,0-.287.035L.927,2.013A1.22,1.22,0,0,0,1.5,4.385L9.614,2.4A1.221,1.221,0,0,0,9.33,0Z" transform="matrix(-0.973, -0.23, 0.23, -0.973, 5961.653, 9057.497)" fill="#b51613"/>
    <path id="Path_204959" data-name="Path 204959" d="M9.188,0,1.213,0a1.221,1.221,0,0,0,0,2.441l7.976,0A1.221,1.221,0,0,0,9.188,0Z" transform="matrix(-0.973, -0.23, 0.23, -0.973, 5961.11, 9043.524)" fill="#b51613"/>
    <path id="Path_204960" data-name="Path 204960" d="M1.214,0a1.222,1.222,0,0,0-.5,2.332L4.471,4.055A1.21,1.21,0,0,0,6.078,3.45a1.223,1.223,0,0,0-.6-1.617L1.716.109a1.2,1.2,0,0,0-.5-.11Z" transform="matrix(-0.973, -0.23, 0.23, -0.973, 5965.727, 9032.241)" fill="#b51613"/>
    <path id="Path_204961" data-name="Path 204961" d="M1.214,0A1.222,1.222,0,0,0,.54,2.236L3.058,3.925A1.208,1.208,0,0,0,4.74,3.585,1.225,1.225,0,0,0,4.4,1.893L1.886.2A1.2,1.2,0,0,0,1.214,0Z" transform="matrix(-0.973, -0.23, 0.23, -0.973, 5974.676, 9024.408)" fill="#b51613"/>
    <path id="Path_204962" data-name="Path 204962" d="M.407,6.8c1.4,3.575,7.142,9.245,10.965,5.149,2-2.139.936-5.548-.557-7.638A10.272,10.272,0,0,0,6.167.322C1.9-1.186-1.143,2.836.407,6.8Z" transform="matrix(0.899, 0.438, -0.438, 0.899, 5977.755, 9128.855)" fill="#b51613"/>
    <path id="Path_204964" data-name="Path 204964" d="M11.284,26.429C18.829,27.847,27.365,22,26.977,13.977,26.58,5.778,18.984.052,10.96,2.858A12.974,12.974,0,0,0,2.152,15.451C2.332,20.59,6.231,25.479,11.284,26.429Z" transform="translate(5946.179 9088.875)" fill="#b51613"/>
  </g>
</svg>
