<svg xmlns="http://www.w3.org/2000/svg" width="1000px" height="100%" viewBox="0 0 650.001 530">
  <path id="Subtraction_6" data-name="Subtraction 6" d="M-13755.5-1958h-8.118c-1.266-9.149-9.74-16.048-19.713-16.048s-18.45,6.9-19.717,16.048h-6.284c-1.267-9.149-9.742-16.048-19.717-16.048s-18.45,6.9-19.717,16.048h-6.288c-1.267-9.149-9.741-16.048-19.714-16.048s-18.449,6.9-19.716,16.048h-6.289c-1.267-9.149-9.741-16.048-19.713-16.048s-18.45,6.9-19.717,16.048h-6.288c-1.267-9.149-9.741-16.048-19.713-16.048s-18.45,6.9-19.717,16.048h-6.289c-1.267-9.149-9.742-16.048-19.716-16.048s-18.447,6.9-19.714,16.048h-6.288c-1.267-9.149-9.742-16.048-19.717-16.048s-18.446,6.9-19.713,16.048h-6.288c-1.268-9.149-9.743-16.048-19.717-16.048s-18.447,6.9-19.713,16.048h-6.289c-1.267-9.149-9.742-16.048-19.716-16.048s-18.45,6.9-19.717,16.048h-6.289c-1.266-9.149-9.74-16.048-19.713-16.048s-18.449,6.9-19.717,16.048h-6.288c-1.267-9.149-9.741-16.048-19.713-16.048s-18.45,6.9-19.717,16.048h-6.288c-1.268-9.149-9.742-16.048-19.714-16.048s-18.449,6.9-19.716,16.048h-6.289c-1.266-9.149-9.741-16.048-19.717-16.048s-18.446,6.9-19.713,16.048h-6.288c-1.267-9.149-9.742-16.048-19.717-16.048s-18.446,6.9-19.713,16.048h-8.114v-395a22.351,22.351,0,0,0,15.9-6.6,22.346,22.346,0,0,0,6.6-15.9,22.526,22.526,0,0,0-22.5-22.5v-40a49.705,49.705,0,0,1,3.929-19.462,49.832,49.832,0,0,1,10.715-15.893,49.84,49.84,0,0,1,15.894-10.715A49.689,49.689,0,0,1-14355.5-2488h550a49.69,49.69,0,0,1,19.462,3.929,49.858,49.858,0,0,1,15.895,10.715,49.846,49.846,0,0,1,10.716,15.893,49.683,49.683,0,0,1,3.93,19.462v40a22.345,22.345,0,0,0-15.9,6.6,22.35,22.35,0,0,0-6.6,15.9,22.524,22.524,0,0,0,22.5,22.5v395Z" transform="translate(14405.5 2487.999)" fill="#fff"/>
</svg>