<svg xmlns="http://www.w3.org/2000/svg" xmlns:xlink="http://www.w3.org/1999/xlink" width="110.001" height="148.469" viewBox="0 0 110.001 148.469">
  <defs>
    <linearGradient id="linear-gradient" x1="-0.278" y1="-0.961" x2="1.851" y2="2.508" gradientUnits="objectBoundingBox">
      <stop offset="0" stop-color="#fff"/>
      <stop offset="0.515" stop-color="#db3128"/>
      <stop offset="1" stop-color="#383838"/>
    </linearGradient>
  </defs>
  <g id="Group_61128" data-name="Group 61128" transform="translate(15480.997 -6267.235)">
    <path id="Path_204384" data-name="Path 204384" d="M461.417,280.792c.129-.623.256-1.266.379-1.915.37-1.9,3.226-1.086,2.86.79-.05.25-.1.5-.146.751,1.136-.154,2.272-.334,3.407-.513-.087-.913-.192-1.825-.313-2.744a2.267,2.267,0,0,0-.294-.6c-.067-.116-.138-.232-.213-.341-.016,0-.161-.173-.217-.225s-.2-.167-.229-.193c-.091-.058-.181-.116-.276-.167l-.089-.052h-.057c-.144-.045-.285-.077-.429-.115l-.111-.039a.053.053,0,0,1-.062,0c-.157,0-.314-.013-.476-.013a4.331,4.331,0,0,0-.5.032H464.6l-.263.045c-3.041.637-5.8,2.532-8.388,4.428q-.973.713-1.911,1.471c.965-.058,1.926-.116,2.892-.186C458.413,281.1,459.922,280.959,461.417,280.792Z" transform="translate(-15914.461 6006.725)" fill="none"/>
    <path id="Path_204385" data-name="Path 204385" d="M399.45,422.144c.037-.217.069-.424.1-.655h0a38.958,38.958,0,0,1-11.007,6.542v.025c-.025.938-.094,1.889-.207,2.816a1.381,1.381,0,0,1,.94.424,24.531,24.531,0,0,1,6.02,10.32l1.531-6.3C397.883,430.962,398.745,426.579,399.45,422.144Z" transform="translate(-15869.337 5906.834)" fill="none"/>
    <path id="Path_204395" data-name="Path 204395" d="M666.3,228.636a102.652,102.652,0,0,0-8.716,8.251c-1.314,1.4.779,3.522,2.1,2.115a101.22,101.22,0,0,1,8.709-8.245C669.868,229.523,667.767,227.415,666.3,228.636Z" transform="translate(-16053.963 6038.967)" fill="#141414"/>
    <path id="Path_204396" data-name="Path 204396" d="M695.918,270.109l-16.245,5.636c-1.794.629-1.024,3.509.79,2.885L696.7,273C698.5,272.377,697.728,269.485,695.918,270.109Z" transform="translate(-16068.719 6010.412)" fill="#141414"/>
    <path id="Path_204397" data-name="Path 204397" d="M684.363,332.651c-1.9-.135-1.9,2.84,0,2.988l8.946.617c1.906.129,1.9-2.866,0-2.995Z" transform="translate(-16071.659 5967.588)" fill="#141414"/>
    <path id="Path_204408" data-name="Path 204408" d="M445.044,593.755a99.484,99.484,0,0,1-13.156,3.714c-2.032.424-4.1.913-6.18,1.208a16.154,16.154,0,0,1,1.254,1.439,11.664,11.664,0,0,1,2.684,7.005c.029,5-3.31,9.176-8.215,9.5a16.063,16.063,0,0,0,1.754.334c3.912.5,7.8-.372,11.589-1.272q7.809-1.851,15.508-4.139c4.547-1.349,9.011-2.943,13.537-4.343,6.18-1.928,12.755-3.38,18.261-6.954A13.765,13.765,0,0,0,488,593.356c1.1-3.29,1.151-7.493-1.081-10.295a7.165,7.165,0,0,0-4.88-2.621q-5.381,2.023-10.775,3.971C462.55,587.572,453.81,590.734,445.044,593.755Z" transform="translate(-15892.063 5798.136)" stroke="rgba(0,0,0,0)" stroke-width="1" fill="url(#linear-gradient)"/>
    <path id="Path_204409" data-name="Path 204409" d="M429.467,261.16a55.691,55.691,0,0,1,.165,5.655c-.046,1.928-3.012,1.928-2.966,0a56.4,56.4,0,0,0-.24-6.638c-1.135.186-2.27.36-3.409.514-1.027.141-2.057.264-3.091.379-1.494.161-2.994.315-4.492.418-.965.07-1.926.129-2.891.186-1.644.083-3.288.135-4.937.167-2.58.045-5.163.026-7.748-.077,0,0,1.421.193,1.756.932q.766,1.687,1.436,3.413.6,1.561,1.124,3.155a56.35,56.35,0,0,1,1.81,7c.94,4.865.789,9.678.768,14.607,0,1.086.021,2.172.028,3.258s0,2.153-.088,3.226c-.033.469-.077.944-.129,1.413-.181,1.716-.444,3.426-.72,5.128-.708,4.363-1.566,8.675-2.622,12.962q-1.375,5.639-2.746,11.284l-1.775,7.345q-.85,3.528-1.7,7.062c-2.02,8.405-3.868,17.055-3.244,25.763a33.916,33.916,0,0,0,2.461,10.892c.025.052.053.1.076.161a11.972,11.972,0,0,0,2.192,3.3,14.9,14.9,0,0,0,3.424,2.66c3.64-.135,5.8-3.161,5.678-6.786a8.731,8.731,0,0,0-2.063-4.961,7.738,7.738,0,0,0-4.411-3.116l-.1-.032a1.529,1.529,0,0,1-.941-1.812,1.444,1.444,0,0,1,1.366-1.061,1.822,1.822,0,0,1,.457,0A19.7,19.7,0,0,0,408.28,367c2.209-.437,4.423-.855,6.609-1.381,8.677-2.095,17-5.552,25.419-8.489q9.708-3.393,19.366-6.991a119.3,119.3,0,0,1,1.482-17.852c1.024-7.2,2.578-14.3,4.3-21.36,3.3-13.482,6.941-27.074,6.546-41.082a64.724,64.724,0,0,0-4.318-22.132,1.507,1.507,0,0,0-1.826-1.047c-8.1,3.033-15.906,6.824-24.084,9.646a91.432,91.432,0,0,1-12.29,3.277l-.169.039C429.382,260.158,429.43,260.659,429.467,261.16Z" transform="translate(-15872.968 6026.443)" fill="#b51613" stroke="rgba(0,0,0,0)" stroke-width="1"/>
    <path id="Path_204410" data-name="Path 204410" d="M428.949,589.7c-2.192.527-4.4.951-6.608,1.375a19.862,19.862,0,0,1-6.393.566,2.647,2.647,0,0,0-.457,0,1.425,1.425,0,0,0-1.366,1.067,1.537,1.537,0,0,0,.939,1.813l.1.025a7.575,7.575,0,0,1,4.41,3.123,8.626,8.626,0,0,1,2.055,4.936c.122,3.624-2.038,6.632-5.679,6.773h0a1.531,1.531,0,0,1-.376,2.75,1.39,1.39,0,0,1-.939-.064,1.416,1.416,0,0,0,.889.32c.286,0,.564,0,.839-.012,4.905-.347,8.245-4.525,8.216-9.5a11.632,11.632,0,0,0-2.684-7,14.818,14.818,0,0,0-1.252-1.452c2.081-.3,4.146-.784,6.179-1.2a99.442,99.442,0,0,0,13.155-3.714q13.156-4.569,26.229-9.357c3.6-1.3,7.191-2.609,10.776-3.971a11.19,11.19,0,0,0-3.211.09c-.028-.694-.044-1.375-.054-2.044q-9.65,3.567-19.366,6.967C445.951,584.139,437.626,587.6,428.949,589.7Z" transform="translate(-15887.013 5802.387)" fill="#fff"/>
    <path id="Path_207390" data-name="Path 207390" d="M467.257,346.256l-7.45,5.586a1.327,1.327,0,0,0-.273,2.03,139.465,139.465,0,0,1,12.906,16.6,169.505,169.505,0,0,1-11.931,18.467,1.314,1.314,0,0,0,.464,1.768l8.763,6.1a1.32,1.32,0,0,0,1.766-.461q4.607-6.192,8.621-12.783,2.074,4.028,3.9,8.187a1.294,1.294,0,0,0,1.766.464l7.453-5.594a1.348,1.348,0,0,0,.464-1.768,141.949,141.949,0,0,0-6.8-13.519,177.028,177.028,0,0,0,9.472-22.736,1.092,1.092,0,0,0-.461-1.364,1.033,1.033,0,0,0-.134-.106l-8.76-6.1a1.318,1.318,0,0,0-1.91.772,172.829,172.829,0,0,1-6.574,16.617,144.071,144.071,0,0,0-9.734-11.969A1.274,1.274,0,0,0,467.257,346.256Z" transform="translate(-15914.644 5969.448)" fill="#fff"/>
  </g>
</svg>
