<svg xmlns="http://www.w3.org/2000/svg" width="16.635" height="17.5" viewBox="0 0 16.635 17.5">
  <g id="trash" transform="translate(-2.183 -1.25)">
    <path id="Path_204283" data-name="Path 204283" d="M18,5.88c-2.775-.264-5.567-.4-8.35-.4q-2.475,0-4.95.24L3,5.88" transform="translate(0 -0.696)" fill="none" stroke="#b51613" stroke-linecap="round" stroke-linejoin="round" stroke-width="1.5"/>
    <path id="Path_204284" data-name="Path 204284" d="M8.5,4.376l.183-1.048C8.817,2.568,8.917,2,10.325,2h2.183c1.408,0,1.517.6,1.642,1.336l.183,1.04" transform="translate(-0.917)" fill="none" stroke="#b51613" stroke-linecap="round" stroke-linejoin="round" stroke-width="1.5"/>
    <path id="Path_204285" data-name="Path 204285" d="M16.567,9.14,16.025,17.2c-.092,1.256-.167,2.232-2.492,2.232H8.183c-2.325,0-2.4-.976-2.492-2.232L5.15,9.14" transform="translate(-0.358 -1.428)" fill="none" stroke="#b51613" stroke-linecap="round" stroke-linejoin="round" stroke-width="1.5"/>
    <path id="Path_204286" data-name="Path 204286" d="M10.33,16.5H13.1" transform="translate(-1.222 -2.9)" fill="none" stroke="#b51613" stroke-linecap="round" stroke-linejoin="round" stroke-width="1.5"/>
    <path id="Path_204287" data-name="Path 204287" d="M9.5,12.5h4.167" transform="translate(-1.083 -2.1)" fill="none" stroke="#b51613" stroke-linecap="round" stroke-linejoin="round" stroke-width="1.5"/>
  </g>
</svg>
