<svg xmlns="http://www.w3.org/2000/svg" width="29.755" height="24" viewBox="0 0 29.755 24">
  <path id="twitter_5_" data-name="twitter (5)" d="M29.755,50.841a12.791,12.791,0,0,1-3.515.956,6.03,6.03,0,0,0,2.684-3.347,12.245,12.245,0,0,1-3.868,1.466,6.117,6.117,0,0,0-10.41,5.522A17.308,17.308,0,0,1,2.072,49.1,6.028,6.028,0,0,0,3.946,57.2a6.058,6.058,0,0,1-2.756-.746v.066a6.1,6.1,0,0,0,4.887,5.95,6.13,6.13,0,0,1-1.6.2,5.432,5.432,0,0,1-1.155-.1,6.152,6.152,0,0,0,5.7,4.218A12.314,12.314,0,0,1,1.46,69.366,11.508,11.508,0,0,1,0,69.282,17.265,17.265,0,0,0,9.358,72a17.077,17.077,0,0,0,11.658-4.365,17.617,17.617,0,0,0,5.7-12.867c0-.268-.009-.526-.022-.783A12.121,12.121,0,0,0,29.755,50.841Z" transform="translate(0 -48)" fill="#fff"/>
</svg>
