<svg xmlns="http://www.w3.org/2000/svg" width="26.291" height="26.292" viewBox="0 0 26.291 26.292">
  <g id="verify" transform="translate(-0.861 -0.86)">
    <path id="Path_203330" data-name="Path 203330" d="M8.38,12l2.41,2.42L15.619,9.58" transform="translate(1.994 1.994)" fill="none" stroke="#20ad6d" stroke-linecap="round" stroke-linejoin="round" stroke-width="2"/>
    <path id="Path_203331" data-name="Path 203331" d="M12.5,2.538a2.417,2.417,0,0,1,3.023,0l1.9,1.631a2.659,2.659,0,0,0,1.511.564h2.039a2.324,2.324,0,0,1,2.315,2.315V9.088a2.691,2.691,0,0,0,.564,1.511l1.631,1.9a2.417,2.417,0,0,1,0,3.023l-1.631,1.9a2.659,2.659,0,0,0-.564,1.511v2.039a2.324,2.324,0,0,1-2.315,2.315H18.925a2.691,2.691,0,0,0-1.511.564l-1.9,1.631a2.417,2.417,0,0,1-3.023,0l-1.9-1.631a2.659,2.659,0,0,0-1.511-.564H7.013A2.324,2.324,0,0,1,4.7,20.963V18.912a2.73,2.73,0,0,0-.552-1.5L2.527,15.505a2.415,2.415,0,0,1,0-3L4.146,10.6A2.73,2.73,0,0,0,4.7,9.1V7.037A2.324,2.324,0,0,1,7.013,4.721H9.088A2.691,2.691,0,0,0,10.6,4.158Z" transform="translate(0 0)" fill="none" stroke="#20ad6d" stroke-linecap="round" stroke-linejoin="round" stroke-width="2"/>
  </g>
</svg>
