<svg xmlns="http://www.w3.org/2000/svg" width="470" height="285" viewBox="0 0 470 285">
  <g id="Group_61419" data-name="Group 61419" transform="translate(-24 -386.33)">
    <rect id="Rectangle_806" data-name="Rectangle 806" width="470" height="285" rx="24" transform="translate(24 386.33)" fill="#1a1a1a"/>
    <path id="Rectangle_807" data-name="Rectangle 807" d="M0,0H78a22,22,0,0,1,22,22V255.014a22,22,0,0,1-22,22H0a0,0,0,0,1,0,0V0A0,0,0,0,1,0,0Z" transform="translate(389.999 390.33)" fill="#1a1a1a"/>
    <text id="xxxx_xxxx_xx20_2288" data-name="xxxx xxxx xx20 2288" transform="translate(56 516.33)" fill="rgba(194,194,194,0.77)" font-size="18" font-family="SegoeUI-Bold, Segoe UI" font-weight="700" letter-spacing="0.02em" opacity="0.4"><tspan x="0" y="0">xxxx xxxx xx</tspan><tspan y="0" fill="#fff">20 2288</tspan></text>
    <text id="Greg_Will" data-name="Greg Will" transform="translate(56 627.33)" fill="#fff" font-size="22" font-family="SegoeUI-Bold, Segoe UI" font-weight="700" letter-spacing="0.02em" opacity="0.4"><tspan x="0" y="0">Greg Will</tspan></text>
    <text id="_11_26" data-name="11/26" transform="translate(308 627.33)" fill="#fff" font-size="22" font-family="SegoeUI-Bold, Segoe UI" font-weight="700" letter-spacing="0.02em" opacity="0.4"><tspan x="0" y="0">11/26</tspan></text>
    <g id="Group_60509" data-name="Group 60509" transform="translate(56 436.33)">
      <path id="Path_204885" data-name="Path 204885" d="M12.194,13.107H0V18.46c0,.074.01.145.011.218H14.677a6.844,6.844,0,0,1-2.483-5.57Z" transform="translate(0 9.89)" fill="#505055"/>
      <path id="Path_204886" data-name="Path 204886" d="M12.2,10.328c0-.08-.022-.158-.023-.237a6.888,6.888,0,0,1,2.015-4.972c.134-.135.291-.237.433-.36H.1a9.529,9.529,0,0,0-.1,1.3v4.269H12.2Z" transform="translate(0 3.591)" fill="#505055"/>
      <path id="Path_204887" data-name="Path 204887" d="M47.4,6.595A9.791,9.791,0,0,0,38.1,0H11.612V6.595Z" transform="translate(9.09)" fill="#505055"/>
      <path id="Path_204888" data-name="Path 204888" d="M9.337,6.343a5.16,5.16,0,0,0-1.509,3.726,5.218,5.218,0,0,0,1.1,3.128,2.77,2.77,0,0,1,.015,3.324,5.119,5.119,0,0,0,.9,7.266,5.313,5.313,0,0,0,7.36-.9,5.1,5.1,0,0,0,0-6.34,2.766,2.766,0,0,1-.017-3.327,8.77,8.77,0,0,0,1.39-2.887l.007,0v0H50.873V6.059a9.532,9.532,0,0,0-.1-1.3H13.082A5.329,5.329,0,0,0,9.337,6.343Z" transform="translate(6.127 3.591)" fill="#505055"/>
      <path id="Path_204889" data-name="Path 204889" d="M15.787,13.107a6.825,6.825,0,0,1-1.459,4.551,6.915,6.915,0,0,1-1.02,1.019H46.572c0-.073.011-.144.011-.218V13.107h-30.8Z" transform="translate(10.417 9.89)" fill="#505055"/>
      <path id="Path_204890" data-name="Path 204890" d="M11.612,17.282V24.96H38.1a9.771,9.771,0,0,0,9.6-7.678Z" transform="translate(9.09 13.04)" fill="#505055"/>
      <path id="Path_204891" data-name="Path 204891" d="M12.513,14.5a6.807,6.807,0,0,1,1.138-2.187,1.029,1.029,0,0,0-.017-1.217,6.883,6.883,0,0,1-1.122-2.166H0V14.5Z" transform="translate(0 6.74)" fill="#505055"/>
      <path id="Path_204892" data-name="Path 204892" d="M18.829,17.282H.116a9.771,9.771,0,0,0,9.6,7.678h9.114Z" transform="translate(0.091 13.04)" fill="#505055"/>
      <path id="Path_204893" data-name="Path 204893" d="M18.7,6.595V0H9.582a9.791,9.791,0,0,0-9.3,6.595Z" transform="translate(0.224)" fill="#505055"/>
      <path id="Path_204894" data-name="Path 204894" d="M15.164,8.933a10.472,10.472,0,0,1-1.18,2.161,1.037,1.037,0,0,0,0,1.244A6.78,6.78,0,0,1,15.118,14.5h31.1V8.933H15.164Z" transform="translate(10.782 6.74)" fill="#505055"/>
    </g>
    <g id="symbols" transform="translate(408.999 592.776)">
      <g id="Group_61409" data-name="Group 61409" transform="translate(20.975 16.853)">
        <g id="Group_61408" data-name="Group 61408" transform="translate(0 0)">
          <path id="Path_204904" data-name="Path 204904" d="M19.771,16.8,16.722,34.238H21.6L24.651,16.8Z" transform="translate(-16.722 -16.799)" fill="#d0d0d0"/>
        </g>
      </g>
      <g id="Group_61411" data-name="Group 61411" transform="translate(4.844 16.869)">
        <g id="Group_61410" data-name="Group 61410" transform="translate(0 0)">
          <path id="Path_204905" data-name="Path 204905" d="M15.9,16.816,11.127,28.708l-.509-1.8a18.831,18.831,0,0,0-6.756-7.229L8.23,34.226l5.16-.009,7.68-17.406Z" transform="translate(-3.862 -16.812)" fill="#d0d0d0"/>
        </g>
      </g>
      <g id="Group_61413" data-name="Group 61413" transform="translate(0 16.704)">
        <g id="Group_61412" data-name="Group 61412">
          <path id="Path_204906" data-name="Path 204906" d="M9.749,18.094a1.961,1.961,0,0,0-2.125-1.417H.063L0,17.024c5.884,1.391,9.778,4.743,11.393,8.773Z" transform="translate(0 -16.677)" fill="#d0d0d0"/>
        </g>
      </g>
      <g id="Group_61415" data-name="Group 61415" transform="translate(28.904 16.554)">
        <g id="Group_61414" data-name="Group 61414">
          <path id="Path_204907" data-name="Path 204907" d="M32.927,20.2a9.209,9.209,0,0,1,3.65.667l.44.2.66-3.78a12.881,12.881,0,0,0-4.369-.732c-4.819,0-8.216,2.365-8.242,5.755-.031,2.5,2.42,3.9,4.271,4.738,1.9.856,2.538,1.4,2.529,2.164-.015,1.167-1.515,1.7-2.916,1.7A10.465,10.465,0,0,1,24.358,30l-.628-.279-.686,3.9a15.8,15.8,0,0,0,5.434.929c5.126,0,8.458-2.337,8.493-5.959.021-1.982-1.279-3.494-4.1-4.734-1.706-.809-2.75-1.347-2.74-2.164C30.132,20.972,31.018,20.2,32.927,20.2Z" transform="translate(-23.043 -16.554)" fill="#d0d0d0"/>
        </g>
      </g>
      <g id="Group_61417" data-name="Group 61417" transform="translate(42.489 16.873)">
        <g id="Group_61416" data-name="Group 61416">
          <path id="Path_204908" data-name="Path 204908" d="M47.438,16.815H43.67a2.436,2.436,0,0,0-2.555,1.447L33.874,34.244H39s.835-2.149,1.025-2.62l6.245.007c.146.609.595,2.612.595,2.612h4.524Zm-6.015,11.24c.4-1,1.943-4.874,1.943-4.874-.026.048.4-1.008.65-1.665l.329,1.5,1.13,5.035Z" transform="translate(-33.874 -16.815)" fill="#d0d0d0"/>
        </g>
      </g>
    </g>
  </g>
</svg>
