<svg xmlns="http://www.w3.org/2000/svg" width="33.594" height="24" viewBox="0 0 33.594 24">
  <path id="youtube_6_" data-name="youtube (6)" d="M16.794,24.5h-.009c-1.014-.007-9.975-.088-12.514-.766A5.163,5.163,0,0,1,.618,20.124,37.251,37.251,0,0,1,0,12.532a37.952,37.952,0,0,1,.615-7.65l0-.007A5.271,5.271,0,0,1,4.267,1.242l.013,0C6.79.586,15.769.506,16.785.5H16.8c1.016.007,10,.088,12.517.767a5.162,5.162,0,0,1,3.649,3.6,36.139,36.139,0,0,1,.618,7.689,37.354,37.354,0,0,1-.615,7.581l0,.007a5.164,5.164,0,0,1-3.655,3.61l-.007,0c-2.51.652-11.489.732-12.5.739h-.009ZM3.153,5.548a36.7,36.7,0,0,0-.528,6.967v.034a34.486,34.486,0,0,0,.528,6.9,2.545,2.545,0,0,0,1.8,1.775c1.873.5,9.172.659,11.84.677,2.675-.018,9.984-.172,11.843-.653a2.546,2.546,0,0,0,1.8-1.775,34.6,34.6,0,0,0,.528-6.9c0-.014,0-.027,0-.041a33.4,33.4,0,0,0-.526-6.978V5.551a2.547,2.547,0,0,0-1.8-1.779c-1.855-.5-9.166-.659-11.84-.677-2.673.018-9.975.172-11.84.652a2.617,2.617,0,0,0-1.8,1.8ZM31.7,19.812h0ZM13.449,17.754V7.246L22.635,12.5Zm0,0" transform="translate(0.002 -0.5)" fill="#fff"/>
</svg>
