<?xml version="1.0" standalone="no"?>
<!DOCTYPE svg PUBLIC "-//W3C//DTD SVG 1.1//EN" "http://www.w3.org/Graphics/SVG/1.1/DTD/svg11.dtd" >
<svg xmlns="http://www.w3.org/2000/svg" xmlns:xlink="http://www.w3.org/1999/xlink" version="1.1">
<metadata>
Created by FontForge 20201107 at Thu Aug 26 19:49:01 2021
 By 
Copyright (c) 2021 by Webhance. All rights reserved.
</metadata>
<defs>
<font id="Obadiah-Bold" horiz-adv-x="551" >
  <font-face 
    font-family="Obadiah Bold"
    font-weight="700"
    font-stretch="normal"
    units-per-em="1000"
    panose-1="0 0 8 0 0 0 0 0 0 0"
    ascent="800"
    descent="-200"
    x-height="511"
    cap-height="698"
    bbox="-302 -172 1109 886"
    underline-thickness="50"
    underline-position="-100"
    unicode-range="U+0020-2122"
  />
<missing-glyph horiz-adv-x="924" 
 />
    <glyph glyph-name=".notdef" horiz-adv-x="924" 
 />
    <glyph glyph-name=".null" horiz-adv-x="0" 
 />
    <glyph glyph-name="nonmarkingreturn" horiz-adv-x="1460" 
 />
    <glyph glyph-name="space" unicode=" " horiz-adv-x="360" 
 />
    <glyph glyph-name="exclam" unicode="!" horiz-adv-x="187" 
d="M125 159h-65l-20 309v231h104v-231zM151 -7h-115v118h115v-118z" />
    <glyph glyph-name="quotedbl" unicode="&#x22;" horiz-adv-x="307" 
d="M121 484q-34 0 -54 23t-17 59l12 133h59q14 0 23 -9.5t8 -23.5l-16 -183zM240 484q-34 0 -54 23t-17 59l12 133h59q14 0 23 -9.5t8 -23.5l-16 -183z" />
    <glyph glyph-name="numbersign" unicode="#" horiz-adv-x="591" 
d="M195 -7h-88l26 190h-97l15 91h95l18 125h-97l14 90h96l24 182h88l-24 -182h106l24 182h89l-26 -182h97l-14 -90h-94l-18 -125h94l-13 -91h-94l-26 -190h-88l26 190h-107zM252 399l-18 -125h107l18 125h-107z" />
    <glyph glyph-name="dollar" unicode="$" horiz-adv-x="586" 
d="M134 241q5 -68 35 -104.5t91 -43.5v215q-97 21 -147 63.5t-50 120.5q0 77 51.5 127t145.5 57v52h78v-52q180 -21 198 -193h-99q-6 89 -99 104v-198q108 -18 160 -62.5t52 -126.5q0 -80 -56.5 -133.5t-155.5 -63.5v-78h-78v79q-106 10 -164 72.5t-60 164.5h98zM260 589
q-49 -4 -76 -29.5t-27 -58.5t27 -60t76 -36v184zM338 92q55 8 85.5 35.5t30.5 62.5t-30 63t-86 38v-199z" />
    <glyph glyph-name="percent" unicode="%" horiz-adv-x="825" 
d="M80 342.5q-44 56.5 -44 142.5q0 89 45.5 144.5t120.5 55.5q76 0 120 -56t44 -144t-44 -143.5t-120 -55.5q-78 0 -122 56.5zM264 -7h-96l388 677h96zM254.5 398.5q19.5 32.5 19.5 86.5q0 52 -20 85t-52 33q-33 0 -52.5 -32t-19.5 -86q0 -52 20.5 -85.5t51.5 -33.5
q33 0 52.5 32.5zM504 35.5q-45 56.5 -45 144.5t45.5 144t120.5 56t119.5 -56.5t44.5 -143.5q0 -89 -44.5 -145t-119.5 -56q-76 0 -121 56.5zM677.5 93.5q19.5 32.5 19.5 86.5q0 52 -20 85t-52 33q-33 0 -53 -32t-20 -86q0 -52 20.5 -85.5t52.5 -33.5q33 0 52.5 32.5z" />
    <glyph glyph-name="ampersand" unicode="&#x26;" horiz-adv-x="623" 
d="M135 15q-46 25 -72.5 68.5t-26.5 95.5q0 63 30.5 108.5t106.5 94.5q-31 38 -47 78t-16 77q0 44 20 75q20 33 55.5 52t79.5 19q68 0 111 -40.5t43 -107.5q0 -51 -28.5 -93t-88.5 -79l110 -138q17 47 17 93q0 13 -1 16h88l1 -17q0 -48 -10.5 -89.5t-31.5 -82.5l112 -142
h-120l-47 61q-37 -36 -83.5 -55t-98.5 -19q-57 0 -103 25zM252 429q35 22 54.5 53t19.5 59q0 24 -16 39.5t-46 15.5t-45 -16.5t-15 -43.5q0 -22 9.5 -46t27.5 -47zM364 136l-138 178q-52 -36 -73 -65.5t-21 -69.5q0 -42 32 -70.5t78 -28.5q72 0 122 56z" />
    <glyph glyph-name="quotesingle" unicode="'" horiz-adv-x="187" 
d="M121 484q-34 0 -54 23t-17 59l12 133h59q14 0 23 -9.5t8 -23.5l-16 -183z" />
    <glyph glyph-name="parenleft" unicode="(" horiz-adv-x="307" 
d="M181 -119q-75 113 -110 219t-35 224q0 212 145 412h90q-122 -195 -122 -412q0 -121 28.5 -227.5t91.5 -215.5h-88z" />
    <glyph glyph-name="parenright" unicode=")" horiz-adv-x="307" 
d="M38 -119q63 109 91.5 215.5t28.5 227.5q0 217 -122 412h90q145 -200 145 -412q0 -118 -35 -224t-110 -219h-88z" />
    <glyph glyph-name="asterisk" unicode="*" horiz-adv-x="369" 
d="M185 483l-54 -80l-63 45l52 77l-84 28l27 69l82 -26v95h79v-95l82 26l27 -69l-84 -28l53 -77l-64 -45z" />
    <glyph glyph-name="plus" unicode="+" horiz-adv-x="518" 
d="M303 89h-88v185h-179v86h179v185h88v-185h179v-86h-179v-185z" />
    <glyph glyph-name="comma" unicode="," horiz-adv-x="191" 
d="M37 -49q17 4 27 15.5t15 34.5h-43v121h29q39 0 64.5 -25.5t25.5 -65.5v-18q0 -57 -31.5 -92.5t-86.5 -39.5v70z" />
    <glyph glyph-name="hyphen" unicode="-" horiz-adv-x="349" 
d="M313 222h-277v98h277v-98z" />
    <glyph glyph-name="period" unicode="." horiz-adv-x="191" 
d="M127 1q-39 0 -65 26t-26 64v31h90q12 0 20.5 -9t8.5 -21v-91h-28z" />
    <glyph glyph-name="slash" unicode="/" horiz-adv-x="457" 
d="M141 -7h-105l280 706h105z" />
    <glyph glyph-name="zero" unicode="0" horiz-adv-x="602" 
d="M161 25q-60 42 -92.5 122t-32.5 188t33 189q33 80 93 122t140 42q82 0 140 -41q60 -44 92 -124t32 -188t-32 -190q-32 -80 -92 -122t-141 -42q-82 0 -140 44zM422 141q42 67 42 194q0 126 -42.5 194t-119.5 68q-78 0 -120.5 -68t-42.5 -194q0 -125 42.5 -193t120.5 -68
t120 67z" />
    <glyph glyph-name="one" unicode="1" horiz-adv-x="316" 
d="M180 -7v582l-109 -34q-13 -3 -24 6t-11 25v44l153 66h91v-689h-100z" />
    <glyph glyph-name="two" unicode="2" horiz-adv-x="559" 
d="M36 -6q0 80 27.5 136t80 99.5t142.5 95.5q56 33 81.5 51.5t40 42.5t14.5 60q-1 58 -39.5 90.5t-91.5 32.5q-46 0 -82.5 -25.5t-47.5 -73.5q-6 -29 -33 -29h-73q7 104 71 160t169 56q66 0 117.5 -26.5t81 -74.5t29.5 -110q0 -58 -19.5 -95t-58.5 -66t-118 -74
q-74 -41 -115 -77.5t-55 -74.5h353v-98h-474z" />
    <glyph glyph-name="three" unicode="3" horiz-adv-x="588" 
d="M163.5 14.5q-61.5 31.5 -95 89t-32.5 132.5h99q-2 -76 42.5 -119t127.5 -43q70 0 108.5 32t38.5 92q0 45 -6.5 68t-30.5 35.5t-77 12.5h-23q-11 0 -20 10.5t-9 22.5v53h51q42 0 62.5 13t26 33.5t5.5 54.5q0 48 -37 76t-96 28q-61 0 -99 -31.5t-44 -88.5q-1 -14 -10 -22.5
t-21 -8.5h-65q-1 1 -1 8v11q0 65 30 114.5t85 76t127 26.5q66 0 118 -23.5t81.5 -66.5t29.5 -100q0 -46 -22 -83t-64 -55q56 -18 82.5 -59.5t26.5 -110.5q0 -64 -32 -111.5t-88 -72.5t-125 -25q-82 0 -143.5 31.5z" />
    <glyph glyph-name="four" unicode="4" horiz-adv-x="580" 
d="M440 -6h-98v156h-306l6 84l316 450h82v-448h104v-86h-104v-156zM342 519l-190 -283h190v283z" />
    <glyph glyph-name="five" unicode="5" 
d="M153 9q-55 28 -86 78.5t-31 114.5h97q4 -61 41.5 -95t102.5 -34q63 0 100.5 40t37.5 106q0 43 -21.5 75t-55.5 48.5t-73 16.5q-37 0 -69.5 -15.5t-53.5 -45.5h-56q-14 0 -23.5 7.5t-9.5 22.5q0 6 1 10l70 341h357v-63q0 -11 -20.5 -20t-34.5 -9h-230l-34 -169
q56 31 118 31t116 -29t86.5 -81t32.5 -118q0 -71 -30 -125.5t-84 -84.5t-123 -30q-70 0 -125 28z" />
    <glyph glyph-name="six" unicode="6" horiz-adv-x="556" 
d="M129 41q-49 45 -71 113t-22 174q0 102 28.5 184t87 130t142.5 48q93 0 149.5 -54.5t62.5 -144.5l-71 1q-12 0 -20.5 7.5t-11.5 20.5q-7 39 -36.5 60.5t-72.5 21.5q-74 0 -115 -68t-43 -181q27 39 68 62.5t95 23.5q62 0 113 -31t79.5 -83.5t28.5 -114.5q0 -61 -30 -113.5
t-81.5 -84t-112.5 -31.5q-102 0 -167 60zM389.5 108q37.5 39 37.5 101q0 63 -38 103t-96 40q-65 0 -105 -40.5t-40 -103.5q0 -61 41.5 -100t104.5 -39q58 0 95.5 39z" />
    <glyph glyph-name="seven" unicode="7" horiz-adv-x="547" 
d="M130 -7q5 104 38 214.5t88 210t125 169.5h-316q-13 0 -21 9.5t-8 23.5v60h475v-81q-78 -65 -140 -165.5t-98.5 -216t-39.5 -224.5h-103z" />
    <glyph glyph-name="eight" unicode="8" horiz-adv-x="588" 
d="M162 5.5q-59 26.5 -92.5 75.5t-33.5 116q0 58 30 102t88 70q-86 54 -86 140q0 53 29 94q29 43 80.5 65.5t117.5 22.5q63 0 117 -24q52 -23 80 -64.5t28 -93.5q0 -43 -21 -78.5t-61 -61.5q55 -25 84.5 -70t29.5 -102q0 -67 -32 -116t-89.5 -75.5t-133.5 -26.5t-135 26.5z
M388.5 436q34.5 26 34.5 71q0 44 -35 70t-93 26q-59 0 -93.5 -26t-34.5 -70q0 -45 34.5 -71t93.5 -26t93.5 26zM411.5 103.5q42.5 35.5 42.5 93.5q0 59 -43 92.5t-116 33.5t-115.5 -33.5t-42.5 -92.5t43.5 -94t116.5 -35q72 0 114.5 35.5z" />
    <glyph glyph-name="nine" unicode="9" horiz-adv-x="556" 
d="M427 631q49 -45 71 -113t22 -174q0 -102 -28.5 -184t-86.5 -130.5t-142 -48.5q-93 0 -150 55t-62 145l70 -1q12 0 21 -7.5t11 -20.5q7 -39 36.5 -60.5t72.5 -21.5q74 0 115 68t43 181q-27 -39 -68 -62.5t-95 -23.5q-62 0 -113 31t-79.5 83.5t-28.5 114.5q0 61 30 113.5
t81.5 83.5t113.5 31q103 0 166 -59zM167.5 564.5q-37.5 -38.5 -38.5 -99.5q0 -64 38 -104.5t97 -40.5q65 0 104.5 40.5t39.5 103.5q0 61 -41 100t-104 39q-58 0 -95.5 -38.5z" />
    <glyph glyph-name="colon" unicode=":" horiz-adv-x="192" 
d="M36 402h89q13 0 22 -9t9 -22v-90h-28q-40 0 -66 26t-26 66v29zM36 114h89q13 0 22 -9t9 -22v-90h-28q-40 0 -66 26t-26 66v29z" />
    <glyph glyph-name="semicolon" unicode=";" horiz-adv-x="192" 
d="M36 402h89q13 0 22 -9t9 -22v-90h-28q-40 0 -66 26t-26 66v29zM36 113h28q38 0 65 -32t27 -76q0 -59 -31 -94.5t-88 -41.5v67q20 5 31.5 17.5t12.5 37.5h-24q-14 0 -17.5 9t-3.5 25v88z" />
    <glyph glyph-name="less" unicode="&#x3c;" horiz-adv-x="472" 
d="M436 182v-95l-400 172v90l400 171v-93l-291 -122z" />
    <glyph glyph-name="equal" unicode="=" horiz-adv-x="533" 
d="M37 403q0 13 7.5 21t20.5 8h432v-59q0 -13 -8 -21t-21 -8h-431v59zM65 177q-13 0 -20.5 8t-7.5 21v59h431q13 0 21 -8t8 -21v-59h-432z" />
    <glyph glyph-name="greater" unicode="&#x3e;" horiz-adv-x="472" 
d="M436 259l-400 -172v95l291 123l-291 122v93l400 -171v-90z" />
    <glyph glyph-name="question" unicode="?" horiz-adv-x="485" 
d="M170 159q1 59 17.5 104t39 74.5t56.5 64.5q35 37 50.5 60t15.5 54q0 47 -31.5 75.5t-85.5 28.5q-43 0 -73.5 -17.5t-44.5 -51.5l-78 60q31 47 83 73t115 26q64 0 113 -24t75.5 -68t26.5 -101q0 -45 -12 -76t-30 -51t-48 -46q-31 -27 -50 -48t-32.5 -55t-14.5 -82h-92z
M251 -4q-37 0 -61.5 24.5t-24.5 61.5v34h77q14 0 23.5 -9.5t9.5 -23.5v-87h-24z" />
    <glyph glyph-name="at" unicode="@" horiz-adv-x="891" 
d="M81 506q46 94 132 143t205 49q131 0 231 -64.5t153 -162.5t53 -193q0 -90 -49.5 -148t-144.5 -58q-39 0 -70 12t-45 37q-24 -27 -56 -41.5t-69 -14.5q-91 0 -136.5 63.5t-51.5 167.5q-3 60 18.5 111.5t64 82.5t101.5 31q186 0 186 -195q0 -46 -8 -90q-1 -8 -1 -23
q0 -35 15 -47.5t49 -11.5q54 1 82 36t28 91q0 72 -42 151t-119 132t-175 53t-169 -42.5t-108 -112.5t-37 -151q0 -102 57 -192q45 -70 119.5 -107t167.5 -37q43 0 82 7l-6 -82q-29 -4 -66 -4q-118 0 -214 47t-154.5 133.5t-67.5 202.5q-1 133 45 227zM505.5 187
q25.5 41 25.5 130q-4 67 -32.5 95t-78.5 28q-46 0 -74 -37.5t-28 -100.5q0 -71 25 -113.5t77 -42.5q60 0 85.5 41z" />
    <glyph glyph-name="A" unicode="A" horiz-adv-x="701" 
d="M146 -6h-110l259 704h110l260 -704h-116l-72 209h-258zM350 564l-99 -271h195z" />
    <glyph glyph-name="B" unicode="B" horiz-adv-x="617" 
d="M36 -8v708h300q97 0 157 -50.5t60 -137.5q0 -48 -21 -85.5t-59 -57.5q53 -23 80.5 -66.5t27.5 -101.5q0 -62 -28.5 -109.5t-81 -73.5t-121.5 -26h-314zM325 407q58 0 90.5 26.5t32.5 74.5q0 45 -29.5 70.5t-81.5 25.5h-195v-197h183zM348 91q61 0 94.5 26.5t33.5 77.5
q0 56 -34 86t-100 30h-201v-220h207z" />
    <glyph glyph-name="C" unicode="C" horiz-adv-x="699" 
d="M193 28.5q-75 47.5 -116 130.5t-41 188q0 106 41 189t117 130t176 47q119 0 196 -63.5t89 -174.5h-103q-9 66 -58.5 104.5t-125.5 38.5q-70 0 -121 -34.5t-78 -96t-27 -140.5q0 -78 28 -139t79.5 -95.5t119.5 -34.5q84 0 135.5 50t55.5 138h103q0 -87 -39 -151.5
t-106 -99t-152 -34.5q-98 0 -173 47.5z" />
    <glyph glyph-name="D" unicode="D" horiz-adv-x="643" 
d="M36 -6v704h259q151 0 231.5 -94.5t80.5 -259.5q0 -164 -84 -257t-235 -93h-252zM284 91q215 0 215 253q0 131 -51 195t-156 64h-149v-512h141z" />
    <glyph glyph-name="E" unicode="E" horiz-adv-x="537" 
d="M483 -6h-447v704h465l-25 -96h-333v-195h281l-24 -94h-257v-219h340v-100z" />
    <glyph glyph-name="F" unicode="F" horiz-adv-x="537" 
d="M142 -6h-106v704h465l-26 -96h-333v-195h281l-24 -94h-257v-319z" />
    <glyph glyph-name="G" unicode="G" horiz-adv-x="709" 
d="M196 25q-76 48 -118 131.5t-42 187.5q0 109 41.5 193t118.5 131t181 47q124 0 201 -65t90 -180h-105q-12 72 -60.5 110.5t-129.5 38.5q-108 0 -170 -73t-62 -202q0 -79 29.5 -140.5t82 -96t120.5 -34.5q91 0 143.5 55.5t49.5 150.5h-201l31 95h274v-381q-44 2 -64 18
t-28 56q-77 -90 -208 -90q-98 0 -174 48z" />
    <glyph glyph-name="H" unicode="H" horiz-adv-x="629" 
d="M143 -6h-107v704h107v-319h344v319h106v-704h-106v295h-344v-295z" />
    <glyph glyph-name="I" unicode="I" horiz-adv-x="179" 
d="M143 -6h-107v704h107v-704z" />
    <glyph glyph-name="J" unicode="J" horiz-adv-x="489" 
d="M92.5 32.5q-52.5 52.5 -56.5 157.5l103 16l1 -11q2 -67 25.5 -94.5t80.5 -27.5q102 0 102 110v515h105v-520q0 -92 -56 -145t-153 -53q-99 0 -151.5 52.5z" />
    <glyph glyph-name="K" unicode="K" horiz-adv-x="621" 
d="M141 -6h-105v704h105v-395l260 395h134l-233 -341l283 -363h-138l-212 284l-93 -128z" />
    <glyph glyph-name="L" unicode="L" horiz-adv-x="536" 
d="M500 -6h-464v704h107v-604h357v-100z" />
    <glyph glyph-name="M" unicode="M" horiz-adv-x="758" 
d="M135 -6h-99v704h128l215 -551l213 551h130v-704h-104l1 503l-202 -503h-81l-200 503z" />
    <glyph glyph-name="N" unicode="N" horiz-adv-x="626" 
d="M137 -6h-101v704h106l315 -479l32 -56v535h101v-704h-103l-317 480l-33 55v-535z" />
    <glyph glyph-name="O" unicode="O" horiz-adv-x="761" 
d="M201 27q-78 47 -121.5 130.5t-43.5 189.5q0 107 43.5 190.5t121.5 129.5t179 46q103 0 181 -46.5t121 -129.5t43 -190q0 -106 -43.5 -189.5t-122 -130.5t-179.5 -47t-179 47zM504 113.5q53 32.5 81.5 92.5t28.5 141q0 78 -28 138.5t-81 94.5t-125 34q-71 0 -124 -34
t-81.5 -94.5t-28.5 -138.5q0 -81 29 -141t82 -92.5t123 -32.5q71 0 124 32.5z" />
    <glyph glyph-name="P" unicode="P" horiz-adv-x="585" 
d="M36 -6v704h295q65 0 114.5 -26t76.5 -73t27 -107q0 -102 -59 -156t-171 -54h-176v-288h-107zM311 372q65 0 99 29.5t34 87.5q0 55 -33 84.5t-95 29.5h-173v-231h168z" />
    <glyph glyph-name="Q" unicode="Q" horiz-adv-x="766" 
d="M203 25.5q-79 47.5 -123 131.5t-44 190q0 108 43.5 192t122.5 130.5t181 46.5t181 -46q80 -48 123 -131.5t43 -191.5q0 -16 -5 -68l-3 -286q-44 1 -62.5 29t-25.5 70q-41 -56 -107.5 -85t-142.5 -29q-102 0 -181 47.5zM490.5 99q47.5 22 69.5 60l-29 -1q-62 0 -87.5 17.5
t-25.5 58.5v21h193q9 47 9 91q0 77 -27 138.5t-80.5 97t-128.5 35.5q-72 0 -126 -34t-83.5 -95.5t-29.5 -140.5q0 -82 29.5 -143t84 -94t125.5 -33q59 0 106.5 22z" />
    <glyph glyph-name="R" unicode="R" horiz-adv-x="626" 
d="M36 -4v702h329q60 0 107.5 -24.5t74.5 -69.5t27 -103q0 -96 -37 -145.5t-121 -63.5l173 -296h-122l-167 288h-157v-288h-107zM334 374q65 0 99 29.5t34 85.5q0 61 -30 87.5t-98 26.5h-196v-229h191z" />
    <glyph glyph-name="S" unicode="S" horiz-adv-x="629" 
d="M132 37q-77 56 -96 159h106q17 -62 66 -93.5t127 -31.5q73 0 113 30.5t40 86.5q0 34 -25 58t-61.5 39.5t-100.5 35.5q-77 25 -125.5 46.5t-82 59t-33.5 94.5q0 91 68 141t174 50q224 0 264 -196h-103q-30 107 -159 107q-67 0 -105 -26t-38 -72q0 -31 23.5 -53t59.5 -36.5
t97 -33.5q81 -26 131 -47.5t85.5 -61.5t35.5 -102q0 -99 -72.5 -154.5t-189.5 -55.5q-122 0 -199 56z" />
    <glyph glyph-name="T" unicode="T" horiz-adv-x="633" 
d="M370 -6h-107v608h-227v96h561v-96h-227v-608z" />
    <glyph glyph-name="U" unicode="U" horiz-adv-x="615" 
d="M106.5 47q-70.5 63 -70.5 178v473h107v-463q0 -80 41.5 -118t125.5 -38q164 0 164 156v463h105v-473q0 -115 -71.5 -178t-199.5 -63q-131 0 -201.5 63z" />
    <glyph glyph-name="V" unicode="V" horiz-adv-x="670" 
d="M389 -5h-109l-244 702h113l188 -560l187 560h110z" />
    <glyph glyph-name="W" unicode="W" horiz-adv-x="942" 
d="M319 -7h-103l-180 706h109l127 -519l143 519h110l139 -519l133 519h109l-194 -706h-100l-143 544z" />
    <glyph glyph-name="X" unicode="X" horiz-adv-x="670" 
d="M159 -6h-123l243 360l-225 344h123l164 -265l168 265h119l-229 -345l235 -359h-126l-172 280z" />
    <glyph glyph-name="Y" unicode="Y" horiz-adv-x="691" 
d="M398 -6h-106v297l-256 407h119l191 -315l194 315h115l-257 -409v-295z" />
    <glyph glyph-name="Z" unicode="Z" horiz-adv-x="623" 
d="M587 -6h-551v97l400 513h-376v94h511v-81l-405 -524h421v-99z" />
    <glyph glyph-name="bracketleft" unicode="[" horiz-adv-x="276" 
d="M240 -109h-204v837h204l-7 -85h-97v-664h97z" />
    <glyph glyph-name="backslash" unicode="\" horiz-adv-x="449" 
d="M413 1h-103l-274 691h102z" />
    <glyph glyph-name="bracketright" unicode="]" horiz-adv-x="276" 
d="M240 -109h-204l8 88h97v664h-97l-8 85h204v-837z" />
    <glyph glyph-name="underscore" unicode="_" horiz-adv-x="482" 
d="M446 -153h-410v85h410v-85z" />
    <glyph glyph-name="a" unicode="a" 
d="M68 234q32 35 75.5 48t111.5 24q61 8 89.5 19t28.5 38q0 37 -26 56.5t-75 19.5q-56 0 -85 -23t-31 -72l-95 -11q-2 88 55 139t154 51t146.5 -43t49.5 -127v-234q0 -21 4.5 -32.5t24.5 -49.5l20 -36q-21 -8 -40 -8q-31 0 -56.5 19t-37.5 54q-29 -42 -72 -61.5t-93 -19.5
q-83 0 -131.5 40t-48.5 110q0 64 32 99zM160.5 86q23.5 -17 68.5 -17t79 25.5t51.5 68t15.5 91.5q-32 -18 -103 -29q-67 -10 -101 -34t-34 -54q0 -34 23.5 -51z" />
    <glyph glyph-name="b" unicode="b" horiz-adv-x="539" 
d="M133 36q4 -44 -27 -44h-70v708h97v-244q26 33 65.5 50t82.5 17q107 0 164.5 -75.5t57.5 -197.5q0 -81 -26.5 -142.5t-77 -96t-120.5 -34.5q-90 0 -146 59zM368.5 115.5q34.5 48.5 34.5 133.5t-34.5 134.5t-93.5 49.5q-65 0 -105.5 -50.5t-40.5 -133.5t39.5 -132.5
t105.5 -49.5q60 0 94.5 48.5z" />
    <glyph glyph-name="c" unicode="c" 
d="M157.5 18q-57.5 36 -89.5 99t-32 139q0 78 32 139.5t89.5 95.5t130.5 34q95 0 156 -53.5t71 -146.5l-100 1q-5 52 -39 82t-88 30q-70 0 -111 -49.5t-41 -132.5t41 -134t109 -51q110 0 127 96q3 14 12 22t22 8h67q-4 -101 -64 -158t-162 -57q-73 0 -130.5 36z" />
    <glyph glyph-name="d" unicode="d" horiz-adv-x="541" 
d="M139.5 11.5q-50.5 34.5 -77 96t-26.5 142.5q0 122 57.5 197.5t164.5 75.5q43 0 82 -17t65 -50v244h100v-708h-72q-31 0 -28 44q-27 -29 -64 -44t-81 -15q-70 0 -120.5 34.5zM370.5 116q39.5 49 39.5 133q0 85 -40.5 135t-106.5 50q-60 0 -93.5 -49t-33.5 -136
q0 -85 34 -133.5t94 -48.5q67 0 106.5 49z" />
    <glyph glyph-name="e" unicode="e" horiz-adv-x="561" 
d="M158 13q-58 36 -90 98.5t-32 139.5q0 78 32 140.5t89 98.5t128 36q79 0 134 -39.5t82 -109t24 -159.5h-387q8 -68 48.5 -109.5t102.5 -42.5q47 0 79 21t47 60q9 25 30 25l73 1q-14 -92 -74.5 -144t-154.5 -52q-73 0 -131 36zM422 304q-8 65 -43.5 99.5t-93.5 34.5
q-56 0 -95 -35.5t-50 -98.5h282z" />
    <glyph glyph-name="f" unicode="f" horiz-adv-x="330" 
d="M104 -8v431h-68v89h68v66q0 127 143 127l52 -4l-5 -89q-29 3 -38 3q-32 0 -42.5 -8t-10.5 -32v-63h91v-89h-91v-431h-99z" />
    <glyph glyph-name="g" unicode="g" horiz-adv-x="535" 
d="M130 -141q-54 31 -70 91l86 1h3q9 0 18 -9q26 -27 104 -27q65 0 97 27.5t32 86.5v36q-24 -30 -60 -43t-76 -13q-68 0 -120 33.5t-80 92.5t-28 132q0 72 28 130.5t78.5 92.5t116.5 34q86 0 140 -51q4 20 12.5 29.5t24.5 9.5h63v-481q0 -98 -58.5 -150.5t-167.5 -52.5
q-89 0 -143 31zM405 264q0 171 -141 171q-60 0 -94 -45t-34 -124q0 -78 35 -123.5t96 -45.5q138 0 138 167z" />
    <glyph glyph-name="h" unicode="h" horiz-adv-x="496" 
d="M36 -9v710h99v-238q26 29 64.5 44.5t81.5 15.5q85 0 132 -45t47 -127v-360h-98v353q0 43 -25.5 66t-74.5 23q-55 0 -91 -35.5t-36 -89.5v-317h-99z" />
    <glyph glyph-name="i" unicode="i" horiz-adv-x="177" 
d="M120 580q-39 0 -61.5 24t-22.5 64v28h74q13 0 22 -8.5t9 -21.5v-86h-21zM138 -8h-98v519h98v-519z" />
    <glyph glyph-name="j" unicode="j" horiz-adv-x="238" 
d="M178 580q-39 0 -61.5 24t-22.5 64v28h74q13 0 22 -8.5t9 -21.5v-86h-21zM23 -140v83q35 -1 52 1.5t22 10t5 22.5v534h100v-539q0 -118 -124 -118q-14 0 -55 6z" />
    <glyph glyph-name="k" unicode="k" horiz-adv-x="465" 
d="M36 -7v706h99v-394l133 193q10 13 24 13h117l-160 -222l180 -296h-117l-140 239l-38 -61l1 -148q0 -12 -8.5 -21t-20.5 -9h-70z" />
    <glyph glyph-name="l" unicode="l" horiz-adv-x="170" 
d="M134 -9h-98v710h98v-710z" />
    <glyph glyph-name="m" unicode="m" horiz-adv-x="748" 
d="M36 -8v519h64q31 0 34 -49q23 29 58.5 45t72.5 16q42 0 76 -19.5t54 -56.5q24 35 65.5 55.5t86.5 20.5q74 0 119.5 -46.5t45.5 -125.5v-359h-98v356q0 39 -22 62.5t-58 23.5q-47 0 -80.5 -35.5t-33.5 -86.5v-320h-97v356q0 40 -20 63.5t-54 23.5q-29 0 -56 -18.5
t-43.5 -47.5t-16.5 -60v-317h-97z" />
    <glyph glyph-name="n" unicode="n" horiz-adv-x="493" 
d="M36 -8v519h62q14 0 25 -12t12 -33q23 27 60 42t80 15q84 0 133 -45.5t49 -126.5v-359h-99v353q0 42 -26 65t-74 23q-54 0 -88.5 -35t-34.5 -89v-317h-99z" />
    <glyph glyph-name="o" unicode="o" horiz-adv-x="571" 
d="M157 18q-57 36 -89 98t-32 137q0 78 32 139.5t89 96.5t129 35q74 0 130.5 -35.5t87.5 -97.5t31 -138t-31.5 -138t-88.5 -97.5t-129 -35.5t-129 36zM395 121q41 49 41 132q0 84 -41 134t-109 50t-109 -50t-41 -134q0 -82 41.5 -131.5t108.5 -49.5q68 0 109 49z" />
    <glyph glyph-name="p" unicode="p" horiz-adv-x="542" 
d="M36 -166v677h64q17 0 26 -14.5t8 -35.5q55 62 145 62q72 0 123 -35t77.5 -97t26.5 -141q0 -81 -27 -143t-78.5 -96t-121.5 -34q-47 0 -84.5 16t-60.5 45v-204h-98zM371 115.5q35 49.5 35 133.5q0 85 -35.5 134.5t-96.5 49.5q-67 0 -105.5 -49.5t-38.5 -134.5
q0 -88 37.5 -135.5t107.5 -47.5q61 0 96 49.5z" />
    <glyph glyph-name="q" unicode="q" horiz-adv-x="544" 
d="M508 -166h-99v204q-24 -29 -61.5 -45t-84.5 -16q-70 0 -121 34t-78.5 96t-27.5 143q0 79 26.5 141t77.5 97t123 35q90 0 146 -62q-1 21 9 35.5t27 14.5h63v-677zM376 114q37 46 37 135q0 86 -38.5 134.5t-106.5 48.5q-60 0 -95.5 -49t-35.5 -134q0 -84 35.5 -132.5
t96.5 -48.5q70 0 107 46z" />
    <glyph glyph-name="r" unicode="r" horiz-adv-x="355" 
d="M36 -7v520h64q16 0 24.5 -19.5t9.5 -43.5q23 32 58.5 49.5t73.5 18.5q26 0 53 -11v-87q-25 5 -53 5q-65 -1 -98 -36.5t-33 -109.5v-286h-99z" />
    <glyph glyph-name="s" unicode="s" horiz-adv-x="507" 
d="M106.5 21q-59.5 44 -70.5 126h38q34 0 50 -4.5t20 -14.5q27 -61 122 -61q49 0 77.5 18.5t28.5 51.5q0 25 -17.5 41.5t-43.5 25.5t-73 21q-60 16 -95.5 30t-61.5 43t-26 76q0 69 50.5 108.5t139.5 39.5q87 0 138.5 -39.5t64.5 -114.5l-103 4q-7 34 -31.5 49t-69.5 15
q-43 0 -67 -15.5t-24 -44.5q0 -30 30 -45.5t94 -31.5q62 -17 100.5 -32t66 -46t27.5 -81q0 -76 -54.5 -119.5t-151.5 -43.5q-99 0 -158.5 44z" />
    <glyph glyph-name="t" unicode="t" horiz-adv-x="336" 
d="M105 427h-29q-18 0 -29 11t-11 42v37h69v183h101v-183h92v-90h-92v-321q0 -13 5 -18.5t20 -5.5q36 0 52 -5.5t16 -29.5v-48q-45 -8 -75 -8q-119 0 -119 107v329z" />
    <glyph glyph-name="u" unicode="u" horiz-adv-x="493" 
d="M457 519v-517h-62q-14 0 -24.5 12.5t-11.5 33.5q-23 -27 -60 -42t-80 -15q-85 0 -134 45t-49 126v357h99v-350q0 -42 26.5 -65.5t74.5 -23.5q54 0 89 35t35 90v314h97z" />
    <glyph glyph-name="v" unicode="v" horiz-adv-x="545" 
d="M320 -9h-100l-184 522h107l129 -386l133 386h104z" />
    <glyph glyph-name="w" unicode="w" horiz-adv-x="787" 
d="M293 -8h-95l-162 520h106l104 -366l100 366h97l96 -365l110 365h102l-167 -520h-94l-97 356z" />
    <glyph glyph-name="x" unicode="x" horiz-adv-x="589" 
d="M36 -8l196 272l-174 247h118l115 -170l109 157q9 13 26 13h98l-174 -241l203 -278h-103q-14 0 -24 13l-135 190l-131 -190q-9 -13 -27 -13h-97z" />
    <glyph glyph-name="y" unicode="y" horiz-adv-x="572" 
d="M108.5 -165.5q-21.5 6.5 -21.5 25.5v68l42 -4q14 -1 34 -1q23 0 32 9t22 43l18 43l-199 494h108l144 -378l144 378h104l-220 -552q-30 -75 -61 -103.5t-86 -28.5q-39 0 -60.5 6.5z" />
    <glyph glyph-name="z" unicode="z" horiz-adv-x="489" 
d="M453 -7h-417v77l267 351h-250v91h389v-62l-276 -364h287v-93z" />
    <glyph glyph-name="braceleft" unicode="{" horiz-adv-x="330" 
d="M263 -121q-82 0 -121.5 40.5t-39.5 126.5v170q0 24 -8 36t-28 16q-14 1 -22 9t-8 19v34q0 22 29 27q20 3 28.5 15t8.5 36v166q0 85 39 124.5t122 39.5h31l-4 -85h-29q-36 0 -48.5 -17.5t-12.5 -62.5v-171q0 -32 -9 -53.5t-28 -36.5q19 -15 28 -36.5t9 -54.5v-174
q0 -45 12 -63t47 -18h29l6 -87h-31z" />
    <glyph glyph-name="bar" unicode="|" horiz-adv-x="161" 
d="M125 -121h-89v859h89v-859z" />
    <glyph glyph-name="braceright" unicode="}" horiz-adv-x="330" 
d="M36 -121l6 87h29q35 0 47 18t12 63v174q0 33 9 54.5t28 36.5q-19 15 -28 36.5t-9 53.5v171q0 45 -12.5 62.5t-48.5 17.5h-29l-4 85h31q83 0 122 -39.5t39 -124.5v-166q0 -25 8 -36.5t29 -14.5q29 -5 29 -27v-34q0 -11 -8 -19t-22 -9q-20 -4 -28 -16t-8 -36v-170
q0 -86 -39.5 -126.5t-121.5 -40.5h-31z" />
    <glyph glyph-name="exclamdown" unicode="&#xa1;" horiz-adv-x="187" 
d="M36 551v117h115v-117h-115zM40 193l20 310h65l19 -310v-231h-104v231z" />
    <glyph glyph-name="cent" unicode="&#xa2;" 
d="M425 189q9 8 22 8h67q-3 -90 -52 -145.5t-133 -66.5v-139h-89v140q-60 11 -106.5 49t-72 95.5t-25.5 125.5q0 69 25.5 125.5t71.5 93t107 46.5v184h89v-183q79 -11 128 -63t58 -134l-100 1q-4 41 -26.5 68.5t-59.5 38.5v-358q70 16 84 92q3 14 12 22zM164 141.5
q28 -47.5 76 -63.5v353q-49 -16 -76.5 -62t-27.5 -113t28 -114.5z" />
    <glyph glyph-name="sterling" unicode="&#xa3;" horiz-adv-x="473" 
d="M218 -26q-50 0 -74.5 16t-31.5 41.5t-7 66.5v34v166h-68l-1 81h67l-9 173q-4 74 42 113.5t137 39.5q77 0 118 -38.5t44 -112.5l2 -44h-87l-1 47q-2 33 -19.5 48t-56.5 15q-96 0 -93 -62l10 -179h146l-5 -82h-139l-8 -162l-38 -87l36 2q60 6 110 6l125 1v-83h-199z" />
    <glyph glyph-name="yen" unicode="&#xa5;" horiz-adv-x="691" 
d="M398 289v-11h169v-59q0 -13 -7.5 -21t-20.5 -8h-141v-79h141q13 0 20.5 -8t7.5 -21v-59h-169v-29h-106v29h-156q-13 0 -21 8t-8 21v59h185v79h-185v59q0 13 8 21t21 8h156v13l-256 407h119l191 -315l194 315h115z" />
    <glyph glyph-name="section" unicode="&#xa7;" horiz-adv-x="455" 
d="M100 26q-52 38 -62 108h72q7 0 13.5 -4.5t8.5 -11.5q12 -28 37.5 -40t69.5 -12q91 0 91 61q0 21 -12 33.5t-31 18.5t-62 17q-56 10 -91 24q-27 9 -44 26q-17 12 -26 34.5t-9 48.5q0 36 16.5 68t46.5 47q-40 15 -59.5 45t-19.5 71q0 61 43.5 95t121.5 34q75 0 120.5 -34
t57.5 -99l-90 2q-7 30 -28 43t-61 13q-77 0 -77 -51q0 -17 10 -29q21 -19 99 -34q54 -10 90 -25q37 -16 58.5 -49.5t21.5 -72.5q0 -31 -15 -59.5t-44 -47.5q73 -38 73 -116q0 -65 -48.5 -103.5t-132.5 -38.5q-86 0 -138 38zM287 303.5q23 15.5 23 36.5q0 22 -23.5 38
t-66.5 16q-39 0 -59.5 -14.5t-20.5 -34.5q0 -22 23 -39.5t61 -17.5q40 0 63 15.5z" />
    <glyph glyph-name="copyright" unicode="&#xa9;" horiz-adv-x="718" 
d="M197 55.5q-74 43.5 -117.5 117.5t-43.5 163t43.5 163.5t117.5 118.5t162 44t162.5 -44t117.5 -118.5t43 -163.5t-43 -163t-117 -117.5t-163 -43.5q-88 0 -162 43.5zM492.5 106q60.5 36 96 97.5t35.5 133.5t-35.5 133.5t-96 97.5t-133.5 36q-72 0 -132 -36t-95.5 -97.5
t-35.5 -133.5t35.5 -133.5t95.5 -97.5t132 -36q73 0 133.5 36zM259.5 224q-36.5 40 -36.5 100q0 61 36.5 99.5t93.5 38.5q49 0 80.5 -27.5t35.5 -74.5h-51q-3 27 -20 42.5t-45 15.5q-36 0 -57 -25.5t-21 -68.5t21.5 -69t56.5 -26q55 0 64 50q3 15 18 15h34q-2 -52 -33 -81
t-83 -29q-57 0 -93.5 40z" />
    <glyph glyph-name="ordfeminine" unicode="&#xaa;" horiz-adv-x="342" 
d="M54 465.5q18 19.5 43 27t63 13.5q36 6 51 12t15 21q0 43 -57 43q-62 0 -65 -54l-54 -6q-1 50 31 78.5t87 28.5q111 0 111 -96v-132q0 -12 2.5 -18.5t12.5 -25.5l12 -22q-12 -5 -23 -5q-18 0 -32 10.5t-20 30.5q-17 -23 -41 -34.5t-52 -11.5q-47 0 -74.5 23t-27.5 62
q0 36 18 55.5zM145 373q39 0 61.5 30.5t20.5 74.5q-17 -11 -58 -17q-38 -6 -57 -19.5t-19 -30.5q0 -38 52 -38z" />
    <glyph glyph-name="guillemotleft" unicode="&#xab;" horiz-adv-x="711" 
d="M366 200v-78l-330 142v74l330 142v-78l-240 -100zM675 200v-78l-330 142v74l330 142v-78l-240 -100z" />
    <glyph glyph-name="registered" unicode="&#xae;" horiz-adv-x="718" 
d="M197 55.5q-74 43.5 -117.5 117.5t-43.5 163t43.5 163.5t117.5 118.5t162 44t162.5 -44t117.5 -118.5t43 -163.5t-43 -163t-117 -117.5t-163 -43.5q-88 0 -162 43.5zM492.5 107.5q60.5 35.5 96 96t35.5 132.5q0 73 -35.5 134t-96 97t-133.5 36q-72 0 -132.5 -36t-96 -97
t-35.5 -134q0 -72 35.5 -132.5t96 -96t132.5 -35.5q73 0 133.5 35.5zM267 215v245h115q32 0 52.5 -19t20.5 -49q0 -34 -13 -51.5t-42 -22.5l60 -103h-42l-59 100h-55v-100h-37zM371 347q23 0 35 10.5t12 29.5q0 21 -10.5 30.5t-34.5 9.5h-69v-80h67z" />
    <glyph glyph-name="degree" unicode="&#xb0;" horiz-adv-x="326" 
d="M96 340q-29 20 -44.5 58.5t-15.5 89.5q0 49 16 91q16 38 44.5 58t66.5 20q39 0 67 -20q29 -21 44 -59t15 -90t-15 -91q-15 -38 -43.5 -58t-67.5 -20q-40 0 -67 21zM221 395q20 32 20 93q0 60 -20.5 92.5t-57.5 32.5t-57 -32.5t-20 -92.5t20 -92.5t57 -32.5q38 0 58 32z
" />
    <glyph glyph-name="uni00B2" unicode="&#xb2;" horiz-adv-x="307" 
d="M36 323q1 56 28.5 90t92.5 70q39 23 52.5 36t12.5 38q0 28 -18.5 43.5t-44.5 15.5q-22 0 -40 -12.5t-23 -35.5q-4 -14 -15 -13h-35q3 50 34 77t81 27q48 0 79 -28.5t31 -73.5q0 -28 -9 -46t-28 -32t-57 -36q-69 -37 -82 -73h170v-47h-229z" />
    <glyph glyph-name="uni00B3" unicode="&#xb3;" horiz-adv-x="321" 
d="M71 350.5q-36 33.5 -35 88.5h48q-1 -37 20.5 -58t61.5 -21q34 0 52.5 15.5t18.5 44.5q0 22 -3 33t-15 17t-37 6h-11q-5 0 -9.5 5t-4.5 11v26h25q29 0 37 11.5t8 36.5q0 23 -18 36.5t-46 13.5q-30 0 -48.5 -15t-20.5 -42q-1 -15 -15 -15h-31q-1 0 -1 9q0 48 32 76.5
t85 28.5q49 0 79.5 -25t30.5 -67q0 -22 -11 -40t-31 -27q27 -8 40 -28t13 -54q0 -46 -33 -73t-85 -27q-60 0 -96 33.5z" />
    <glyph glyph-name="periodcentered" unicode="&#xb7;" horiz-adv-x="185" 
d="M120 174q-36 0 -60 24t-24 60v31h83q13 0 21.5 -9t8.5 -21v-85h-29z" />
    <glyph glyph-name="uni00B9" unicode="&#xb9;" horiz-adv-x="190" 
d="M106 331v281l-53 -17h-3q-5 0 -9.5 4t-4.5 11v22l74 31h44v-332h-48z" />
    <glyph glyph-name="ordmasculine" unicode="&#xba;" horiz-adv-x="328" 
d="M97 344q-29 20 -45 59t-16 91q0 49 16 91q16 38 45 58.5t68 20.5t67 -20q29 -21 44.5 -59.5t15.5 -90.5q0 -54 -16 -92q-15 -38 -43.5 -58.5t-68.5 -20.5t-67 21zM222.5 400q20.5 32 20.5 94q0 60 -20.5 93t-57.5 33q-38 0 -58.5 -32.5t-20.5 -93.5t20.5 -93.5
t58.5 -32.5q37 0 57.5 32z" />
    <glyph glyph-name="guillemotright" unicode="&#xbb;" horiz-adv-x="711" 
d="M366 264l-330 -142v78l240 102l-240 100v78l330 -142v-74zM675 264l-330 -142v78l240 102l-240 100v78l330 -142v-74z" />
    <glyph glyph-name="questiondown" unicode="&#xbf;" horiz-adv-x="485" 
d="M234 708q37 0 61.5 -24.5t24.5 -61.5v-33h-77q-13 0 -23 9.5t-10 22.5v87h24zM315 546q-1 -59 -17.5 -103.5t-38.5 -74t-57 -66.5q-34 -35 -50 -59t-16 -55q0 -47 32 -75.5t85 -28.5q43 0 73.5 17.5t45.5 51.5l77 -59q-30 -48 -82 -74t-116 -26t-113 24t-75.5 68
t-26.5 101q0 45 12 76t30 51t48 46q31 27 50 48t32.5 55t14.5 83h92z" />
    <glyph glyph-name="Agrave" unicode="&#xc0;" horiz-adv-x="654" 
d="M310 751q-37 0 -64 34l-48 68h122l44 -102h-54zM137 11h-101l240 650h101l241 -650h-107l-67 193h-239zM326 538l-92 -251h181z" />
    <glyph glyph-name="Aacute" unicode="&#xc1;" horiz-adv-x="654" 
d="M295 751l41 95h111l-43 -62q-24 -33 -60 -33h-49zM137 11h-101l240 650h101l241 -650h-107l-67 193h-239zM326 538l-92 -251h181z" />
    <glyph glyph-name="Acircumflex" unicode="&#xc2;" horiz-adv-x="654" 
d="M279 812q7 13 20 20t28 7q31 0 49 -28l61 -101h-18q-28 0 -47 11t-35 35l-11 18l-12 -19q-14 -24 -33 -34.5t-47 -10.5h-18zM137 11h-101l240 650h101l241 -650h-107l-67 193h-239zM326 538l-92 -251h181z" />
    <glyph glyph-name="Atilde" unicode="&#xc3;" horiz-adv-x="654" 
d="M289 759q-7 3 -12 3q-6 0 -9 -4.5t-1 -12.5h-42q-1 5 -1 14q0 25 17 41.5t41 16.5q18 0 35 -10l55 -32q7 -5 11 -5q8 0 8 9q0 7 -2 11h47q1 -5 1 -14q0 -26 -16.5 -43t-40.5 -17q-18 0 -35 10zM137 11h-101l240 650h101l241 -650h-107l-67 193h-239zM326 538l-92 -251
h181z" />
    <glyph glyph-name="Adieresis" unicode="&#xc4;" horiz-adv-x="654" 
d="M271 729q-37 0 -61 24t-24 61v29h84q11 0 19.5 -8t8.5 -20v-86h-27zM407 729q-37 0 -61 24t-24 61v29h85q11 0 18.5 -8t7.5 -20v-86h-26zM137 11h-101l240 650h101l241 -650h-107l-67 193h-239zM326 538l-92 -251h181z" />
    <glyph glyph-name="Aring" unicode="&#xc5;" horiz-adv-x="654" 
d="M278.5 738q-21.5 21 -21.5 52q0 29 21.5 50t51.5 21q29 0 50.5 -21t21.5 -50q0 -30 -21 -51.5t-51 -21.5t-51.5 21zM350.5 768q8.5 8 8.5 19q0 12 -8.5 20.5t-20.5 8.5q-11 0 -19.5 -8.5t-8.5 -20.5q0 -11 8.5 -19t19.5 -8q12 0 20.5 8zM137 11h-101l240 650h101
l241 -650h-107l-67 193h-239zM326 538l-92 -251h181z" />
    <glyph glyph-name="AE" unicode="&#xc6;" horiz-adv-x="1075" 
d="M938 313h-257v-219h340v-100h-447v2h-26l5 207h-258l-150 -207h-109l518 701h20v1h465l-25 -96h-333v-195h281zM360 293h195l4 271z" />
    <glyph glyph-name="Ccedilla" unicode="&#xc7;" horiz-adv-x="699" 
d="M663 266q0 -78 -32 -138.5t-88 -97t-128 -46.5q23 -16 23 -47q0 -25 -17 -43t-43 -20l-8 -1q-27 0 -60 24l44 33q5 -4 10 -4t8 3t-1 5q8 5 8 10t-7 8.5t-19 3.5q-14 0 -29 -4l7 31q-89 8 -155.5 57t-103 128.5t-36.5 178.5q0 106 41 189t117 130t176 47q119 0 196 -63.5
t89 -174.5h-103q-9 66 -58.5 104.5t-125.5 38.5q-70 0 -121 -34.5t-78 -96t-27 -140.5q0 -78 28 -139t79.5 -95.5t119.5 -34.5q84 0 135.5 50t55.5 138h103z" />
    <glyph glyph-name="Egrave" unicode="&#xc8;" horiz-adv-x="537" 
d="M483 -6h-447v704h465l-25 -96h-333v-195h281l-24 -94h-257v-219h340v-100zM294 747q-38 0 -65 35l-47 68h121l44 -103h-53z" />
    <glyph glyph-name="Eacute" unicode="&#xc9;" horiz-adv-x="537" 
d="M483 -6h-447v704h465l-25 -96h-333v-195h281l-24 -94h-257v-219h340v-100zM193 748l40 95h111l-43 -62q-24 -33 -60 -33h-48z" />
    <glyph glyph-name="Ecircumflex" unicode="&#xca;" horiz-adv-x="537" 
d="M483 -6h-447v704h465l-25 -96h-333v-195h281l-24 -94h-257v-219h340v-100zM218 839q7 13 20 20t28 7q31 0 49 -28l61 -102h-18q-27 0 -46.5 11t-35.5 35l-11 19l-12 -19q-14 -24 -33 -35t-47 -11h-18z" />
    <glyph glyph-name="Edieresis" unicode="&#xcb;" horiz-adv-x="537" 
d="M483 -6h-447v704h465l-25 -96h-333v-195h281l-24 -94h-257v-219h340v-100zM221 731q-36 0 -60 24.5t-24 60.5v29h83q12 0 20 -8t8 -20v-86h-27zM357 731q-36 0 -60 24.5t-24 60.5v29h84q11 0 19 -8t8 -20v-86h-27z" />
    <glyph glyph-name="Igrave" unicode="&#xcc;" horiz-adv-x="626" 
d="M137 -6h-101v704h106l315 -479l32 -56v535h101v-704h-103l-317 480l-33 55v-535zM309 759q-38 0 -65 35l-47 68h121l44 -103h-53z" />
    <glyph glyph-name="Iacute" unicode="&#xcd;" horiz-adv-x="626" 
d="M137 -6h-101v704h106l315 -479l32 -56v535h101v-704h-103l-317 480l-33 55v-535zM284 768l40 95h111l-43 -62q-24 -33 -60 -33h-48z" />
    <glyph glyph-name="Icircumflex" unicode="&#xce;" horiz-adv-x="626" 
d="M137 -6h-101v704h106l315 -479l32 -56v535h101v-704h-103l-317 480l-33 55v-535zM264 854q7 13 20 20t28 7q31 0 49 -28l61 -102h-18q-27 0 -46.5 11t-35.5 35l-11 19l-12 -19q-14 -24 -33 -35t-47 -11h-18z" />
    <glyph glyph-name="Idieresis" unicode="&#xcf;" horiz-adv-x="339" 
d="M241 -6h-107v704h107v-704zM126 756q-36 0 -60 24.5t-24 60.5v29h83q12 0 20 -8t8 -20v-86h-27zM262 756q-36 0 -60 24.5t-24 60.5v29h84q11 0 19 -8t8 -20v-86h-27z" />
    <glyph glyph-name="Ntilde" unicode="&#xd1;" horiz-adv-x="626" 
d="M137 -6h-101v704h106l315 -479l32 -56v535h101v-704h-103l-317 480l-33 55v-535zM270 792q-8 3 -12 3q-15 0 -11 -16h-42q-1 4 -1 13q0 25 17 41.5t41 16.5q19 0 35 -10l55 -32q7 -5 11 -5q8 0 8 10q0 7 -2 11h47q1 -5 1 -14q0 -27 -16.5 -44t-40.5 -17q-18 0 -34 10z
" />
    <glyph glyph-name="Ograve" unicode="&#xd2;" horiz-adv-x="761" 
d="M405 763q-38 0 -65 35l-47 68h121l44 -103h-53zM201 27q-78 47 -121.5 130.5t-43.5 189.5q0 107 43.5 190.5t121.5 129.5t179 46q103 0 181 -46.5t121 -129.5t43 -190q0 -106 -43.5 -189.5t-122 -130.5t-179.5 -47t-179 47zM504 113.5q53 32.5 81.5 92.5t28.5 141
q0 78 -28 138.5t-81 94.5t-125 34q-71 0 -124 -34t-81.5 -94.5t-28.5 -138.5q0 -81 29 -141t82 -92.5t123 -32.5q71 0 124 32.5z" />
    <glyph glyph-name="Oacute" unicode="&#xd3;" horiz-adv-x="761" 
d="M299 773l40 95h111l-43 -62q-24 -33 -60 -33h-48zM201 27q-78 47 -121.5 130.5t-43.5 189.5q0 107 43.5 190.5t121.5 129.5t179 46q103 0 181 -46.5t121 -129.5t43 -190q0 -106 -43.5 -189.5t-122 -130.5t-179.5 -47t-179 47zM504 113.5q53 32.5 81.5 92.5t28.5 141
q0 78 -28 138.5t-81 94.5t-125 34q-71 0 -124 -34t-81.5 -94.5t-28.5 -138.5q0 -81 29 -141t82 -92.5t123 -32.5q71 0 124 32.5z" />
    <glyph glyph-name="Ocircumflex" unicode="&#xd4;" horiz-adv-x="761" 
d="M201 27q-78 47 -121.5 130.5t-43.5 189.5q0 107 43.5 190.5t121.5 129.5t179 46q103 0 181 -46.5t121 -129.5t43 -190q0 -106 -43.5 -189.5t-122 -130.5t-179.5 -47t-179 47zM504 113.5q53 32.5 81.5 92.5t28.5 141q0 78 -28 138.5t-81 94.5t-125 34q-71 0 -124 -34
t-81.5 -94.5t-28.5 -138.5q0 -81 29 -141t82 -92.5t123 -32.5q71 0 124 32.5zM331 859q7 13 20 20t28 7q31 0 49 -28l61 -102h-18q-27 0 -46.5 11t-35.5 35l-11 19l-12 -19q-14 -24 -33 -35t-47 -11h-18z" />
    <glyph glyph-name="Otilde" unicode="&#xd5;" horiz-adv-x="761" 
d="M201 27q-78 47 -121.5 130.5t-43.5 189.5q0 107 43.5 190.5t121.5 129.5t179 46q103 0 181 -46.5t121 -129.5t43 -190q0 -106 -43.5 -189.5t-122 -130.5t-179.5 -47t-179 47zM504 113.5q53 32.5 81.5 92.5t28.5 141q0 78 -28 138.5t-81 94.5t-125 34q-71 0 -124 -34
t-81.5 -94.5t-28.5 -138.5q0 -81 29 -141t82 -92.5t123 -32.5q71 0 124 32.5zM328 806q-8 3 -12 3q-15 0 -11 -16h-42q-1 4 -1 13q0 25 17 41.5t41 16.5q19 0 35 -10l55 -32q7 -5 11 -5q8 0 8 10q0 7 -2 11h47q1 -5 1 -14q0 -27 -16.5 -44t-40.5 -17q-18 0 -34 10z" />
    <glyph glyph-name="Odieresis" unicode="&#xd6;" horiz-adv-x="761" 
d="M201 27q-78 47 -121.5 130.5t-43.5 189.5q0 107 43.5 190.5t121.5 129.5t179 46q103 0 181 -46.5t121 -129.5t43 -190q0 -106 -43.5 -189.5t-122 -130.5t-179.5 -47t-179 47zM504 113.5q53 32.5 81.5 92.5t28.5 141q0 78 -28 138.5t-81 94.5t-125 34q-71 0 -124 -34
t-81.5 -94.5t-28.5 -138.5q0 -81 29 -141t82 -92.5t123 -32.5q71 0 124 32.5zM334 736q-36 0 -60 24.5t-24 60.5v29h83q12 0 20 -8t8 -20v-86h-27zM470 736q-36 0 -60 24.5t-24 60.5v29h84q11 0 19 -8t8 -20v-86h-27z" />
    <glyph glyph-name="multiply" unicode="&#xd7;" horiz-adv-x="460" 
d="M36 81l147 204l-131 186h89l86 -128l82 118q7 10 19 10h74l-131 -181l153 -209h-77q-10 0 -19 9l-101 144l-98 -143q-7 -10 -21 -10h-72z" />
    <glyph glyph-name="Oslash" unicode="&#xd8;" horiz-adv-x="761" 
d="M538 679q88 -42 137.5 -129.5t49.5 -202.5q0 -106 -43.5 -189.5t-122 -130.5t-179.5 -47q-46 0 -92 11l-31 -86h-89l42 116q-82 45 -128 130.5t-46 195.5q0 107 43.5 190.5t121.5 129.5t179 46q38 0 80 -8l21 59h88zM172 211.5q26 -58.5 74 -91.5l179 490q-19 4 -45 4
q-71 0 -124 -34t-81.5 -94.5t-28.5 -138.5q0 -77 26 -135.5zM504 113.5q53 32.5 81.5 92.5t28.5 141q0 80 -29 141t-82 94l-180 -495q27 -6 57 -6q71 0 124 32.5z" />
    <glyph glyph-name="Ugrave" unicode="&#xd9;" horiz-adv-x="615" 
d="M304 764q-38 0 -65 35l-47 68h121l44 -103h-53zM106.5 47q-70.5 63 -70.5 178v473h107v-463q0 -80 41.5 -118t125.5 -38q164 0 164 156v463h105v-473q0 -115 -71.5 -178t-199.5 -63q-131 0 -201.5 63z" />
    <glyph glyph-name="Uacute" unicode="&#xda;" horiz-adv-x="615" 
d="M259 766l40 95h111l-43 -62q-24 -33 -60 -33h-48zM106.5 47q-70.5 63 -70.5 178v473h107v-463q0 -80 41.5 -118t125.5 -38q164 0 164 156v463h105v-473q0 -115 -71.5 -178t-199.5 -63q-131 0 -201.5 63z" />
    <glyph glyph-name="Ucircumflex" unicode="&#xdb;" horiz-adv-x="615" 
d="M106.5 47q-70.5 63 -70.5 178v473h107v-463q0 -80 41.5 -118t125.5 -38q164 0 164 156v463h105v-473q0 -115 -71.5 -178t-199.5 -63q-131 0 -201.5 63zM261 847q7 13 20 20t28 7q31 0 49 -28l61 -102h-18q-27 0 -46.5 11t-35.5 35l-11 19l-12 -19q-14 -24 -33 -35
t-47 -11h-18z" />
    <glyph glyph-name="Udieresis" unicode="&#xdc;" horiz-adv-x="615" 
d="M106.5 47q-70.5 63 -70.5 178v473h107v-463q0 -80 41.5 -118t125.5 -38q164 0 164 156v463h105v-473q0 -115 -71.5 -178t-199.5 -63q-131 0 -201.5 63zM256 748q-36 0 -60 24.5t-24 60.5v29h83q12 0 20 -8t8 -20v-86h-27zM392 748q-36 0 -60 24.5t-24 60.5v29h84
q11 0 19 -8t8 -20v-86h-27z" />
    <glyph glyph-name="Yacute" unicode="&#xdd;" horiz-adv-x="691" 
d="M281 752l40 95h111l-43 -62q-24 -33 -60 -33h-48zM398 -6h-106v297l-256 407h119l191 -315l194 315h115l-257 -409v-295z" />
    <glyph glyph-name="germandbls" unicode="&#xdf;" horiz-adv-x="619" 
d="M36 -6v704h300q98 0 158.5 -50t60.5 -136q0 -50 -22 -87t-65 -56q55 -24 85 -67.5t30 -100.5q0 -61 -29.5 -108t-82.5 -73t-120 -26l-3 100q61 0 95 26.5t34 76.5q0 54 -36 84.5t-99 30.5h-198v-318h-108zM325 406q58 0 90.5 26.5t32.5 74.5q0 45 -29.5 70.5t-81.5 25.5
h-193v-197h181z" />
    <glyph glyph-name="agrave" unicode="&#xe0;" 
d="M68 234q32 35 75.5 48t111.5 24q61 8 89.5 19t28.5 38q0 37 -26 56.5t-75 19.5q-56 0 -85 -23t-31 -72l-95 -11q-2 88 55 139t154 51t146.5 -43t49.5 -127v-234q0 -21 4.5 -32.5t24.5 -49.5l20 -36q-21 -8 -40 -8q-31 0 -56.5 19t-37.5 54q-29 -42 -72 -61.5t-93 -19.5
q-83 0 -131.5 40t-48.5 110q0 64 32 99zM160.5 86q23.5 -17 68.5 -17t79 25.5t51.5 68t15.5 91.5q-32 -18 -103 -29q-67 -10 -101 -34t-34 -54q0 -34 23.5 -51zM295 597q-38 0 -65 35l-47 68h121l44 -103h-53z" />
    <glyph glyph-name="aacute" unicode="&#xe1;" 
d="M198 601l40 95h111l-43 -62q-24 -33 -60 -33h-48zM68 234q32 35 75.5 48t111.5 24q61 8 89.5 19t28.5 38q0 37 -26 56.5t-75 19.5q-56 0 -85 -23t-31 -72l-95 -11q-2 88 55 139t154 51t146.5 -43t49.5 -127v-234q0 -21 4.5 -32.5t24.5 -49.5l20 -36q-21 -8 -40 -8
q-31 0 -56.5 19t-37.5 54q-29 -42 -72 -61.5t-93 -19.5q-83 0 -131.5 40t-48.5 110q0 64 32 99zM160.5 86q23.5 -17 68.5 -17t79 25.5t51.5 68t15.5 91.5q-32 -18 -103 -29q-67 -10 -101 -34t-34 -54q0 -34 23.5 -51z" />
    <glyph glyph-name="acircumflex" unicode="&#xe2;" 
d="M68 234q32 35 75.5 48t111.5 24q61 8 89.5 19t28.5 38q0 37 -26 56.5t-75 19.5q-56 0 -85 -23t-31 -72l-95 -11q-2 88 55 139t154 51t146.5 -43t49.5 -127v-234q0 -21 4.5 -32.5t24.5 -49.5l20 -36q-21 -8 -40 -8q-31 0 -56.5 19t-37.5 54q-29 -42 -72 -61.5t-93 -19.5
q-83 0 -131.5 40t-48.5 110q0 64 32 99zM160.5 86q23.5 -17 68.5 -17t79 25.5t51.5 68t15.5 91.5q-32 -18 -103 -29q-67 -10 -101 -34t-34 -54q0 -34 23.5 -51zM228 671q7 13 20 20t28 7q31 0 49 -28l61 -102h-18q-27 0 -46.5 11t-35.5 35l-11 19l-12 -19q-14 -24 -33 -35
t-47 -11h-18z" />
    <glyph glyph-name="atilde" unicode="&#xe3;" 
d="M68 234q32 35 75.5 48t111.5 24q61 8 89.5 19t28.5 38q0 37 -26 56.5t-75 19.5q-56 0 -85 -23t-31 -72l-95 -11q-2 88 55 139t154 51t146.5 -43t49.5 -127v-234q0 -21 4.5 -32.5t24.5 -49.5l20 -36q-21 -8 -40 -8q-31 0 -56.5 19t-37.5 54q-29 -42 -72 -61.5t-93 -19.5
q-83 0 -131.5 40t-48.5 110q0 64 32 99zM160.5 86q23.5 -17 68.5 -17t79 25.5t51.5 68t15.5 91.5q-32 -18 -103 -29q-67 -10 -101 -34t-34 -54q0 -34 23.5 -51zM234 628q-8 3 -12 3q-15 0 -11 -16h-42q-1 4 -1 13q0 25 17 41.5t41 16.5q19 0 35 -10l55 -32q7 -5 11 -5
q8 0 8 10q0 7 -2 11h47q1 -5 1 -14q0 -27 -16.5 -44t-40.5 -17q-18 0 -34 10z" />
    <glyph glyph-name="adieresis" unicode="&#xe4;" 
d="M68 234q32 35 75.5 48t111.5 24q61 8 89.5 19t28.5 38q0 37 -26 56.5t-75 19.5q-56 0 -85 -23t-31 -72l-95 -11q-2 88 55 139t154 51t146.5 -43t49.5 -127v-234q0 -21 4.5 -32.5t24.5 -49.5l20 -36q-21 -8 -40 -8q-31 0 -56.5 19t-37.5 54q-29 -42 -72 -61.5t-93 -19.5
q-83 0 -131.5 40t-48.5 110q0 64 32 99zM160.5 86q23.5 -17 68.5 -17t79 25.5t51.5 68t15.5 91.5q-32 -18 -103 -29q-67 -10 -101 -34t-34 -54q0 -34 23.5 -51zM203 581q-36 0 -60 24.5t-24 60.5v29h83q12 0 20 -8t8 -20v-86h-27zM339 581q-36 0 -60 24.5t-24 60.5v29h84
q11 0 19 -8t8 -20v-86h-27z" />
    <glyph glyph-name="aring" unicode="&#xe5;" 
d="M207.5 578q-21.5 21 -21.5 52q0 29 21.5 50t51.5 21q29 0 50.5 -21t21.5 -50q0 -30 -21 -51.5t-51 -21.5t-51.5 21zM279.5 608q8.5 8 8.5 19q0 12 -8.5 20.5t-20.5 8.5q-11 0 -19.5 -8.5t-8.5 -20.5q0 -11 8.5 -19t19.5 -8q12 0 20.5 8zM68 234q32 35 75.5 48t111.5 24
q61 8 89.5 19t28.5 38q0 37 -26 56.5t-75 19.5q-56 0 -85 -23t-31 -72l-95 -11q-2 88 55 139t154 51t146.5 -43t49.5 -127v-234q0 -21 4.5 -32.5t24.5 -49.5l20 -36q-21 -8 -40 -8q-31 0 -56.5 19t-37.5 54q-29 -42 -72 -61.5t-93 -19.5q-83 0 -131.5 40t-48.5 110
q0 64 32 99zM160.5 86q23.5 -17 68.5 -17t79 25.5t51.5 68t15.5 91.5q-32 -18 -103 -29q-67 -10 -101 -34t-34 -54q0 -34 23.5 -51z" />
    <glyph glyph-name="ae" unicode="&#xe6;" horiz-adv-x="898" 
d="M756 487.5q55 -39.5 82 -109t24 -159.5h-387q8 -68 48.5 -109.5t102.5 -42.5q47 0 79 21t47 60q9 25 30 25l73 1q-14 -92 -74.5 -144t-154.5 -52q-62 0 -112 26l1 -3q-21 -8 -40 -8q-31 0 -56.5 19t-37.5 54q-29 -42 -72 -61.5t-93 -19.5q-83 0 -131.5 40t-48.5 110
q0 64 32 99t75.5 48t111.5 24q61 8 89.5 19t28.5 38q0 37 -26 56.5t-75 19.5q-56 0 -85 -23t-31 -72l-95 -11q-2 88 55 139t154 51q130 0 173 -75q33 38 79 58.5t100 20.5q79 0 134 -39.5zM759 305q-8 65 -43.5 99.5t-93.5 34.5q-56 0 -95 -35.5t-50 -98.5h282zM329 113.5
q39 44.5 45 111.5q-1 9 -1 27v1q-32 -17 -101 -28q-67 -10 -101 -34t-34 -54q0 -34 23.5 -51t68.5 -17q61 0 100 44.5z" />
    <glyph glyph-name="ccedilla" unicode="&#xe7;" 
d="M425 189q9 8 22 8h67q-4 -92 -53.5 -147.5t-136.5 -65.5q23 -16 23 -47q0 -25 -17 -43t-43 -20l-8 -1q-27 0 -60 24l44 33q5 -4 10 -4t8 3t-1 5q8 5 8 10t-7 8.5t-19 3.5q-14 0 -29 -4l8 34q-60 11 -106.5 49t-72.5 95.5t-26 125.5q0 78 32 139.5t89.5 95.5t130.5 34
q95 0 156 -53.5t71 -146.5l-100 1q-5 52 -39 82t-88 30q-70 0 -111 -49.5t-41 -132.5t41 -134t109 -51q110 0 127 96q3 14 12 22z" />
    <glyph glyph-name="egrave" unicode="&#xe8;" horiz-adv-x="561" 
d="M306 599q-38 0 -65 35l-47 68h121l44 -103h-53zM158 13q-58 36 -90 98.5t-32 139.5q0 78 32 140.5t89 98.5t128 36q79 0 134 -39.5t82 -109t24 -159.5h-387q8 -68 48.5 -109.5t102.5 -42.5q47 0 79 21t47 60q9 25 30 25l73 1q-14 -92 -74.5 -144t-154.5 -52
q-73 0 -131 36zM422 304q-8 65 -43.5 99.5t-93.5 34.5q-56 0 -95 -35.5t-50 -98.5h282z" />
    <glyph glyph-name="eacute" unicode="&#xe9;" horiz-adv-x="561" 
d="M198 600l40 95h111l-43 -62q-24 -33 -60 -33h-48zM158 13q-58 36 -90 98.5t-32 139.5q0 78 32 140.5t89 98.5t128 36q79 0 134 -39.5t82 -109t24 -159.5h-387q8 -68 48.5 -109.5t102.5 -42.5q47 0 79 21t47 60q9 25 30 25l73 1q-14 -92 -74.5 -144t-154.5 -52
q-73 0 -131 36zM422 304q-8 65 -43.5 99.5t-93.5 34.5q-56 0 -95 -35.5t-50 -98.5h282z" />
    <glyph glyph-name="ecircumflex" unicode="&#xea;" horiz-adv-x="561" 
d="M158 13q-58 36 -90 98.5t-32 139.5q0 78 32 140.5t89 98.5t128 36q79 0 134 -39.5t82 -109t24 -159.5h-387q8 -68 48.5 -109.5t102.5 -42.5q47 0 79 21t47 60q9 25 30 25l73 1q-14 -92 -74.5 -144t-154.5 -52q-73 0 -131 36zM422 304q-8 65 -43.5 99.5t-93.5 34.5
q-56 0 -95 -35.5t-50 -98.5h282zM229 671q7 13 20 20t28 7q31 0 49 -28l61 -102h-18q-27 0 -46.5 11t-35.5 35l-11 19l-12 -19q-14 -24 -33 -35t-47 -11h-18z" />
    <glyph glyph-name="edieresis" unicode="&#xeb;" horiz-adv-x="561" 
d="M158 13q-58 36 -90 98.5t-32 139.5q0 78 32 140.5t89 98.5t128 36q79 0 134 -39.5t82 -109t24 -159.5h-387q8 -68 48.5 -109.5t102.5 -42.5q47 0 79 21t47 60q9 25 30 25l73 1q-14 -92 -74.5 -144t-154.5 -52q-73 0 -131 36zM422 304q-8 65 -43.5 99.5t-93.5 34.5
q-56 0 -95 -35.5t-50 -98.5h282zM234 581q-36 0 -60 24.5t-24 60.5v29h83q12 0 20 -8t8 -20v-86h-27zM370 581q-36 0 -60 24.5t-24 60.5v29h84q11 0 19 -8t8 -20v-86h-27z" />
    <glyph glyph-name="igrave" unicode="&#xec;" horiz-adv-x="250" 
d="M150 597q-38 0 -65 35l-47 68h121l44 -103h-53zM206 3h-99v525h99v-525z" />
    <glyph glyph-name="iacute" unicode="&#xed;" horiz-adv-x="250" 
d="M58 601l40 95h111l-43 -62q-24 -33 -60 -33h-48zM158 3h-99v525h99v-525z" />
    <glyph glyph-name="icircumflex" unicode="&#xee;" horiz-adv-x="297" 
d="M241 569q-28 0 -47 10.5t-33 35.5l-12 19l-11 -19q-16 -24 -35 -35t-47 -11h-18l61 101q19 29 49 29q15 0 27.5 -7.5t20.5 -20.5l63 -102h-18zM194 528v-525h-98v525h98z" />
    <glyph glyph-name="idieresis" unicode="&#xef;" horiz-adv-x="319" 
d="M120 581q-36 0 -60 24.5t-24 60.5v29h83q12 0 20 -8t8 -20v-86h-27zM256 581q-36 0 -60 24.5t-24 60.5v29h84q11 0 19 -8t8 -20v-86h-27zM217 3h-99v525h99v-525z" />
    <glyph glyph-name="ntilde" unicode="&#xf1;" horiz-adv-x="493" 
d="M36 -8v519h62q14 0 25 -12t12 -33q23 27 60 42t80 15q84 0 133 -45.5t49 -126.5v-359h-99v353q0 42 -26 65t-74 23q-54 0 -88.5 -35t-34.5 -89v-317h-99zM207 650q-8 3 -12 3q-15 0 -11 -16h-42q-1 4 -1 13q0 25 17 41.5t41 16.5q19 0 35 -10l55 -32q7 -5 11 -5q8 0 8 10
q0 7 -2 11h47q1 -5 1 -14q0 -27 -16.5 -44t-40.5 -17q-18 0 -34 10z" />
    <glyph glyph-name="ograve" unicode="&#xf2;" horiz-adv-x="571" 
d="M314 597q-38 0 -65 35l-47 68h121l44 -103h-53zM157 18q-57 36 -89 98t-32 137q0 78 32 139.5t89 96.5t129 35q74 0 130.5 -35.5t87.5 -97.5t31 -138t-31.5 -138t-88.5 -97.5t-129 -35.5t-129 36zM395 121q41 49 41 132q0 84 -41 134t-109 50t-109 -50t-41 -134
q0 -82 41.5 -131.5t108.5 -49.5q68 0 109 49z" />
    <glyph glyph-name="oacute" unicode="&#xf3;" horiz-adv-x="571" 
d="M206 601l40 95h111l-43 -62q-24 -33 -60 -33h-48zM157 18q-57 36 -89 98t-32 137q0 78 32 139.5t89 96.5t129 35q74 0 130.5 -35.5t87.5 -97.5t31 -138t-31.5 -138t-88.5 -97.5t-129 -35.5t-129 36zM395 121q41 49 41 132q0 84 -41 134t-109 50t-109 -50t-41 -134
q0 -82 41.5 -131.5t108.5 -49.5q68 0 109 49z" />
    <glyph glyph-name="ocircumflex" unicode="&#xf4;" horiz-adv-x="571" 
d="M157 18q-57 36 -89 98t-32 137q0 78 32 139.5t89 96.5t129 35q74 0 130.5 -35.5t87.5 -97.5t31 -138t-31.5 -138t-88.5 -97.5t-129 -35.5t-129 36zM395 121q41 49 41 132q0 84 -41 134t-109 50t-109 -50t-41 -134q0 -82 41.5 -131.5t108.5 -49.5q68 0 109 49zM237 672
q7 13 20 20t28 7q31 0 49 -28l61 -102h-18q-27 0 -46.5 11t-35.5 35l-11 19l-12 -19q-14 -24 -33 -35t-47 -11h-18z" />
    <glyph glyph-name="otilde" unicode="&#xf5;" horiz-adv-x="571" 
d="M157 18q-57 36 -89 98t-32 137q0 78 32 139.5t89 96.5t129 35q74 0 130.5 -35.5t87.5 -97.5t31 -138t-31.5 -138t-88.5 -97.5t-129 -35.5t-129 36zM395 121q41 49 41 132q0 84 -41 134t-109 50t-109 -50t-41 -134q0 -82 41.5 -131.5t108.5 -49.5q68 0 109 49zM243 628
q-8 3 -12 3q-15 0 -11 -16h-42q-1 4 -1 13q0 25 17 41.5t41 16.5q19 0 35 -10l55 -32q7 -5 11 -5q8 0 8 10q0 7 -2 11h47q1 -5 1 -14q0 -27 -16.5 -44t-40.5 -17q-18 0 -34 10z" />
    <glyph glyph-name="odieresis" unicode="&#xf6;" horiz-adv-x="571" 
d="M157 18q-57 36 -89 98t-32 137q0 78 32 139.5t89 96.5t129 35q74 0 130.5 -35.5t87.5 -97.5t31 -138t-31.5 -138t-88.5 -97.5t-129 -35.5t-129 36zM395 121q41 49 41 132q0 84 -41 134t-109 50t-109 -50t-41 -134q0 -82 41.5 -131.5t108.5 -49.5q68 0 109 49zM239 582
q-36 0 -60 24.5t-24 60.5v29h83q12 0 20 -8t8 -20v-86h-27zM375 582q-36 0 -60 24.5t-24 60.5v29h84q11 0 19 -8t8 -20v-86h-27z" />
    <glyph glyph-name="oslash" unicode="&#xf8;" horiz-adv-x="571" 
d="M399 499q64 -32 100 -97.5t36 -148.5q0 -76 -31.5 -138t-88.5 -97.5t-129 -35.5q-35 0 -72 10l-21 -57h-70l31 85q-55 36 -86.5 97.5t-31.5 135.5q0 78 32 139.5t89 96.5t129 35q19 0 49 -4l36 98h71zM149.5 171.5q13.5 -36.5 37.5 -60.5l118 325q-6 1 -19 1
q-68 0 -109 -50t-41 -134q0 -45 13.5 -81.5zM395 121q41 49 41 132q0 54 -18 95.5t-51 64.5l-122 -336q22 -5 41 -5q68 0 109 49z" />
    <glyph glyph-name="ugrave" unicode="&#xf9;" horiz-adv-x="493" 
d="M270 585q-38 0 -65 35l-47 68h121l44 -103h-53zM457 519v-517h-62q-14 0 -24.5 12.5t-11.5 33.5q-23 -27 -60 -42t-80 -15q-85 0 -134 45t-49 126v357h99v-350q0 -42 26.5 -65.5t74.5 -23.5q54 0 89 35t35 90v314h97z" />
    <glyph glyph-name="uacute" unicode="&#xfa;" horiz-adv-x="493" 
d="M457 519v-517h-62q-14 0 -24.5 12.5t-11.5 33.5q-23 -27 -60 -42t-80 -15q-85 0 -134 45t-49 126v357h99v-350q0 -42 26.5 -65.5t74.5 -23.5q54 0 89 35t35 90v314h97zM165 600l40 95h111l-43 -62q-24 -33 -60 -33h-48z" />
    <glyph glyph-name="ucircumflex" unicode="&#xfb;" horiz-adv-x="493" 
d="M457 519v-517h-62q-14 0 -24.5 12.5t-11.5 33.5q-23 -27 -60 -42t-80 -15q-85 0 -134 45t-49 126v357h99v-350q0 -42 26.5 -65.5t74.5 -23.5q54 0 89 35t35 90v314h97zM193 672q7 13 20 20t28 7q31 0 49 -28l61 -102h-18q-27 0 -46.5 11t-35.5 35l-11 19l-12 -19
q-14 -24 -33 -35t-47 -11h-18z" />
    <glyph glyph-name="udieresis" unicode="&#xfc;" horiz-adv-x="493" 
d="M457 519v-517h-62q-14 0 -24.5 12.5t-11.5 33.5q-23 -27 -60 -42t-80 -15q-85 0 -134 45t-49 126v357h99v-350q0 -42 26.5 -65.5t74.5 -23.5q54 0 89 35t35 90v314h97zM186 581q-36 0 -60 24.5t-24 60.5v29h83q12 0 20 -8t8 -20v-86h-27zM322 581q-36 0 -60 24.5
t-24 60.5v29h84q11 0 19 -8t8 -20v-86h-27z" />
    <glyph glyph-name="yacute" unicode="&#xfd;" horiz-adv-x="572" 
d="M207 601l40 95h111l-43 -62q-24 -33 -60 -33h-48zM108.5 -165.5q-21.5 6.5 -21.5 25.5v68l42 -4q14 -1 34 -1q23 0 32 9t22 43l18 43l-199 494h108l144 -378l144 378h104l-220 -552q-30 -75 -61 -103.5t-86 -28.5q-39 0 -60.5 6.5z" />
    <glyph glyph-name="ydieresis" unicode="&#xff;" horiz-adv-x="572" 
d="M239 581q-36 0 -60 24.5t-24 60.5v29h83q12 0 20 -8t8 -20v-86h-27zM375 581q-36 0 -60 24.5t-24 60.5v29h84q11 0 19 -8t8 -20v-86h-27zM108.5 -165.5q-21.5 6.5 -21.5 25.5v68l42 -4q14 -1 34 -1q23 0 32 9t22 43l18 43l-199 494h108l144 -378l144 378h104l-220 -552
q-30 -75 -61 -103.5t-86 -28.5q-39 0 -60.5 6.5z" />
    <glyph glyph-name="dotlessi" unicode="&#x131;" horiz-adv-x="171" 
d="M135 3h-99v525h99v-525z" />
    <glyph glyph-name="IJ" unicode="&#x132;" horiz-adv-x="667" 
d="M143 -6h-107v704h107v-704zM271.5 32.5q-52.5 52.5 -56.5 157.5l103 16l1 -11q2 -67 25.5 -94.5t80.5 -27.5q102 0 102 110v515h105v-520q0 -92 -56 -145t-153 -53q-99 0 -151.5 52.5z" />
    <glyph glyph-name="ij" unicode="&#x133;" horiz-adv-x="415" 
d="M120 580q-39 0 -61.5 24t-22.5 64v28h74q13 0 22 -8.5t9 -21.5v-86h-21zM138 -8h-98v519h98v-519zM355 580q-39 0 -61.5 24t-22.5 64v28h74q13 0 22 -8.5t9 -21.5v-86h-21zM200 -140v83q35 -1 52 1.5t22 10t5 22.5v534h100v-539q0 -118 -124 -118q-14 0 -55 6z" />
    <glyph glyph-name="OE" unicode="&#x152;" horiz-adv-x="1145" 
d="M751 312v-219h340v-100h-447v107q-47 -57 -114.5 -88.5t-149.5 -31.5q-101 0 -179 47t-121.5 130.5t-43.5 189.5q0 107 43.5 190.5t121.5 129.5t179 46q83 0 150.5 -30.5t113.5 -86.5v101h465l-25 -96h-333v-195h281l-24 -94h-257zM504 113.5q53 32.5 81.5 92.5t28.5 141
q0 78 -28 138.5t-81 94.5t-125 34q-71 0 -124 -34t-81.5 -94.5t-28.5 -138.5q0 -81 29 -141t82 -92.5t123 -32.5q71 0 124 32.5z" />
    <glyph glyph-name="oe" unicode="&#x153;" horiz-adv-x="963" 
d="M820 486.5q55 -39.5 82 -109t25 -159.5h-388q8 -68 48.5 -109.5t102.5 -42.5q48 0 79.5 21t46.5 60q11 25 30 25l74 1q-14 -93 -74.5 -144.5t-155.5 -51.5q-65 0 -118 28.5t-87 79.5q-33 -48 -84.5 -75.5t-114.5 -27.5q-72 0 -129 36t-89 98t-32 137q0 78 32 139.5
t89 96.5t129 35q65 0 116.5 -27.5t84.5 -75.5q34 50 85 77.5t114 27.5q79 0 134 -39.5zM823 304q-7 64 -43 99t-94 35q-56 0 -95 -35.5t-50 -98.5h282zM395 121q41 49 41 132q0 84 -41 134t-109 50t-109 -50t-41 -134q0 -82 41.5 -131.5t108.5 -49.5q68 0 109 49z" />
    <glyph glyph-name="Scaron" unicode="&#x160;" horiz-adv-x="629" 
d="M132 37q-77 56 -96 159h106q17 -62 66 -93.5t127 -31.5q73 0 113 30.5t40 86.5q0 34 -25 58t-61.5 39.5t-100.5 35.5q-77 25 -125.5 46.5t-82 59t-33.5 94.5q0 91 68 141t174 50q224 0 264 -196h-103q-30 107 -159 107q-67 0 -105 -26t-38 -72q0 -31 23.5 -53t59.5 -36.5
t97 -33.5q81 -26 131 -47.5t85.5 -61.5t35.5 -102q0 -99 -72.5 -154.5t-189.5 -55.5q-122 0 -199 56zM288 745.5q-13 7.5 -20 20.5l-62 100h20q51 0 76 -45l13 -18l12 19q15 23 33 33.5t45 10.5h20l-61 -99q-17 -29 -48 -29q-15 0 -28 7.5z" />
    <glyph glyph-name="scaron" unicode="&#x161;" horiz-adv-x="629" 
d="M132 37q-77 56 -96 159h106q17 -62 66 -93.5t127 -31.5q73 0 113 30.5t40 86.5q0 34 -25 58t-61.5 39.5t-100.5 35.5q-77 25 -125.5 46.5t-82 59t-33.5 94.5q0 91 68 141t174 50q224 0 264 -196h-103q-30 107 -159 107q-67 0 -105 -26t-38 -72q0 -31 23.5 -53t59.5 -36.5
t97 -33.5q81 -26 131 -47.5t85.5 -61.5t35.5 -102q0 -99 -72.5 -154.5t-189.5 -55.5q-122 0 -199 56zM284 741.5q-13 7.5 -20 20.5l-62 100h20q51 0 76 -45l13 -18l12 19q15 23 33 33.5t45 10.5h20l-61 -99q-17 -29 -48 -29q-15 0 -28 7.5z" />
    <glyph glyph-name="Ydieresis" unicode="&#x178;" horiz-adv-x="691" 
d="M398 -6h-106v297l-256 407h119l191 -315l194 315h115l-257 -409v-295zM299 705q-36 0 -60 24.5t-24 60.5v29h83q12 0 20 -8t8 -20v-86h-27zM435 705q-36 0 -60 24.5t-24 60.5v29h84q11 0 19 -8t8 -20v-86h-27z" />
    <glyph glyph-name="zcaron" unicode="&#x17e;" horiz-adv-x="489" 
d="M453 -7h-417v77l267 351h-250v91h389v-62l-276 -364h287v-93zM180 581.5q-13 7.5 -20 20.5l-62 100h20q51 0 76 -45l13 -18l12 19q15 23 33 33.5t45 10.5h20l-61 -99q-17 -29 -48 -29q-15 0 -28 7.5z" />
    <glyph glyph-name="uni030C" unicode="&#x30c;" horiz-adv-x="0" 
d="M-173 581.5q-13 7.5 -20 20.5l-62 100h20q51 0 76 -45l13 -18l12 19q15 23 33 33.5t45 10.5h20l-61 -99q-17 -29 -48 -29q-15 0 -28 7.5z" />
    <glyph glyph-name="endash" unicode="&#x2013;" horiz-adv-x="628" 
d="M63 243q-13 0 -19.5 9.5t-6.5 22.5q0 14 7 24t19 10h502q13 0 20 -9.5t7 -22.5q0 -14 -7.5 -24t-19.5 -10h-502z" />
    <glyph glyph-name="emdash" unicode="&#x2014;" horiz-adv-x="452" 
d="M64 159q-13 0 -20.5 9.5t-7.5 23.5t7.5 24t20.5 10h325q13 0 20 -9.5t7 -23.5t-7 -24t-20 -10h-325z" />
    <glyph glyph-name="quoteleft" unicode="&#x2018;" horiz-adv-x="174" 
d="M107 484q-34 0 -54 23t-17 59l12 133h59q14 0 23 -9.5t8 -23.5l-16 -183z" />
    <glyph glyph-name="quoteright" unicode="&#x2019;" horiz-adv-x="174" 
d="M107 484q-34 0 -54 23t-17 59l12 133h59q14 0 23 -9.5t8 -23.5l-16 -183z" />
    <glyph glyph-name="quotesinglbase" unicode="&#x201a;" horiz-adv-x="174" 
d="M107 -76q-34 0 -54 23t-17 59l12 133h59q14 0 23 -9.5t8 -23.5l-16 -183z" />
    <glyph glyph-name="quotedblleft" unicode="&#x201c;" horiz-adv-x="331" 
d="M107 484q-34 0 -54 23t-17 59l12 133h59q14 0 23 -9.5t8 -23.5l-16 -183zM264 484q-34 0 -54 23t-17 59l12 133h59q14 0 23 -9.5t8 -23.5l-16 -183z" />
    <glyph glyph-name="quotedblright" unicode="&#x201d;" horiz-adv-x="327" 
d="M107 484q-34 0 -54 23t-17 59l12 133h59q14 0 23 -9.5t8 -23.5l-16 -183zM260 484q-34 0 -54 23t-17 59l12 133h59q14 0 23 -9.5t8 -23.5l-16 -183z" />
    <glyph glyph-name="quotedblbase" unicode="&#x201e;" horiz-adv-x="329" 
d="M107 -76q-34 0 -54 23t-17 59l12 133h59q14 0 23 -9.5t8 -23.5l-16 -183zM262 -76q-34 0 -54 23t-17 59l12 133h59q14 0 23 -9.5t8 -23.5l-16 -183z" />
    <glyph glyph-name="dagger" unicode="&#x2020;" horiz-adv-x="518" 
d="M303 25h-88v360h-179v86h179v185h88v-185h179v-86h-179v-360z" />
    <glyph glyph-name="bullet" unicode="&#x2022;" horiz-adv-x="187" 
d="M121 198q-36 0 -60.5 24t-24.5 61v31h85q12 0 21 -9t9 -22v-85h-30z" />
    <glyph glyph-name="ellipsis" unicode="&#x2026;" horiz-adv-x="533" 
d="M127 1q-39 0 -65 26t-26 64v31h90q12 0 20.5 -9t8.5 -21v-91h-28zM300 1q-39 0 -65 26t-26 64v31h90q12 0 20.5 -9t8.5 -21v-91h-28zM469 1q-39 0 -65 26t-26 64v31h90q12 0 20.5 -9t8.5 -21v-91h-28z" />
    <glyph glyph-name="perthousand" unicode="&#x2030;" horiz-adv-x="1127" 
d="M79 341q-43 55 -43 140q0 86 44.5 140.5t117.5 54.5q74 0 117 -55t43 -140q0 -86 -42.5 -140.5t-117.5 -54.5q-76 0 -119 55zM244 3h-91l377 658h91zM249 396.5q19 31.5 19 84.5q0 51 -19.5 83t-50.5 32t-50 -31t-19 -84q0 -51 19 -83.5t50 -32.5q32 0 51 31.5zM465 44.5
q-44 55.5 -44 140.5q0 86 44.5 140.5t117.5 54.5t116.5 -55t43.5 -140q0 -87 -43.5 -141.5t-116.5 -54.5q-74 0 -118 55.5zM844.5 15q-36.5 26 -56 71t-19.5 99q0 86 44.5 140.5t117.5 54.5t116.5 -55t43.5 -140t-43 -140.5t-117 -55.5q-50 0 -86.5 26zM634 100.5
q19 31.5 19 84.5q0 51 -19.5 83t-50.5 32q-32 0 -51 -31t-19 -84q0 -51 19.5 -83.5t50.5 -32.5q32 0 51 31.5zM982 100.5q19 31.5 19 84.5q0 51 -19.5 83t-50.5 32q-32 0 -51 -31t-19 -84q0 -51 19.5 -83.5t50.5 -32.5q32 0 51 31.5z" />
    <glyph glyph-name="guilsinglleft" unicode="&#x2039;" horiz-adv-x="402" 
d="M366 200v-78l-330 142v74l330 142v-78l-240 -100z" />
    <glyph glyph-name="guilsinglright" unicode="&#x203a;" horiz-adv-x="402" 
d="M366 264l-330 -142v78l240 102l-240 100v78l330 -142v-74z" />
    <glyph glyph-name="Euro" unicode="&#x20ac;" horiz-adv-x="829" 
d="M793 266q0 -87 -39 -151.5t-106 -99t-152 -34.5q-104 0 -181.5 52.5t-115.5 143.5h-134q-13 0 -20.5 8t-7.5 21v59h136q-7 44 -7 79h-129v59q0 13 7.5 21t20.5 8h108q24 128 110.5 204.5t216.5 76.5q119 0 196 -63.5t89 -174.5h-103q-9 66 -58.5 104.5t-125.5 38.5
q-84 0 -141 -50.5t-76 -135.5h216v-59q0 -13 -8 -21t-21 -8h-196q0 -41 9 -79h187q13 0 21 -8t8 -21v-59h-181q31 -47 77.5 -73t105.5 -26q84 0 135.5 50t55.5 138h103z" />
    <glyph glyph-name="trademark" unicode="&#x2122;" horiz-adv-x="693" 
d="M383 324h-46v329h60l100 -257l100 257h60v-329h-48v235l-94 -235h-38l-93 235zM192 324h-50v284h-106v44h262v-44h-106v-284z" />
    <glyph glyph-name="A.001" horiz-adv-x="629" 
d="M141 -6h-110l259 704h110l260 -704h-116l-72 209h-258zM345 564l-99 -271h195z" />
    <glyph glyph-name="F.001" horiz-adv-x="432" 
d="M137 -6h-106v704h465l-26 -96h-333v-195h281l-24 -94h-257v-319z" />
    <glyph glyph-name="P.001" horiz-adv-x="543" 
d="M31 -6v704h295q65 0 114.5 -26t76.5 -73t27 -107q0 -102 -59 -156t-171 -54h-176v-288h-107zM306 372q65 0 99 29.5t34 87.5q0 55 -33 84.5t-95 29.5h-173v-231h168z" />
    <glyph glyph-name="T.001" horiz-adv-x="401" 
d="M365 -6h-107v608h-227v96h561v-96h-227v-608z" />
    <glyph glyph-name="V.001" horiz-adv-x="515" 
d="M384 -5h-109l-244 702h113l188 -560l187 560h110z" />
    <glyph glyph-name="W.001" horiz-adv-x="811" 
d="M314 -7h-103l-180 706h109l127 -519l143 519h110l139 -519l133 519h109l-194 -706h-100l-143 544z" />
    <glyph glyph-name="X.001" horiz-adv-x="431" 
d="M45 -6h-123l243 360l-225 344h123l164 -265l168 265h119l-229 -345l235 -359h-126l-172 280z" />
    <glyph glyph-name="Y.001" horiz-adv-x="449" 
d="M393 -6h-106v297l-256 407h119l191 -315l194 315h115l-257 -409v-295z" />
    <glyph glyph-name="X.002" horiz-adv-x="536" 
d="M154 -6h-123l243 360l-225 344h123l164 -265l168 265h119l-229 -345l235 -359h-126l-172 280z" />
    <glyph glyph-name="a.001" horiz-adv-x="496" 
d="M63 234q32 35 75.5 48t111.5 24q61 8 89.5 19t28.5 38q0 37 -26 56.5t-75 19.5q-56 0 -85 -23t-31 -72l-95 -11q-2 88 55 139t154 51t146.5 -43t49.5 -127v-234q0 -21 4.5 -32.5t24.5 -49.5l20 -36q-21 -8 -40 -8q-31 0 -56.5 19t-37.5 54q-29 -42 -72 -61.5t-93 -19.5
q-83 0 -131.5 40t-48.5 110q0 64 32 99zM155.5 86q23.5 -17 68.5 -17t79 25.5t51.5 68t15.5 91.5q-32 -18 -103 -29q-67 -10 -101 -34t-34 -54q0 -34 23.5 -51z" />
    <glyph glyph-name="f.001" horiz-adv-x="288" 
d="M104 -8v431h-68v89h68v66q0 127 143 127l52 -4l-5 -89q-29 3 -38 3q-32 0 -42.5 -8t-10.5 -32v-63h91v-89h-91v-431h-99z" />
    <glyph glyph-name="j.001" horiz-adv-x="184" 
d="M154 580q-39 0 -61.5 24t-22.5 64v28h74q13 0 22 -8.5t9 -21.5v-86h-21zM-1 -140v83q35 -1 52 1.5t22 10t5 22.5v534h100v-539q0 -118 -124 -118q-14 0 -55 6z" />
    <glyph glyph-name="k.001" horiz-adv-x="368" 
d="M31 -7v706h99v-394l133 193q10 13 24 13h117l-160 -222l180 -296h-117l-140 239l-38 -61l1 -148q0 -12 -8.5 -21t-20.5 -9h-70z" />
    <glyph glyph-name="r.001" horiz-adv-x="313" 
d="M31 -7v520h64q16 0 24.5 -19.5t9.5 -43.5q23 32 58.5 49.5t73.5 18.5q26 0 53 -11v-87q-25 5 -53 5q-65 -1 -98 -36.5t-33 -109.5v-286h-99z" />
    <glyph glyph-name="t.001" horiz-adv-x="306" 
d="M82 427h-29q-18 0 -29 11t-11 42v37h69v183h101v-183h92v-90h-92v-321q0 -13 5 -18.5t20 -5.5q36 0 52 -5.5t16 -29.5v-48q-45 -8 -75 -8q-119 0 -119 107v329z" />
    <glyph glyph-name="v.001" horiz-adv-x="448" 
d="M315 -9h-100l-184 522h107l129 -386l133 386h104z" />
    <glyph glyph-name="w.001" horiz-adv-x="692" 
d="M286 -8h-95l-162 520h106l104 -366l100 366h97l96 -365l110 365h102l-167 -520h-94l-97 356z" />
    <glyph glyph-name="x.001" horiz-adv-x="493" 
d="M31 -8l196 272l-174 247h118l115 -170l109 157q9 13 26 13h98l-174 -241l203 -278h-103q-14 0 -24 13l-135 190l-131 -190q-9 -13 -27 -13h-97z" />
    <glyph glyph-name="y.001" horiz-adv-x="490" 
d="M104.5 -165.5q-21.5 6.5 -21.5 25.5v68l42 -4q14 -1 34 -1q23 0 32 9t22 43l18 43l-199 494h108l144 -378l144 378h104l-220 -552q-30 -75 -61 -103.5t-86 -28.5q-39 0 -60.5 6.5z" />
    <glyph glyph-name="v.002" horiz-adv-x="373" 
d="M240 -9h-100l-184 522h107l129 -386l133 386h104z" />
    <glyph glyph-name="w.002" horiz-adv-x="618" 
d="M213 -8h-95l-162 520h106l104 -366l100 366h97l96 -365l110 365h102l-167 -520h-94l-97 356z" />
    <glyph glyph-name="x.002" horiz-adv-x="418" 
d="M-44 -8l196 272l-174 247h118l115 -170l109 157q9 13 26 13h98l-174 -241l203 -278h-103q-14 0 -24 13l-135 190l-131 -190q-9 -13 -27 -13h-97z" />
    <glyph glyph-name="y.002" horiz-adv-x="440" 
d="M54.5 -165.5q-21.5 6.5 -21.5 25.5v68l42 -4q14 -1 34 -1q23 0 32 9t22 43l18 43l-199 494h108l144 -378l144 378h104l-220 -552q-30 -75 -61 -103.5t-86 -28.5q-39 0 -60.5 6.5z" />
    <glyph glyph-name="v.003" horiz-adv-x="455" 
d="M240 -9h-100l-184 522h107l129 -386l133 386h104z" />
    <glyph glyph-name="w.003" horiz-adv-x="701" 
d="M213 -8h-95l-162 520h106l104 -366l100 366h97l96 -365l110 365h102l-167 -520h-94l-97 356z" />
    <glyph glyph-name="x.003" horiz-adv-x="501" 
d="M-44 -8l196 272l-174 247h118l115 -170l109 157q9 13 26 13h98l-174 -241l203 -278h-103q-14 0 -24 13l-135 190l-131 -190q-9 -13 -27 -13h-97z" />
    <glyph glyph-name="y.003" horiz-adv-x="498" 
d="M44.5 -165.5q-21.5 6.5 -21.5 25.5v68l42 -4q14 -1 34 -1q23 0 32 9t22 43l18 43l-199 494h108l144 -378l144 378h104l-220 -552q-30 -75 -61 -103.5t-86 -28.5q-39 0 -60.5 6.5z" />
    <glyph glyph-name="uni0308.case" horiz-adv-x="0" 
d="M-218 583q-36 0 -60 24.5t-24 60.5v29h83q12 0 20 -8t8 -20v-86h-27zM-82 583q-36 0 -60 24.5t-24 60.5v29h84q11 0 19 -8t8 -20v-86h-27z" />
    <glyph glyph-name="gravecomb.case" horiz-adv-x="0" 
d="M-94 599q-38 0 -65 35l-47 68h121l44 -103h-53z" />
    <glyph glyph-name="acutecomb.case" horiz-adv-x="0" 
d="M-202 603l40 95h111l-43 -62q-24 -33 -60 -33h-48z" />
    <glyph glyph-name="uni0302.case" horiz-adv-x="0" 
d="M-193 676q7 13 20 20t28 7q31 0 49 -28l61 -102h-18q-27 0 -46.5 11t-35.5 35l-11 19l-12 -19q-14 -24 -33 -35t-47 -11h-18z" />
    <glyph glyph-name="tildecomb.case" horiz-adv-x="0" 
d="M-179 628q-8 3 -12 3q-15 0 -11 -16h-42q-1 4 -1 13q0 25 17 41.5t41 16.5q19 0 35 -10l55 -32q7 -5 11 -5q8 0 8 10q0 7 -2 11h47q1 -5 1 -14q0 -27 -16.5 -44t-40.5 -17q-18 0 -34 10z" />
    <glyph glyph-name="webhance" horiz-adv-x="291" 
d="M251 16h-211v664h211v-664zM107 628v-54h71v54h-14v-38h-17v34h-12v-34h-15v38h-13zM157 499q8 5 12 9q6 6 7 10q3 8 3 15q0 4 -2 12l-5 9q-4 4 -10 6q-3 2 -12 4v-15q4 -1 12 -5q4 -4 4 -11q0 -4 -2 -10l-5 -5l-8 -4q-3 -1 -8 -1q-6 0 -9 1q-6 2 -9 4l-5 5q-2 6 -2 10
l1 5q2 2 3 5l3 3q1 1 3 1l2 1v15q-5 0 -10 -3q-4 -1 -8 -7q-3 -3 -5 -9q-2 -8 -2 -11q0 -5 2 -15q3 -5 9 -10q5 -5 12 -9q5 -1 15 -1q9 0 14 1zM107 442v-15h71v15h-49l49 30v15h-71v-15h47zM107 378l71 -27v16l-16 6v26l16 6v16l-71 -27v-16zM150 396v-19l-25 9zM107 300
v-14h71v14h-31v30h31v15h-71v-15h27v-30h-27zM107 215h71v35q0 2 -2 10q-2 6 -3 7q-3 5 -7 6q-6 2 -9 2q-7 0 -11 -3q-6 -4 -7 -10l-6 8q-3 1 -8 1q-7 0 -9 -1q-3 -1 -5 -5q-2 -2 -4 -7v-43zM146 248q0 3 2 9q3 3 8 3l5 -2l2 -2l1 -4l1 -4v-17h-19v17zM119 250q0 2 1 3l3 3
q1 1 3 1q7 0 8 -3t1 -7v-16h-16v19zM107 204v-53h71v54h-14v-38h-17v34h-12v-34h-15v37h-13zM107 66v-15l71 18v16l-49 12v1l49 12v15l-71 19v-15l49 -12v-1l-49 -12v-14l48 -13z" />
    </font>
</defs>
</svg>
