<?xml version="1.0" standalone="no"?>
<!DOCTYPE svg PUBLIC "-//W3C//DTD SVG 1.1//EN" "http://www.w3.org/Graphics/SVG/1.1/DTD/svg11.dtd" >
<svg xmlns="http://www.w3.org/2000/svg" xmlns:xlink="http://www.w3.org/1999/xlink" version="1.1">
<metadata>
Created by FontForge 20201107 at Thu Aug 26 19:49:01 2021
 By 
Copyright (c) 2021 by Webhance. All rights reserved.
</metadata>
<defs>
<font id="Obadiah-Heavy" horiz-adv-x="754" >
  <font-face 
    font-family="Obadiah Heavy"
    font-weight="900"
    font-stretch="normal"
    units-per-em="1000"
    panose-1="0 0 10 0 0 0 0 0 0 0"
    ascent="800"
    descent="-200"
    x-height="517"
    cap-height="700"
    bbox="-309 -167 1152 897"
    underline-thickness="50"
    underline-position="-100"
    unicode-range="U+0020-2122"
  />
<missing-glyph horiz-adv-x="924" 
 />
    <glyph glyph-name=".notdef" horiz-adv-x="924" 
 />
    <glyph glyph-name=".null" horiz-adv-x="0" 
 />
    <glyph glyph-name="nonmarkingreturn" horiz-adv-x="1460" 
 />
    <glyph glyph-name="space" unicode=" " horiz-adv-x="360" 
 />
    <glyph glyph-name="exclam" unicode="!" horiz-adv-x="196" 
d="M140 152h-84l-22 312v236h128v-236zM166 -8h-136v138h136v-138z" />
    <glyph glyph-name="quotedbl" unicode="&#x22;" horiz-adv-x="333" 
d="M124 456q-42 0 -68 28t-22 71l13 145h76q16 0 26 -11t9 -27l-18 -206h-16zM269 456q-42 0 -68 28t-22 71l13 145h76q16 0 26 -11t9 -27l-18 -206h-16z" />
    <glyph glyph-name="numbersign" unicode="#" horiz-adv-x="592" 
d="M209 -8h-110l25 184h-94l18 112h92l14 97h-94l17 112h93l24 176h110l-24 -176h78l24 176h111l-25 -176h94l-18 -112h-91l-14 -97h92l-17 -112h-91l-25 -184h-110l25 184h-79zM264 385l-14 -97h79l14 97h-79z" />
    <glyph glyph-name="dollar" unicode="$" horiz-adv-x="599" 
d="M152 252q2 -66 27.5 -101.5t78.5 -45.5v194q-68 19 -110.5 41t-65 58.5t-22.5 93.5q0 80 53.5 132t144.5 62v53h99v-53q186 -25 200 -214h-122q0 84 -78 103v-177q106 -20 159 -66.5t53 -131.5q0 -84 -57.5 -140t-154.5 -67v-79h-99v80q-109 13 -169.5 81.5t-58.5 176.5
h122zM258 577q-38 -7 -59 -28t-21 -47t20.5 -48.5t59.5 -33.5v157zM357 104q44 9 68 32.5t24 51.5t-23.5 52t-68.5 36v-172z" />
    <glyph glyph-name="percent" unicode="%" horiz-adv-x="814" 
d="M109 302.5q-39 27.5 -59 74.5t-20 104q0 59 21.5 106t60.5 73.5t91 26.5q79 0 125 -58.5t46 -147.5q0 -90 -45.5 -148t-125.5 -58q-55 0 -94 27.5zM270 -8h-116l390 680h116zM244 404q15 28 15 77q0 47 -15.5 75.5t-40.5 28.5q-26 0 -41 -27.5t-15 -76.5q0 -47 15.5 -76
t40.5 -29q26 0 41 28zM521 5.5q-39 27.5 -60 74.5t-21 105q0 59 21.5 106t60.5 73.5t91 26.5t91 -27.5t59.5 -74t20.5 -104.5q0 -91 -46.5 -149t-124.5 -58q-53 0 -92 27.5zM654 108q15 28 15 77q0 47 -15.5 75.5t-40.5 28.5q-26 0 -41.5 -27.5t-15.5 -76.5q0 -47 16 -76
t41 -29q26 0 41 28z" />
    <glyph glyph-name="ampersand" unicode="&#x26;" horiz-adv-x="645" 
d="M135 5.5q-49 26.5 -77 72.5t-28 101q0 64 30.5 111t101.5 94q-58 74 -58 152q0 47 22 82q21 36 59 56t85 20q73 0 119.5 -45t46.5 -116q0 -52 -27 -93.5t-84 -78.5l89 -112q4 15 6 38.5t2 41.5q0 13 -1 16h111l1 -23q0 -96 -39 -176l121 -154h-148l-43 55
q-37 -33 -83 -50.5t-98 -17.5q-59 0 -108 26.5zM261 445q27 20 42.5 46t15.5 48q0 20 -12.5 33t-36.5 13q-25 0 -37 -13t-12 -35q0 -20 9.5 -42.5t26.5 -44.5zM355 136l-126 163q-44 -32 -61 -58.5t-17 -61.5q0 -38 27.5 -63t68.5 -25q62 0 108 45z" />
    <glyph glyph-name="quotesingle" unicode="'" horiz-adv-x="188" 
d="M124 456q-42 0 -68 28t-22 71l13 145h76q16 0 26 -11t9 -27l-18 -206h-16z" />
    <glyph glyph-name="parenleft" unicode="(" horiz-adv-x="321" 
d="M176 -117q-75 111 -110.5 217.5t-35.5 224.5q0 211 146 411h115q-63 -96 -95 -199.5t-32 -211.5q0 -121 29.5 -226.5t95.5 -215.5h-113z" />
    <glyph glyph-name="parenright" unicode=")" horiz-adv-x="321" 
d="M32 -117q66 110 95.5 215.5t29.5 226.5q0 108 -32 211.5t-95 199.5h115q146 -200 146 -411q0 -118 -35.5 -224.5t-110.5 -217.5h-113z" />
    <glyph glyph-name="asterisk" unicode="*" horiz-adv-x="380" 
d="M190 467l-51 -76l-78 55l51 74l-82 28l33 85l79 -25v92h96v-92l79 25l33 -85l-82 -28l52 -74l-79 -55z" />
    <glyph glyph-name="plus" unicode="+" horiz-adv-x="526" 
d="M317 79h-108v185h-179v106h179v185h108v-185h179v-106h-179v-185z" />
    <glyph glyph-name="comma" unicode="," horiz-adv-x="196" 
d="M31 -43q18 2 27 10.5t13 24.5h-41v138h37q43 0 71 -27.5t28 -71.5v-18q0 -63 -36 -101t-99 -41v86z" />
    <glyph glyph-name="hyphen" unicode="-" horiz-adv-x="354" 
d="M324 213h-294v115h294v-115z" />
    <glyph glyph-name="period" unicode="." horiz-adv-x="196" 
d="M129 -8q-43 0 -71 28.5t-28 70.5v39h98q16 0 27 -11t11 -27v-100h-37z" />
    <glyph glyph-name="slash" unicode="/" horiz-adv-x="469" 
d="M158 -8h-128l281 708h128z" />
    <glyph glyph-name="zero" unicode="0" horiz-adv-x="598" 
d="M156 22q-61 43 -93.5 123t-32.5 188q0 107 33 188q33 80 94 123t143 43q84 0 143 -42q61 -44 93 -124t32 -188q0 -107 -32 -189q-32 -80 -93 -123t-144 -43q-84 0 -143 44zM405.5 153q36.5 61 36.5 180q0 117 -36.5 179t-105.5 62t-106 -62t-37 -179t37 -179t106 -62
t105.5 61z" />
    <glyph glyph-name="one" unicode="1" horiz-adv-x="323" 
d="M169 -8v550l-101 -28q-14 -4 -26 8.5t-12 29.5v56l158 68h105v-684h-124z" />
    <glyph glyph-name="two" unicode="2" horiz-adv-x="559" 
d="M30 -8q-1 83 26.5 141.5t80 102.5t142.5 95q53 32 74.5 47t35 36.5t13.5 53.5q0 51 -33.5 80t-79.5 29q-40 0 -71.5 -24t-40.5 -69q-3 -15 -12.5 -24t-23.5 -9h-94q4 112 70.5 173.5t176.5 61.5q67 0 120.5 -27t84 -76.5t30.5 -113.5q0 -60 -21 -99.5t-60 -68.5t-116 -72
q-62 -34 -98.5 -62t-52.5 -54h335v-121h-486z" />
    <glyph glyph-name="three" unicode="3" horiz-adv-x="586" 
d="M157 11.5q-64 33.5 -97.5 95t-29.5 141.5h123q-5 -76 34 -117t116 -41q63 0 95 29t32 85q0 38 -4.5 56t-24.5 28.5t-65 10.5h-25q-15 0 -26.5 11.5t-11.5 26.5v69h62q40 0 56 9t18 23t2 54q0 39 -32 63.5t-83 24.5q-53 0 -85 -29t-37 -80q-2 -17 -12 -27.5t-26 -10.5h-84
q-1 1 -1 21q0 71 31 123.5t87 81t130 28.5q67 0 120 -24t83.5 -69t30.5 -104q0 -43 -18 -76.5t-53 -55.5q94 -48 94 -166q0 -66 -33.5 -114.5t-90.5 -74t-126 -25.5q-85 0 -149 33.5z" />
    <glyph glyph-name="four" unicode="4" horiz-adv-x="585" 
d="M451 -8h-122v156h-299v100l326 431h95v-423h104v-108h-104v-156zM329 464l-157 -208h157v208z" />
    <glyph glyph-name="five" unicode="5" horiz-adv-x="567" 
d="M150.5 9q-59.5 31 -91.5 87t-29 126h121q1 -62 36 -95.5t98 -33.5q58 0 92 35.5t34 95.5q0 40 -19 69t-50 44.5t-66 15.5q-36 0 -68.5 -17t-51.5 -50h-67q-18 0 -29.5 9.5t-11.5 27.5q0 8 1 12l71 337h379v-77q0 -16 -11 -27t-27 -11h-250l-25 -117q52 26 110 26
q64 0 119 -31t88.5 -87t33.5 -126q0 -72 -33 -127.5t-90 -86t-128 -30.5q-76 0 -135.5 31z" />
    <glyph glyph-name="six" unicode="6" horiz-adv-x="567" 
d="M127 40q-51 47 -74 117.5t-23 178.5q0 157 68 254t200 97q101 0 161.5 -61t63.5 -161h-91q-13 0 -23 9.5t-13 24.5q-7 35 -32.5 55.5t-63.5 20.5q-64 0 -99.5 -42t-44.5 -130q62 51 149 51q65 0 118.5 -32.5t83.5 -87.5t30 -118q0 -64 -31.5 -118.5t-86 -87t-118.5 -32.5
q-106 0 -174 62zM385.5 123.5q33.5 35.5 33.5 91.5q0 57 -34.5 93t-88.5 36q-59 0 -94.5 -35t-35.5 -93q0 -56 37.5 -92t95.5 -36q53 0 86.5 35.5z" />
    <glyph glyph-name="seven" unicode="7" horiz-adv-x="549" 
d="M119 -8q4 151 70 307t168 258h-289q-16 0 -27 11t-11 27v77h489v-97q-121 -103 -194 -260t-77 -323h-129z" />
    <glyph glyph-name="eight" unicode="8" horiz-adv-x="585" 
d="M159 3.5q-60 25.5 -94.5 75t-34.5 118.5q0 55 26.5 98t76.5 70q-35 25 -53.5 59.5t-18.5 74.5q0 55 30 98q30 44 82.5 67.5t119.5 23.5q64 0 119 -24q53 -24 82.5 -67t29.5 -98q0 -41 -18 -75.5t-51 -58.5q47 -26 73.5 -70.5t26.5 -97.5q0 -105 -71 -162t-189 -57
q-76 0 -136 25.5zM373.5 437.5q28.5 21.5 28.5 59.5q0 37 -29 58.5t-80 21.5t-80 -21.5t-29 -58.5q0 -38 28.5 -59.5t80.5 -21.5t80.5 21.5zM395.5 118q35.5 28 35.5 79q0 53 -36.5 82.5t-101.5 29.5t-101 -29.5t-36 -82.5q0 -52 36 -79.5t103 -27.5q65 0 100.5 28z" />
    <glyph glyph-name="nine" unicode="9" horiz-adv-x="567" 
d="M440 625q51 -47 74 -117.5t23 -178.5q0 -157 -68 -254t-200 -97q-101 0 -161.5 61t-63.5 161h91q13 0 23 -9.5t13 -24.5q7 -35 32.5 -55.5t63.5 -20.5q64 0 99.5 42t44.5 130q-61 -51 -149 -51q-65 0 -118.5 32.5t-83.5 87.5t-30 118q0 64 31.5 118.5t86 87t118.5 32.5
q106 0 174 -62zM181.5 541.5q-33.5 -35.5 -33.5 -91.5q0 -57 34.5 -93t88.5 -36q59 0 94.5 35t35.5 93q0 56 -37.5 92t-95.5 36q-53 0 -86.5 -35.5z" />
    <glyph glyph-name="colon" unicode=":" horiz-adv-x="196" 
d="M30 410h98q16 0 27 -11t11 -26v-100h-37q-43 0 -71 28t-28 71v38zM30 130h98q16 0 27 -11t11 -26v-100h-37q-43 0 -71 28t-28 71v38z" />
    <glyph glyph-name="semicolon" unicode=";" horiz-adv-x="196" 
d="M30 410h98q16 0 27 -11t11 -26v-100h-37q-43 0 -71 28t-28 71v38zM30 130h37q42 0 70.5 -35.5t28.5 -81.5q0 -63 -36 -101t-99 -41v86q18 2 27 10.5t13 24.5h-19q-14 0 -18 9.5t-4 28.5v100z" />
    <glyph glyph-name="less" unicode="&#x3c;" horiz-adv-x="483" 
d="M453 189v-119l-423 180v108l423 179v-118l-281 -114z" />
    <glyph glyph-name="equal" unicode="=" horiz-adv-x="526" 
d="M30 401q0 16 11 27t27 11h428v-67q0 -16 -11 -27t-27 -11h-428v67zM68 172q-16 0 -27 11t-11 27v67h428q16 0 27 -11t11 -27v-67h-428z" />
    <glyph glyph-name="greater" unicode="&#x3e;" horiz-adv-x="483" 
d="M453 250l-423 -180v119l281 116l-281 114v118l423 -179v-108z" />
    <glyph glyph-name="question" unicode="?" horiz-adv-x="494" 
d="M164 152q-1 66 15.5 114t39.5 79t59 67q31 31 45.5 52t14.5 47q0 40 -27.5 64t-74.5 24q-84 0 -109 -73l-97 74q31 53 86.5 82.5t122.5 29.5q66 0 117 -24.5t79.5 -70t28.5 -105.5q0 -48 -12 -79.5t-29.5 -50.5t-47.5 -42q-31 -24 -49.5 -45t-31.5 -55.5t-13 -87.5h-117z
M263 -8q-43 0 -71 28.5t-28 70.5v39h89q15 0 26.5 -11t11.5 -27v-100h-28z" />
    <glyph glyph-name="at" unicode="@" horiz-adv-x="879" 
d="M75 506q46 94 132 143t205 49q131 0 231 -64.5t153 -162.5t53 -193q0 -90 -49.5 -148t-144.5 -58q-75 0 -115 49q-24 -27 -56 -41.5t-69 -14.5q-92 0 -136.5 60t-51.5 171q-4 60 17 111.5t62.5 82.5t99.5 31q76 0 119 -27t60.5 -82t15.5 -142q-1 -41 1.5 -59.5t13 -26
t35.5 -7.5q43 0 65 28.5t22 75.5q0 67 -40.5 142.5t-114 125t-166.5 45.5q-85 -4 -149 -43.5t-98.5 -103t-34.5 -137.5q0 -96 55 -180q43 -67 110.5 -99.5t151.5 -32.5q33 0 80 7v-105q-33 -3 -63 -3q-120 0 -216 46.5t-155 133t-68 202.5q-1 133 45 227zM482 198
q22 29 22 97q0 121 -87 121q-39 0 -60 -31.5t-21 -88.5q0 -127 77 -127q47 0 69 29z" />
    <glyph glyph-name="A" unicode="A" horiz-adv-x="708" 
d="M165 -8h-135l261 708h125l262 -708h-141l-70 202h-231zM353 526l-77 -218h152z" />
    <glyph glyph-name="B" unicode="B" horiz-adv-x="615" 
d="M30 -8v708h303q100 0 162.5 -52t62.5 -141q0 -91 -72 -138q47 -24 73 -66.5t26 -97.5q0 -63 -30.5 -111.5t-84.5 -75t-122 -26.5h-318zM323 417q51 0 78.5 22t27.5 63q0 38 -24.5 59t-70.5 21h-174v-165h163zM345 114q53 0 81.5 22t28.5 65q0 48 -30.5 73.5t-85.5 25.5
h-179v-186h185z" />
    <glyph glyph-name="C" unicode="C" horiz-adv-x="694" 
d="M188 27q-76 48 -117 132t-41 188q0 105 41.5 189t118 131.5t177.5 47.5q81 0 145 -31t102.5 -89t43.5 -137h-128q-5 64 -49 101t-116 37q-97 0 -150.5 -69.5t-53.5 -179.5q0 -72 24.5 -128.5t71 -88t109.5 -31.5q78 0 123.5 48t46.5 134h128q2 -92 -36.5 -160.5
t-108 -105t-156.5 -36.5q-99 0 -175 48z" />
    <glyph glyph-name="D" unicode="D" horiz-adv-x="640" 
d="M30 -8v708h264q153 0 234.5 -95.5t81.5 -260.5q0 -109 -38 -188t-111 -121.5t-174 -42.5h-257zM284 112q98 0 146.5 57t48.5 175q0 121 -46 179.5t-142 58.5h-131v-470h124z" />
    <glyph glyph-name="E" unicode="E" horiz-adv-x="541" 
d="M490 -8h-460v708h481l-31 -119h-320v-163h276l-30 -117h-246v-186h330v-123z" />
    <glyph glyph-name="F" unicode="F" horiz-adv-x="541" 
d="M160 -8h-130v708h481l-31 -119h-320v-163h276l-30 -117h-246v-309z" />
    <glyph glyph-name="G" unicode="G" horiz-adv-x="703" 
d="M190 26q-76 48 -118 131.5t-42 186.5q0 108 41.5 191.5t118.5 131t181 47.5q128 0 206.5 -69t88.5 -190h-131q-18 140 -166 140q-99 0 -153.5 -65.5t-54.5 -185.5q0 -71 25 -127t72 -88t109 -32q81 0 128 46t48 127h-198l37 118h291v-396q-49 0 -75.5 14t-36.5 49
q-77 -77 -197 -77q-98 0 -174 48z" />
    <glyph glyph-name="H" unicode="H" horiz-adv-x="626" 
d="M160 -8h-130v708h130v-309h307v309h129v-708h-129v285h-307v-285z" />
    <glyph glyph-name="I" unicode="I" horiz-adv-x="190" 
d="M160 -8h-130v708h130v-708z" />
    <glyph glyph-name="J" unicode="J" horiz-adv-x="492" 
d="M90 36.5q-55 57.5 -60 168.5l129 21v-2q0 -72 19 -101t72 -29q44 0 63 22.5t19 71.5v512h130v-517q0 -94 -58 -149t-157 -55q-102 0 -157 57.5z" />
    <glyph glyph-name="K" unicode="K" horiz-adv-x="634" 
d="M160 -8h-130v708h130v-351l231 351h170l-242 -346l285 -362h-173l-196 264l-75 -99v-165z" />
    <glyph glyph-name="L" unicode="L" horiz-adv-x="536" 
d="M506 -8h-476v708h130v-585h346v-123z" />
    <glyph glyph-name="M" unicode="M" horiz-adv-x="750" 
d="M151 -8h-121v708h145l200 -512l198 512h147v-708h-126v443l-174 -443h-95l-174 443v-443z" />
    <glyph glyph-name="N" unicode="N" horiz-adv-x="623" 
d="M154 -8h-124v708h123l309 -470l7 -12v482h124v-708h-120l-311 471l-8 13v-484z" />
    <glyph glyph-name="O" unicode="O" 
d="M196 25.5q-79 47.5 -122.5 131.5t-43.5 190q0 108 43.5 191.5t122.5 130t181 46.5q104 0 182.5 -47t121.5 -130.5t43 -190.5q0 -106 -44 -190t-123 -131.5t-180 -47.5q-102 0 -181 47.5zM531.5 168q56.5 66 56.5 179q0 109 -55.5 177t-155.5 68q-99 0 -155 -67.5
t-56 -177.5q0 -113 56.5 -179t154.5 -66t154.5 66z" />
    <glyph glyph-name="P" unicode="P" horiz-adv-x="584" 
d="M30 -8v708h299q67 0 118 -27t79 -75.5t28 -110.5q0 -104 -61.5 -160.5t-175.5 -56.5h-157v-278h-130zM310 384q115 0 115 100q0 98 -110 98h-155v-198h150z" />
    <glyph glyph-name="Q" unicode="Q" 
d="M196 25.5q-79 47.5 -122.5 131.5t-43.5 190q0 108 43.5 191.5t122.5 130t181 46.5t181 -46q80 -48 123 -131.5t43 -190.5q0 -19 -5 -67v-288q-55 0 -78 15t-34 54q-45 -40 -103.5 -61.5t-126.5 -21.5q-102 0 -181 47.5zM460.5 113.5q35.5 11.5 57.5 40.5q-10 -1 -27 -1
q-55 0 -74.5 21.5t-19.5 71.5v25h183q7 38 7 79q0 108 -55 175t-155 67q-99 0 -155 -67.5t-56 -177.5q0 -113 56.5 -179t154.5 -66q48 0 83.5 11.5z" />
    <glyph glyph-name="R" unicode="R" horiz-adv-x="632" 
d="M30 -6v706h332q63 0 112.5 -25t77.5 -71.5t28 -107.5q0 -96 -33.5 -145.5t-113.5 -67.5l169 -289h-149l-162 278h-131v-278h-130zM332 386q116 0 116 98q0 53 -25.5 75.5t-85.5 22.5h-177v-196h172z" />
    <glyph glyph-name="S" unicode="S" horiz-adv-x="630" 
d="M125 40.5q-80 61.5 -95 172.5h130q27 -121 177 -121q65 0 99.5 26.5t34.5 74.5q0 30 -22.5 51t-57 35t-92.5 32q-78 25 -125.5 46t-82 60t-34.5 98q0 64 33 108.5t89.5 67t125.5 22.5q117 0 185.5 -54t86.5 -161h-126q-23 104 -144 104q-60 0 -93 -22t-33 -61
q0 -28 21.5 -47t54 -31.5t89.5 -29.5q80 -24 130.5 -46t87 -63.5t36.5 -105.5q0 -69 -35 -118t-95.5 -74t-136.5 -25q-128 0 -208 61.5z" />
    <glyph glyph-name="T" unicode="T" horiz-adv-x="630" 
d="M380 -8h-130v589h-220v119h570v-119h-220v-589z" />
    <glyph glyph-name="U" unicode="U" horiz-adv-x="613" 
d="M102.5 47q-72.5 65 -72.5 182v471h130v-462q0 -72 36.5 -105t112.5 -33q73 0 109 33.5t36 104.5v462h129v-471q0 -117 -73 -182t-203 -65q-132 0 -204.5 65z" />
    <glyph glyph-name="V" unicode="V" horiz-adv-x="679" 
d="M401 -8h-125l-246 708h139l174 -524l170 524h136z" />
    <glyph glyph-name="W" unicode="W" horiz-adv-x="940" 
d="M332 -8h-119l-183 708h135l113 -467l129 467h125l126 -467l119 467h133l-197 -708h-115l-129 496z" />
    <glyph glyph-name="X" unicode="X" horiz-adv-x="690" 
d="M181 -8h-151l245 362l-227 346h151l152 -245l155 245h148l-232 -347l238 -361h-155l-159 259z" />
    <glyph glyph-name="Y" unicode="Y" horiz-adv-x="708" 
d="M418 -8h-130v297l-258 411h147l178 -295l180 295h143l-260 -413v-295z" />
    <glyph glyph-name="Z" unicode="Z" horiz-adv-x="621" 
d="M591 -8h-561v111l374 480h-351v117h522v-96l-379 -490h395v-122z" />
    <glyph glyph-name="bracketleft" unicode="[" horiz-adv-x="281" 
d="M251 -117h-221v853h221v-107h-97v-636h97v-110z" />
    <glyph glyph-name="backslash" unicode="\" horiz-adv-x="469" 
d="M439 -8h-128l-281 708h128z" />
    <glyph glyph-name="bracketright" unicode="]" horiz-adv-x="281" 
d="M251 -117h-221v110h97v636h-97v107h221v-853z" />
    <glyph glyph-name="underscore" unicode="_" horiz-adv-x="487" 
d="M457 -161h-427v102h427v-102z" />
    <glyph glyph-name="a" unicode="a" horiz-adv-x="551" 
d="M63 239q33 36 77.5 50.5t110.5 24.5q53 8 77.5 17.5t24.5 29.5q0 62 -84 62q-51 0 -74 -20.5t-23 -68.5l-118 -15q-7 96 52 151.5t162 55.5q98 0 149 -44.5t51 -130.5v-227q0 -19 3.5 -28t20.5 -40q4 -7 11 -20t18 -33q-28 -15 -63 -15q-30 0 -55 12.5t-39 37.5
q-59 -55 -149 -55q-85 0 -135 42t-50 114q0 64 33 100zM174 100q18 -13 58 -13q63 0 92.5 45.5t29.5 105.5q-37 -13 -82 -23q-54 -12 -85 -32t-31 -42q0 -28 18 -41z" />
    <glyph glyph-name="b" unicode="b" horiz-adv-x="540" 
d="M151 22q0 -12 -11 -21t-27 -9h-83v708h121v-218q58 46 132 46q110 0 168.5 -77t58.5 -198q0 -80 -27 -142.5t-79 -97.5t-123 -35q-77 0 -130 44zM357.5 130.5q29.5 42.5 29.5 121.5t-29 122.5t-82 43.5q-61 0 -95 -44t-34 -122q0 -77 34 -120.5t94 -43.5q53 0 82.5 42.5z
" />
    <glyph glyph-name="c" unicode="c" horiz-adv-x="545" 
d="M153 15.5q-58 36.5 -90.5 99.5t-32.5 139q0 78 32.5 141t90.5 98.5t131 35.5q99 0 161.5 -57.5t69.5 -155.5h-122q-3 51 -31.5 78t-77.5 27q-60 0 -95.5 -44.5t-35.5 -122.5q0 -77 35.5 -121t95.5 -44q91 0 106 84q3 15 12.5 24.5t24.5 9.5h86q-1 -106 -62 -167t-167 -61
q-73 0 -131 36.5z" />
    <glyph glyph-name="d" unicode="d" horiz-adv-x="540" 
d="M136 13q-52 35 -79 97.5t-27 142.5q0 121 58.5 198t168.5 77q74 0 132 -46v218h121v-708h-83q-16 0 -27 9t-11 21q-53 -44 -130 -44q-71 0 -123 35zM359 131.5q34 43.5 34 120.5q0 78 -34 122t-95 44q-53 0 -82 -43.5t-29 -122.5t29.5 -121.5t82.5 -42.5q60 0 94 43.5z
" />
    <glyph glyph-name="e" unicode="e" horiz-adv-x="552" 
d="M150.5 15.5q-57.5 36.5 -89 99.5t-31.5 139q0 78 32 140.5t89 98.5t129 36q81 0 137 -41t82.5 -113t22.5 -162h-366q9 -59 42.5 -91.5t85.5 -32.5q84 0 108 71q10 27 33 27h92q-12 -97 -73.5 -152.5t-159.5 -55.5q-76 0 -133.5 36.5zM394 316q-17 107 -114 107
q-46 0 -77 -27.5t-43 -79.5h234z" />
    <glyph glyph-name="f" unicode="f" horiz-adv-x="337" 
d="M96 -8v418h-66v107h66v54q0 135 150 135l36 -2l25 -2v-110l-48 3q-27 0 -34.5 -5.5t-7.5 -22.5v-50h89v-107h-89v-418h-121z" />
    <glyph glyph-name="g" unicode="g" horiz-adv-x="534" 
d="M118 -130.5q-58 36.5 -71 102.5h107q11 0 21 -10q23 -23 94 -23q58 0 85.5 24.5t27.5 75.5v12q-49 -42 -120 -42q-69 0 -122 34t-81.5 93.5t-28.5 132.5q0 72 28.5 131t80.5 93.5t119 34.5q73 0 125 -41q3 13 13 21.5t24 8.5h84v-476q0 -99 -61.5 -153.5t-171.5 -54.5
q-95 0 -153 36.5zM358.5 155.5q29.5 37.5 29.5 117.5q0 74 -30.5 110t-92.5 36q-54 0 -83 -39t-29 -112q0 -72 29.5 -111t83.5 -39q63 0 92.5 37.5z" />
    <glyph glyph-name="h" unicode="h" horiz-adv-x="496" 
d="M30 -8v708h121v-215q53 43 131 43q86 0 135 -47t49 -130v-359h-121v353q0 36 -22 55t-64 19q-48 0 -78 -30.5t-30 -78.5v-318h-121z" />
    <glyph glyph-name="i" unicode="i" horiz-adv-x="183" 
d="M129 562q-43 0 -71 28.5t-28 70.5v35h85q16 0 27 -11t11 -27v-96h-24zM153 -8h-121v525h121v-525z" />
    <glyph glyph-name="j" unicode="j" horiz-adv-x="258" 
d="M204 562q-43 0 -71 28.5t-28 70.5v35h85q16 0 27 -11t11 -27v-96h-24zM30 -137v104l42 -2q24 0 29.5 4.5t5.5 18.5v529h121v-533q0 -66 -32.5 -97t-100.5 -31q-20 0 -65 7z" />
    <glyph glyph-name="k" unicode="k" horiz-adv-x="477" 
d="M30 -8v708h121v-356l109 159q11 14 26 14h146l-166 -227l181 -298h-143l-133 227l-20 -41v-148q0 -15 -11 -26.5t-27 -11.5h-83z" />
    <glyph glyph-name="l" unicode="l" horiz-adv-x="181" 
d="M151 -8h-121v708h121v-708z" />
    <glyph glyph-name="m" unicode="m" horiz-adv-x="742" 
d="M30 -8v525h83q15 0 25.5 -9.5t12.5 -23.5q25 21 56 32.5t64 11.5q40 0 73 -17t55 -49q27 32 64.5 49t79.5 17q77 0 123 -48t46 -129v-359h-121v356q0 32 -18 51.5t-47 19.5q-39 0 -67 -30.5t-28 -75.5v-321h-121v356q0 34 -15.5 52.5t-43.5 18.5q-24 0 -47.5 -16
t-38 -40.5t-14.5 -49.5v-321h-121z" />
    <glyph glyph-name="n" unicode="n" horiz-adv-x="496" 
d="M30 -8v525h83q14 0 24.5 -9t12.5 -23q53 43 132 43q86 0 135 -47t49 -130v-359h-121v353q0 36 -22 55t-64 19q-48 0 -78 -30.5t-30 -78.5v-318h-121z" />
    <glyph glyph-name="o" unicode="o" horiz-adv-x="568" 
d="M153 15.5q-58 36.5 -90.5 99.5t-32.5 139q0 78 32.5 141t90.5 98.5t131 35.5q76 0 133.5 -36.5t89 -99t31.5 -139.5t-32 -140t-90 -99t-132 -36q-73 0 -131 36.5zM380 132.5q35 43.5 35 121.5t-35 122.5t-96 44.5q-60 0 -95.5 -44.5t-35.5 -122.5q0 -77 35.5 -121
t95.5 -44q61 0 96 43.5z" />
    <glyph glyph-name="p" unicode="p" horiz-adv-x="542" 
d="M30 -161v678h83q16 0 27 -10t11 -24q57 45 132 45q74 0 125.5 -36t77.5 -98.5t26 -140.5q0 -81 -27.5 -143t-79.5 -97t-124 -35q-80 0 -130 40v-179h-121zM359 131.5q30 43.5 30 120.5q0 78 -30 122t-83 44q-61 0 -95 -44t-34 -122q0 -81 32.5 -122.5t95.5 -41.5
q54 0 84 43.5z" />
    <glyph glyph-name="q" unicode="q" horiz-adv-x="542" 
d="M512 -161h-121v179q-50 -40 -130 -40q-72 0 -124 35t-79.5 97t-27.5 143q0 78 26 140.5t77.5 98.5t125.5 36q75 0 132 -45q0 14 11 24t27 10h83v-678zM362.5 129.5q32.5 41.5 32.5 122.5q0 78 -34 122t-95 44q-53 0 -83 -44t-30 -122q0 -77 30 -120.5t84 -43.5
q63 0 95.5 41.5z" />
    <glyph glyph-name="r" unicode="r" horiz-adv-x="356" 
d="M30 -8v525h83q17 0 27.5 -11.5t10.5 -30.5q57 47 114 47q28 0 61 -13v-106q-34 6 -61 6q-60 0 -87 -30.5t-27 -97.5v-289h-121z" />
    <glyph glyph-name="s" unicode="s" horiz-adv-x="507" 
d="M99.5 26.5q-61.5 48.5 -69.5 137.5h50q44 0 60 -5.5t22 -19.5q11 -26 36 -38.5t69 -12.5q43 0 65.5 14t22.5 41q0 32 -30.5 48t-92.5 31q-57 15 -93 29.5t-62 44t-26 77.5q0 72 52.5 113t142.5 41q92 0 146 -44.5t64 -126.5l-123 4q-5 34 -25.5 48t-62.5 14
q-73 0 -73 -46q0 -24 26 -37t84 -28q61 -16 100 -32t67 -48t28 -84q0 -78 -57 -123.5t-155 -45.5q-104 0 -165.5 48.5z" />
    <glyph glyph-name="t" unicode="t" horiz-adv-x="343" 
d="M99 410h-31q-18 0 -28 12.5t-10 47.5v47h69v183h122v-183h92v-107h-92v-288q0 -13 4.5 -17t20.5 -4q35 0 50 -6.5t15 -33.5v-60q-46 -11 -81 -11q-61 0 -96 29t-35 86v305z" />
    <glyph glyph-name="u" unicode="u" horiz-adv-x="496" 
d="M466 528v-525h-83q-14 0 -24.5 9t-12.5 23q-53 -43 -132 -43q-86 0 -135 47t-49 130v359h121v-353q0 -36 22 -55t64 -19q48 0 78 30.5t30 78.5v318h121z" />
    <glyph glyph-name="v" unicode="v" horiz-adv-x="548" 
d="M330 -8h-117l-183 525h130l114 -352l117 352h127z" />
    <glyph glyph-name="w" unicode="w" horiz-adv-x="794" 
d="M308 -8h-111l-167 525h130l92 -327l89 327h114l85 -327l98 327h126l-171 -525h-111l-86 315z" />
    <glyph glyph-name="x" unicode="x" horiz-adv-x="605" 
d="M30 -8l197 274l-175 251h145l102 -156l97 142q11 14 26 14h123l-174 -242l204 -283h-129q-15 0 -26 14l-121 175l-118 -175q-11 -14 -26 -14h-125z" />
    <glyph glyph-name="y" unicode="y" horiz-adv-x="577" 
d="M107 -157.5q-23 8.5 -23 32.5v82l40 -5q9 0 23 -2l21 -1q18 0 25.5 7.5t17.5 34.5l15 38l-196 488h131l131 -344l126 344h129l-217 -549q-29 -74 -64 -104t-92 -30q-44 0 -67 8.5z" />
    <glyph glyph-name="z" unicode="z" horiz-adv-x="487" 
d="M457 -8h-427v90l245 323h-229v112h401v-75l-253 -335h263v-115z" />
    <glyph glyph-name="braceleft" unicode="{" horiz-adv-x="330" 
d="M260 -117q-84 0 -125 42.5t-41 129.5v165q0 19 -5.5 27t-20.5 11q-17 2 -27.5 12t-10.5 25v37q0 15 10 24.5t27 12.5q16 2 21.5 9.5t5.5 27.5v161q0 87 40.5 128t125.5 41h40v-107h-38q-27 0 -35.5 -12t-8.5 -51v-166q0 -59 -31 -87q31 -28 31 -88v-169q0 -39 8.5 -51
t35.5 -12h38v-110h-40z" />
    <glyph glyph-name="bar" unicode="|" horiz-adv-x="171" 
d="M141 -117h-111v853h111v-853z" />
    <glyph glyph-name="braceright" unicode="}" horiz-adv-x="330" 
d="M30 -117v110h38q27 0 35.5 12t8.5 51v169q0 60 31 88q-31 28 -31 87v166q0 39 -8.5 51t-35.5 12h-38v107h40q85 0 125.5 -41t40.5 -128v-161q0 -20 5.5 -27.5t21.5 -9.5q17 -3 27 -12.5t10 -24.5v-37q0 -15 -10.5 -25t-27.5 -12q-15 -3 -20.5 -11t-5.5 -27v-165
q0 -87 -41 -129.5t-125 -42.5h-40z" />
    <glyph glyph-name="exclamdown" unicode="&#xa1;" horiz-adv-x="196" 
d="M30 531v138h136v-138h-136zM34 197l22 312h84l22 -312v-236h-128v236z" />
    <glyph glyph-name="cent" unicode="&#xa2;" horiz-adv-x="545" 
d="M402.5 197.5q9.5 9.5 24.5 9.5h86q-1 -89 -45 -147t-123 -75v-135h-111v134q-61 12 -107 50t-71.5 95.5t-25.5 124.5q0 69 25.5 126.5t72 95t106.5 48.5v179h111v-180q74 -17 119 -71t51 -136h-122q-5 66 -48 90v-303q36 19 45 70q3 15 12.5 24.5zM174.5 154.5
q21.5 -40.5 59.5 -56.5v313q-39 -16 -60 -56.5t-21 -100.5q0 -59 21.5 -99.5z" />
    <glyph glyph-name="sterling" unicode="&#xa3;" horiz-adv-x="469" 
d="M216 -25q-73 0 -96.5 33t-23.5 90l1 40v151h-66l-1 99h64l-8 157q-4 76 44 117.5t140 41.5q79 0 121.5 -40t45.5 -116l2 -53h-105l-1 55q-1 28 -15 39.5t-48 11.5q-43 0 -62.5 -12t-17.5 -37l9 -164h142l-5 -100h-135l-11 -150l-47 -80q68 17 145 17l131 1v-101h-203z
" />
    <glyph glyph-name="yen" unicode="&#xa5;" horiz-adv-x="708" 
d="M418 287v-27h166v-67q0 -16 -11 -27t-27 -11h-128v-57h128q16 0 27 -11t11 -27v-67h-166v-1h-130v1h-132q-16 0 -27 11t-11 27v67h170v57h-170v67q0 16 11 27t27 11h132v29l-258 411h147l178 -295l180 295h143z" />
    <glyph glyph-name="section" unicode="&#xa7;" horiz-adv-x="466" 
d="M93 21q-56 44 -63 124h91q22 0 29 -22q11 -25 33 -36t62 -11q80 0 80 51q0 23 -18 33t-43.5 16.5t-34.5 8.5q-53 9 -93 25q-30 10 -47 27q-18 12 -28 36t-10 53q0 35 13.5 66.5t37.5 49.5q-68 33 -68 117q0 66 47 103.5t129 37.5q83 0 132.5 -40t59.5 -115l-112 2
q-5 31 -23.5 44t-57.5 13q-34 0 -50 -10t-16 -31q0 -14 7 -21q15 -15 93 -30q57 -11 92 -26q41 -17 63.5 -53.5t22.5 -78.5q0 -30 -11.5 -57t-33.5 -48q60 -39 60 -119q0 -71 -52 -112t-140 -41q-95 0 -151 44zM282 312q19 12 19 28t-20 28t-56 12q-33 0 -49.5 -10
t-16.5 -25q0 -17 19.5 -31t50.5 -14q34 0 53 12z" />
    <glyph glyph-name="copyright" unicode="&#xa9;" horiz-adv-x="706" 
d="M191 55.5q-74 43.5 -117.5 117.5t-43.5 163t43.5 163.5t117.5 118.5t162 44t162.5 -44t117.5 -118.5t43 -163.5t-43 -163t-117 -117.5t-163 -43.5q-88 0 -162 43.5zM479.5 118q57.5 34 91 92t33.5 127t-33.5 127t-91 92t-126.5 34q-68 0 -125.5 -34t-91 -92.5
t-33.5 -126.5q0 -69 33.5 -127t91 -92t125.5 -34q69 0 126.5 34zM251 223q-37 41 -37 100q0 61 37 101t94 40q51 0 83 -29.5t35 -79.5h-62q-1 26 -16 40t-40 14q-31 0 -49 -23t-18 -63q0 -39 18 -61.5t49 -22.5q47 0 54 43q2 8 7 12.5t12 4.5h44q0 -54 -31.5 -85.5
t-85.5 -31.5q-57 0 -94 41z" />
    <glyph glyph-name="ordfeminine" unicode="&#xaa;" horiz-adv-x="337" 
d="M48.5 468q18.5 20 43.5 28.5t63 14.5q29 5 43.5 10t13.5 17q0 35 -47 35q-29 0 -42 -11.5t-13 -38.5l-67 -9q-4 54 29.5 85.5t91.5 31.5q56 0 84.5 -25t28.5 -74v-128q0 -11 2 -16t12 -23l16 -29q-16 -9 -36 -9q-37 0 -53 28q-34 -31 -84 -31q-47 0 -75.5 24t-28.5 64
q0 36 18.5 56zM111.5 390.5q10.5 -7.5 32.5 -7.5q35 0 52 26t17 59q-32 -10 -46 -13q-31 -7 -48.5 -17.5t-17.5 -23.5q0 -16 10.5 -23.5z" />
    <glyph glyph-name="guillemotleft" unicode="&#xab;" horiz-adv-x="718" 
d="M379 206v-98l-349 149v89l349 148v-98l-232 -94zM688 206v-98l-349 149v89l349 148v-98l-232 -94z" />
    <glyph glyph-name="registered" unicode="&#xae;" horiz-adv-x="706" 
d="M191 55.5q-74 43.5 -117.5 117.5t-43.5 163t43.5 163.5t117.5 118.5t162 44t162.5 -44t117.5 -118.5t43 -163.5t-43 -163t-117 -117.5t-163 -43.5q-88 0 -162 43.5zM479.5 118.5q57.5 33.5 91 91t33.5 126.5t-33.5 127t-91 92t-126.5 34t-126.5 -34t-91 -92t-33.5 -127
t33.5 -126.5t91 -91t126.5 -33.5t126.5 33.5zM259 214v247h116q33 0 54.5 -19.5t21.5 -51.5q0 -34 -11.5 -51t-39.5 -24l59 -101h-52l-57 97h-46v-97h-45zM364 351q41 0 41 35q0 19 -9 26.5t-30 7.5h-62v-69h60z" />
    <glyph glyph-name="degree" unicode="&#xb0;" horiz-adv-x="320" 
d="M91 336q-29 20 -45 59t-16 91q0 48 16 90q17 39 46 59.5t69 20.5q42 0 69 -20q29 -21 44.5 -59.5t15.5 -90.5q0 -54 -16 -92q-15 -38 -44.5 -59t-69.5 -21q-39 0 -69 22zM211.5 398.5q17.5 29.5 17.5 87.5q0 56 -17.5 86t-50.5 30q-34 0 -51.5 -30t-17.5 -86
q0 -57 17.5 -87t51.5 -30q33 0 50.5 29.5z" />
    <glyph glyph-name="uni00B2" unicode="&#xb2;" horiz-adv-x="301" 
d="M30 321q-1 58 27 92.5t94 71.5q35 20 47 32t12 34q0 24 -16 38t-38 14q-20 0 -35.5 -11.5t-19.5 -33.5q-4 -16 -17 -16h-45q2 55 34 84.5t85 29.5q49 0 81 -29t32 -76q0 -29 -10 -48t-29 -33t-56 -35q-58 -30 -73 -56h162v-58h-235z" />
    <glyph glyph-name="uni00B3" unicode="&#xb3;" horiz-adv-x="314" 
d="M65 349q-37 36 -35 95h60q-3 -37 16 -57t56 -20q61 0 61 57q0 17 -2.5 26t-12 13.5t-30.5 4.5h-12q-7 0 -12.5 5.5t-5.5 13.5v33h30q19 0 26.5 4.5t8.5 10.5t1 26q0 19 -15 31t-40 12t-41 -14t-18 -39q-3 -18 -18 -18h-41v10q0 51 32.5 81.5t86.5 30.5q50 0 81.5 -26
t31.5 -69q0 -41 -34 -63q45 -24 45 -80q0 -48 -34.5 -76t-85.5 -28q-62 0 -99 36z" />
    <glyph glyph-name="periodcentered" unicode="&#xb7;" horiz-adv-x="196" 
d="M129 162q-43 0 -71 28.5t-28 70.5v39h98q16 0 27 -11t11 -27v-100h-37z" />
    <glyph glyph-name="uni00B9" unicode="&#xb9;" horiz-adv-x="187" 
d="M98 338v265l-49 -13l-3 -1q-6 0 -11 6t-5 13v27l77 33h50v-330h-59z" />
    <glyph glyph-name="ordmasculine" unicode="&#xba;" horiz-adv-x="320" 
d="M91 347q-29 20 -45 59t-16 91q0 48 16 90q17 39 46 59.5t69 20.5q42 0 69 -20q29 -21 44.5 -59.5t15.5 -90.5q0 -54 -16 -92q-15 -38 -44.5 -59t-69.5 -21q-39 0 -69 22zM211.5 409.5q17.5 29.5 17.5 87.5q0 56 -17.5 86t-50.5 30q-34 0 -51.5 -30t-17.5 -86
q0 -57 17.5 -87t51.5 -30q33 0 50.5 29.5z" />
    <glyph glyph-name="guillemotright" unicode="&#xbb;" horiz-adv-x="718" 
d="M379 257l-349 -149v98l232 96l-232 94v98l349 -148v-89zM688 257l-349 -149v98l232 96l-232 94v98l349 -148v-89z" />
    <glyph glyph-name="questiondown" unicode="&#xbf;" horiz-adv-x="494" 
d="M231 712q43 0 71 -28.5t28 -70.5v-39h-89q-15 0 -26.5 11t-11.5 27v100h28zM330 552q1 -66 -15.5 -114t-39.5 -79t-59 -67q-31 -31 -45.5 -52t-14.5 -47q0 -40 27.5 -64t74.5 -24q84 0 109 73l97 -74q-31 -53 -86.5 -82.5t-122.5 -29.5q-66 0 -117 24.5t-79.5 70
t-28.5 105.5q0 48 12 79.5t29.5 50.5t47.5 42q31 24 49.5 45t31.5 55.5t13 87.5h117z" />
    <glyph glyph-name="Agrave" unicode="&#xc0;" horiz-adv-x="659" 
d="M306 753q-42 0 -71 38l-56 80h141l51 -118h-65zM155 9h-125l241 655h116l242 -655h-130l-65 186h-214zM329 503l-72 -202h141z" />
    <glyph glyph-name="Aacute" unicode="&#xc1;" horiz-adv-x="659" 
d="M301 753l46 108h128l-50 -73q-26 -35 -65 -35h-59zM155 9h-125l241 655h116l242 -655h-130l-65 186h-214zM329 503l-72 -202h141z" />
    <glyph glyph-name="Acircumflex" unicode="&#xc2;" horiz-adv-x="659" 
d="M278 823q8 14 21.5 21.5t29.5 7.5q33 0 52 -30l64 -106h-26q-28 0 -48 11.5t-36 35.5l-7 11l-7 -11q-14 -25 -33.5 -36t-48.5 -11h-27zM155 9h-125l241 655h116l242 -655h-130l-65 186h-214zM329 503l-72 -202h141z" />
    <glyph glyph-name="Atilde" unicode="&#xc3;" horiz-adv-x="659" 
d="M292 757q-6 3 -9 3q-4 0 -6 -2.5t-2 -5.5q0 -4 3 -9h-51q-2 12 -2 17q0 27 18.5 45t43.5 18q18 0 37 -11l53 -31q4 -3 8 -3q5 0 5 5q0 4 -5 14h56q2 -12 2 -18q0 -28 -18 -46.5t-43 -18.5q-17 0 -36 11zM155 9h-125l241 655h116l242 -655h-130l-65 186h-214zM329 503
l-72 -202h141z" />
    <glyph glyph-name="Adieresis" unicode="&#xc4;" horiz-adv-x="659" 
d="M259 730q-39 0 -64.5 26t-25.5 64v36h89q14 0 24.5 -10t10.5 -25v-91h-34zM410 730q-38 0 -64 26t-26 64v36h90q14 0 24 -10t10 -25v-91h-34zM155 9h-125l241 655h116l242 -655h-130l-65 186h-214zM329 503l-72 -202h141z" />
    <glyph glyph-name="Aring" unicode="&#xc5;" horiz-adv-x="659" 
d="M277.5 738q-21.5 21 -21.5 52q0 29 21.5 50t51.5 21q29 0 50.5 -21t21.5 -50q0 -30 -21 -51.5t-51 -21.5t-51.5 21zM349.5 768q8.5 8 8.5 19q0 12 -8.5 20.5t-20.5 8.5q-11 0 -19.5 -8.5t-8.5 -20.5q0 -11 8.5 -19t19.5 -8q12 0 20.5 8zM155 9h-125l241 655h116l242 -655
h-130l-65 186h-214zM329 503l-72 -202h141z" />
    <glyph glyph-name="AE" unicode="&#xc6;" horiz-adv-x="1080" 
d="M945 301h-246v-186h330v-123h-460v1h-33l4 202h-230l-145 -202h-135l522 706h17v1h481l-31 -119h-320v-163h276zM392 308h152l5 218z" />
    <glyph glyph-name="Ccedilla" unicode="&#xc7;" horiz-adv-x="694" 
d="M664 281q2 -81 -28.5 -144t-86 -102t-127.5 -51q20 -18 20 -46q0 -30 -21 -49.5t-51 -19.5q-28 0 -67 28l51 38q7 -8 15 -10q13 7 13 15q0 5 -7.5 8.5t-20.5 3.5q-12 0 -35 -5l8 34q-89 8 -156.5 58t-104 130t-36.5 178q0 105 41.5 189t118 131.5t177.5 47.5
q81 0 145 -31t102.5 -89t43.5 -137h-128q-5 64 -49 101t-116 37q-97 0 -150.5 -69.5t-53.5 -179.5q0 -72 24.5 -128.5t71 -88t109.5 -31.5q78 0 123.5 48t46.5 134h128z" />
    <glyph glyph-name="Egrave" unicode="&#xc8;" horiz-adv-x="541" 
d="M490 -8h-460v708h481l-31 -119h-320v-163h276l-30 -117h-246v-186h330v-123zM297 748q-42 0 -71 38l-56 80h141l51 -118h-65z" />
    <glyph glyph-name="Eacute" unicode="&#xc9;" horiz-adv-x="541" 
d="M490 -8h-460v708h481l-31 -119h-320v-163h276l-30 -117h-246v-186h330v-123zM179 749l46 108h128l-50 -73q-26 -35 -65 -35h-59z" />
    <glyph glyph-name="Ecircumflex" unicode="&#xca;" horiz-adv-x="541" 
d="M490 -8h-460v708h481l-31 -119h-320v-163h276l-30 -117h-246v-186h330v-123zM215 849q8 14 21.5 21.5t29.5 7.5q33 0 52 -30l64 -106h-26q-28 0 -48 11.5t-36 35.5l-7 11l-7 -11q-14 -25 -33.5 -36t-48.5 -11h-27z" />
    <glyph glyph-name="Edieresis" unicode="&#xcb;" horiz-adv-x="541" 
d="M490 -8h-460v708h481l-31 -119h-320v-163h276l-30 -117h-246v-186h330v-123zM213 733q-39 0 -64.5 26t-25.5 64v36h89q14 0 24.5 -10t10.5 -25v-91h-34zM364 733q-38 0 -64 26t-26 64v36h90q14 0 24 -10t10 -25v-91h-34z" />
    <glyph glyph-name="Igrave" unicode="&#xcc;" horiz-adv-x="623" 
d="M154 -8h-124v708h123l309 -470l7 -12v482h124v-708h-120l-311 471l-8 13v-484zM305 761q-42 0 -71 38l-56 80h141l51 -118h-65z" />
    <glyph glyph-name="Iacute" unicode="&#xcd;" horiz-adv-x="623" 
d="M154 -8h-124v708h123l309 -470l7 -12v482h124v-708h-120l-311 471l-8 13v-484zM270 772l46 108h128l-50 -73q-26 -35 -65 -35h-59z" />
    <glyph glyph-name="Icircumflex" unicode="&#xce;" horiz-adv-x="623" 
d="M154 -8h-124v708h123l309 -470l7 -12v482h124v-708h-120l-311 471l-8 13v-484zM256 865q8 14 21.5 21.5t29.5 7.5q33 0 52 -30l64 -106h-26q-28 0 -48 11.5t-36 35.5l-7 11l-7 -11q-14 -25 -33.5 -36t-48.5 -11h-27z" />
    <glyph glyph-name="Idieresis" unicode="&#xcf;" horiz-adv-x="335" 
d="M263 -8h-130v708h130v-708zM120 757q-39 0 -64.5 26t-25.5 64v36h89q14 0 24.5 -10t10.5 -25v-91h-34zM271 757q-38 0 -64 26t-26 64v36h90q14 0 24 -10t10 -25v-91h-34z" />
    <glyph glyph-name="Ntilde" unicode="&#xd1;" horiz-adv-x="623" 
d="M154 -8h-124v708h123l309 -470l7 -12v482h124v-708h-120l-311 471l-8 13v-484zM264 797q-6 3 -9 3q-4 0 -6 -2.5t-2 -5.5q0 -4 3 -9h-51q-2 12 -2 17q0 27 18.5 45t43.5 18q18 0 37 -11l53 -31q5 -3 8 -3q5 0 5 5q0 4 -5 14h56q2 -12 2 -18q0 -28 -18 -46.5t-43 -18.5
q-17 0 -36 11z" />
    <glyph glyph-name="Ograve" unicode="&#xd2;" 
d="M403 761q-42 0 -71 38l-56 80h141l51 -118h-65zM196 25.5q-79 47.5 -122.5 131.5t-43.5 190q0 108 43.5 191.5t122.5 130t181 46.5q104 0 182.5 -47t121.5 -130.5t43 -190.5q0 -106 -44 -190t-123 -131.5t-180 -47.5q-102 0 -181 47.5zM531.5 168q56.5 66 56.5 179
q0 109 -55.5 177t-155.5 68q-99 0 -155 -67.5t-56 -177.5q0 -113 56.5 -179t154.5 -66t154.5 66z" />
    <glyph glyph-name="Oacute" unicode="&#xd3;" 
d="M285 773l46 108h128l-50 -73q-26 -35 -65 -35h-59zM196 25.5q-79 47.5 -122.5 131.5t-43.5 190q0 108 43.5 191.5t122.5 130t181 46.5q104 0 182.5 -47t121.5 -130.5t43 -190.5q0 -106 -44 -190t-123 -131.5t-180 -47.5q-102 0 -181 47.5zM531.5 168q56.5 66 56.5 179
q0 109 -55.5 177t-155.5 68q-99 0 -155 -67.5t-56 -177.5q0 -113 56.5 -179t154.5 -66t154.5 66z" />
    <glyph glyph-name="Ocircumflex" unicode="&#xd4;" 
d="M196 25.5q-79 47.5 -122.5 131.5t-43.5 190q0 108 43.5 191.5t122.5 130t181 46.5q104 0 182.5 -47t121.5 -130.5t43 -190.5q0 -106 -44 -190t-123 -131.5t-180 -47.5q-102 0 -181 47.5zM531.5 168q56.5 66 56.5 179q0 109 -55.5 177t-155.5 68q-99 0 -155 -67.5
t-56 -177.5q0 -113 56.5 -179t154.5 -66t154.5 66zM323 868q8 14 21.5 21.5t29.5 7.5q33 0 52 -30l64 -106h-26q-28 0 -48 11.5t-36 35.5l-7 11l-7 -11q-14 -25 -33.5 -36t-48.5 -11h-27z" />
    <glyph glyph-name="Otilde" unicode="&#xd5;" 
d="M196 25.5q-79 47.5 -122.5 131.5t-43.5 190q0 108 43.5 191.5t122.5 130t181 46.5q104 0 182.5 -47t121.5 -130.5t43 -190.5q0 -106 -44 -190t-123 -131.5t-180 -47.5q-102 0 -181 47.5zM531.5 168q56.5 66 56.5 179q0 109 -55.5 177t-155.5 68q-99 0 -155 -67.5
t-56 -177.5q0 -113 56.5 -179t154.5 -66t154.5 66zM320 807q-6 3 -9 3q-4 0 -6 -2.5t-2 -5.5q0 -4 3 -9h-51q-2 12 -2 17q0 27 18.5 45t43.5 18q18 0 37 -11l53 -31q5 -3 8 -3q5 0 5 5q0 4 -5 14h56q2 -12 2 -18q0 -28 -18 -46.5t-43 -18.5q-17 0 -36 11z" />
    <glyph glyph-name="Odieresis" unicode="&#xd6;" 
d="M196 25.5q-79 47.5 -122.5 131.5t-43.5 190q0 108 43.5 191.5t122.5 130t181 46.5q104 0 182.5 -47t121.5 -130.5t43 -190.5q0 -106 -44 -190t-123 -131.5t-180 -47.5q-102 0 -181 47.5zM531.5 168q56.5 66 56.5 179q0 109 -55.5 177t-155.5 68q-99 0 -155 -67.5
t-56 -177.5q0 -113 56.5 -179t154.5 -66t154.5 66zM320 730q-39 0 -64.5 26t-25.5 64v36h89q14 0 24.5 -10t10.5 -25v-91h-34zM471 730q-38 0 -64 26t-26 64v36h90q14 0 24 -10t10 -25v-91h-34z" />
    <glyph glyph-name="multiply" unicode="&#xd7;" horiz-adv-x="469" 
d="M30 81l148 206l-132 188h109l77 -117l73 107q7 10 19 10h92l-130 -181l153 -213h-97q-11 0 -19 11l-91 131l-89 -131q-8 -11 -20 -11h-93z" />
    <glyph glyph-name="Oslash" unicode="&#xd8;" 
d="M552 672q81 -45 126.5 -130t45.5 -195q0 -106 -44 -190t-123 -131.5t-180 -47.5q-41 0 -75 7l-28 -76h-111l41 112q-82 45 -128 131t-46 195q0 108 43.5 191.5t122.5 130t181 46.5q35 0 77 -7l20 54h111zM187.5 226.5q21.5 -52.5 60.5 -83.5l163 447q-22 2 -34 2
q-99 0 -155 -67.5t-56 -177.5q0 -68 21.5 -120.5zM531.5 168q56.5 66 56.5 179q0 66 -20.5 118t-60.5 84l-162 -445q20 -2 32 -2q98 0 154.5 66z" />
    <glyph glyph-name="Ugrave" unicode="&#xd9;" horiz-adv-x="613" 
d="M293 770q-42 0 -71 38l-56 80h141l51 -118h-65zM102.5 47q-72.5 65 -72.5 182v471h130v-462q0 -72 36.5 -105t112.5 -33q73 0 109 33.5t36 104.5v462h129v-471q0 -117 -73 -182t-203 -65q-132 0 -204.5 65z" />
    <glyph glyph-name="Uacute" unicode="&#xda;" horiz-adv-x="613" 
d="M255 772l46 108h128l-50 -73q-26 -35 -65 -35h-59zM102.5 47q-72.5 65 -72.5 182v471h130v-462q0 -72 36.5 -105t112.5 -33q73 0 109 33.5t36 104.5v462h129v-471q0 -117 -73 -182t-203 -65q-132 0 -204.5 65z" />
    <glyph glyph-name="Ucircumflex" unicode="&#xdb;" horiz-adv-x="613" 
d="M102.5 47q-72.5 65 -72.5 182v471h130v-462q0 -72 36.5 -105t112.5 -33q73 0 109 33.5t36 104.5v462h129v-471q0 -117 -73 -182t-203 -65q-132 0 -204.5 65zM257 867q8 14 21.5 21.5t29.5 7.5q33 0 52 -30l64 -106h-26q-28 0 -48 11.5t-36 35.5l-7 11l-7 -11
q-14 -25 -33.5 -36t-48.5 -11h-27z" />
    <glyph glyph-name="Udieresis" unicode="&#xdc;" horiz-adv-x="613" 
d="M102.5 47q-72.5 65 -72.5 182v471h130v-462q0 -72 36.5 -105t112.5 -33q73 0 109 33.5t36 104.5v462h129v-471q0 -117 -73 -182t-203 -65q-132 0 -204.5 65zM243 755q-39 0 -64.5 26t-25.5 64v36h89q14 0 24.5 -10t10.5 -25v-91h-34zM394 755q-38 0 -64 26t-26 64v36h90
q14 0 24 -10t10 -25v-91h-34z" />
    <glyph glyph-name="Yacute" unicode="&#xdd;" horiz-adv-x="708" 
d="M282 755l46 108h128l-50 -73q-26 -35 -65 -35h-59zM418 -8h-130v297l-258 411h147l178 -295l180 295h143l-260 -413v-295z" />
    <glyph glyph-name="germandbls" unicode="&#xdf;" horiz-adv-x="615" 
d="M30 -8v708h303q100 0 162.5 -52t62.5 -141q0 -91 -72 -138q47 -24 73 -66.5t26 -97.5q0 -63 -30.5 -111.5t-84.5 -75t-122 -26.5l-3 122q53 0 81.5 22t28.5 65q0 48 -30.5 73.5t-85.5 25.5h-179v-308h-130zM323 417q51 0 78.5 22t27.5 63q0 38 -24.5 59t-70.5 21h-174
v-165h163z" />
    <glyph glyph-name="agrave" unicode="&#xe0;" horiz-adv-x="551" 
d="M63 239q33 36 77.5 50.5t110.5 24.5q53 8 77.5 17.5t24.5 29.5q0 62 -84 62q-51 0 -74 -20.5t-23 -68.5l-118 -15q-7 96 52 151.5t162 55.5q98 0 149 -44.5t51 -130.5v-227q0 -19 3.5 -28t20.5 -40q4 -7 11 -20t18 -33q-28 -15 -63 -15q-30 0 -55 12.5t-39 37.5
q-59 -55 -149 -55q-85 0 -135 42t-50 114q0 64 33 100zM174 100q18 -13 58 -13q63 0 92.5 45.5t29.5 105.5q-37 -13 -82 -23q-54 -12 -85 -32t-31 -42q0 -28 18 -41zM302 582q-42 0 -71 38l-56 80h141l51 -118h-65z" />
    <glyph glyph-name="aacute" unicode="&#xe1;" horiz-adv-x="551" 
d="M184 587l46 108h128l-50 -73q-26 -35 -65 -35h-59zM63 239q33 36 77.5 50.5t110.5 24.5q53 8 77.5 17.5t24.5 29.5q0 62 -84 62q-51 0 -74 -20.5t-23 -68.5l-118 -15q-7 96 52 151.5t162 55.5q98 0 149 -44.5t51 -130.5v-227q0 -19 3.5 -28t20.5 -40q4 -7 11 -20t18 -33
q-28 -15 -63 -15q-30 0 -55 12.5t-39 37.5q-59 -55 -149 -55q-85 0 -135 42t-50 114q0 64 33 100zM174 100q18 -13 58 -13q63 0 92.5 45.5t29.5 105.5q-37 -13 -82 -23q-54 -12 -85 -32t-31 -42q0 -28 18 -41z" />
    <glyph glyph-name="acircumflex" unicode="&#xe2;" horiz-adv-x="551" 
d="M63 239q33 36 77.5 50.5t110.5 24.5q53 8 77.5 17.5t24.5 29.5q0 62 -84 62q-51 0 -74 -20.5t-23 -68.5l-118 -15q-7 96 52 151.5t162 55.5q98 0 149 -44.5t51 -130.5v-227q0 -19 3.5 -28t20.5 -40q4 -7 11 -20t18 -33q-28 -15 -63 -15q-30 0 -55 12.5t-39 37.5
q-59 -55 -149 -55q-85 0 -135 42t-50 114q0 64 33 100zM174 100q18 -13 58 -13q63 0 92.5 45.5t29.5 105.5q-37 -13 -82 -23q-54 -12 -85 -32t-31 -42q0 -28 18 -41zM220 668q8 14 21.5 21.5t29.5 7.5q33 0 52 -30l64 -106h-26q-28 0 -48 11.5t-36 35.5l-7 11l-7 -11
q-14 -25 -33.5 -36t-48.5 -11h-27z" />
    <glyph glyph-name="atilde" unicode="&#xe3;" horiz-adv-x="551" 
d="M63 239q33 36 77.5 50.5t110.5 24.5q53 8 77.5 17.5t24.5 29.5q0 62 -84 62q-51 0 -74 -20.5t-23 -68.5l-118 -15q-7 96 52 151.5t162 55.5q98 0 149 -44.5t51 -130.5v-227q0 -19 3.5 -28t20.5 -40q4 -7 11 -20t18 -33q-28 -15 -63 -15q-30 0 -55 12.5t-39 37.5
q-59 -55 -149 -55q-85 0 -135 42t-50 114q0 64 33 100zM174 100q18 -13 58 -13q63 0 92.5 45.5t29.5 105.5q-37 -13 -82 -23q-54 -12 -85 -32t-31 -42q0 -28 18 -41zM228 615q-6 3 -9 3q-4 0 -6 -2.5t-2 -5.5q0 -4 3 -9h-51q-2 12 -2 17q0 27 18.5 45t43.5 18q18 0 37 -11
l53 -31q5 -3 8 -3q5 0 5 5q0 4 -5 14h56q2 -12 2 -18q0 -28 -18 -46.5t-43 -18.5q-17 0 -36 11z" />
    <glyph glyph-name="adieresis" unicode="&#xe4;" horiz-adv-x="551" 
d="M63 239q33 36 77.5 50.5t110.5 24.5q53 8 77.5 17.5t24.5 29.5q0 62 -84 62q-51 0 -74 -20.5t-23 -68.5l-118 -15q-7 96 52 151.5t162 55.5q98 0 149 -44.5t51 -130.5v-227q0 -19 3.5 -28t20.5 -40q4 -7 11 -20t18 -33q-28 -15 -63 -15q-30 0 -55 12.5t-39 37.5
q-59 -55 -149 -55q-85 0 -135 42t-50 114q0 64 33 100zM174 100q18 -13 58 -13q63 0 92.5 45.5t29.5 105.5q-37 -13 -82 -23q-54 -12 -85 -32t-31 -42q0 -28 18 -41zM188 568q-39 0 -64.5 26t-25.5 64v36h89q14 0 24.5 -10t10.5 -25v-91h-34zM339 568q-38 0 -64 26t-26 64
v36h90q14 0 24 -10t10 -25v-91h-34z" />
    <glyph glyph-name="aring" unicode="&#xe5;" horiz-adv-x="551" 
d="M207.5 578q-21.5 21 -21.5 52q0 29 21.5 50t51.5 21q29 0 50.5 -21t21.5 -50q0 -30 -21 -51.5t-51 -21.5t-51.5 21zM279.5 608q8.5 8 8.5 19q0 12 -8.5 20.5t-20.5 8.5q-11 0 -19.5 -8.5t-8.5 -20.5q0 -11 8.5 -19t19.5 -8q12 0 20.5 8zM63 239q33 36 77.5 50.5
t110.5 24.5q53 8 77.5 17.5t24.5 29.5q0 62 -84 62q-51 0 -74 -20.5t-23 -68.5l-118 -15q-7 96 52 151.5t162 55.5q98 0 149 -44.5t51 -130.5v-227q0 -19 3.5 -28t20.5 -40q4 -7 11 -20t18 -33q-28 -15 -63 -15q-30 0 -55 12.5t-39 37.5q-59 -55 -149 -55q-85 0 -135 42
t-50 114q0 64 33 100zM174 100q18 -13 58 -13q63 0 92.5 45.5t29.5 105.5q-37 -13 -82 -23q-54 -12 -85 -32t-31 -42q0 -28 18 -41z" />
    <glyph glyph-name="ae" unicode="&#xe6;" horiz-adv-x="874" 
d="M739 489q56 -41 82.5 -113t22.5 -162h-366q9 -59 42.5 -91.5t85.5 -32.5q84 0 108 71q11 27 33 27h92q-12 -97 -73.5 -152.5t-159.5 -55.5q-52 0 -96 18q-27 -11 -52 -11q-30 0 -55 13t-39 38q-59 -55 -149 -55q-85 0 -135 42t-50 114q0 64 33 100t77.5 50.5t110.5 24.5
q53 8 77.5 17.5t24.5 29.5q0 62 -84 62q-51 0 -74 -20.5t-23 -68.5l-118 -15q-7 96 52 151.5t162 55.5q118 0 166 -62q33 31 76 48.5t92 17.5q81 0 137 -41zM716 317q-17 107 -114 107q-46 0 -77 -27.5t-43 -79.5h234zM320.5 127q29.5 40 32.5 96q0 10 -1 14
q-39 -13 -80 -22q-54 -12 -85 -32t-31 -42q0 -28 18 -41t58 -13q59 0 88.5 40z" />
    <glyph glyph-name="ccedilla" unicode="&#xe7;" horiz-adv-x="545" 
d="M402.5 197.5q9.5 9.5 24.5 9.5h86q-1 -94 -50.5 -153.5t-136.5 -71.5q18 -18 18 -44q0 -30 -21 -49.5t-51 -19.5q-28 0 -67 28l51 38q7 -8 15 -10q13 7 13 15q0 5 -7.5 8.5t-20.5 3.5q-12 0 -35 -5l9 38q-59 12 -104.5 50.5t-70.5 95.5t-25 123q0 78 32.5 141t90.5 98.5
t131 35.5q99 0 161.5 -57.5t69.5 -155.5h-122q-3 51 -31.5 78t-77.5 27q-60 0 -95.5 -44.5t-35.5 -122.5q0 -77 35.5 -121t95.5 -44q91 0 106 84q3 15 12.5 24.5z" />
    <glyph glyph-name="egrave" unicode="&#xe8;" horiz-adv-x="552" 
d="M302 582q-42 0 -71 38l-56 80h141l51 -118h-65zM150.5 15.5q-57.5 36.5 -89 99.5t-31.5 139q0 78 32 140.5t89 98.5t129 36q81 0 137 -41t82.5 -113t22.5 -162h-366q9 -59 42.5 -91.5t85.5 -32.5q84 0 108 71q10 27 33 27h92q-12 -97 -73.5 -152.5t-159.5 -55.5
q-76 0 -133.5 36.5zM394 316q-17 107 -114 107q-46 0 -77 -27.5t-43 -79.5h234z" />
    <glyph glyph-name="eacute" unicode="&#xe9;" horiz-adv-x="552" 
d="M184 587l46 108h128l-50 -73q-26 -35 -65 -35h-59zM150.5 15.5q-57.5 36.5 -89 99.5t-31.5 139q0 78 32 140.5t89 98.5t129 36q81 0 137 -41t82.5 -113t22.5 -162h-366q9 -59 42.5 -91.5t85.5 -32.5q84 0 108 71q10 27 33 27h92q-12 -97 -73.5 -152.5t-159.5 -55.5
q-76 0 -133.5 36.5zM394 316q-17 107 -114 107q-46 0 -77 -27.5t-43 -79.5h234z" />
    <glyph glyph-name="ecircumflex" unicode="&#xea;" horiz-adv-x="552" 
d="M150.5 15.5q-57.5 36.5 -89 99.5t-31.5 139q0 78 32 140.5t89 98.5t129 36q81 0 137 -41t82.5 -113t22.5 -162h-366q9 -59 42.5 -91.5t85.5 -32.5q84 0 108 71q10 27 33 27h92q-12 -97 -73.5 -152.5t-159.5 -55.5q-76 0 -133.5 36.5zM394 316q-17 107 -114 107
q-46 0 -77 -27.5t-43 -79.5h234zM221 668q8 14 21.5 21.5t29.5 7.5q33 0 52 -30l64 -106h-26q-28 0 -48 11.5t-36 35.5l-7 11l-7 -11q-14 -25 -33.5 -36t-48.5 -11h-27z" />
    <glyph glyph-name="edieresis" unicode="&#xeb;" horiz-adv-x="552" 
d="M150.5 15.5q-57.5 36.5 -89 99.5t-31.5 139q0 78 32 140.5t89 98.5t129 36q81 0 137 -41t82.5 -113t22.5 -162h-366q9 -59 42.5 -91.5t85.5 -32.5q84 0 108 71q10 27 33 27h92q-12 -97 -73.5 -152.5t-159.5 -55.5q-76 0 -133.5 36.5zM394 316q-17 107 -114 107
q-46 0 -77 -27.5t-43 -79.5h234zM219 568q-39 0 -64.5 26t-25.5 64v36h89q14 0 24.5 -10t10.5 -25v-91h-34zM370 568q-38 0 -64 26t-26 64v36h90q14 0 24 -10t10 -25v-91h-34z" />
    <glyph glyph-name="igrave" unicode="&#xec;" horiz-adv-x="262" 
d="M157 582q-42 0 -71 38l-56 80h141l51 -118h-65zM232 3h-121v525h121v-525z" />
    <glyph glyph-name="iacute" unicode="&#xed;" horiz-adv-x="247" 
d="M43 587l46 108h128l-50 -73q-26 -35 -65 -35h-59zM156 3h-121v525h121v-525z" />
    <glyph glyph-name="icircumflex" unicode="&#xee;" horiz-adv-x="293" 
d="M236 561q-29 0 -48.5 11t-33.5 36l-7 11l-7 -11q-16 -24 -36 -35.5t-48 -11.5h-26l64 106q19 30 52 30q16 0 29.5 -7.5t21.5 -21.5l66 -107h-27zM202 528v-525h-121v525h121z" />
    <glyph glyph-name="idieresis" unicode="&#xef;" horiz-adv-x="335" 
d="M120 568q-39 0 -64.5 26t-25.5 64v36h89q14 0 24.5 -10t10.5 -25v-91h-34zM271 568q-38 0 -64 26t-26 64v36h90q14 0 24 -10t10 -25v-91h-34zM238 3h-121v525h121v-525z" />
    <glyph glyph-name="ntilde" unicode="&#xf1;" horiz-adv-x="496" 
d="M30 -8v525h83q14 0 24.5 -9t12.5 -23q53 43 132 43q86 0 135 -47t49 -130v-359h-121v353q0 36 -22 55t-64 19q-48 0 -78 -30.5t-30 -78.5v-318h-121zM201 645q-6 3 -9 3q-4 0 -6 -2.5t-2 -5.5q0 -4 3 -9h-51q-2 12 -2 17q0 27 18.5 45t43.5 18q18 0 37 -11l53 -31
q5 -3 8 -3q5 0 5 5q0 4 -5 14h56q2 -12 2 -18q0 -28 -18 -46.5t-43 -18.5q-17 0 -36 11z" />
    <glyph glyph-name="ograve" unicode="&#xf2;" horiz-adv-x="568" 
d="M310 582q-42 0 -71 38l-56 80h141l51 -118h-65zM153 15.5q-58 36.5 -90.5 99.5t-32.5 139q0 78 32.5 141t90.5 98.5t131 35.5q76 0 133.5 -36.5t89 -99t31.5 -139.5t-32 -140t-90 -99t-132 -36q-73 0 -131 36.5zM380 132.5q35 43.5 35 121.5t-35 122.5t-96 44.5
q-60 0 -95.5 -44.5t-35.5 -122.5q0 -77 35.5 -121t95.5 -44q61 0 96 43.5z" />
    <glyph glyph-name="oacute" unicode="&#xf3;" horiz-adv-x="568" 
d="M192 587l46 108h128l-50 -73q-26 -35 -65 -35h-59zM153 15.5q-58 36.5 -90.5 99.5t-32.5 139q0 78 32.5 141t90.5 98.5t131 35.5q76 0 133.5 -36.5t89 -99t31.5 -139.5t-32 -140t-90 -99t-132 -36q-73 0 -131 36.5zM380 132.5q35 43.5 35 121.5t-35 122.5t-96 44.5
q-60 0 -95.5 -44.5t-35.5 -122.5q0 -77 35.5 -121t95.5 -44q61 0 96 43.5z" />
    <glyph glyph-name="ocircumflex" unicode="&#xf4;" horiz-adv-x="568" 
d="M153 15.5q-58 36.5 -90.5 99.5t-32.5 139q0 78 32.5 141t90.5 98.5t131 35.5q76 0 133.5 -36.5t89 -99t31.5 -139.5t-32 -140t-90 -99t-132 -36q-73 0 -131 36.5zM380 132.5q35 43.5 35 121.5t-35 122.5t-96 44.5q-60 0 -95.5 -44.5t-35.5 -122.5q0 -77 35.5 -121
t95.5 -44q61 0 96 43.5zM229 668q8 14 21.5 21.5t29.5 7.5q33 0 52 -30l64 -106h-26q-28 0 -48 11.5t-36 35.5l-7 11l-7 -11q-14 -25 -33.5 -36t-48.5 -11h-27z" />
    <glyph glyph-name="otilde" unicode="&#xf5;" horiz-adv-x="568" 
d="M153 15.5q-58 36.5 -90.5 99.5t-32.5 139q0 78 32.5 141t90.5 98.5t131 35.5q76 0 133.5 -36.5t89 -99t31.5 -139.5t-32 -140t-90 -99t-132 -36q-73 0 -131 36.5zM380 132.5q35 43.5 35 121.5t-35 122.5t-96 44.5q-60 0 -95.5 -44.5t-35.5 -122.5q0 -77 35.5 -121
t95.5 -44q61 0 96 43.5zM237 615q-6 3 -9 3q-4 0 -6 -2.5t-2 -5.5q0 -4 3 -9h-51q-2 12 -2 17q0 27 18.5 45t43.5 18q18 0 37 -11l53 -31q5 -3 8 -3q5 0 5 5q0 4 -5 14h56q2 -12 2 -18q0 -28 -18 -46.5t-43 -18.5q-17 0 -36 11z" />
    <glyph glyph-name="odieresis" unicode="&#xf6;" horiz-adv-x="568" 
d="M153 15.5q-58 36.5 -90.5 99.5t-32.5 139q0 78 32.5 141t90.5 98.5t131 35.5q76 0 133.5 -36.5t89 -99t31.5 -139.5t-32 -140t-90 -99t-132 -36q-73 0 -131 36.5zM380 132.5q35 43.5 35 121.5t-35 122.5t-96 44.5q-60 0 -95.5 -44.5t-35.5 -122.5q0 -77 35.5 -121
t95.5 -44q61 0 96 43.5zM227 568q-39 0 -64.5 26t-25.5 64v36h89q14 0 24.5 -10t10.5 -25v-91h-34zM378 568q-38 0 -64 26t-26 64v36h90q14 0 24 -10t10 -25v-91h-34z" />
    <glyph glyph-name="oslash" unicode="&#xf8;" horiz-adv-x="568" 
d="M411 497q60 -34 93.5 -98.5t33.5 -144.5q0 -77 -32 -140t-90 -99t-132 -36q-33 0 -60 7l-17 -48h-88l29 80q-55 36 -86.5 98.5t-31.5 137.5q0 78 32.5 141t90.5 98.5t131 35.5q28 0 49 -4l33 91h88zM190 132l105 289h-11q-60 0 -95.5 -44.5t-35.5 -122.5q0 -79 37 -122z
M380 132.5q35 43.5 35 121.5q0 87 -44 133l-108 -296q12 -2 21 -2q61 0 96 43.5z" />
    <glyph glyph-name="ugrave" unicode="&#xf9;" horiz-adv-x="496" 
d="M270 566q-42 0 -71 38l-56 80h141l51 -118h-65zM466 528v-525h-83q-14 0 -24.5 9t-12.5 23q-53 -43 -132 -43q-86 0 -135 47t-49 130v359h121v-353q0 -36 22 -55t64 -19q48 0 78 30.5t30 78.5v318h121z" />
    <glyph glyph-name="uacute" unicode="&#xfa;" horiz-adv-x="496" 
d="M466 528v-525h-83q-14 0 -24.5 9t-12.5 23q-53 -43 -132 -43q-86 0 -135 47t-49 130v359h121v-353q0 -36 22 -55t64 -19q48 0 78 30.5t30 78.5v318h121zM152 587l46 108h128l-50 -73q-26 -35 -65 -35h-59z" />
    <glyph glyph-name="ucircumflex" unicode="&#xfb;" horiz-adv-x="496" 
d="M466 528v-525h-83q-14 0 -24.5 9t-12.5 23q-53 -43 -132 -43q-86 0 -135 47t-49 130v359h121v-353q0 -36 22 -55t64 -19q48 0 78 30.5t30 78.5v318h121zM189 668q8 14 21.5 21.5t29.5 7.5q33 0 52 -30l64 -106h-26q-28 0 -48 11.5t-36 35.5l-7 11l-7 -11
q-14 -25 -33.5 -36t-48.5 -11h-27z" />
    <glyph glyph-name="udieresis" unicode="&#xfc;" horiz-adv-x="496" 
d="M466 528v-525h-83q-14 0 -24.5 9t-12.5 23q-53 -43 -132 -43q-86 0 -135 47t-49 130v359h121v-353q0 -36 22 -55t64 -19q48 0 78 30.5t30 78.5v318h121zM172 568q-39 0 -64.5 26t-25.5 64v36h89q14 0 24.5 -10t10.5 -25v-91h-34zM323 568q-38 0 -64 26t-26 64v36h90
q14 0 24 -10t10 -25v-91h-34z" />
    <glyph glyph-name="yacute" unicode="&#xfd;" horiz-adv-x="577" 
d="M197 587l46 108h128l-50 -73q-26 -35 -65 -35h-59zM107 -157.5q-23 8.5 -23 32.5v82l40 -5q9 0 23 -2l21 -1q18 0 25.5 7.5t17.5 34.5l15 38l-196 488h131l131 -344l126 344h129l-217 -549q-29 -74 -64 -104t-92 -30q-44 0 -67 8.5z" />
    <glyph glyph-name="ydieresis" unicode="&#xff;" horiz-adv-x="577" 
d="M231 568q-39 0 -64.5 26t-25.5 64v36h89q14 0 24.5 -10t10.5 -25v-91h-34zM382 568q-38 0 -64 26t-26 64v36h90q14 0 24 -10t10 -25v-91h-34zM107 -157.5q-23 8.5 -23 32.5v82l40 -5q9 0 23 -2l21 -1q18 0 25.5 7.5t17.5 34.5l15 38l-196 488h131l131 -344l126 344h129
l-217 -549q-29 -74 -64 -104t-92 -30q-44 0 -67 8.5z" />
    <glyph glyph-name="dotlessi" unicode="&#x131;" horiz-adv-x="181" 
d="M151 3h-121v525h121v-525z" />
    <glyph glyph-name="IJ" unicode="&#x132;" horiz-adv-x="682" 
d="M160 -8h-130v708h130v-708zM280 36.5q-55 57.5 -60 168.5l129 21v-2q0 -72 19 -101t72 -29q44 0 63 22.5t19 71.5v512h130v-517q0 -94 -58 -149t-157 -55q-102 0 -157 57.5z" />
    <glyph glyph-name="ij" unicode="&#x133;" horiz-adv-x="441" 
d="M129 562q-43 0 -71 28.5t-28 70.5v35h85q16 0 27 -11t11 -27v-96h-24zM153 -8h-121v525h121v-525zM387 562q-43 0 -71 28.5t-28 70.5v35h85q16 0 27 -11t11 -27v-96h-24zM213 -137v104l42 -2q24 0 29.5 4.5t5.5 18.5v529h121v-533q0 -66 -32.5 -97t-100.5 -31
q-20 0 -65 7z" />
    <glyph glyph-name="OE" unicode="&#x152;" horiz-adv-x="1139" 
d="M758 300v-186h330v-123h-460v92q-46 -50 -110.5 -77.5t-140.5 -27.5q-102 0 -181 47.5t-122.5 131.5t-43.5 190q0 108 43.5 191.5t122.5 130t181 46.5q77 0 141 -26.5t110 -75.5v86h481l-31 -119h-320v-163h276l-30 -117h-246zM531.5 168q56.5 66 56.5 179
q0 109 -55.5 177t-155.5 68q-99 0 -155 -67.5t-56 -177.5q0 -113 56.5 -179t154.5 -66t154.5 66z" />
    <glyph glyph-name="oe" unicode="&#x153;" horiz-adv-x="936" 
d="M801 488q56 -41 82.5 -113t22.5 -162h-366q9 -59 42.5 -91.5t85.5 -32.5q84 0 108 71q11 27 33 27h92q-12 -97 -73.5 -152.5t-159.5 -55.5q-60 0 -109 23.5t-83 65.5q-34 -42 -83.5 -65.5t-108.5 -23.5q-73 0 -131 36.5t-90.5 99.5t-32.5 139q0 78 32.5 141t90.5 98.5
t131 35.5q60 0 109 -23t83 -65q34 42 82.5 65t105.5 23q81 0 137 -41zM778 316q-17 107 -114 107q-46 0 -77 -27.5t-43 -79.5h234zM375.5 128q34.5 39 38.5 108v18v18q-4 70 -38.5 109.5t-91.5 39.5q-60 0 -95.5 -44.5t-35.5 -122.5q0 -77 35.5 -121t95.5 -44q57 0 91.5 39z
" />
    <glyph glyph-name="Scaron" unicode="&#x160;" horiz-adv-x="630" 
d="M125 40.5q-80 61.5 -95 172.5h130q27 -121 177 -121q65 0 99.5 26.5t34.5 74.5q0 30 -22.5 51t-57 35t-92.5 32q-78 25 -125.5 46t-82 60t-34.5 98q0 64 33 108.5t89.5 67t125.5 22.5q117 0 185.5 -54t86.5 -161h-126q-23 104 -144 104q-60 0 -93 -22t-33 -61
q0 -28 21.5 -47t54 -31.5t89.5 -29.5q80 -24 130.5 -46t87 -63.5t36.5 -105.5q0 -69 -35 -118t-95.5 -74t-136.5 -25q-128 0 -208 61.5zM281.5 733q-13.5 8 -21.5 22l-66 106h27q29 0 48.5 -11t33.5 -36l7 -10l7 11q16 24 36 35t48 11h26l-64 -105q-19 -31 -52 -31
q-16 0 -29.5 8z" />
    <glyph glyph-name="scaron" unicode="&#x161;" horiz-adv-x="630" 
d="M125 40.5q-80 61.5 -95 172.5h130q27 -121 177 -121q65 0 99.5 26.5t34.5 74.5q0 30 -22.5 51t-57 35t-92.5 32q-78 25 -125.5 46t-82 60t-34.5 98q0 64 33 108.5t89.5 67t125.5 22.5q117 0 185.5 -54t86.5 -161h-126q-23 104 -144 104q-60 0 -93 -22t-33 -61
q0 -28 21.5 -47t54 -31.5t89.5 -29.5q80 -24 130.5 -46t87 -63.5t36.5 -105.5q0 -69 -35 -118t-95.5 -74t-136.5 -25q-128 0 -208 61.5zM281.5 729q-13.5 8 -21.5 22l-66 106h27q29 0 48.5 -11t33.5 -36l7 -10l7 11q16 24 36 35t48 11h26l-64 -105q-19 -31 -52 -31
q-16 0 -29.5 8z" />
    <glyph glyph-name="Ydieresis" unicode="&#x178;" horiz-adv-x="708" 
d="M418 -8h-130v297l-258 411h147l178 -295l180 295h143l-260 -413v-295zM297 690q-39 0 -64.5 26t-25.5 64v36h89q14 0 24.5 -10t10.5 -25v-91h-34zM448 690q-38 0 -64 26t-26 64v36h90q14 0 24 -10t10 -25v-91h-34z" />
    <glyph glyph-name="zcaron" unicode="&#x17e;" horiz-adv-x="487" 
d="M457 -8h-427v90l245 323h-229v112h401v-75l-253 -335h263v-115zM173.5 569q-13.5 8 -21.5 22l-66 106h27q29 0 48.5 -11t33.5 -36l7 -10l7 11q16 24 36 35t48 11h26l-64 -105q-19 -31 -52 -31q-16 0 -29.5 8z" />
    <glyph glyph-name="uni030C" unicode="&#x30c;" horiz-adv-x="0" 
d="M-170.5 569q-13.5 8 -21.5 22l-66 106h27q29 0 48.5 -11t33.5 -36l7 -10l7 11q16 24 36 35t48 11h26l-64 -105q-19 -31 -52 -31q-16 0 -29.5 8z" />
    <glyph glyph-name="endash" unicode="&#x2013;" horiz-adv-x="625" 
d="M62 238q-15 0 -23.5 11t-8.5 26q0 16 8.5 27.5t23.5 11.5h502q15 0 23 -11t8 -26t-8.5 -27t-22.5 -12h-502z" />
    <glyph glyph-name="emdash" unicode="&#x2014;" horiz-adv-x="449" 
d="M62 154q-15 0 -23.5 11t-8.5 27q0 15 8.5 27t23.5 12h325q16 0 24 -11t8 -27q0 -15 -8.5 -27t-23.5 -12h-325z" />
    <glyph glyph-name="quoteleft" unicode="&#x2018;" horiz-adv-x="184" 
d="M120 456q-42 0 -68 28t-22 71l13 145h76q16 0 26 -11t9 -27l-18 -206h-16z" />
    <glyph glyph-name="quoteright" unicode="&#x2019;" horiz-adv-x="184" 
d="M120 456q-42 0 -68 28t-22 71l13 145h76q16 0 26 -11t9 -27l-18 -206h-16z" />
    <glyph glyph-name="quotesinglbase" unicode="&#x201a;" horiz-adv-x="184" 
d="M120 -104q-42 0 -68 28t-22 71l13 145h76q16 0 26 -11t9 -27l-18 -206h-16z" />
    <glyph glyph-name="quotedblleft" unicode="&#x201c;" horiz-adv-x="341" 
d="M120 456q-42 0 -68 28t-22 71l13 145h76q16 0 26 -11t9 -27l-18 -206h-16zM277 456q-42 0 -68 28t-22 71l13 145h76q16 0 26 -11t9 -27l-18 -206h-16z" />
    <glyph glyph-name="quotedblright" unicode="&#x201d;" horiz-adv-x="337" 
d="M120 456q-42 0 -68 28t-22 71l13 145h76q16 0 26 -11t9 -27l-18 -206h-16zM273 456q-42 0 -68 28t-22 71l13 145h76q16 0 26 -11t9 -27l-18 -206h-16z" />
    <glyph glyph-name="quotedblbase" unicode="&#x201e;" horiz-adv-x="339" 
d="M120 -104q-42 0 -68 28t-22 71l13 145h76q16 0 26 -11t9 -27l-18 -206h-16zM275 -104q-42 0 -68 28t-22 71l13 145h76q16 0 26 -11t9 -27l-18 -206h-16z" />
    <glyph glyph-name="dagger" unicode="&#x2020;" horiz-adv-x="526" 
d="M317 15h-108v360h-179v106h179v185h108v-185h179v-106h-179v-360z" />
    <glyph glyph-name="bullet" unicode="&#x2022;" horiz-adv-x="196" 
d="M129 187q-42 0 -70.5 28t-28.5 71v38h99q15 0 26 -11t11 -27v-99h-37z" />
    <glyph glyph-name="ellipsis" unicode="&#x2026;" horiz-adv-x="538" 
d="M129 -8q-43 0 -71 28.5t-28 70.5v39h98q16 0 27 -11t11 -27v-100h-37zM302 -8q-43 0 -71 28.5t-28 70.5v39h98q16 0 27 -11t11 -27v-100h-37zM471 -8q-43 0 -71 28.5t-28 70.5v39h98q16 0 27 -11t11 -27v-100h-37z" />
    <glyph glyph-name="perthousand" unicode="&#x2030;" horiz-adv-x="1182" 
d="M109 302.5q-39 27.5 -59 74.5t-20 104q0 59 21.5 106t60.5 73.5t91 26.5q79 0 125 -58.5t46 -147.5q0 -90 -45.5 -148t-125.5 -58q-55 0 -94 27.5zM270 -8h-116l390 680h116zM244 404q15 28 15 77q0 47 -15.5 75.5t-40.5 28.5q-26 0 -41 -27.5t-15 -76.5q0 -47 15.5 -76
t40.5 -29q26 0 41 28zM521 5.5q-39 27.5 -60 74.5t-21 105q0 59 21.5 106t60.5 73.5t91 26.5t91 -27.5t59.5 -74t20.5 -104.5q0 -91 -46.5 -149t-124.5 -58q-53 0 -92 27.5zM888 6q-39 28 -59.5 75t-20.5 104q0 59 21.5 106t60.5 73.5t91 26.5q53 0 91.5 -27t59 -74
t20.5 -105q0 -57 -20 -104.5t-59 -75t-92 -27.5q-54 0 -93 28zM654 108q15 28 15 77q0 47 -15.5 75.5t-40.5 28.5q-26 0 -41.5 -27.5t-15.5 -76.5q0 -47 16 -76t41 -29q26 0 41 28zM1022 108q15 28 15 77q0 47 -15.5 75.5t-40.5 28.5q-26 0 -41.5 -27.5t-15.5 -76.5
q0 -47 16 -76t41 -29q26 0 41 28z" />
    <glyph glyph-name="guilsinglleft" unicode="&#x2039;" horiz-adv-x="409" 
d="M379 206v-98l-349 149v89l349 148v-98l-232 -94z" />
    <glyph glyph-name="guilsinglright" unicode="&#x203a;" horiz-adv-x="409" 
d="M379 257l-349 -149v98l232 96l-232 94v98l349 -148v-89z" />
    <glyph glyph-name="Euro" unicode="&#x20ac;" horiz-adv-x="824" 
d="M794 281q2 -92 -36.5 -160.5t-108 -105t-156.5 -36.5q-104 0 -181 51.5t-117 141.5h-127q-16 0 -27 11t-11 27v67h135q-3 18 -5 57h-130v67q0 16 11 27t27 11h101q16 82 60.5 144.5t113 97t154.5 34.5q81 0 145 -31t102.5 -89t43.5 -137h-128q-5 64 -49 101t-116 37
q-74 0 -124 -42t-69 -115h194v-67q0 -16 -11 -27t-27 -11h-167q2 -33 7 -57h160q16 0 27 -11t11 -27v-67h-153q27 -35 65.5 -54t87.5 -19q78 0 123.5 48t46.5 134h128z" />
    <glyph glyph-name="trademark" unicode="&#x2122;" horiz-adv-x="683" 
d="M193 323h-60v275h-103v56h266v-56h-103v-275zM387 323h-56v331h68l93 -239l92 239h69v-331h-59v207l-81 -207h-44l-82 207v-207z" />
    <glyph glyph-name="A.001" horiz-adv-x="648" 
d="M165 -8h-135l261 708h125l262 -708h-141l-70 202h-231zM353 526l-77 -218h152z" />
    <glyph glyph-name="F.001" horiz-adv-x="456" 
d="M160 -8h-130v708h481l-31 -119h-320v-163h276l-30 -117h-246v-309z" />
    <glyph glyph-name="P.001" horiz-adv-x="554" 
d="M30 -8v708h299q67 0 118 -27t79 -75.5t28 -110.5q0 -104 -61.5 -160.5t-175.5 -56.5h-157v-278h-130zM310 384q115 0 115 100q0 98 -110 98h-155v-198h150z" />
    <glyph glyph-name="T.001" horiz-adv-x="410" 
d="M380 -8h-130v589h-220v119h570v-119h-220v-589z" />
    <glyph glyph-name="V.001" horiz-adv-x="534" 
d="M401 -8h-125l-246 708h139l174 -524l170 524h136z" />
    <glyph glyph-name="W.001" horiz-adv-x="815" 
d="M332 -8h-119l-183 708h135l113 -467l129 467h125l126 -467l119 467h133l-197 -708h-115l-129 496z" />
    <glyph glyph-name="X.001" horiz-adv-x="450" 
d="M66 -8h-151l245 362l-227 346h151l152 -245l155 245h148l-232 -347l238 -361h-155l-159 259z" />
    <glyph glyph-name="Y.001" horiz-adv-x="478" 
d="M418 -8h-130v297l-258 411h147l178 -295l180 295h143l-260 -413v-295z" />
    <glyph glyph-name="X.002" horiz-adv-x="560" 
d="M181 -8h-151l245 362l-227 346h151l152 -245l155 245h148l-232 -347l238 -361h-155l-159 259z" />
    <glyph glyph-name="a.001" horiz-adv-x="501" 
d="M63 239q33 36 77.5 50.5t110.5 24.5q53 8 77.5 17.5t24.5 29.5q0 62 -84 62q-51 0 -74 -20.5t-23 -68.5l-118 -15q-7 96 52 151.5t162 55.5q98 0 149 -44.5t51 -130.5v-227q0 -19 3.5 -28t20.5 -40q4 -7 11 -20t18 -33q-28 -15 -63 -15q-30 0 -55 12.5t-39 37.5
q-59 -55 -149 -55q-85 0 -135 42t-50 114q0 64 33 100zM174 100q18 -13 58 -13q63 0 92.5 45.5t29.5 105.5q-37 -13 -82 -23q-54 -12 -85 -32t-31 -42q0 -28 18 -41z" />
    <glyph glyph-name="f.001" horiz-adv-x="307" 
d="M96 -8v418h-66v107h66v54q0 135 150 135l36 -2l25 -2v-110l-48 3q-27 0 -34.5 -5.5t-7.5 -22.5v-50h89v-107h-89v-418h-121z" />
    <glyph glyph-name="j.001" horiz-adv-x="213" 
d="M204 562q-43 0 -71 28.5t-28 70.5v35h85q16 0 27 -11t11 -27v-96h-24zM30 -137v104l42 -2q24 0 29.5 4.5t5.5 18.5v529h121v-533q0 -66 -32.5 -97t-100.5 -31q-20 0 -65 7z" />
    <glyph glyph-name="k.001" horiz-adv-x="392" 
d="M30 -8v708h121v-356l109 159q11 14 26 14h146l-166 -227l181 -298h-143l-133 227l-20 -41v-148q0 -15 -11 -26.5t-27 -11.5h-83z" />
    <glyph glyph-name="r.001" horiz-adv-x="326" 
d="M30 -8v525h83q17 0 27.5 -11.5t10.5 -30.5q57 47 114 47q28 0 61 -13v-106q-34 6 -61 6q-60 0 -87 -30.5t-27 -97.5v-289h-121z" />
    <glyph glyph-name="t.001" horiz-adv-x="303" 
d="M69 410h-31q-18 0 -28 12.5t-10 47.5v47h69v183h122v-183h92v-107h-92v-288q0 -13 4.5 -17t20.5 -4q35 0 50 -6.5t15 -33.5v-60q-46 -11 -81 -11q-61 0 -96 29t-35 86v305z" />
    <glyph glyph-name="v.001" horiz-adv-x="463" 
d="M330 -8h-117l-183 525h130l114 -352l117 352h127z" />
    <glyph glyph-name="w.001" horiz-adv-x="709" 
d="M308 -8h-111l-167 525h130l92 -327l89 327h114l85 -327l98 327h126l-171 -525h-111l-86 315z" />
    <glyph glyph-name="x.001" horiz-adv-x="520" 
d="M30 -8l197 274l-175 251h145l102 -156l97 142q11 14 26 14h123l-174 -242l204 -283h-129q-15 0 -26 14l-121 175l-118 -175q-11 -14 -26 -14h-125z" />
    <glyph glyph-name="y.001" horiz-adv-x="507" 
d="M107 -157.5q-23 8.5 -23 32.5v82l40 -5q9 0 23 -2l21 -1q18 0 25.5 7.5t17.5 34.5l15 38l-196 488h131l131 -344l126 344h129l-217 -549q-29 -74 -64 -104t-92 -30q-44 0 -67 8.5z" />
    <glyph glyph-name="v.002" horiz-adv-x="388" 
d="M255 -8h-117l-183 525h130l114 -352l117 352h127z" />
    <glyph glyph-name="w.002" horiz-adv-x="634" 
d="M233 -8h-111l-167 525h130l92 -327l89 327h114l85 -327l98 327h126l-171 -525h-111l-86 315z" />
    <glyph glyph-name="x.002" horiz-adv-x="445" 
d="M-45 -8l197 274l-175 251h145l102 -156l97 142q11 14 26 14h123l-174 -242l204 -283h-129q-15 0 -26 14l-121 175l-118 -175q-11 -14 -26 -14h-125z" />
    <glyph glyph-name="y.002" horiz-adv-x="457" 
d="M57 -157.5q-23 8.5 -23 32.5v82l40 -5q9 0 23 -2l21 -1q18 0 25.5 7.5t17.5 34.5l15 38l-196 488h131l131 -344l126 344h129l-217 -549q-29 -74 -64 -104t-92 -30q-44 0 -67 8.5z" />
    <glyph glyph-name="v.003" horiz-adv-x="473" 
d="M255 -8h-117l-183 525h130l114 -352l117 352h127z" />
    <glyph glyph-name="w.003" horiz-adv-x="719" 
d="M233 -8h-111l-167 525h130l92 -327l89 327h114l85 -327l98 327h126l-171 -525h-111l-86 315z" />
    <glyph glyph-name="x.003" horiz-adv-x="530" 
d="M-45 -8l197 274l-175 251h145l102 -156l97 142q11 14 26 14h123l-174 -242l204 -283h-129q-15 0 -26 14l-121 175l-118 -175q-11 -14 -26 -14h-125z" />
    <glyph glyph-name="y.003" horiz-adv-x="517" 
d="M47 -157.5q-23 8.5 -23 32.5v82l40 -5q9 0 23 -2l21 -1q18 0 25.5 7.5t17.5 34.5l15 38l-196 488h131l131 -344l126 344h129l-217 -549q-29 -74 -64 -104t-92 -30q-44 0 -67 8.5z" />
    <glyph glyph-name="uni0308.case" horiz-adv-x="0" 
d="M-219 568q-39 0 -64.5 26t-25.5 64v36h89q14 0 24.5 -10t10.5 -25v-91h-34zM-68 568q-38 0 -64 26t-26 64v36h90q14 0 24 -10t10 -25v-91h-34z" />
    <glyph glyph-name="gravecomb.case" horiz-adv-x="0" 
d="M-90 582q-42 0 -71 38l-56 80h141l51 -118h-65z" />
    <glyph glyph-name="acutecomb.case" horiz-adv-x="0" 
d="M-208 587l46 108h128l-50 -73q-26 -35 -65 -35h-59z" />
    <glyph glyph-name="uni0302.case" horiz-adv-x="0" 
d="M-192 668q8 14 21.5 21.5t29.5 7.5q33 0 52 -30l64 -106h-26q-28 0 -48 11.5t-36 35.5l-7 11l-7 -11q-14 -25 -33.5 -36t-48.5 -11h-27z" />
    <glyph glyph-name="tildecomb.case" horiz-adv-x="0" 
d="M-176 615q-6 3 -9 3q-4 0 -6 -2.5t-2 -5.5q0 -4 3 -9h-51q-2 12 -2 17q0 27 18.5 45t43.5 18q18 0 37 -11l53 -31q5 -3 8 -3q5 0 5 5q0 4 -5 14h56q2 -12 2 -18q0 -28 -18 -46.5t-43 -18.5q-17 0 -36 11z" />
    <glyph glyph-name="webhance" horiz-adv-x="291" 
d="M251 16h-211v664h211v-664zM107 628v-54h71v54h-14v-38h-17v34h-12v-34h-15v38h-13zM157 499q8 5 12 9q6 6 7 10q3 8 3 15q0 4 -2 12l-5 9q-4 4 -10 6q-3 2 -12 4v-15q4 -1 12 -5q4 -4 4 -11q0 -4 -2 -10l-5 -5l-8 -4q-3 -1 -8 -1q-6 0 -9 1q-6 2 -9 4l-5 5q-2 6 -2 10
l1 5q2 2 3 5l3 3q1 1 3 1l2 1v15q-5 0 -10 -3q-4 -1 -8 -7q-3 -3 -5 -9q-2 -8 -2 -11q0 -5 2 -15q3 -5 9 -10q5 -5 12 -9q5 -1 15 -1q9 0 14 1zM107 442v-15h71v15h-49l49 30v15h-71v-15h47zM107 378l71 -27v16l-16 6v26l16 6v16l-71 -27v-16zM150 396v-19l-25 9zM107 300
v-14h71v14h-31v30h31v15h-71v-15h27v-30h-27zM107 215h71v35q0 2 -2 10q-2 6 -3 7q-3 5 -7 6q-6 2 -9 2q-7 0 -11 -3q-6 -4 -7 -10l-6 8q-3 1 -8 1q-7 0 -9 -1q-3 -1 -5 -5q-2 -2 -4 -7v-43zM146 248q0 3 2 9q3 3 8 3l5 -2l2 -2l1 -4l1 -4v-17h-19v17zM119 250q0 2 1 3l3 3
q1 1 3 1q7 0 8 -3t1 -7v-16h-16v19zM107 204v-53h71v54h-14v-38h-17v34h-12v-34h-15v37h-13zM107 66v-15l71 18v16l-49 12v1l49 12v15l-71 19v-15l49 -12v-1l-49 -12v-14l48 -13z" />
    </font>
</defs>
</svg>
