<?xml version="1.0" standalone="no"?>
<!DOCTYPE svg PUBLIC "-//W3C//DTD SVG 1.1//EN" "http://www.w3.org/Graphics/SVG/1.1/DTD/svg11.dtd" >
<svg xmlns="http://www.w3.org/2000/svg" xmlns:xlink="http://www.w3.org/1999/xlink" version="1.1">
<metadata>
Created by FontForge 20201107 at Thu Aug 26 19:49:01 2021
 By 
Copyright (c) 2021 by Webhance. All rights reserved.
</metadata>
<defs>
<font id="Obadiah-Regular" horiz-adv-x="770" >
  <font-face 
    font-family="Obadiah"
    font-weight="400"
    font-stretch="normal"
    units-per-em="1000"
    panose-1="0 0 5 0 0 0 0 0 0 0"
    ascent="800"
    descent="-200"
    x-height="503"
    cap-height="694"
    bbox="-291 -180 1108 874"
    underline-thickness="50"
    underline-position="-100"
    unicode-range="U+0020-2122"
  />
<missing-glyph horiz-adv-x="924" 
 />
    <glyph glyph-name=".notdef" horiz-adv-x="924" 
 />
    <glyph glyph-name=".null" horiz-adv-x="0" 
 />
    <glyph glyph-name="nonmarkingreturn" horiz-adv-x="1460" 
 />
    <glyph glyph-name="space" unicode=" " horiz-adv-x="360" 
 />
    <glyph glyph-name="exclam" unicode="!" horiz-adv-x="174" 
d="M103 168h-38l-16 306v222h68v-221zM129 -4h-84v85h84v-85z" />
    <glyph glyph-name="quotedbl" unicode="&#x22;" horiz-adv-x="267" 
d="M116 525q-22 1 -33.5 16t-9.5 42l10 113h35q11 0 17.5 -7t5.5 -18l-13 -147zM198 525q-22 1 -33.5 16t-9.5 42l10 113h35q11 0 17.5 -7t5.5 -18l-13 -147z" />
    <glyph glyph-name="numbersign" unicode="#" horiz-adv-x="590" 
d="M173 -4h-55l27 198h-100l9 58h100l24 168h-101l9 58h100l26 189h55l-26 -189h148l26 189h56l-27 -189h101l-10 -58h-98l-24 -168h99l-9 -58h-99l-27 -198h-55l27 198h-149zM233 420l-24 -168h149l24 168h-149z" />
    <glyph glyph-name="dollar" unicode="$" horiz-adv-x="566" 
d="M106 224q9 -72 46.5 -109t109.5 -41v247q-89 11 -141.5 55t-52.5 116q0 73 48.5 119t145.5 50v50h47v-51q87 -7 135 -46t61 -114h-65q-17 95 -131 104v-230q110 -13 161 -55t51 -119q0 -75 -55 -124.5t-157 -57.5v-76h-47v76q-100 5 -155 59t-62 147h61zM262 607
q-65 -1 -101 -33t-36 -75t36 -76.5t101 -39.5v224zM309 73q71 5 111.5 40t40.5 81q0 44 -39.5 78t-112.5 40v-239z" />
    <glyph glyph-name="percent" unicode="%" horiz-adv-x="840" 
d="M86.5 354q-41.5 53 -41.5 138t42.5 138t112.5 53t111.5 -52.5t41.5 -138.5q0 -87 -41 -139t-112 -52q-72 0 -113.5 53zM254 -4h-65l385 670h65zM269 391q26 39 26 101q0 60 -26.5 99.5t-68.5 39.5q-43 0 -69 -38.5t-26 -100.5q0 -60 26.5 -100t68.5 -40q43 0 69 39z
M530 33.5q-42 53.5 -42 139.5q0 85 42.5 137.5t111.5 52.5q70 0 111.5 -52.5t41.5 -137.5q0 -87 -41.5 -140t-111.5 -53t-112 53.5zM711.5 71.5q26.5 38.5 26.5 101.5q0 60 -27 99.5t-69 39.5q-43 0 -69.5 -39t-26.5 -100q0 -60 27.5 -100t68.5 -40q43 0 69.5 38.5z" />
    <glyph glyph-name="ampersand" unicode="&#x26;" horiz-adv-x="589" 
d="M136 29.5q-42 22.5 -66.5 62t-24.5 87.5q0 62 31.5 105t113.5 94q-34 40 -52.5 81t-18.5 79q0 36 18 66q17 29 48.5 45.5t71.5 16.5q62 0 99 -34t37 -93q0 -51 -30.5 -93.5t-96.5 -79.5l143 -178q22 48 26 74.5t4 54.5h53v-9q0 -49 -10.5 -85.5t-34.5 -79.5l97 -123h-76
l-55 70q-35 -41 -81.5 -62t-101.5 -21q-52 0 -94 22.5zM238 406q47 27 72.5 64t25.5 72q0 31 -21 51t-59 20t-58.5 -22t-20.5 -57q0 -51 40 -101zM313 81.5q37 18.5 65 53.5l-156 202q-64 -43 -91 -77.5t-27 -80.5q0 -50 38 -83t92 -33q42 0 79 18.5z" />
    <glyph glyph-name="quotesingle" unicode="'" horiz-adv-x="186" 
d="M116 525q-22 1 -33.5 16t-9.5 42l10 113h35q11 0 17.5 -7t5.5 -18l-13 -147z" />
    <glyph glyph-name="parenleft" unicode="(" horiz-adv-x="285" 
d="M188 -122q-74 114 -108.5 220t-34.5 225q0 212 142 412h53q-56 -97 -85 -201.5t-29 -210.5q0 -121 27.5 -228.5t85.5 -216.5h-51z" />
    <glyph glyph-name="parenright" unicode=")" horiz-adv-x="285" 
d="M46 -122q58 109 85.5 216.5t27.5 228.5q0 106 -28.5 210.5t-84.5 201.5h52q142 -200 142 -412q0 -119 -34.5 -225t-108.5 -220h-51z" />
    <glyph glyph-name="asterisk" unicode="*" horiz-adv-x="353" 
d="M176 506l-56 -84l-43 30l56 79l-88 30l17 45l88 -28v100h52v-100l88 28l18 -45l-88 -30l56 -79l-43 -30z" />
    <glyph glyph-name="plus" unicode="+" horiz-adv-x="506" 
d="M282 104h-58v185h-179v56h179v185h58v-185h179v-56h-179v-185z" />
    <glyph glyph-name="comma" unicode="," horiz-adv-x="184" 
d="M46 -58q17 7 28 23.5t18 47.5h-47v96h16q35 0 56.5 -21.5t21.5 -56.5v-18q0 -48 -24.5 -78.5t-68.5 -38.5v46z" />
    <glyph glyph-name="hyphen" unicode="-" horiz-adv-x="342" 
d="M297 234h-252v73h252v-73z" />
    <glyph glyph-name="period" unicode="." horiz-adv-x="184" 
d="M123 13q-34 0 -56 22t-22 56v18h77q7 0 12 -5t5 -12v-79h-16z" />
    <glyph glyph-name="slash" unicode="/" horiz-adv-x="438" 
d="M115 -4h-70l278 700h70z" />
    <glyph glyph-name="zero" unicode="0" horiz-adv-x="607" 
d="M168 28q-59 41 -91 121t-32 189q0 110 33 191q32 78 90 119t136 41q81 0 137 -40q59 -43 90 -122t31 -189q0 -108 -32 -192q-32 -78 -89.5 -118.5t-137.5 -40.5q-79 0 -135 41zM445.5 122q50.5 76 50.5 216q0 139 -51 215.5t-141 76.5t-140.5 -76.5t-50.5 -215.5
t50.5 -215.5t140.5 -76.5q91 0 141.5 76z" />
    <glyph glyph-name="one" unicode="1" horiz-adv-x="306" 
d="M195 -4v628l-120 -42q-6 -2 -10 -2q-20 0 -20 21v28l146 62h70v-695h-66z" />
    <glyph glyph-name="two" unicode="2" horiz-adv-x="560" 
d="M45 -2q3 74 29.5 127t78.5 96.5t143 94.5q64 39 93.5 60.5t45.5 48t16 64.5q0 48 -22.5 82t-58.5 51t-78 17q-54 0 -98 -28.5t-58 -80.5q-3 -12 -9 -17t-18 -4h-42q13 90 72.5 138t155.5 48q64 0 114 -25t78 -70.5t28 -104.5q0 -54 -16.5 -88t-55.5 -64t-123 -78
q-90 -51 -138.5 -99.5t-61.5 -104.5h381v-63h-456z" />
    <glyph glyph-name="three" unicode="3" horiz-adv-x="592" 
d="M173 19.5q-59 27.5 -92 79t-36 120.5h63q3 -78 55 -124t145 -46q81 0 128.5 39t47.5 106q0 52 -9.5 81.5t-40 45.5t-92.5 16h-21q-6 0 -10.5 8.5t-4.5 15.5v30h35q67 0 93.5 36t26.5 88q0 60 -45.5 93.5t-115.5 33.5q-72 0 -119.5 -35t-53.5 -101q-1 -10 -7.5 -15
t-13.5 -5h-36q-3 -1 -3 15q3 88 65.5 141t169.5 53q65 0 114.5 -22.5t77.5 -63.5t28 -95q0 -51 -28 -93t-81 -54q70 -9 102 -50.5t32 -125.5q0 -60 -30.5 -105.5t-84.5 -69.5t-123 -24q-77 0 -136 27.5z" />
    <glyph glyph-name="four" unicode="4" horiz-adv-x="573" 
d="M424 -3h-62v155h-317l14 61l301 479h64v-487h104v-53h-104v-155zM362 602l-240 -397h240v397z" />
    <glyph glyph-name="five" unicode="5" horiz-adv-x="528" 
d="M156 10q-49 23 -78 65t-33 97h60q9 -62 51 -95.5t110 -33.5q72 0 113.5 46t41.5 123q0 48 -24.5 83.5t-64.5 54.5t-85 19q-37 0 -70 -13.5t-56 -40.5h-39q-8 0 -14.5 4.5t-6.5 14.5q0 6 1 9l67 346h326v-42q0 -6 -33 -10t-48 -4h-201l-48 -249q59 39 131 39
q59 0 111.5 -27t84 -74.5t31.5 -108.5q0 -67 -26.5 -118t-75 -79.5t-114.5 -28.5q-62 0 -111 23z" />
    <glyph glyph-name="six" unicode="6" horiz-adv-x="540" 
d="M133 41q-47 43 -67.5 107.5t-20.5 167.5q0 101 27.5 187.5t82 139t132.5 52.5q80 0 131 -44t61 -120h-40q-22 2 -25 21q-9 44 -44 66.5t-85 22.5q-55 0 -96 -42.5t-62.5 -115t-21.5 -159.5q0 -15 2 -47q17 59 63.5 99t120.5 40q59 0 105.5 -28.5t72.5 -78t26 -109.5
q0 -57 -28 -106t-75.5 -78t-104.5 -29q-94 0 -154 54zM395 84.5q43 45.5 43 115.5q0 72 -42.5 118t-108.5 46q-48 0 -86 -22.5t-59 -61t-21 -85.5q0 -45 21.5 -80.5t59 -55.5t83.5 -20q67 0 110 45.5z" />
    <glyph glyph-name="seven" unicode="7" horiz-adv-x="543" 
d="M145 -4q8 109 44.5 228.5t95 226.5t131.5 180h-355q-8 0 -12 8t-4 19v33h453v-57q-75 -59 -139 -168.5t-104 -235.5t-46 -234h-64z" />
    <glyph glyph-name="eight" unicode="8" horiz-adv-x="593" 
d="M167 7.5q-58 27.5 -90 77t-32 112.5q0 62 35.5 107.5t104.5 70.5q-106 57 -106 148q0 49 26 88q28 41 77.5 63t114.5 22q60 0 116 -24q49 -22 75.5 -60.5t26.5 -88.5q0 -92 -102 -148q67 -23 101 -69.5t34 -108.5t-30.5 -111.5t-87 -77.5t-131.5 -28q-74 0 -132 27.5z
M410 433.5q44 33.5 44 88.5q0 54 -44 86.5t-113 32.5t-113 -32.5t-44 -86.5q0 -55 44 -88.5t113 -33.5t113 33.5zM395.5 56q43.5 22 68 59t24.5 82q0 69 -53 108.5t-138 39.5q-84 0 -137 -39.5t-53 -108.5q0 -47 24.5 -84t68.5 -58t99 -21q53 0 96.5 22z" />
    <glyph glyph-name="nine" unicode="9" horiz-adv-x="540" 
d="M407 641q47 -43 67.5 -107.5t20.5 -167.5q0 -101 -27.5 -187.5t-82 -139t-132.5 -52.5q-80 0 -131 44t-62 120h41q20 -1 25 -21q9 -45 43.5 -67t85.5 -22q54 0 95 43t63 115.5t22 159.5q0 14 -2 46q-17 -59 -63.5 -99t-120.5 -40q-59 0 -105.5 28.5t-72.5 78t-26 109.5
q0 57 28 106t75.5 78t103.5 29q95 0 155 -54zM144 597.5q-43 -45.5 -43 -115.5q0 -47 19.5 -84.5t54 -58.5t77.5 -21q49 0 87 22.5t59 61t21 85.5q0 45 -21.5 80.5t-59 55.5t-84.5 20q-67 0 -110 -45.5z" />
    <glyph glyph-name="colon" unicode=":" horiz-adv-x="186" 
d="M45 390h74q10 0 16 -6.5t6 -15.5v-76h-14q-36 0 -59 23.5t-23 58.5v16zM45 90h74q10 0 16 -6.5t6 -15.5v-76h-14q-36 0 -59 23.5t-23 58.5v16z" />
    <glyph glyph-name="semicolon" unicode=";" horiz-adv-x="186" 
d="M45 390h74q10 0 16 -6.5t6 -15.5v-76h-14q-36 0 -59 23.5t-23 58.5v16zM45 88h15q33 0 57 -27.5t24 -69.5q0 -52 -23.5 -83t-71.5 -43v41q24 10 37.5 27t12.5 56h-31q-14 0 -16.5 7t-2.5 22z" />
    <glyph glyph-name="less" unicode="&#x3c;" horiz-adv-x="456" 
d="M411 170v-57l-366 160v62l366 160v-57l-306 -133z" />
    <glyph glyph-name="equal" unicode="=" horiz-adv-x="544" 
d="M46 405q0 10 3 12.5t12 2.5h436v-46q0 -9 -2.5 -12t-12.5 -3h-436v46zM61 185q-9 0 -12 2.5t-3 11.5v47h436q10 0 12.5 -3t2.5 -12v-46h-436z" />
    <glyph glyph-name="greater" unicode="&#x3e;" horiz-adv-x="456" 
d="M411 273l-366 -160v57l306 135l-306 133v57l366 -160v-62z" />
    <glyph glyph-name="question" unicode="?" horiz-adv-x="472" 
d="M179 168q4 51 20 90t37 66t54 62q39 41 57.5 70t18.5 68q0 58 -38.5 93t-102.5 35q-43 0 -78.5 -17t-53.5 -46l-48 37q30 39 77 60t105 21q61 0 106 -23.5t69.5 -64.5t24.5 -94q0 -41 -12.5 -72t-31 -52.5t-49.5 -50.5q-32 -31 -51 -53t-33 -54t-16 -75h-55zM232 2
q-28 0 -46.5 19t-18.5 47v26h59q10 0 17.5 -7.5t7.5 -17.5v-67h-19z" />
    <glyph glyph-name="at" unicode="@" horiz-adv-x="909" 
d="M90 506q46 94 132 143t205 49q131 0 231 -64.5t153 -162.5t53 -193q0 -90 -49.5 -148t-144.5 -58q-44 0 -76 11t-39 38q-24 -27 -56 -41.5t-69 -14.5q-62 0 -104.5 34.5t-63 89.5t-20.5 115t22 109.5t64 78.5t101 29q84 0 133.5 -48.5t49.5 -139.5q0 -68 -27 -148
q-2 -12 -2 -18q0 -49 80 -49q74 0 112.5 45.5t38.5 117.5q0 82 -47 168.5t-134 144.5t-200 58q-111 0 -188 -47.5t-115 -125t-38 -167.5q0 -56 15 -110t44 -99q47 -75 132 -119.5t192 -44.5q40 0 88 8l-16 -47q-31 -4 -68 -4q-116 0 -211.5 47t-154.5 134t-68 202
q-1 133 45 227zM533 159.5q32 49.5 39 148.5q-1 97 -40.5 132t-106.5 35q-37 0 -68 -21t-49 -59t-18 -87q0 -87 36.5 -142.5t102.5 -55.5q72 0 104 49.5z" />
    <glyph glyph-name="A" unicode="A" horiz-adv-x="691" 
d="M117 -2h-72l257 696h87l257 -696h-78l-76 219h-298zM345 621l-132 -350h261z" />
    <glyph glyph-name="B" unicode="B" horiz-adv-x="620" 
d="M45 -8v708h296q92 0 148.5 -49t56.5 -131q0 -53 -26 -94.5t-67 -57.5q122 -43 122 -174q0 -93 -57.5 -147.5t-163.5 -54.5h-309zM328 392q70 0 109.5 33t39.5 92q0 56 -36.5 88t-99.5 32h-226v-245h213zM353 57q72 0 113 33.5t41 94.5q0 69 -40 106t-121 37h-233v-271
h240z" />
    <glyph glyph-name="C" unicode="C" horiz-adv-x="705" 
d="M201 30q-74 46 -115 128.5t-41 188.5q0 107 41 189.5t116 128.5t173 46q111 0 184 -56t91 -154h-65q-15 69 -72.5 109t-139.5 40q-77 0 -136 -38.5t-91.5 -107t-32.5 -157.5q0 -88 33 -156.5t92 -106.5t136 -38q91 0 151 52.5t70 143.5h65q-4 -78 -42 -136.5t-102 -90
t-145 -31.5q-96 0 -170 46z" />
    <glyph glyph-name="D" unicode="D" horiz-adv-x="648" 
d="M45 -2v696h251q148 0 227.5 -92t79.5 -258q0 -164 -82.5 -255t-232.5 -91h-243zM285 59q121 0 183 72t62 213q0 145 -60 218t-178 73h-175v-576h168z" />
    <glyph glyph-name="E" unicode="E" horiz-adv-x="530" 
d="M473 -2h-428v696h440l-16 -60h-352v-245h288l-15 -57h-273v-269h356v-65z" />
    <glyph glyph-name="F" unicode="F" horiz-adv-x="530" 
d="M114 -2h-69v696h440l-18 -60h-353v-245h288l-15 -57h-273v-334z" />
    <glyph glyph-name="G" unicode="G" horiz-adv-x="719" 
d="M205 24.5q-76 47.5 -118 131t-42 188.5q0 110 41.5 194t118.5 130.5t180 46.5q118 0 193.5 -59t92.5 -164h-66q-16 76 -75.5 119.5t-152.5 43.5q-79 0 -139 -38t-93 -108t-33 -165q0 -92 35.5 -161.5t97 -107t136.5 -37.5q70 0 121.5 31t77 89t20.5 135h-204l22 59h248
v-358q-25 2 -36.5 11.5t-16.5 27t-9 53.5q-41 -58 -96.5 -83.5t-129.5 -25.5q-97 0 -173 47.5z" />
    <glyph glyph-name="H" unicode="H" horiz-adv-x="632" 
d="M117 -2h-72v696h72v-334h400v334h70v-696h-70v308h-400v-308z" />
    <glyph glyph-name="I" unicode="I" horiz-adv-x="162" 
d="M117 -2h-72v696h72v-696z" />
    <glyph glyph-name="J" unicode="J" horiz-adv-x="483" 
d="M95.5 26.5q-49.5 43.5 -50.5 139.5l64 9l2 -25q7 -58 36.5 -83t92.5 -25q64 0 97.5 34.5t33.5 99.5v520h67v-526q0 -88 -53 -137.5t-146 -49.5q-94 0 -143.5 43.5z" />
    <glyph glyph-name="K" unicode="K" horiz-adv-x="600" 
d="M113 -2h-68v696h68v-459l302 459h80l-218 -332l278 -364l-85 -1l-236 314l-120 -173z" />
    <glyph glyph-name="L" unicode="L" horiz-adv-x="535" 
d="M490 -2h-445v696h72v-631h373v-65z" />
    <glyph glyph-name="M" unicode="M" 
d="M110 -4h-65v700h102l238 -610l236 610h104v-700h-71l3 593l-246 -593h-58l-240 593z" />
    <glyph glyph-name="N" unicode="N" horiz-adv-x="629" 
d="M110 -2h-65v696h80l323 -491l71 -122v613h65v-696h-77l-325 493l-72 117v-610z" />
    <glyph glyph-name="O" unicode="O" 
d="M208 29.5q-77 46.5 -120 129t-43 188.5q0 107 42.5 189.5t120 128t177.5 45.5q102 0 179 -45.5t119 -128t42 -189.5q0 -106 -43 -188.5t-120.5 -129t-176.5 -46.5q-100 0 -177 46.5zM526 85q61 37 94.5 104.5t33.5 157.5q0 88 -33.5 156t-94.5 105.5t-141 37.5
q-79 0 -140 -38t-95 -105.5t-34 -155.5q0 -90 34 -157.5t95 -104.5t140 -37q80 0 141 37z" />
    <glyph glyph-name="P" unicode="P" horiz-adv-x="587" 
d="M45 -2v696h288q62 0 109.5 -24.5t73.5 -69t26 -102.5q0 -98 -56 -148.5t-165 -50.5h-204v-301h-72zM313 353q77 0 117.5 36.5t40.5 105.5q0 67 -39.5 103.5t-113.5 36.5h-201v-282h196z" />
    <glyph glyph-name="Q" unicode="Q" horiz-adv-x="783" 
d="M213.5 25.5q-79.5 46.5 -124 130t-44.5 191.5q0 109 43.5 192.5t122 130t180.5 46.5t181 -46q80 -47 123 -130.5t43 -192.5q0 -11 -5 -71l-6 -282q-28 1 -40.5 41t-12.5 82q0 16 1 20q-36 -80 -113 -119t-167 -39q-102 0 -181.5 46.5zM537.5 77q63.5 37 85.5 90h-32
q-75 0 -108 10t-33 39v14h207q12 56 12 109q0 87 -31.5 158.5t-93.5 114t-149 43.5q-81 0 -145 -39t-100 -109t-36 -160q0 -92 35.5 -161.5t99.5 -107.5t146 -38q79 0 142.5 37z" />
    <glyph glyph-name="R" unicode="R" horiz-adv-x="617" 
d="M45 0v694h324q55 0 99.5 -24t70 -66t25.5 -96q0 -95 -42.5 -144.5t-131.5 -58.5l178 -305h-81l-175 301h-195v-301h-72zM337 355q76 0 117.5 36.5t41.5 103.5q0 72 -37.5 106t-116.5 34h-225v-280h220z" />
    <glyph glyph-name="S" unicode="S" horiz-adv-x="628" 
d="M142 31q-73 48 -97 138h71q22 -64 77.5 -96.5t139.5 -32.5t131.5 37t47.5 104q0 41 -28 69.5t-69.5 46.5t-112.5 41q-77 25 -125 46.5t-80.5 57t-32.5 87.5q0 85 64 132.5t170 47.5q205 0 251 -165h-69q-19 55 -65 83t-115 28q-79 0 -124.5 -32.5t-45.5 -89.5
q0 -37 26.5 -63t66.5 -42.5t109 -38.5q82 -26 131.5 -48.5t84.5 -60.5t35 -96q0 -94 -69 -147.5t-185 -53.5q-114 0 -187 48z" />
    <glyph glyph-name="T" unicode="T" horiz-adv-x="636" 
d="M354 -2h-71v636h-238v60h546v-60h-237v-636z" />
    <glyph glyph-name="U" unicode="U" horiz-adv-x="618" 
d="M113 47.5q-68 59.5 -68 172.5v474h72v-465q0 -183 195 -183q94 0 142.5 46.5t48.5 136.5v465h70v-474q0 -112 -68.5 -172t-194.5 -60q-129 0 -197 59.5z" />
    <glyph glyph-name="V" unicode="V" horiz-adv-x="657" 
d="M370 -1h-85l-240 694h74l210 -614l212 614h71z" />
    <glyph glyph-name="W" unicode="W" horiz-adv-x="944" 
d="M298 -5h-77l-176 702h69l148 -598l165 598h87l159 -596l154 596h72l-189 -702h-76l-164 616z" />
    <glyph glyph-name="X" unicode="X" horiz-adv-x="641" 
d="M125 -2h-80l239 357l-220 339h79l184 -294l186 294h76l-225 -340l232 -356h-83l-191 309z" />
    <glyph glyph-name="Y" unicode="Y" horiz-adv-x="665" 
d="M367 -2h-69v297l-253 399h76l212 -344l215 344h72l-253 -401v-295z" />
    <glyph glyph-name="Z" unicode="Z" horiz-adv-x="627" 
d="M582 -2h-537v74l440 564h-415v58h494v-58l-444 -574h462v-64z" />
    <glyph glyph-name="bracketleft" unicode="[" horiz-adv-x="269" 
d="M224 -96h-179v811h179l-19 -52h-97v-704h97z" />
    <glyph glyph-name="backslash" unicode="\" horiz-adv-x="418" 
d="M373 13h-64l-264 666h64z" />
    <glyph glyph-name="bracketright" unicode="]" horiz-adv-x="269" 
d="M224 -96h-179l19 53h97v706h-97l-19 52h179v-811z" />
    <glyph glyph-name="underscore" unicode="_" horiz-adv-x="475" 
d="M430 -140h-385v60h385v-60z" />
    <glyph glyph-name="a" unicode="a" horiz-adv-x="550" 
d="M76.5 227q31.5 34 75 46.5t112.5 20.5q48 6 75 12t45 20t18 40q0 47 -33.5 72.5t-93.5 25.5q-61 0 -99 -27t-44 -77l-60 -6q4 76 57.5 119.5t144.5 43.5q95 0 141.5 -40t46.5 -120v-245q0 -27 6.5 -43t36.5 -71q-12 -2 -16 -2q-33 0 -56 29t-27 82q-28 -62 -79.5 -91
t-109.5 -29q-80 0 -126 38t-46 103t31.5 99zM139.5 64.5q30.5 -23.5 84.5 -23.5q48 1 91.5 30t68.5 83.5t22 124.5q-34 -29 -134 -40q-87 -8 -125 -37t-38 -72q0 -42 30.5 -65.5z" />
    <glyph glyph-name="b" unicode="b" horiz-adv-x="536" 
d="M179 -3q-44 20 -72 59q2 -14 2 -34q0 -19 -3.5 -24.5t-11.5 -5.5h-49v708h62v-283q22 46 69.5 71.5t100.5 25.5q104 0 159 -72t55 -196t-57 -196.5t-159 -72.5q-52 0 -96 20zM384 93.5q42 57.5 42 151.5t-42 151.5t-110 57.5q-47 0 -86.5 -26.5t-62 -74t-22.5 -108.5
t21.5 -108.5t60.5 -74t88 -26.5q69 0 111 57.5z" />
    <glyph glyph-name="c" unicode="c" horiz-adv-x="561" 
d="M166 21.5q-57 35.5 -89 98t-32 138.5q0 78 31.5 137t88 91t129.5 32q90 0 148.5 -47.5t71.5 -131.5l-65 2q-9 54 -51.5 88t-103.5 34q-84 0 -134.5 -56t-50.5 -149q0 -60 23.5 -109t65 -77.5t94.5 -28.5q134 0 156 115q6 23 30 23h37q-9 -94 -66.5 -144.5t-154.5 -50.5
q-71 0 -128 35.5z" />
    <glyph glyph-name="d" unicode="d" horiz-adv-x="542" 
d="M102 49.5q-57 72.5 -57 196.5t55 196t159 72q53 0 100.5 -25t70.5 -72v283h67v-708h-55q-8 0 -11.5 5t-3.5 22q0 13 3 37q-28 -39 -72 -59t-97 -20q-102 0 -159 72.5zM353.5 60.5q39.5 26.5 61 74.5t21.5 110t-23 110.5t-63 75t-88 26.5q-70 0 -111 -57.5t-41 -154.5
t41 -154t112 -57q51 0 90.5 26.5z" />
    <glyph glyph-name="e" unicode="e" horiz-adv-x="575" 
d="M168.5 9q-57.5 36 -90.5 98.5t-33 139.5q0 78 31.5 140t88 97.5t127.5 35.5q112 0 175 -80t63 -214h-420q3 -54 28 -98.5t67 -70t94 -25.5q54 0 92 26t57 70q9 20 26 22l46 2q-17 -85 -75.5 -132t-148.5 -47q-70 0 -127.5 36zM463 285q-8 82 -53.5 129t-117.5 47
q-73 0 -123 -48.5t-60 -127.5h354z" />
    <glyph glyph-name="f" unicode="f" horiz-adv-x="320" 
d="M117 -9v452h-72v60h72v86q0 59 34 87t97 26h13l27 -2l-13 -57l-24 1q-39 0 -54.5 -12.5t-15.5 -43.5v-85h96v-60h-96v-452h-64z" />
    <glyph glyph-name="g" unicode="g" horiz-adv-x="537" 
d="M148 -155.5q-48 23.5 -68 71.5l55 3h4q8 0 16 -8q35 -33 118 -33q76 0 114.5 33t39.5 104l1 72q-26 -46 -71 -62.5t-89 -16.5q-67 0 -117.5 33t-78 91t-27.5 131q0 72 26.5 130t75.5 91t114 33q104 0 162 -65q5 31 11 42t25 11h33v-488q0 -96 -54.5 -146t-162.5 -50
q-79 0 -127 23.5zM389 116q42 50 42 142q0 97 -42.5 149t-125.5 52q-71 0 -112.5 -53.5t-41.5 -143.5q0 -87 44 -141.5t116 -54.5q78 0 120 50z" />
    <glyph glyph-name="h" unicode="h" horiz-adv-x="495" 
d="M45 -9v710h65v-272q26 40 71.5 63.5t97.5 23.5q82 0 126.5 -43t44.5 -121v-361h-64v351q0 54 -30.5 82.5t-88.5 28.5q-44 0 -80 -19.5t-56.5 -54t-20.5 -75.5v-313h-65z" />
    <glyph glyph-name="i" unicode="i" horiz-adv-x="167" 
d="M105 608q-33 0 -46.5 17.5t-13.5 52.5v17h57q8 0 14 -5t6 -13v-69h-17zM116 -8h-63v511h63v-511z" />
    <glyph glyph-name="j" unicode="j" horiz-adv-x="207" 
d="M138 608q-33 0 -46.5 17.5t-13.5 52.5v17h57q9 0 15 -5t6 -13l-1 -69h-17zM11 -145v53q47 -1 65.5 11.5t18.5 40.5v543h67v-548q0 -45 -25.5 -74t-83.5 -29q-22 0 -42 3z" />
    <glyph glyph-name="k" unicode="k" horiz-adv-x="446" 
d="M45 -6v704h66v-451l168 244q7 10 22 10h73l-151 -214l178 -293h-77l-150 257l-65 -91l2 -148q0 -8 -4.5 -13t-11.5 -5h-50z" />
    <glyph glyph-name="l" unicode="l" horiz-adv-x="154" 
d="M109 -11h-64v714h64v-714z" />
    <glyph glyph-name="m" unicode="m" horiz-adv-x="758" 
d="M45 -8v511h35q15 0 21 -17t7 -57q23 41 64 63t85 22q45 0 79 -23.5t52 -66.5q22 41 68 65.5t96 24.5q70 0 115.5 -44t45.5 -118v-360h-64v356q0 47 -28 77.5t-75 30.5q-40 0 -72.5 -19.5t-51.5 -53t-19 -72.5v-319h-62v356q0 49 -26 80t-70 31q-36 0 -68 -22t-51 -58.5
t-19 -76.5v-310h-62z" />
    <glyph glyph-name="n" unicode="n" horiz-adv-x="489" 
d="M45 -8v511h31q14 0 25 -17.5t10 -48.5q18 35 60 56t93 21q83 0 131.5 -43t48.5 -119v-360h-68v353q0 51 -32 79.5t-89 28.5q-63 0 -104 -41t-41 -104v-316h-65z" />
    <glyph glyph-name="o" unicode="o" horiz-adv-x="576" 
d="M163.5 22.5q-55.5 34.5 -87 95t-31.5 134.5q0 76 31 136.5t86.5 94.5t125.5 34q72 0 127 -34t85.5 -94.5t30.5 -136.5q0 -75 -31 -135.5t-86.5 -94.5t-125.5 -34q-69 0 -124.5 34.5zM380.5 72.5q40.5 25.5 63.5 72t23 107.5t-23 108.5t-64 73.5t-92 26t-92 -26t-64 -73.5
t-23 -108.5q0 -60 23 -106.5t64 -72.5t92 -26q52 0 92.5 25.5z" />
    <glyph glyph-name="p" unicode="p" horiz-adv-x="543" 
d="M45 -173v676h35q32 0 28 -76q54 87 166 87q69 0 119.5 -33.5t77.5 -94t27 -140.5q0 -81 -26.5 -142t-76.5 -94t-118 -33q-60 0 -105 25t-64 67v-242h-63zM387.5 91.5q42.5 57.5 42.5 153.5q0 63 -20 110.5t-55.5 73.5t-82.5 26q-78 0 -123 -57t-45 -153q0 -99 45 -155
t125 -56q71 0 113.5 57.5z" />
    <glyph glyph-name="q" unicode="q" horiz-adv-x="548" 
d="M503 -173h-68v242q-19 -42 -64 -67t-105 -25q-68 0 -118 33t-76.5 94t-26.5 142q0 80 27 140.5t77.5 94t119.5 33.5q112 0 166 -87q-2 31 6 53.5t27 22.5h35v-676zM396.5 91.5q43.5 53.5 43.5 153.5q0 96 -45 152t-123 56q-72 0 -115 -56.5t-43 -151.5t43.5 -151
t115.5 -56q80 0 123.5 53.5z" />
    <glyph glyph-name="r" unicode="r" horiz-adv-x="352" 
d="M45 -5v511h34q18 0 23 -27.5t5 -65.5q20 48 66 72.5t93 25.5q23 0 41 -6v-59q-22 3 -41 3q-70 -2 -112 -44.5t-42 -128.5v-281h-67z" />
    <glyph glyph-name="s" unicode="s" horiz-adv-x="506" 
d="M116.5 14q-56.5 37 -71.5 108h20q20 0 35.5 -3t16.5 -7q16 -37 54 -56.5t94 -19.5q58 0 94.5 24.5t36.5 66.5q0 30 -20 49t-49.5 30t-79.5 23q-61 16 -97.5 30t-62 42t-25.5 75q0 65 48 101t134 36q78 0 126.5 -32.5t64.5 -94.5l-73 3q-11 35 -40.5 51t-78.5 16
q-52 0 -85 -21t-33 -58q0 -27 19 -44.5t47.5 -28t77.5 -22.5q62 -16 100 -31t65 -45t27 -78q0 -72 -51 -111.5t-146 -39.5q-91 0 -147.5 37z" />
    <glyph glyph-name="t" unicode="t" horiz-adv-x="326" 
d="M114 452h-27q-18 0 -30 8t-12 36v21h69v183h68v-183h92v-65h-92v-370q0 -14 5 -21t20 -7q37 0 55 -4.5t18 -23.5v-29q-42 -5 -66 -5q-54 0 -77 21.5t-23 72.5v366z" />
    <glyph glyph-name="u" unicode="u" horiz-adv-x="489" 
d="M444 505v-504h-31q-14 0 -25 18t-10 48q-18 -35 -60 -56.5t-93 -21.5q-82 0 -131 43.5t-49 119.5v353h65v-346q0 -51 33.5 -81t90.5 -30q41 0 75 19.5t53 53.5t19 75v309h63z" />
    <glyph glyph-name="v" unicode="v" horiz-adv-x="539" 
d="M304 -9h-74l-185 517h73l152 -438l155 438h69z" />
    <glyph glyph-name="w" unicode="w" horiz-adv-x="776" 
d="M271 -9h-72l-154 512h71l120 -423l118 423h71l112 -420l127 420h67l-160 -512h-70l-114 417z" />
    <glyph glyph-name="x" unicode="x" horiz-adv-x="565" 
d="M45 -8l195 268l-172 243h77l133 -193l129 181q8 12 24 12h60l-174 -240l203 -271h-63q-14 0 -23 10l-156 214l-149 -212q-4 -7 -11 -9.5t-19 -2.5h-54z" />
    <glyph glyph-name="y" unicode="y" horiz-adv-x="565" 
d="M109.5 -177q-19.5 3 -19.5 14v48l47 -2q34 -1 46 2.5t18.5 14t23.5 52.5l22 50l-202 503h73l163 -429l172 429h67l-226 -557q-21 -52 -37.5 -78.5t-38 -38t-57.5 -11.5q-32 0 -51.5 3z" />
    <glyph glyph-name="z" unicode="z" horiz-adv-x="491" 
d="M446 -6h-401v57l301 394h-283l-1 59h373v-41l-310 -408h321v-61z" />
    <glyph glyph-name="braceleft" unicode="{" horiz-adv-x="329" 
d="M266 -128q-79 0 -116 38.5t-37 121.5v178q0 64 -51 72q-17 3 -17 14v30q0 11 16 14q28 4 40 21.5t12 49.5v174q0 82 36.5 119t116.5 37h18l-10 -51h-15q-49 0 -68 -26t-19 -80v-180q0 -35 -11 -55.5t-35 -37.5q25 -18 35.5 -39t10.5 -56v-183q0 -55 18 -81.5t65 -26.5h14
l15 -53h-18z" />
    <glyph glyph-name="bar" unicode="|" horiz-adv-x="145" 
d="M100 -128h-55v869h55v-869z" />
    <glyph glyph-name="braceright" unicode="}" horiz-adv-x="329" 
d="M45 -128l14 53h15q46 0 64 26.5t18 81.5v183q0 35 10.5 56t35.5 39q-24 17 -35 37.5t-11 55.5v180q0 54 -18.5 80t-67.5 26h-15l-10 51h18q80 0 116 -37t36 -119v-174q0 -64 52 -71q17 -3 17 -14v-30q0 -11 -18 -14q-51 -8 -51 -72v-178q0 -83 -36.5 -121.5t-115.5 -38.5
h-18z" />
    <glyph glyph-name="exclamdown" unicode="&#xa1;" horiz-adv-x="174" 
d="M45 580v85h84v-85h-84zM49 187l16 306h38l14 -307v-221h-68v222z" />
    <glyph glyph-name="cent" unicode="&#xa2;" horiz-adv-x="561" 
d="M515 181q-9 -92 -63.5 -142t-147.5 -53v-147h-55v151q-60 11 -106.5 48.5t-72 94.5t-25.5 125q0 105 55.5 174t148.5 83v193h55v-190q86 -3 141.5 -50t68.5 -129l-65 2q-9 52 -48 85.5t-97 36.5v-420q123 6 144 115q6 23 30 23h37zM147.5 122.5q38.5 -57.5 101.5 -74.5
v410q-65 -14 -102.5 -67.5t-37.5 -132.5q0 -78 38.5 -135.5z" />
    <glyph glyph-name="sterling" unicode="&#xa3;" horiz-adv-x="478" 
d="M220 -28q-50 0 -72 15.5t-26.5 43.5t-4.5 91v189h-71l-1 55h70l-10 196q-3 70 41 107.5t132 37.5q146 0 154 -144l1 -30h-60l-1 34q-1 42 -24 61t-70 19q-57 0 -86 -20t-26 -60l11 -201h150l-3 -57h-145l-4 -180l-24 -97q16 -5 62 -5l84 1l116 1v-57h-193z" />
    <glyph glyph-name="yen" unicode="&#xa5;" horiz-adv-x="665" 
d="M620 694l-246 -390h168v-47q0 -9 -2.5 -11.5t-12.5 -2.5h-160v-114h160q10 0 12.5 -2.5t2.5 -12.5v-46h-175v-70h-69v70h-192q-9 0 -12 3t-3 12v46h207v114h-207v46q0 9 3 12t12 3h186l-247 390h76l212 -344l215 344h72z" />
    <glyph glyph-name="section" unicode="&#xa7;" horiz-adv-x="439" 
d="M110 34q-46 29 -60 84h44q4 0 8 -3.5t3 -5.5q13 -32 44 -45.5t81 -13.5q51 0 79.5 19.5t28.5 57.5q0 26 -13 41t-36 23.5t-69 20.5q-43 7 -90 24q-27 10 -38 23q-16 11 -24.5 31.5t-8.5 44.5q0 38 21 70t61 42q-47 14 -70.5 44.5t-23.5 70.5q0 53 38 82t110 29
q63 0 102.5 -25.5t53.5 -74.5l-56 1q-10 30 -34 42t-67 12q-93 0 -93 -65q0 -26 15 -40q11 -12 39.5 -23.5t67.5 -18.5q63 -13 86 -23q33 -15 52.5 -45t19.5 -64q0 -33 -20 -62t-60 -45q93 -36 93 -112q0 -59 -43.5 -92t-121.5 -33q-73 0 -119 29zM295.5 291.5
q28.5 21.5 28.5 50.5q0 30 -29.5 52t-81.5 22q-48 0 -74.5 -21t-26.5 -50q0 -30 28 -52.5t77 -22.5q50 0 78.5 21.5z" />
    <glyph glyph-name="copyright" unicode="&#xa9;" horiz-adv-x="736" 
d="M206 55.5q-74 43.5 -117.5 117.5t-43.5 163t43.5 163.5t117.5 118.5t162 44t162.5 -44t117.5 -118.5t43 -163.5t-43 -163t-117 -117.5t-163 -43.5q-88 0 -162 43.5zM511.5 88.5q65.5 38.5 103.5 104.5t38 144t-38 144t-103.5 104.5t-143.5 38.5t-143 -38.5t-103 -104.5
t-38 -144t38 -144t103 -104.5t143 -38.5t143.5 38.5zM273 225.5q-36 39.5 -36 99.5t35.5 97t92.5 37q47 0 76.5 -24.5t36.5 -67.5l-34 1q-5 28 -26 45.5t-53 17.5q-43 0 -69 -29t-26 -77q0 -46 26 -78t67 -32q70 0 81 59q3 12 15 12h19q-4 -48 -33.5 -74t-79.5 -26
q-56 0 -92 39.5z" />
    <glyph glyph-name="ordfeminine" unicode="&#xaa;" horiz-adv-x="350" 
d="M62.5 462q17.5 19 42.5 26t64 12q40 5 59 12.5t19 28.5q0 26 -19 40.5t-53 14.5t-55.5 -15.5t-25.5 -43.5l-33 -3q1 43 31.5 67.5t81.5 24.5q107 0 107 -91v-138q0 -15 3.5 -24t20.5 -40q-3 -1 -9 -1q-19 0 -31.5 16t-15.5 46q-16 -35 -45 -51t-62 -16q-45 0 -71 21
t-26 58t17.5 56zM98.5 370q17.5 -13 47.5 -13q28 1 52 17.5t38.5 47t12.5 69.5q-18 -15 -76 -22q-49 -4 -70.5 -21t-21.5 -41t17.5 -37z" />
    <glyph glyph-name="guillemotleft" unicode="&#xab;" horiz-adv-x="701" 
d="M347 191v-48l-302 133v51l302 132v-47l-253 -110zM656 191v-48l-302 133v51l302 132v-47l-253 -110z" />
    <glyph glyph-name="registered" unicode="&#xae;" horiz-adv-x="736" 
d="M206 55.5q-74 43.5 -117.5 117.5t-43.5 163t43.5 163.5t117.5 118.5t162 44t162.5 -44t117.5 -118.5t43 -163.5t-43 -163t-117 -117.5t-163 -43.5q-88 0 -162 43.5zM511.5 89q65.5 38 103.5 103.5t38 143.5t-38 144t-103.5 104.5t-143.5 38.5t-143.5 -38.5t-103.5 -104.5
t-38 -144t38 -143.5t103.5 -103.5t143.5 -38t143.5 38zM279 216v243h113q30 0 49.5 -18.5t19.5 -46.5q0 -65 -61 -71l62 -107h-28l-62 105h-68v-105h-25zM381 340q27 0 41.5 13t14.5 37q0 49 -54 49h-79v-99h77z" />
    <glyph glyph-name="degree" unicode="&#xb0;" horiz-adv-x="334" 
d="M103 346q-28 20 -43 57.5t-15 88.5q0 52 16 90q15 37 42 56t64 19q39 0 64 -19q57 -42 57 -146q0 -51 -15 -90q-14 -37 -41 -56t-65 -19q-39 0 -64 19zM233.5 390.5q23.5 35.5 23.5 101.5q0 65 -24 101t-66 36t-66 -35.5t-24 -101.5q0 -65 24 -101t66 -36q43 0 66.5 35.5
z" />
    <glyph glyph-name="uni00B2" unicode="&#xb2;" horiz-adv-x="317" 
d="M45 326q2 52 29 84.5t92 69.5q44 26 59.5 41.5t15.5 42.5q0 34 -22.5 53t-53.5 19q-26 0 -48 -14t-28 -39q-3 -11 -13 -10h-20q6 43 34.5 66.5t75.5 23.5t76.5 -27t29.5 -70q0 -26 -8 -42.5t-26.5 -30.5t-59.5 -38q-44 -25 -67 -48t-29 -50h183v-31h-220z" />
    <glyph glyph-name="uni00B3" unicode="&#xb3;" horiz-adv-x="332" 
d="M81.5 351.5q-34.5 29.5 -36.5 79.5h31q2 -38 26.5 -60t69.5 -22q39 0 62 19t23 51q0 38 -13 53.5t-56 15.5h-10q-3 0 -5 4t-2 8v14h17q32 0 45 17.5t13 42.5q0 29 -22 45t-56 16q-35 0 -57.5 -16.5t-25.5 -48.5q-1 -10 -10 -10h-18q-1 0 -1 7q2 43 31.5 68.5t81.5 25.5
q48 0 77 -23.5t29 -63.5q0 -25 -13.5 -45t-38.5 -26q33 -5 48.5 -24.5t15.5 -60.5q0 -44 -31.5 -70t-82.5 -26q-57 0 -91.5 29.5z" />
    <glyph glyph-name="periodcentered" unicode="&#xb7;" horiz-adv-x="169" 
d="M107 191q-27 0 -44.5 18t-17.5 44v18h61q8 0 13 -5t5 -12v-63h-17z" />
    <glyph glyph-name="uni00B9" unicode="&#xb9;" horiz-adv-x="195" 
d="M118 321v303l-58 -20q-2 -1 -6 -1q-9 0 -9 10v13l70 30h34v-335h-31z" />
    <glyph glyph-name="ordmasculine" unicode="&#xba;" horiz-adv-x="340" 
d="M104 340q-29 20 -44 58.5t-15 90.5q0 50 16 92q16 38 44 57.5t65 19.5q40 0 66 -19q29 -21 44 -59.5t15 -90.5q0 -50 -16 -93q-15 -37 -43 -56.5t-66 -19.5q-40 0 -66 20zM238.5 384.5q24.5 36.5 24.5 104.5q0 67 -24.5 104t-68.5 37q-43 0 -67.5 -37t-24.5 -104
t24.5 -104t67.5 -37q44 0 68.5 36.5z" />
    <glyph glyph-name="guillemotright" unicode="&#xbb;" horiz-adv-x="701" 
d="M347 276l-302 -133v48l253 111l-253 110v47l302 -132v-51zM656 276l-302 -133v48l253 111l-253 110v47l302 -132v-51z" />
    <glyph glyph-name="questiondown" unicode="&#xbf;" horiz-adv-x="472" 
d="M239 702q28 0 47 -19t19 -47v-26h-59q-10 0 -17.5 7.5t-7.5 17.5v67h18zM293 536q-4 -51 -20.5 -90t-37.5 -66.5t-54 -61.5q-39 -41 -57.5 -70t-18.5 -68q0 -58 38.5 -92.5t102.5 -34.5q44 0 79 16.5t53 45.5l49 -37q-30 -39 -77 -60t-105 -21q-61 0 -106.5 23.5
t-69.5 64.5t-24 94q0 41 12.5 72t31 52.5t49.5 50.5q33 32 51 53.5t32.5 53.5t16.5 75h55z" />
    <glyph glyph-name="Agrave" unicode="&#xc0;" horiz-adv-x="646" 
d="M316 747q-31 0 -54 30l-35 49h92l34 -79h-37zM111 14h-66l237 644h81l238 -644h-73l-70 202h-276zM322 590l-122 -324h241z" />
    <glyph glyph-name="Aacute" unicode="&#xc1;" horiz-adv-x="646" 
d="M286 747l32 77h86l-32 -47q-22 -30 -53 -30h-33zM111 14h-66l237 644h81l238 -644h-73l-70 202h-276zM322 590l-122 -324h241z" />
    <glyph glyph-name="Acircumflex" unicode="&#xc2;" horiz-adv-x="646" 
d="M279 795q8 12 19.5 18.5t24.5 6.5q28 0 44 -26l57 -94h-4q-27 0 -45.5 10.5t-33.5 33.5l-19 30l-19 -30q-13 -24 -31 -34t-46 -10h-5zM111 14h-66l237 644h81l238 -644h-73l-70 202h-276zM322 590l-122 -324h241z" />
    <glyph glyph-name="Atilde" unicode="&#xc3;" horiz-adv-x="646" 
d="M285 762q-10 5 -16 5q-8 0 -13.5 -5t-6.5 -13h-28q-3 25 13 42t40 17q17 0 33 -10l56 -33q9 -6 16 -6q17 0 15 21h34q3 -26 -12.5 -44t-39.5 -18q-16 0 -32 10zM111 14h-66l237 644h81l238 -644h-73l-70 202h-276zM322 590l-122 -324h241z" />
    <glyph glyph-name="Adieresis" unicode="&#xc4;" horiz-adv-x="646" 
d="M288 727q-33 0 -54.5 22t-21.5 55v18h75q7 0 12 -5t5 -12v-78h-16zM401 727q-33 0 -55 22t-22 55v18h77q7 0 11.5 -5t4.5 -12v-78h-16zM111 14h-66l237 644h81l238 -644h-73l-70 202h-276zM322 590l-122 -324h241z" />
    <glyph glyph-name="Aring" unicode="&#xc5;" horiz-adv-x="646" 
d="M278.5 738q-21.5 21 -21.5 52q0 29 21.5 50t51.5 21q29 0 50.5 -21t21.5 -50q0 -30 -21 -51.5t-51 -21.5t-51.5 21zM350.5 768q8.5 8 8.5 19q0 12 -8.5 20.5t-20.5 8.5q-11 0 -19.5 -8.5t-8.5 -20.5q0 -11 8.5 -19t19.5 -8q12 0 20.5 8zM111 14h-66l237 644h81l238 -644
h-73l-70 202h-276zM322 590l-122 -324h241z" />
    <glyph glyph-name="AE" unicode="&#xc6;" horiz-adv-x="1067" 
d="M926 332h-273v-269h357v-65h-428v1h-16l5 218h-298l-157 -218h-71l512 694h25v1h440l-16 -60h-353v-245h288zM313 271h260l1 349z" />
    <glyph glyph-name="Ccedilla" unicode="&#xc7;" horiz-adv-x="705" 
d="M660 242q-6 -111 -76 -179.5t-182 -77.5q15 -6 23 -18t8 -29q0 -26 -17.5 -42.5t-44.5 -16.5q-24 0 -52 19l34 25q5 -4 12 -4q8 0 14 5.5t6 12.5q0 8 -10 12q3 5 -3.5 8.5t-19.5 3.5q-4 0 -20 -2l6 26q-87 8 -153.5 56t-103 127t-36.5 179q0 107 41 189.5t116 128.5
t173 46q111 0 184 -56t91 -154h-65q-15 69 -72.5 109t-139.5 40q-77 0 -136 -38.5t-91.5 -107t-32.5 -157.5q0 -88 33 -156.5t92 -106.5t136 -38q91 0 151 52.5t70 143.5h65z" />
    <glyph glyph-name="Egrave" unicode="&#xc8;" horiz-adv-x="530" 
d="M473 -2h-428v696h440l-16 -60h-352v-245h288l-15 -57h-273v-269h356v-65zM290 746q-16 0 -29 7t-25 22l-35 50h92l34 -79h-37z" />
    <glyph glyph-name="Eacute" unicode="&#xc9;" horiz-adv-x="530" 
d="M473 -2h-428v696h440l-16 -60h-352v-245h288l-15 -57h-273v-269h356v-65zM213 746l32 77h86l-32 -47q-22 -30 -53 -30h-33z" />
    <glyph glyph-name="Ecircumflex" unicode="&#xca;" horiz-adv-x="530" 
d="M473 -2h-428v696h440l-16 -60h-352v-245h288l-15 -57h-273v-269h356v-65zM220 822q16 24 43 24q30 0 45 -25l57 -94h-5q-26 0 -44.5 10.5t-34.5 33.5l-19 30l-19 -30q-13 -24 -31 -34t-46 -10h-5z" />
    <glyph glyph-name="Edieresis" unicode="&#xcb;" horiz-adv-x="530" 
d="M473 -2h-428v696h440l-16 -60h-352v-245h288l-15 -57h-273v-269h356v-65zM235 729q-33 0 -54.5 22t-21.5 55v19h75q7 0 12.5 -5t5.5 -13v-78h-17zM349 729q-33 0 -55 22t-22 55v19h77q7 0 11.5 -5t4.5 -13v-78h-16z" />
    <glyph glyph-name="Igrave" unicode="&#xcc;" horiz-adv-x="629" 
d="M110 -2h-65v696h80l323 -491l71 -122v613h65v-696h-77l-325 493l-72 117v-610zM314 757q-16 0 -29 7t-25 22l-35 50h92l34 -79h-37z" />
    <glyph glyph-name="Iacute" unicode="&#xcd;" horiz-adv-x="629" 
d="M110 -2h-65v696h80l323 -491l71 -122v613h65v-696h-77l-325 493l-72 117v-610zM304 761l32 77h86l-32 -47q-22 -30 -53 -30h-33z" />
    <glyph glyph-name="Icircumflex" unicode="&#xce;" horiz-adv-x="629" 
d="M110 -2h-65v696h80l323 -491l71 -122v613h65v-696h-77l-325 493l-72 117v-610zM275 837q16 24 43 24q30 0 45 -25l57 -94h-5q-26 0 -44.5 10.5t-34.5 33.5l-19 30l-19 -30q-13 -24 -31 -34t-46 -10h-5z" />
    <glyph glyph-name="Idieresis" unicode="&#xcf;" horiz-adv-x="346" 
d="M208 -2h-72v696h72v-696zM135 754q-33 0 -54.5 22t-21.5 55v19h75q7 0 12.5 -5t5.5 -13v-78h-17zM249 754q-33 0 -55 22t-22 55v19h77q7 0 11.5 -5t4.5 -13v-78h-16z" />
    <glyph glyph-name="Ntilde" unicode="&#xd1;" horiz-adv-x="629" 
d="M110 -2h-65v696h80l323 -491l71 -122v613h65v-696h-77l-325 493l-72 117v-610zM278 784q-10 5 -17 5q-8 0 -13 -5t-6 -13h-29q-2 25 14 42t39 17q17 0 33 -10l57 -33q9 -6 16 -6q16 0 15 21h34q2 -26 -13.5 -44t-38.5 -18q-16 0 -32 10z" />
    <glyph glyph-name="Ograve" unicode="&#xd2;" 
d="M407 767q-16 0 -29 7t-25 22l-35 50h92l34 -79h-37zM208 29.5q-77 46.5 -120 129t-43 188.5q0 107 42.5 189.5t120 128t177.5 45.5q102 0 179 -45.5t119 -128t42 -189.5q0 -106 -43 -188.5t-120.5 -129t-176.5 -46.5q-100 0 -177 46.5zM526 85q61 37 94.5 104.5
t33.5 157.5q0 88 -33.5 156t-94.5 105.5t-141 37.5q-79 0 -140 -38t-95 -105.5t-34 -155.5q0 -90 34 -157.5t95 -104.5t140 -37q80 0 141 37z" />
    <glyph glyph-name="Oacute" unicode="&#xd3;" 
d="M319 771l32 77h86l-32 -47q-22 -30 -53 -30h-33zM208 29.5q-77 46.5 -120 129t-43 188.5q0 107 42.5 189.5t120 128t177.5 45.5q102 0 179 -45.5t119 -128t42 -189.5q0 -106 -43 -188.5t-120.5 -129t-176.5 -46.5q-100 0 -177 46.5zM526 85q61 37 94.5 104.5t33.5 157.5
q0 88 -33.5 156t-94.5 105.5t-141 37.5q-79 0 -140 -38t-95 -105.5t-34 -155.5q0 -90 34 -157.5t95 -104.5t140 -37q80 0 141 37z" />
    <glyph glyph-name="Ocircumflex" unicode="&#xd4;" 
d="M208 29.5q-77 46.5 -120 129t-43 188.5q0 107 42.5 189.5t120 128t177.5 45.5q102 0 179 -45.5t119 -128t42 -189.5q0 -106 -43 -188.5t-120.5 -129t-176.5 -46.5q-100 0 -177 46.5zM526 85q61 37 94.5 104.5t33.5 157.5q0 88 -33.5 156t-94.5 105.5t-141 37.5
q-79 0 -140 -38t-95 -105.5t-34 -155.5q0 -90 34 -157.5t95 -104.5t140 -37q80 0 141 37zM342 845q16 24 43 24q30 0 45 -25l57 -94h-5q-26 0 -44.5 10.5t-34.5 33.5l-19 30l-19 -30q-13 -24 -31 -34t-46 -10h-5z" />
    <glyph glyph-name="Otilde" unicode="&#xd5;" 
d="M208 29.5q-77 46.5 -120 129t-43 188.5q0 107 42.5 189.5t120 128t177.5 45.5q102 0 179 -45.5t119 -128t42 -189.5q0 -106 -43 -188.5t-120.5 -129t-176.5 -46.5q-100 0 -177 46.5zM526 85q61 37 94.5 104.5t33.5 157.5q0 88 -33.5 156t-94.5 105.5t-141 37.5
q-79 0 -140 -38t-95 -105.5t-34 -155.5q0 -90 34 -157.5t95 -104.5t140 -37q80 0 141 37zM341 806q-10 5 -17 5q-8 0 -13 -5t-6 -13h-29q-2 25 14 42t39 17q17 0 33 -10l57 -33q9 -6 16 -6q16 0 15 21h34q2 -26 -13.5 -44t-38.5 -18q-16 0 -32 10z" />
    <glyph glyph-name="Odieresis" unicode="&#xd6;" 
d="M208 29.5q-77 46.5 -120 129t-43 188.5q0 107 42.5 189.5t120 128t177.5 45.5q102 0 179 -45.5t119 -128t42 -189.5q0 -106 -43 -188.5t-120.5 -129t-176.5 -46.5q-100 0 -177 46.5zM526 85q61 37 94.5 104.5t33.5 157.5q0 88 -33.5 156t-94.5 105.5t-141 37.5
q-79 0 -140 -38t-95 -105.5t-34 -155.5q0 -90 34 -157.5t95 -104.5t140 -37q80 0 141 37zM355 746q-33 0 -54.5 22t-21.5 55v19h75q7 0 12.5 -5t5.5 -13v-78h-17zM469 746q-33 0 -55 22t-22 55v19h77q7 0 11.5 -5t4.5 -13v-78h-16z" />
    <glyph glyph-name="multiply" unicode="&#xd7;" horiz-adv-x="447" 
d="M45 81l146 202l-129 182h58l100 -145l96 136q8 9 18 9h46l-131 -180l152 -204h-47q-10 0 -17 8l-117 160l-112 -159q-6 -9 -23 -9h-40z" />
    <glyph glyph-name="Oslash" unicode="&#xd8;" 
d="M517 687q97 -37 152.5 -126.5t55.5 -213.5q0 -106 -43 -188.5t-120.5 -129t-176.5 -46.5q-60 0 -117 19l-38 -104h-55l45 124q-82 44 -128.5 129t-46.5 196q0 107 42.5 189.5t120 128t177.5 45.5q40 0 82 -8l24 65h55zM149.5 190q33.5 -67 93.5 -104l202 554q-28 6 -60 6
q-79 0 -140 -38t-95 -105.5t-34 -155.5q0 -90 33.5 -157zM526 85q61 37 94.5 104.5t33.5 157.5q0 100 -42.5 173t-117.5 105l-204 -562q44 -15 95 -15q80 0 141 37z" />
    <glyph glyph-name="Ugrave" unicode="&#xd9;" horiz-adv-x="618" 
d="M319 754q-16 0 -29 7t-25 22l-35 50h92l34 -79h-37zM113 47.5q-68 59.5 -68 172.5v474h72v-465q0 -183 195 -183q94 0 142.5 46.5t48.5 136.5v465h70v-474q0 -112 -68.5 -172t-194.5 -60q-129 0 -197 59.5z" />
    <glyph glyph-name="Uacute" unicode="&#xda;" horiz-adv-x="618" 
d="M264 755l32 77h86l-32 -47q-22 -30 -53 -30h-33zM113 47.5q-68 59.5 -68 172.5v474h72v-465q0 -183 195 -183q94 0 142.5 46.5t48.5 136.5v465h70v-474q0 -112 -68.5 -172t-194.5 -60q-129 0 -197 59.5z" />
    <glyph glyph-name="Ucircumflex" unicode="&#xdb;" horiz-adv-x="618" 
d="M113 47.5q-68 59.5 -68 172.5v474h72v-465q0 -183 195 -183q94 0 142.5 46.5t48.5 136.5v465h70v-474q0 -112 -68.5 -172t-194.5 -60q-129 0 -197 59.5zM266 816q16 24 43 24q30 0 45 -25l57 -94h-5q-26 0 -44.5 10.5t-34.5 33.5l-19 30l-19 -30q-13 -24 -31 -34t-46 -10
h-5z" />
    <glyph glyph-name="Udieresis" unicode="&#xdc;" horiz-adv-x="618" 
d="M113 47.5q-68 59.5 -68 172.5v474h72v-465q0 -183 195 -183q94 0 142.5 46.5t48.5 136.5v465h70v-474q0 -112 -68.5 -172t-194.5 -60q-129 0 -197 59.5zM277 737q-33 0 -54.5 22t-21.5 55v19h75q7 0 12.5 -5t5.5 -13v-78h-17zM391 737q-33 0 -55 22t-22 55v19h77
q7 0 11.5 -5t4.5 -13v-78h-16z" />
    <glyph glyph-name="Yacute" unicode="&#xdd;" horiz-adv-x="665" 
d="M280 747l32 77h86l-32 -47q-22 -30 -53 -30h-33zM367 -2h-69v297l-253 399h76l212 -344l215 344h72l-253 -401v-295z" />
    <glyph glyph-name="germandbls" unicode="&#xdf;" horiz-adv-x="624" 
d="M45 -4v700h295q96 0 153 -47.5t57 -128.5q0 -56 -28.5 -97.5t-81.5 -54.5q67 -24 103 -68t36 -106q0 -58 -28 -103t-79 -70t-116 -25l-3 67q71 0 114 33.5t43 93.5q0 64 -45 101.5t-119 37.5h-225v-333h-76zM329 390q69 0 108 33t39 92q0 55 -36.5 86.5t-98.5 31.5h-220
v-243h208z" />
    <glyph glyph-name="agrave" unicode="&#xe0;" horiz-adv-x="550" 
d="M76.5 227q31.5 34 75 46.5t112.5 20.5q48 6 75 12t45 20t18 40q0 47 -33.5 72.5t-93.5 25.5q-61 0 -99 -27t-44 -77l-60 -6q4 76 57.5 119.5t144.5 43.5q95 0 141.5 -40t46.5 -120v-245q0 -27 6.5 -43t36.5 -71q-12 -2 -16 -2q-33 0 -56 29t-27 82q-28 -62 -79.5 -91
t-109.5 -29q-80 0 -126 38t-46 103t31.5 99zM139.5 64.5q30.5 -23.5 84.5 -23.5q48 1 91.5 30t68.5 83.5t22 124.5q-34 -29 -134 -40q-87 -8 -125 -37t-38 -72q0 -42 30.5 -65.5zM284 621q-16 0 -29 7t-25 22l-35 50h92l34 -79h-37z" />
    <glyph glyph-name="aacute" unicode="&#xe1;" horiz-adv-x="550" 
d="M218 622l32 77h86l-32 -47q-22 -30 -53 -30h-33zM76.5 227q31.5 34 75 46.5t112.5 20.5q48 6 75 12t45 20t18 40q0 47 -33.5 72.5t-93.5 25.5q-61 0 -99 -27t-44 -77l-60 -6q4 76 57.5 119.5t144.5 43.5q95 0 141.5 -40t46.5 -120v-245q0 -27 6.5 -43t36.5 -71
q-12 -2 -16 -2q-33 0 -56 29t-27 82q-28 -62 -79.5 -91t-109.5 -29q-80 0 -126 38t-46 103t31.5 99zM139.5 64.5q30.5 -23.5 84.5 -23.5q48 1 91.5 30t68.5 83.5t22 124.5q-34 -29 -134 -40q-87 -8 -125 -37t-38 -72q0 -42 30.5 -65.5z" />
    <glyph glyph-name="acircumflex" unicode="&#xe2;" horiz-adv-x="550" 
d="M76.5 227q31.5 34 75 46.5t112.5 20.5q48 6 75 12t45 20t18 40q0 47 -33.5 72.5t-93.5 25.5q-61 0 -99 -27t-44 -77l-60 -6q4 76 57.5 119.5t144.5 43.5q95 0 141.5 -40t46.5 -120v-245q0 -27 6.5 -43t36.5 -71q-12 -2 -16 -2q-33 0 -56 29t-27 82q-28 -62 -79.5 -91
t-109.5 -29q-80 0 -126 38t-46 103t31.5 99zM139.5 64.5q30.5 -23.5 84.5 -23.5q48 1 91.5 30t68.5 83.5t22 124.5q-34 -29 -134 -40q-87 -8 -125 -37t-38 -72q0 -42 30.5 -65.5zM239 675q16 24 43 24q30 0 45 -25l57 -94h-5q-26 0 -44.5 10.5t-34.5 33.5l-19 30l-19 -30
q-13 -24 -31 -34t-46 -10h-5z" />
    <glyph glyph-name="atilde" unicode="&#xe3;" horiz-adv-x="550" 
d="M76.5 227q31.5 34 75 46.5t112.5 20.5q48 6 75 12t45 20t18 40q0 47 -33.5 72.5t-93.5 25.5q-61 0 -99 -27t-44 -77l-60 -6q4 76 57.5 119.5t144.5 43.5q95 0 141.5 -40t46.5 -120v-245q0 -27 6.5 -43t36.5 -71q-12 -2 -16 -2q-33 0 -56 29t-27 82q-28 -62 -79.5 -91
t-109.5 -29q-80 0 -126 38t-46 103t31.5 99zM139.5 64.5q30.5 -23.5 84.5 -23.5q48 1 91.5 30t68.5 83.5t22 124.5q-34 -29 -134 -40q-87 -8 -125 -37t-38 -72q0 -42 30.5 -65.5zM242 648q-10 5 -17 5q-8 0 -13 -5t-6 -13h-29q-2 25 14 42t39 17q17 0 33 -10l57 -33
q9 -6 16 -6q16 0 15 21h34q2 -26 -13.5 -44t-38.5 -18q-16 0 -32 10z" />
    <glyph glyph-name="adieresis" unicode="&#xe4;" horiz-adv-x="550" 
d="M76.5 227q31.5 34 75 46.5t112.5 20.5q48 6 75 12t45 20t18 40q0 47 -33.5 72.5t-93.5 25.5q-61 0 -99 -27t-44 -77l-60 -6q4 76 57.5 119.5t144.5 43.5q95 0 141.5 -40t46.5 -120v-245q0 -27 6.5 -43t36.5 -71q-12 -2 -16 -2q-33 0 -56 29t-27 82q-28 -62 -79.5 -91
t-109.5 -29q-80 0 -126 38t-46 103t31.5 99zM139.5 64.5q30.5 -23.5 84.5 -23.5q48 1 91.5 30t68.5 83.5t22 124.5q-34 -29 -134 -40q-87 -8 -125 -37t-38 -72q0 -42 30.5 -65.5zM226 602q-33 0 -54.5 22t-21.5 55v19h75q7 0 12.5 -5t5.5 -13v-78h-17zM340 602q-33 0 -55 22
t-22 55v19h77q7 0 11.5 -5t4.5 -13v-78h-16z" />
    <glyph glyph-name="aring" unicode="&#xe5;" horiz-adv-x="550" 
d="M207.5 578q-21.5 21 -21.5 52q0 29 21.5 50t51.5 21q29 0 50.5 -21t21.5 -50q0 -30 -21 -51.5t-51 -21.5t-51.5 21zM279.5 608q8.5 8 8.5 19q0 12 -8.5 20.5t-20.5 8.5q-11 0 -19.5 -8.5t-8.5 -20.5q0 -11 8.5 -19t19.5 -8q12 0 20.5 8zM76.5 227q31.5 34 75 46.5
t112.5 20.5q48 6 75 12t45 20t18 40q0 47 -33.5 72.5t-93.5 25.5q-61 0 -99 -27t-44 -77l-60 -6q4 76 57.5 119.5t144.5 43.5q95 0 141.5 -40t46.5 -120v-245q0 -27 6.5 -43t36.5 -71q-12 -2 -16 -2q-33 0 -56 29t-27 82q-28 -62 -79.5 -91t-109.5 -29q-80 0 -126 38
t-46 103t31.5 99zM139.5 64.5q30.5 -23.5 84.5 -23.5q48 1 91.5 30t68.5 83.5t22 124.5q-34 -29 -134 -40q-87 -8 -125 -37t-38 -72q0 -42 30.5 -65.5z" />
    <glyph glyph-name="ae" unicode="&#xe6;" horiz-adv-x="935" 
d="M834 151l46 2q-18 -85 -76.5 -132t-148.5 -47q-53 0 -99.5 21t-80.5 60q2 -5 19 -37l11 -20q-12 -2 -16 -2q-33 0 -56 29t-27 82q-28 -62 -79.5 -91t-109.5 -29q-80 0 -126 38t-46 103t31.5 99t75 46.5t112.5 20.5q48 6 75 12t45 20t18 40q0 47 -33.5 72.5t-93.5 25.5
q-61 0 -99 -27t-44 -77l-60 -6q4 76 57.5 119.5t144.5 43.5q150 0 180 -100q34 49 84.5 76.5t112.5 27.5q75 0 129 -36.5t82 -103t28 -154.5h-421q3 -54 28 -98.5t67 -70t94 -25.5q55 0 93 26t57 70q9 20 26 22zM529 413.5q-50 -48.5 -60 -127.5h354q-7 82 -53.5 129
t-118.5 47t-122 -48.5zM307.5 65.5q39.5 23.5 66 68t31.5 103.5v11q0 19 1 28v3q-34 -29 -134 -40q-87 -8 -125 -37t-38 -72q0 -42 30.5 -65.5t84.5 -23.5q44 1 83.5 24.5z" />
    <glyph glyph-name="ccedilla" unicode="&#xe7;" horiz-adv-x="561" 
d="M515 181q-8 -88 -59 -138t-138 -56q16 -6 25 -19t9 -30q0 -26 -17.5 -42.5t-44.5 -16.5q-23 0 -51 19l34 25q5 -4 12 -4q8 0 13.5 5.5t5.5 12.5q0 8 -10 12q3 5 -3 8.5t-20 3.5l-20 -2l7 29q-62 9 -110.5 46.5t-75.5 95.5t-27 128q0 78 31.5 137t88 91t129.5 32
q90 0 148.5 -47.5t71.5 -131.5l-65 2q-9 54 -51.5 88t-103.5 34q-84 0 -134.5 -56t-50.5 -149q0 -60 23.5 -109t65 -77.5t94.5 -28.5q134 0 156 115q6 23 30 23h37z" />
    <glyph glyph-name="egrave" unicode="&#xe8;" horiz-adv-x="575" 
d="M311 625q-16 0 -29 7t-25 22l-35 50h92l34 -79h-37zM168.5 9q-57.5 36 -90.5 98.5t-33 139.5q0 78 31.5 140t88 97.5t127.5 35.5q112 0 175 -80t63 -214h-420q3 -54 28 -98.5t67 -70t94 -25.5q54 0 92 26t57 70q9 20 26 22l46 2q-17 -85 -75.5 -132t-148.5 -47
q-70 0 -127.5 36zM463 285q-8 82 -53.5 129t-117.5 47q-73 0 -123 -48.5t-60 -127.5h354z" />
    <glyph glyph-name="eacute" unicode="&#xe9;" horiz-adv-x="575" 
d="M218 620l32 77h86l-32 -47q-22 -30 -53 -30h-33zM168.5 9q-57.5 36 -90.5 98.5t-33 139.5q0 78 31.5 140t88 97.5t127.5 35.5q112 0 175 -80t63 -214h-420q3 -54 28 -98.5t67 -70t94 -25.5q54 0 92 26t57 70q9 20 26 22l46 2q-17 -85 -75.5 -132t-148.5 -47
q-70 0 -127.5 36zM463 285q-8 82 -53.5 129t-117.5 47q-73 0 -123 -48.5t-60 -127.5h354z" />
    <glyph glyph-name="ecircumflex" unicode="&#xea;" horiz-adv-x="575" 
d="M168.5 9q-57.5 36 -90.5 98.5t-33 139.5q0 78 31.5 140t88 97.5t127.5 35.5q112 0 175 -80t63 -214h-420q3 -54 28 -98.5t67 -70t94 -25.5q54 0 92 26t57 70q9 20 26 22l46 2q-17 -85 -75.5 -132t-148.5 -47q-70 0 -127.5 36zM463 285q-8 82 -53.5 129t-117.5 47
q-73 0 -123 -48.5t-60 -127.5h354zM240 674q16 24 43 24q30 0 45 -25l57 -94h-5q-26 0 -44.5 10.5t-34.5 33.5l-19 30l-19 -30q-13 -24 -31 -34t-46 -10h-5z" />
    <glyph glyph-name="edieresis" unicode="&#xeb;" horiz-adv-x="575" 
d="M168.5 9q-57.5 36 -90.5 98.5t-33 139.5q0 78 31.5 140t88 97.5t127.5 35.5q112 0 175 -80t63 -214h-420q3 -54 28 -98.5t67 -70t94 -25.5q54 0 92 26t57 70q9 20 26 22l46 2q-17 -85 -75.5 -132t-148.5 -47q-70 0 -127.5 36zM463 285q-8 82 -53.5 129t-117.5 47
q-73 0 -123 -48.5t-60 -127.5h354zM257 602q-33 0 -54.5 22t-21.5 55v19h75q7 0 12.5 -5t5.5 -13v-78h-17zM371 602q-33 0 -55 22t-22 55v19h77q7 0 11.5 -5t4.5 -13v-78h-16z" />
    <glyph glyph-name="igrave" unicode="&#xec;" horiz-adv-x="231" 
d="M140 620q-16 0 -29 7t-25 22l-35 50h92l34 -79h-37zM165 3h-65v525h65v-525z" />
    <glyph glyph-name="iacute" unicode="&#xed;" horiz-adv-x="255" 
d="M81 622l32 77h86l-32 -47q-22 -30 -53 -30h-33zM159 3h-65v525h65v-525z" />
    <glyph glyph-name="icircumflex" unicode="&#xee;" horiz-adv-x="304" 
d="M249 581q-28 0 -46 10t-31 34l-19 30l-19 -29q-16 -24 -34.5 -34.5t-44.5 -10.5h-5l57 94q15 26 45 26q27 0 43 -25l59 -95h-5zM183 528v-525h-65v525h65z" />
    <glyph glyph-name="idieresis" unicode="&#xef;" horiz-adv-x="296" 
d="M122 602q-33 0 -54.5 22t-21.5 55v19h75q7 0 12.5 -5t5.5 -13v-78h-17zM236 602q-33 0 -55 22t-22 55v19h77q7 0 11.5 -5t4.5 -13v-78h-16zM185 3h-65v525h65v-525z" />
    <glyph glyph-name="ntilde" unicode="&#xf1;" horiz-adv-x="489" 
d="M45 -8v511h31q14 0 25 -17.5t10 -48.5q18 35 60 56t93 21q83 0 131.5 -43t48.5 -119v-360h-68v353q0 51 -32 79.5t-89 28.5q-63 0 -104 -41t-41 -104v-316h-65zM215 658q-10 5 -17 5q-8 0 -13 -5t-6 -13h-29q-2 25 14 42t39 17q17 0 33 -10l57 -33q9 -6 16 -6q16 0 15 21
h34q2 -26 -13.5 -44t-38.5 -18q-16 0 -32 10z" />
    <glyph glyph-name="ograve" unicode="&#xf2;" horiz-adv-x="576" 
d="M319 621q-16 0 -29 7t-25 22l-35 50h92l34 -79h-37zM163.5 22.5q-55.5 34.5 -87 95t-31.5 134.5q0 76 31 136.5t86.5 94.5t125.5 34q72 0 127 -34t85.5 -94.5t30.5 -136.5q0 -75 -31 -135.5t-86.5 -94.5t-125.5 -34q-69 0 -124.5 34.5zM380.5 72.5q40.5 25.5 63.5 72
t23 107.5t-23 108.5t-64 73.5t-92 26t-92 -26t-64 -73.5t-23 -108.5q0 -60 23 -106.5t64 -72.5t92 -26q52 0 92.5 25.5z" />
    <glyph glyph-name="oacute" unicode="&#xf3;" horiz-adv-x="576" 
d="M226 621l32 77h86l-32 -47q-22 -30 -53 -30h-33zM163.5 22.5q-55.5 34.5 -87 95t-31.5 134.5q0 76 31 136.5t86.5 94.5t125.5 34q72 0 127 -34t85.5 -94.5t30.5 -136.5q0 -75 -31 -135.5t-86.5 -94.5t-125.5 -34q-69 0 -124.5 34.5zM380.5 72.5q40.5 25.5 63.5 72
t23 107.5t-23 108.5t-64 73.5t-92 26t-92 -26t-64 -73.5t-23 -108.5q0 -60 23 -106.5t64 -72.5t92 -26q52 0 92.5 25.5z" />
    <glyph glyph-name="ocircumflex" unicode="&#xf4;" horiz-adv-x="576" 
d="M163.5 22.5q-55.5 34.5 -87 95t-31.5 134.5q0 76 31 136.5t86.5 94.5t125.5 34q72 0 127 -34t85.5 -94.5t30.5 -136.5q0 -75 -31 -135.5t-86.5 -94.5t-125.5 -34q-69 0 -124.5 34.5zM380.5 72.5q40.5 25.5 63.5 72t23 107.5t-23 108.5t-64 73.5t-92 26t-92 -26t-64 -73.5
t-23 -108.5q0 -60 23 -106.5t64 -72.5t92 -26q52 0 92.5 25.5zM248 676q16 24 43 24q30 0 45 -25l57 -94h-5q-26 0 -44.5 10.5t-34.5 33.5l-19 30l-19 -30q-13 -24 -31 -34t-46 -10h-5z" />
    <glyph glyph-name="otilde" unicode="&#xf5;" horiz-adv-x="576" 
d="M163.5 22.5q-55.5 34.5 -87 95t-31.5 134.5q0 76 31 136.5t86.5 94.5t125.5 34q72 0 127 -34t85.5 -94.5t30.5 -136.5q0 -75 -31 -135.5t-86.5 -94.5t-125.5 -34q-69 0 -124.5 34.5zM380.5 72.5q40.5 25.5 63.5 72t23 107.5t-23 108.5t-64 73.5t-92 26t-92 -26t-64 -73.5
t-23 -108.5q0 -60 23 -106.5t64 -72.5t92 -26q52 0 92.5 25.5zM251 648q-10 5 -17 5q-8 0 -13 -5t-6 -13h-29q-2 25 14 42t39 17q17 0 33 -10l57 -33q9 -6 16 -6q16 0 15 21h34q2 -26 -13.5 -44t-38.5 -18q-16 0 -32 10z" />
    <glyph glyph-name="odieresis" unicode="&#xf6;" horiz-adv-x="576" 
d="M163.5 22.5q-55.5 34.5 -87 95t-31.5 134.5q0 76 31 136.5t86.5 94.5t125.5 34q72 0 127 -34t85.5 -94.5t30.5 -136.5q0 -75 -31 -135.5t-86.5 -94.5t-125.5 -34q-69 0 -124.5 34.5zM380.5 72.5q40.5 25.5 63.5 72t23 107.5t-23 108.5t-64 73.5t-92 26t-92 -26t-64 -73.5
t-23 -108.5q0 -60 23 -106.5t64 -72.5t92 -26q52 0 92.5 25.5zM259 603q-33 0 -54.5 22t-21.5 55v19h75q7 0 12.5 -5t5.5 -13v-78h-17zM373 603q-33 0 -55 22t-22 55v19h77q7 0 11.5 -5t4.5 -13v-78h-16z" />
    <glyph glyph-name="oslash" unicode="&#xf8;" horiz-adv-x="576" 
d="M380 500q70 -27 110.5 -93.5t40.5 -154.5q0 -75 -31 -135.5t-86.5 -94.5t-125.5 -34q-46 0 -89 16l-27 -75h-44l34 94q-55 34 -86 94.5t-31 134.5q0 76 31 136.5t86.5 94.5t125.5 34q24 0 52 -5l39 108h44zM128.5 153q19.5 -44 54.5 -71l137 375q-15 3 -32 3
q-51 0 -92 -26t-64 -73.5t-23 -108.5q0 -55 19.5 -99zM380.5 72.5q40.5 25.5 63.5 72t23 107.5q0 69 -29 120t-79 73l-139 -385q34 -13 68 -13q52 0 92.5 25.5z" />
    <glyph glyph-name="ugrave" unicode="&#xf9;" horiz-adv-x="489" 
d="M271 615q-16 0 -29 7t-25 22l-35 50h92l34 -79h-37zM444 505v-504h-31q-14 0 -25 18t-10 48q-18 -35 -60 -56.5t-93 -21.5q-82 0 -131 43.5t-49 119.5v353h65v-346q0 -51 33.5 -81t90.5 -30q41 0 75 19.5t53 53.5t19 75v309h63z" />
    <glyph glyph-name="uacute" unicode="&#xfa;" horiz-adv-x="489" 
d="M444 505v-504h-31q-14 0 -25 18t-10 48q-18 -35 -60 -56.5t-93 -21.5q-82 0 -131 43.5t-49 119.5v353h65v-346q0 -51 33.5 -81t90.5 -30q41 0 75 19.5t53 53.5t19 75v309h63zM183 620l32 77h86l-32 -47q-22 -30 -53 -30h-33z" />
    <glyph glyph-name="ucircumflex" unicode="&#xfb;" horiz-adv-x="489" 
d="M444 505v-504h-31q-14 0 -25 18t-10 48q-18 -35 -60 -56.5t-93 -21.5q-82 0 -131 43.5t-49 119.5v353h65v-346q0 -51 33.5 -81t90.5 -30q41 0 75 19.5t53 53.5t19 75v309h63zM198 677q16 24 43 24q30 0 45 -25l57 -94h-5q-26 0 -44.5 10.5t-34.5 33.5l-19 30l-19 -30
q-13 -24 -31 -34t-46 -10h-5z" />
    <glyph glyph-name="udieresis" unicode="&#xfc;" horiz-adv-x="489" 
d="M444 505v-504h-31q-14 0 -25 18t-10 48q-18 -35 -60 -56.5t-93 -21.5q-82 0 -131 43.5t-49 119.5v353h65v-346q0 -51 33.5 -81t90.5 -30q41 0 75 19.5t53 53.5t19 75v309h63zM208 600q-33 0 -54.5 22t-21.5 55v19h75q7 0 12.5 -5t5.5 -13v-78h-17zM322 600q-33 0 -55 22
t-22 55v19h77q7 0 11.5 -5t4.5 -13v-78h-16z" />
    <glyph glyph-name="yacute" unicode="&#xfd;" horiz-adv-x="565" 
d="M223 622l32 77h86l-32 -47q-22 -30 -53 -30h-33zM109.5 -177q-19.5 3 -19.5 14v48l47 -2q34 -1 46 2.5t18.5 14t23.5 52.5l22 50l-202 503h73l163 -429l172 429h67l-226 -557q-21 -52 -37.5 -78.5t-38 -38t-57.5 -11.5q-32 0 -51.5 3z" />
    <glyph glyph-name="ydieresis" unicode="&#xff;" horiz-adv-x="565" 
d="M253 602q-33 0 -54.5 22t-21.5 55v19h75q7 0 12.5 -5t5.5 -13v-78h-17zM367 602q-33 0 -55 22t-22 55v19h77q7 0 11.5 -5t4.5 -13v-78h-16zM109.5 -177q-19.5 3 -19.5 14v48l47 -2q34 -1 46 2.5t18.5 14t23.5 52.5l22 50l-202 503h73l163 -429l172 429h67l-226 -557
q-21 -52 -37.5 -78.5t-38 -38t-57.5 -11.5q-32 0 -51.5 3z" />
    <glyph glyph-name="dotlessi" unicode="&#x131;" horiz-adv-x="155" 
d="M110 3h-65v525h65v-525z" />
    <glyph glyph-name="IJ" unicode="&#x132;" horiz-adv-x="645" 
d="M117 -2h-72v696h72v-696zM257.5 26.5q-49.5 43.5 -50.5 139.5l64 9l2 -25q7 -58 36.5 -83t92.5 -25q64 0 97.5 34.5t33.5 99.5v520h67v-526q0 -88 -53 -137.5t-146 -49.5q-94 0 -143.5 43.5z" />
    <glyph glyph-name="ij" unicode="&#x133;" horiz-adv-x="375" 
d="M105 608q-33 0 -46.5 17.5t-13.5 52.5v17h57q8 0 14 -5t6 -13v-69h-17zM116 -8h-63v511h63v-511zM305 608q-33 0 -46.5 17.5t-13.5 52.5v17h57q9 0 15 -5t6 -13l-1 -69h-17zM178 -145v53q47 -1 65.5 11.5t18.5 40.5v543h67v-548q0 -45 -25.5 -74t-83.5 -29q-22 0 -42 3z
" />
    <glyph glyph-name="OE" unicode="&#x152;" horiz-adv-x="1153" 
d="M740 331v-269h356v-65h-428v137q-45 -72 -118 -111.5t-165 -39.5q-100 0 -177 46.5t-120 129t-43 188.5q0 107 42.5 189.5t120 128t177.5 45.5q93 0 166 -38.5t117 -108.5v130h440l-16 -60h-352v-245h288l-15 -57h-273zM526 85q61 37 94.5 104.5t33.5 157.5
q0 88 -33.5 156t-94.5 105.5t-141 37.5q-79 0 -140 -38t-95 -105.5t-34 -155.5q0 -90 34 -157.5t95 -104.5t140 -37q80 0 141 37z" />
    <glyph glyph-name="oe" unicode="&#x153;" horiz-adv-x="1003" 
d="M902 150l46 2q-18 -85 -76.5 -132t-147.5 -47q-73 0 -132.5 39t-90.5 106q-31 -60 -86.5 -95t-126.5 -35q-69 0 -124.5 34.5t-87 95t-31.5 134.5q0 76 31 136.5t86.5 94.5t125.5 34q73 0 129 -35.5t86 -98.5q31 64 88 100.5t129 36.5q112 0 175 -80t63 -214h-420
q3 -54 28 -98.5t67 -70t94 -25.5q54 0 92 26t57 70q9 20 26 22zM597 412.5q-50 -48.5 -60 -127.5h354q-8 82 -53.5 129t-117.5 47q-73 0 -123 -48.5zM380.5 72.5q40.5 25.5 63.5 72t23 107.5t-23 108.5t-64 73.5t-92 26t-92 -26t-64 -73.5t-23 -108.5q0 -60 23 -106.5
t64 -72.5t92 -26q52 0 92.5 25.5z" />
    <glyph glyph-name="Scaron" unicode="&#x160;" horiz-adv-x="628" 
d="M142 31q-73 48 -97 138h71q22 -64 77.5 -96.5t139.5 -32.5t131.5 37t47.5 104q0 41 -28 69.5t-69.5 46.5t-112.5 41q-77 25 -125 46.5t-80.5 57t-32.5 87.5q0 85 64 132.5t170 47.5q205 0 251 -165h-69q-19 55 -65 83t-115 28q-79 0 -124.5 -32.5t-45.5 -89.5
q0 -37 26.5 -63t66.5 -42.5t109 -38.5q82 -26 131.5 -48.5t84.5 -60.5t35 -96q0 -94 -69 -147.5t-185 -53.5q-114 0 -187 48zM280 782l-57 92h10q16 0 36 -11.5t32 -32.5l21 -29l19 30q16 24 30.5 33.5t40.5 9.5h9l-55 -90q-9 -14 -19.5 -20.5t-24.5 -6.5q-28 0 -42 25z" />
    <glyph glyph-name="scaron" unicode="&#x161;" horiz-adv-x="628" 
d="M142 31q-73 48 -97 138h71q22 -64 77.5 -96.5t139.5 -32.5t131.5 37t47.5 104q0 41 -28 69.5t-69.5 46.5t-112.5 41q-77 25 -125 46.5t-80.5 57t-32.5 87.5q0 85 64 132.5t170 47.5q205 0 251 -165h-69q-19 55 -65 83t-115 28q-79 0 -124.5 -32.5t-45.5 -89.5
q0 -37 26.5 -63t66.5 -42.5t109 -38.5q82 -26 131.5 -48.5t84.5 -60.5t35 -96q0 -94 -69 -147.5t-185 -53.5q-114 0 -187 48zM270 778l-57 92h10q16 0 36 -11.5t32 -32.5l21 -29l19 30q16 24 30.5 33.5t40.5 9.5h9l-55 -90q-9 -14 -19.5 -20.5t-24.5 -6.5q-28 0 -42 25z" />
    <glyph glyph-name="Ydieresis" unicode="&#x178;" horiz-adv-x="665" 
d="M367 -2h-69v297l-253 399h76l212 -344l215 344h72l-253 -401v-295zM303 728q-33 0 -54.5 22t-21.5 55v19h75q7 0 12.5 -5t5.5 -13v-78h-17zM417 728q-33 0 -55 22t-22 55v19h77q7 0 11.5 -5t4.5 -13v-78h-16z" />
    <glyph glyph-name="zcaron" unicode="&#x17e;" horiz-adv-x="491" 
d="M446 -6h-401v57l301 394h-283l-1 59h373v-41l-310 -408h321v-61zM172 618l-57 92h10q16 0 36 -11.5t32 -32.5l21 -29l19 30q16 24 30.5 33.5t40.5 9.5h9l-55 -90q-9 -14 -19.5 -20.5t-24.5 -6.5q-28 0 -42 25z" />
    <glyph glyph-name="uni030C" unicode="&#x30c;" horiz-adv-x="0" 
d="M-195 618l-57 92h10q16 0 36 -11.5t32 -32.5l21 -29l19 30q16 24 30.5 33.5t40.5 9.5h9l-55 -90q-9 -14 -19.5 -20.5t-24.5 -6.5q-28 0 -42 25z" />
    <glyph glyph-name="endash" unicode="&#x2013;" horiz-adv-x="631" 
d="M65 250q-9 0 -14.5 7.5t-5.5 17.5q0 11 5.5 19t14.5 8h502q9 0 14.5 -7.5t5.5 -17.5q0 -11 -5.5 -19t-14.5 -8h-502z" />
    <glyph glyph-name="emdash" unicode="&#x2014;" horiz-adv-x="457" 
d="M66 166q-10 0 -15.5 7.5t-5.5 18.5t5.5 19t15.5 8h325q10 0 15 -7.5t5 -18.5t-5.5 -19t-14.5 -8h-325z" />
    <glyph glyph-name="quoteleft" unicode="&#x2018;" horiz-adv-x="158" 
d="M88 525q-22 1 -33.5 16t-9.5 42l10 113h35q11 0 17.5 -7t5.5 -18l-13 -147z" />
    <glyph glyph-name="quoteright" unicode="&#x2019;" horiz-adv-x="158" 
d="M88 525q-22 1 -33.5 16t-9.5 42l10 113h35q11 0 17.5 -7t5.5 -18l-13 -147z" />
    <glyph glyph-name="quotesinglbase" unicode="&#x201a;" horiz-adv-x="158" 
d="M88 -35q-22 1 -33.5 16t-9.5 42l10 113h35q11 0 17.5 -7t5.5 -18l-13 -147z" />
    <glyph glyph-name="quotedblleft" unicode="&#x201c;" horiz-adv-x="315" 
d="M88 525q-22 1 -33.5 16t-9.5 42l10 113h35q11 0 17.5 -7t5.5 -18l-13 -147zM245 525q-22 1 -33.5 16t-9.5 42l10 113h35q11 0 17.5 -7t5.5 -18l-13 -147z" />
    <glyph glyph-name="quotedblright" unicode="&#x201d;" horiz-adv-x="311" 
d="M88 525q-22 1 -33.5 16t-9.5 42l10 113h35q11 0 17.5 -7t5.5 -18l-13 -147zM241 525q-22 1 -33.5 16t-9.5 42l10 113h35q11 0 17.5 -7t5.5 -18l-13 -147z" />
    <glyph glyph-name="quotedblbase" unicode="&#x201e;" horiz-adv-x="313" 
d="M88 -35q-22 1 -33.5 16t-9.5 42l10 113h35q11 0 17.5 -7t5.5 -18l-13 -147zM243 -35q-22 1 -33.5 16t-9.5 42l10 113h35q11 0 17.5 -7t5.5 -18l-13 -147z" />
    <glyph glyph-name="dagger" unicode="&#x2020;" horiz-adv-x="506" 
d="M282 40h-58v360h-179v56h179v185h58v-185h179v-56h-179v-360z" />
    <glyph glyph-name="bullet" unicode="&#x2022;" horiz-adv-x="174" 
d="M109 213q-28 0 -46 18t-18 46v21h64q8 0 14 -6t6 -15v-64h-20z" />
    <glyph glyph-name="ellipsis" unicode="&#x2026;" horiz-adv-x="526" 
d="M123 13q-34 0 -56 22t-22 56v18h77q7 0 12 -5t5 -12v-79h-16zM296 13q-34 0 -56 22t-22 56v18h77q7 0 12 -5t5 -12v-79h-16zM465 13q-34 0 -56 22t-22 56v18h77q7 0 12 -5t5 -12v-79h-16z" />
    <glyph glyph-name="perthousand" unicode="&#x2030;" horiz-adv-x="1045" 
d="M84 352.5q-39 49.5 -39 128.5q0 80 40 129.5t106 49.5t104.5 -49.5t38.5 -129.5q0 -81 -38 -129.5t-105 -48.5q-68 0 -107 49.5zM204 20h-52l358 625h53zM255.5 386q24.5 37 24.5 95q0 57 -25 94.5t-64 37.5q-40 0 -65 -36.5t-25 -95.5q0 -57 25.5 -94.5t64.5 -37.5
q40 0 64.5 37zM432 55.5q-39 49.5 -39 129.5t39.5 129.5t105.5 49.5q65 0 104.5 -50t39.5 -129q0 -80 -39.5 -129.5t-104.5 -49.5q-67 0 -106 49.5zM750.5 56q-39.5 50 -39.5 129q0 80 40 129.5t105 49.5q66 0 105 -49.5t39 -129.5q0 -79 -39 -129t-105 -50t-105.5 50z
M603 90q25 37 25 95q0 56 -25.5 94t-64.5 38q-40 0 -65.5 -37t-25.5 -95q0 -56 26 -94t65 -38q40 0 65 37zM921 90q25 37 25 95q0 56 -25.5 94t-64.5 38q-40 0 -65.5 -37t-25.5 -95q0 -56 26 -94t65 -38q40 0 65 37z" />
    <glyph glyph-name="guilsinglleft" unicode="&#x2039;" horiz-adv-x="392" 
d="M347 191v-48l-302 133v51l302 132v-47l-253 -110z" />
    <glyph glyph-name="guilsinglright" unicode="&#x203a;" horiz-adv-x="392" 
d="M347 276l-302 -133v48l253 111l-253 110v47l302 -132v-51z" />
    <glyph glyph-name="Euro" unicode="&#x20ac;" horiz-adv-x="835" 
d="M790 242q-4 -78 -42 -136.5t-102 -90t-145 -31.5q-104 0 -182 54t-115 147h-143q-9 0 -12 2.5t-3 11.5v47h140q-11 50 -11 101v12h-129v46q0 10 3 12.5t12 2.5h119q13 87 57 153t112.5 102t155.5 36q111 0 184 -56t91 -154h-65q-15 69 -72.5 109t-139.5 40
q-100 0 -168 -62.5t-86 -167.5h248v-46q0 -9 -2.5 -12t-12.5 -3h-239v-12q0 -56 13 -101h226q10 0 12.5 -3t2.5 -12v-46h-218q33 -65 91.5 -102t133.5 -37q91 0 151 52.5t70 143.5h65z" />
    <glyph glyph-name="trademark" unicode="&#x2122;" horiz-adv-x="709" 
d="M377 325h-31v327h48l111 -285l110 285h48v-327h-33l1 277l-114 -277h-27l-112 277zM189 326h-33v297h-111v28h255v-28h-111v-297z" />
    <glyph glyph-name="A.001" horiz-adv-x="601" 
d="M104 -2h-72l257 696h87l257 -696h-78l-76 219h-298zM332 621l-132 -350h261z" />
    <glyph glyph-name="F.001" horiz-adv-x="397" 
d="M101 -2h-69v696h440l-18 -60h-353v-245h288l-15 -57h-273v-334z" />
    <glyph glyph-name="P.001" horiz-adv-x="527" 
d="M32 -2v696h288q62 0 109.5 -24.5t73.5 -69t26 -102.5q0 -98 -56 -148.5t-165 -50.5h-204v-301h-72zM300 353q77 0 117.5 36.5t40.5 105.5q0 67 -39.5 103.5t-113.5 36.5h-201v-282h196z" />
    <glyph glyph-name="T.001" horiz-adv-x="386" 
d="M341 -2h-71v636h-238v60h546v-60h-237v-636z" />
    <glyph glyph-name="V.001" horiz-adv-x="486" 
d="M357 -1h-85l-240 694h74l210 -614l212 614h71z" />
    <glyph glyph-name="W.001" horiz-adv-x="804" 
d="M285 -5h-77l-176 702h69l148 -598l165 598h87l159 -596l154 596h72l-189 -702h-76l-164 616z" />
    <glyph glyph-name="X.001" horiz-adv-x="402" 
d="M13 -2h-80l239 357l-220 339h79l184 -294l186 294h76l-225 -340l232 -356h-83l-191 309z" />
    <glyph glyph-name="Y.001" horiz-adv-x="405" 
d="M354 -2h-69v297l-253 399h76l212 -344l215 344h72l-253 -401v-295z" />
    <glyph glyph-name="X.002" horiz-adv-x="499" 
d="M112 -2h-80l239 357l-220 339h79l184 -294l186 294h76l-225 -340l232 -356h-83l-191 309z" />
    <glyph glyph-name="a.001" horiz-adv-x="489" 
d="M63.5 227q31.5 34 75 46.5t112.5 20.5q48 6 75 12t45 20t18 40q0 47 -33.5 72.5t-93.5 25.5q-61 0 -99 -27t-44 -77l-60 -6q4 76 57.5 119.5t144.5 43.5q95 0 141.5 -40t46.5 -120v-245q0 -27 6.5 -43t36.5 -71q-12 -2 -16 -2q-33 0 -56 29t-27 82q-28 -62 -79.5 -91
t-109.5 -29q-80 0 -126 38t-46 103t31.5 99zM126.5 64.5q30.5 -23.5 84.5 -23.5q48 1 91.5 30t68.5 83.5t22 124.5q-34 -29 -134 -40q-87 -8 -125 -37t-38 -72q0 -42 30.5 -65.5z" />
    <glyph glyph-name="f.001" horiz-adv-x="260" 
d="M117 -9v452h-72v60h72v86q0 59 34 87t97 26h13l27 -2l-13 -57l-24 1q-39 0 -54.5 -12.5t-15.5 -43.5v-85h96v-60h-96v-452h-64z" />
    <glyph glyph-name="j.001" horiz-adv-x="141" 
d="M79 608q-33 0 -46.5 17.5t-13.5 52.5v17h57q9 0 15 -5t6 -13l-1 -69h-17zM-48 -145v53q47 -1 65.5 11.5t18.5 40.5v543h67v-548q0 -45 -25.5 -74t-83.5 -29q-22 0 -42 3z" />
    <glyph glyph-name="k.001" horiz-adv-x="331" 
d="M32 -6v704h66v-451l168 244q7 10 22 10h73l-151 -214l178 -293h-77l-150 257l-65 -91l2 -148q0 -8 -4.5 -13t-11.5 -5h-50z" />
    <glyph glyph-name="r.001" horiz-adv-x="292" 
d="M32 -5v511h34q18 0 23 -27.5t5 -65.5q20 48 66 72.5t93 25.5q23 0 41 -6v-59q-22 3 -41 3q-70 -2 -112 -44.5t-42 -128.5v-281h-67z" />
    <glyph glyph-name="t.001" horiz-adv-x="311" 
d="M103 452h-27q-18 0 -30 8t-12 36v21h69v183h68v-183h92v-65h-92v-370q0 -14 5 -21t20 -7q37 0 55 -4.5t18 -23.5v-29q-42 -5 -66 -5q-54 0 -77 21.5t-23 72.5v366z" />
    <glyph glyph-name="v.001" horiz-adv-x="424" 
d="M291 -9h-74l-185 517h73l152 -438l155 438h69z" />
    <glyph glyph-name="w.001" horiz-adv-x="665" 
d="M255 -9h-72l-154 512h71l120 -423l118 423h71l112 -420l127 420h67l-160 -512h-70l-114 417z" />
    <glyph glyph-name="x.001" horiz-adv-x="453" 
d="M32 -8l195 268l-172 243h77l133 -193l129 181q8 12 24 12h60l-174 -240l203 -271h-63q-14 0 -23 10l-156 214l-149 -212q-4 -7 -11 -9.5t-19 -2.5h-54z" />
    <glyph glyph-name="y.001" horiz-adv-x="465" 
d="M99.5 -177q-19.5 3 -19.5 14v48l47 -2q34 -1 46 2.5t18.5 14t23.5 52.5l22 50l-202 503h73l163 -429l172 429h67l-226 -557q-21 -52 -37.5 -78.5t-38 -38t-57.5 -11.5q-32 0 -51.5 3z" />
    <glyph glyph-name="v.002" horiz-adv-x="349" 
d="M216 -9h-74l-185 517h73l152 -438l155 438h69z" />
    <glyph glyph-name="w.002" horiz-adv-x="594" 
d="M183 -9h-72l-154 512h71l120 -423l118 423h71l112 -420l127 420h67l-160 -512h-70l-114 417z" />
    <glyph glyph-name="x.002" horiz-adv-x="378" 
d="M-43 -8l195 268l-172 243h77l133 -193l129 181q8 12 24 12h60l-174 -240l203 -271h-63q-14 0 -23 10l-156 214l-149 -212q-4 -7 -11 -9.5t-19 -2.5h-54z" />
    <glyph glyph-name="y.002" horiz-adv-x="415" 
d="M49.5 -177q-19.5 3 -19.5 14v48l47 -2q34 -1 46 2.5t18.5 14t23.5 52.5l22 50l-202 503h73l163 -429l172 429h67l-226 -557q-21 -52 -37.5 -78.5t-38 -38t-57.5 -11.5q-32 0 -51.5 3z" />
    <glyph glyph-name="v.003" horiz-adv-x="428" 
d="M216 -9h-74l-185 517h73l152 -438l155 438h69z" />
    <glyph glyph-name="w.003" horiz-adv-x="673" 
d="M183 -9h-72l-154 512h71l120 -423l118 423h71l112 -420l127 420h67l-160 -512h-70l-114 417z" />
    <glyph glyph-name="x.003" horiz-adv-x="457" 
d="M-43 -8l195 268l-172 243h77l133 -193l129 181q8 12 24 12h60l-174 -240l203 -271h-63q-14 0 -23 10l-156 214l-149 -212q-4 -7 -11 -9.5t-19 -2.5h-54z" />
    <glyph glyph-name="y.003" horiz-adv-x="468" 
d="M39.5 -177q-19.5 3 -19.5 14v48l47 -2q34 -1 46 2.5t18.5 14t23.5 52.5l22 50l-202 503h73l163 -429l172 429h67l-226 -557q-21 -52 -37.5 -78.5t-38 -38t-57.5 -11.5q-32 0 -51.5 3z" />
    <glyph glyph-name="uni0308.case" horiz-adv-x="0" 
d="M-215 606q-33 0 -54.5 22t-21.5 55v19h75q7 0 12.5 -5t5.5 -13v-78h-17zM-101 606q-33 0 -55 22t-22 55v19h77q7 0 11.5 -5t4.5 -13v-78h-16z" />
    <glyph glyph-name="gravecomb.case" horiz-adv-x="0" 
d="M-100 625q-16 0 -29 7t-25 22l-35 50h92l34 -79h-37z" />
    <glyph glyph-name="acutecomb.case" horiz-adv-x="0" 
d="M-193 626l32 77h86l-32 -47q-22 -30 -53 -30h-33z" />
    <glyph glyph-name="uni0302.case" horiz-adv-x="0" 
d="M-196 687q16 24 43 24q30 0 45 -25l57 -94h-5q-26 0 -44.5 10.5t-34.5 33.5l-19 30l-19 -30q-13 -24 -31 -34t-46 -10h-5z" />
    <glyph glyph-name="tildecomb.case" horiz-adv-x="0" 
d="M-183 648q-10 5 -17 5q-8 0 -13 -5t-6 -13h-29q-2 25 14 42t39 17q17 0 33 -10l57 -33q9 -6 16 -6q16 0 15 21h34q2 -26 -13.5 -44t-38.5 -18q-16 0 -32 10z" />
    <glyph glyph-name="webhance" horiz-adv-x="291" 
d="M251 16h-211v664h211v-664zM107 628v-54h71v54h-14v-38h-17v34h-12v-34h-15v38h-13zM157 499q8 5 12 9q6 6 7 10q3 8 3 15q0 4 -2 12l-5 9q-4 4 -10 6q-3 2 -12 4v-15q4 -1 12 -5q4 -4 4 -11q0 -4 -2 -10l-5 -5l-8 -4q-3 -1 -8 -1q-6 0 -9 1q-6 2 -9 4l-5 5q-2 6 -2 10
l1 5q2 2 3 5l3 3q1 1 3 1l2 1v15q-5 0 -10 -3q-4 -1 -8 -7q-3 -3 -5 -9q-2 -8 -2 -11q0 -5 2 -15q3 -5 9 -10q5 -5 12 -9q5 -1 15 -1q9 0 14 1zM107 442v-15h71v15h-49l49 30v15h-71v-15h47zM107 378l71 -27v16l-16 6v26l16 6v16l-71 -27v-16zM150 396v-19l-25 9zM107 300
v-14h71v14h-31v30h31v15h-71v-15h27v-30h-27zM107 215h71v35q0 2 -2 10q-2 6 -3 7q-3 5 -7 6q-6 2 -9 2q-7 0 -11 -3q-6 -4 -7 -10l-6 8q-3 1 -8 1q-7 0 -9 -1q-3 -1 -5 -5q-2 -2 -4 -7v-43zM146 248q0 3 2 9q3 3 8 3l5 -2l2 -2l1 -4l1 -4v-17h-19v17zM119 250q0 2 1 3l3 3
q1 1 3 1q7 0 8 -3t1 -7v-16h-16v19zM107 204v-53h71v54h-14v-38h-17v34h-12v-34h-15v37h-13zM107 66v-15l71 18v16l-49 12v1l49 12v15l-71 19v-15l49 -12v-1l-49 -12v-14l48 -13z" />
    </font>
</defs>
</svg>
